<svg xmlns="http://www.w3.org/2000/svg" width="116.109" height="45.151" viewBox="0 0 116.109 45.151">
  <g id="jse-logo-wh" transform="translate(-0.109 0.043)">
    <path id="Path_7277" data-name="Path 7277" d="M78.2,34.454c.43-.269.807-.484,1.237-.7.7-.376,1.4-.753,2.044-1.183a.416.416,0,0,1,.645.161,17.7,17.7,0,0,0,9.358,7.153,16.7,16.7,0,0,0,9.2.323,11.205,11.205,0,0,0,5.539-3.119,6.6,6.6,0,0,0,2.044-4.733,5.819,5.819,0,0,0-2.85-5.271,19.286,19.286,0,0,0-5.378-2.1c-2.528-.592-5.055-1.076-7.583-1.667a28.686,28.686,0,0,1-6.884-2.259A9.718,9.718,0,0,1,81,16.706a9.456,9.456,0,0,1-.914-5A11.431,11.431,0,0,1,83.2,4.229a12.161,12.161,0,0,1,4.087-2.743A22.614,22.614,0,0,1,94.818-.02,18.6,18.6,0,0,1,101,.733a17.93,17.93,0,0,1,6.938,3.818A17.516,17.516,0,0,1,110.9,7.886c.215.323.215.484-.161.7-.968.538-1.936,1.076-2.9,1.667-.269.161-.376.108-.538-.108a14.157,14.157,0,0,0-3.98-3.818,13.463,13.463,0,0,0-6.83-2.151,18.521,18.521,0,0,0-5.97.645A8.21,8.21,0,0,0,85.084,8.8a6.787,6.787,0,0,0-.323,6.024,5.7,5.7,0,0,0,2.8,2.582,22.333,22.333,0,0,0,4.948,1.667c2.9.645,5.808,1.237,8.713,1.882a20.147,20.147,0,0,1,6.938,2.85,9.74,9.74,0,0,1,4.195,6.4,10.917,10.917,0,0,1-2.958,9.681,13.934,13.934,0,0,1-5.7,3.765,25.7,25.7,0,0,1-4.464,1.076,14.878,14.878,0,0,1-4.087.108A23.645,23.645,0,0,1,87.719,42.9a22.388,22.388,0,0,1-9.25-8.067,2.924,2.924,0,0,0-.215-.43Z" transform="translate(-36.093 0)" fill="#fff"/>
    <path id="Path_7278" data-name="Path 7278" d="M31.835,19.5c.484,0,.592.108.592.592,0,5.7.054,11.348,0,17.049a17.852,17.852,0,0,1-4.733,12.208,14.187,14.187,0,0,1-5.755,3.711,18.908,18.908,0,0,1-7.745,1.022,16.117,16.117,0,0,1-9.573-3.765,14.868,14.868,0,0,1-4.464-6.83C.05,43.164.1,43,.481,42.949c1.076-.215,2.151-.484,3.227-.753.323-.054.43,0,.538.269a10.769,10.769,0,0,0,2.582,4.141,10.6,10.6,0,0,0,4.679,2.743,13.928,13.928,0,0,0,4.464.538c3.657-.161,6.938-1.291,9.412-4.195a11.815,11.815,0,0,0,2.474-5.163,18.387,18.387,0,0,0,.43-4.518V24.448q0-.645-.7-.645H10.914c-.376,0-.43-.108-.43-.43V20.038c0-.376.161-.43.484-.43H31.889Z" transform="translate(0 -9.033)" fill="#fff"/>
    <path id="Path_7279" data-name="Path 7279" d="M190.649,74H161.661a.172.172,0,0,0-.161.161h0V77.98a.172.172,0,0,0,.161.161h28.988a.172.172,0,0,0,.161-.161h0V74.161a.172.172,0,0,0-.161-.161Z" transform="translate(-74.593 -34.222)" fill="#fff"/>
    <path id="Path_7280" data-name="Path 7280" d="M190.649,46.7H161.661a.172.172,0,0,0-.161.161h0V50.68a.172.172,0,0,0,.161.161h28.988a.172.172,0,0,0,.161-.161h0V46.861a.172.172,0,0,0-.161-.161Z" transform="translate(-74.593 -21.604)" fill="#fff"/>
    <path id="Path_7281" data-name="Path 7281" d="M190.649,29.2H161.661a.172.172,0,0,0-.161.161h0V33.18a.172.172,0,0,0,.161.161h28.988a.172.172,0,0,0,.161-.161h0V29.361a.172.172,0,0,0-.161-.161Z" transform="translate(-74.593 -13.516)" fill="#fff"/>
    <path id="Path_7282" data-name="Path 7282" d="M190.649,2H161.661a.172.172,0,0,0-.161.161h0V5.98a.172.172,0,0,0,.161.161h28.988a.172.172,0,0,0,.161-.161h0V2.161A.172.172,0,0,0,190.649,2Z" transform="translate(-74.593 -0.944)" fill="#fff"/>
    <path id="Path_7283" data-name="Path 7283" d="M41.135,2H19.461a.172.172,0,0,0-.161.161V5.98a.172.172,0,0,0,.161.161H41.135A.172.172,0,0,0,41.3,5.98V2.161A.143.143,0,0,0,41.135,2Z" transform="translate(-8.87 -0.944)" fill="#fff"/>
  </g>
</svg>
