<svg xmlns="http://www.w3.org/2000/svg" xmlns:xlink="http://www.w3.org/1999/xlink" width="122" height="112" viewBox="0 0 122 112">
  <defs>
    <clipPath id="clip-path">
      <rect id="Rectangle_2004" data-name="Rectangle 2004" width="69.426" height="74.048" transform="translate(0 0)" fill="#eaf893"/>
    </clipPath>
  </defs>
  <g id="Group_3324" data-name="Group 3324" transform="translate(-596 -2864)">
    <g id="Group_3321" data-name="Group 3321" transform="translate(659 140)">
      <g id="Rectangle_2025" data-name="Rectangle 2025" transform="translate(-63 2724)" fill="none" stroke="#fff" stroke-width="2">
        <rect width="122" height="112" rx="17" stroke="none"/>
        <rect x="1" y="1" width="120" height="110" rx="16" fill="none"/>
      </g>
      <g id="Rectangle_2026" data-name="Rectangle 2026" transform="translate(-63 2724)" fill="#1f4659" stroke="#fff" stroke-width="2" style="mix-blend-mode: multiply;isolation: isolate">
        <rect width="122" height="112" rx="17" stroke="none"/>
        <rect x="1" y="1" width="120" height="110" rx="16" fill="none"/>
      </g>
    </g>
    <g id="Group_3207" data-name="Group 3207" transform="translate(623 2883)">
      <g id="Group_3206" data-name="Group 3206" clip-path="url(#clip-path)">
        <path id="Path_7143" data-name="Path 7143" d="M53.723,45.815a1,1,0,0,0,1-1V39.191c0-4.574-4.7-6.921-8.237-8.287a66.349,66.349,0,0,0-7.164-2.168V26.558c4.215-2.389,7.177-7.95,7.177-14.413,0-.035,0-.068-.005-.1,0-.086.005-.171.005-.257,0-.194-.02-.382-.029-.573a1,1,0,0,0,.016-.4,1.147,1.147,0,0,0-.042-.111,11.783,11.783,0,0,0-23.516,1.083c0,.077,0,.155.005.257a.86.86,0,0,0-.005.1c0,6.464,2.962,12.024,7.176,14.413v2.177A66.689,66.689,0,0,0,22.94,30.9C19.4,32.27,14.7,34.617,14.7,39.191v5.623a1,1,0,0,0,2,0V39.191c0-3.345,3.97-5.267,6.957-6.421,1-.388,2.139-.757,3.224-1.082.506,4.587,3.819,8.144,7.828,8.144s7.323-3.557,7.829-8.144c1.085.325,2.22.694,3.223,1.082,2.987,1.154,6.958,3.076,6.958,6.421v5.624a1,1,0,0,0,1,1M34.713,2a9.794,9.794,0,0,1,9.635,8.132c-6.03.8-8.145-.65-9.855-1.831A6.7,6.7,0,0,0,30.7,6.77,8.971,8.971,0,0,0,25.582,8.3,9.791,9.791,0,0,1,34.713,2M24.928,12.194a.992.992,0,0,0,.006-.154l-.006-.254c0-.139.015-.274.021-.412a8.008,8.008,0,0,1,5.686-2.6,4.829,4.829,0,0,1,2.721,1.177,11.962,11.962,0,0,0,7.8,2.419,26.25,26.25,0,0,0,3.331-.233.932.932,0,0,0,.007.14c-.049,7.475-4.42,13.536-9.785,13.536-5.384,0-9.766-6.1-9.785-13.614m9.785,25.638c-3.076,0-5.606-2.95-5.876-6.7,1.426-.387,2.472-.631,2.494-.636a1,1,0,0,0,.773-.975V27.408a8.709,8.709,0,0,0,5.218,0v2.115a1,1,0,0,0,.774.974c.022.005,1.068.25,2.493.636-.269,3.749-2.8,6.7-5.876,6.7" fill="#eaf893"/>
        <path id="Path_7144" data-name="Path 7144" d="M53.549,31.3a1,1,0,1,0-.525,1.93c8.883,2.419,14.4,6.489,14.4,10.622,0,4.052-5.355,8.077-13.974,10.5a1,1,0,0,0,.27,1.963.986.986,0,0,0,.272-.038c9.807-2.762,15.432-7.293,15.432-12.43,0-5.152-5.935-9.844-15.877-12.552" fill="#eaf893"/>
        <path id="Path_7145" data-name="Path 7145" d="M43.582,58.248l-.654,1.081a1,1,0,1,0,1.711,1.035l1.715-2.836a.947.947,0,0,0,.059-.153,1.085,1.085,0,0,0,.055-.141,1.03,1.03,0,0,0,.018-.3c0-.022.007-.042,0-.064l0-.007a.97.97,0,0,0-.121-.348.9.9,0,0,0-.082-.1.983.983,0,0,0-.125-.156l-2.526-2.212a1,1,0,1,0-1.317,1.5l.838.735a78.814,78.814,0,0,1-8.439.451C16.981,56.736,2,50.836,2,43.852c0-4.133,5.519-8.2,14.4-10.624a1,1,0,1,0-.526-1.929C5.936,34.007,0,38.7,0,43.852,0,52.2,15.249,58.736,34.714,58.736a81.026,81.026,0,0,0,8.868-.488" fill="#eaf893"/>
        <path id="Path_7146" data-name="Path 7146" d="M28.219,68.914a2.09,2.09,0,0,0,1.115-1.807,2.726,2.726,0,0,0-.184-1.015,2.151,2.151,0,0,0-.564-.812,2.609,2.609,0,0,0-.964-.537,4.5,4.5,0,0,0-1.383-.19,4.141,4.141,0,0,0-.82.079,5.713,5.713,0,0,0-.728.2,4.8,4.8,0,0,0-.623.262q-.282.144-.492.275l.695,1.43a4.4,4.4,0,0,1,.872-.42,3.109,3.109,0,0,1,1.043-.17,1.643,1.643,0,0,1,.44.059,1.156,1.156,0,0,1,.38.177.941.941,0,0,1,.269.3.87.87,0,0,1,.1.433,1.076,1.076,0,0,1-.125.544.926.926,0,0,1-.334.341,1.472,1.472,0,0,1-.479.178,2.907,2.907,0,0,1-.557.052h-.866v1.574h.761a4.681,4.681,0,0,1,.767.059,1.844,1.844,0,0,1,.623.209,1.166,1.166,0,0,1,.413.394,1.228,1.228,0,0,1-.269,1.515,2.092,2.092,0,0,1-1.324.341,4.533,4.533,0,0,1-1.318-.164c-.355-.109-.645-.212-.873-.308l-.38,1.626a3.869,3.869,0,0,0,.472.17q.3.091.669.171t.761.125a6.578,6.578,0,0,0,.747.045,5.481,5.481,0,0,0,1.633-.216,3.166,3.166,0,0,0,1.135-.6,2.347,2.347,0,0,0,.655-.919,3.14,3.14,0,0,0,.21-1.163,2.388,2.388,0,0,0-.387-1.372,2.358,2.358,0,0,0-1.095-.86" fill="#eaf893"/>
        <path id="Path_7147" data-name="Path 7147" d="M36.8,68.907a2.679,2.679,0,0,0-.977-.623,4.051,4.051,0,0,0-1.45-.229,3.3,3.3,0,0,0-.564.052,2.471,2.471,0,0,0-.59.184,2.619,2.619,0,0,1,.551-.912,2.9,2.9,0,0,1,.833-.609,4.113,4.113,0,0,1,1.062-.348,7.42,7.42,0,0,1,1.253-.124c-.018-.28-.035-.549-.053-.807s-.035-.523-.052-.793a7.739,7.739,0,0,0-2.407.373,5.081,5.081,0,0,0-1.823,1.049,4.567,4.567,0,0,0-1.16,1.7,6.179,6.179,0,0,0-.407,2.321A4.375,4.375,0,0,0,31.864,73a3.041,3.041,0,0,0,2.493,1.036,3.213,3.213,0,0,0,1.409-.288,2.961,2.961,0,0,0,1.561-1.732,3.274,3.274,0,0,0,.19-1.075,3.58,3.58,0,0,0-.171-1.115,2.354,2.354,0,0,0-.55-.918M35.5,71.458a1.487,1.487,0,0,1-.223.466,1.282,1.282,0,0,1-.381.347,1.058,1.058,0,0,1-.557.138,1.143,1.143,0,0,1-.655-.177,1.255,1.255,0,0,1-.42-.492,2.471,2.471,0,0,1-.223-.734,5.757,5.757,0,0,1-.065-.892c0-.053,0-.114.006-.184s.006-.122.006-.157a1.831,1.831,0,0,1,.512-.144,3.905,3.905,0,0,1,.616-.053,1.241,1.241,0,0,1,1.456,1.39,1.814,1.814,0,0,1-.072.492" fill="#eaf893"/>
        <path id="Path_7148" data-name="Path 7148" d="M41.7,64.554a2.89,2.89,0,0,0-1.351.314,2.959,2.959,0,0,0-1.035.918,4.453,4.453,0,0,0-.663,1.482,8.025,8.025,0,0,0-.23,2.02,6.02,6.02,0,0,0,.873,3.521,2.973,2.973,0,0,0,4.813,0,6.02,6.02,0,0,0,.872-3.521,6,6,0,0,0-.872-3.508A2.792,2.792,0,0,0,41.7,64.554m1.22,5.98a4.487,4.487,0,0,1-.21.97,1.493,1.493,0,0,1-.393.63.892.892,0,0,1-.617.223.867.867,0,0,1-.61-.223,1.587,1.587,0,0,1-.393-.63,4.191,4.191,0,0,1-.216-.97,10.772,10.772,0,0,1-.066-1.246,10.6,10.6,0,0,1,.066-1.239,4.184,4.184,0,0,1,.216-.964,1.594,1.594,0,0,1,.393-.63.872.872,0,0,1,.61-.223.9.9,0,0,1,.617.223,1.5,1.5,0,0,1,.393.63,4.481,4.481,0,0,1,.21.964,10.819,10.819,0,0,1,.066,1.239,11,11,0,0,1-.066,1.246" fill="#eaf893"/>
        <path id="Path_7149" data-name="Path 7149" d="M49.281,64.154a1.926,1.926,0,0,0-.676-.407,2.426,2.426,0,0,0-1.613,0,1.913,1.913,0,0,0-.675.407,1.982,1.982,0,0,0-.459.642,2.178,2.178,0,0,0,0,1.692,1.982,1.982,0,0,0,.459.642,1.913,1.913,0,0,0,.675.407,2.426,2.426,0,0,0,1.613,0,1.926,1.926,0,0,0,.676-.407,2.045,2.045,0,0,0,0-2.976M48.3,66.186a.714.714,0,0,1-1,0,.776.776,0,0,1,0-1.089.714.714,0,0,1,1,0,.776.776,0,0,1,0,1.089" fill="#eaf893"/>
      </g>
    </g>
  </g>
</svg>
