<svg xmlns="http://www.w3.org/2000/svg" width="30" height="30" viewBox="0 0 30 30">
  <path id="calendar-dates" d="M10.669.25a1.024,1.024,0,0,1,1.047,1v.333h5.14c1.517,0,2.812,0,3.929.032V1.25a1.048,1.048,0,0,1,2.093,0v.489a9.369,9.369,0,0,1,3.229.825A9.22,9.22,0,0,1,30.223,6.5a8.945,8.945,0,0,1,.91,3.549c.117,1.375.117,3.088.117,5.291V16.5c0,2.2,0,3.916-.117,5.291a8.945,8.945,0,0,1-.91,3.549,9.22,9.22,0,0,1-4.116,3.933,10.074,10.074,0,0,1-3.714.869c-1.439.112-3.232.112-5.537.112H13.911c-3.013,0-4.8,0-6.271-.477A9.219,9.219,0,0,1,1.75,24.143c-.5-1.409-.5-3.113-.5-5.992v-.9a1.024,1.024,0,0,1,1.047-1,1.024,1.024,0,0,1,1.047,1v.667c0,3.184.014,4.528.389,5.584a7.171,7.171,0,0,0,4.581,4.377c1.105.359,2.512.372,5.844.372h2.651c2.362,0,4.07,0,5.414-.107a7.958,7.958,0,0,0,2.936-.656,7.171,7.171,0,0,0,3.2-3.06,7.075,7.075,0,0,0,.688-2.8c.109-1.284.11-2.917.11-5.173V15.383c0-2.257,0-3.889-.112-5.173a7.047,7.047,0,0,0-.687-2.8,7.171,7.171,0,0,0-3.2-3.06,6.945,6.945,0,0,0-2.28-.593v1.5a1.048,1.048,0,0,1-2.093,0V3.617q-1.988-.044-3.977-.033H11.715V5.25a1.048,1.048,0,0,1-2.093,0V3.583H9.036a5.571,5.571,0,0,0-5.693,5.44.625.625,0,0,0,.638.609H23.227a1,1,0,1,1,0,2H3.981A2.672,2.672,0,0,1,1.25,9.023a7.619,7.619,0,0,1,7.786-7.44h.586V1.25A1.024,1.024,0,0,1,10.669.25Zm1.4,17a1.4,1.4,0,1,1-1.4-1.333A1.365,1.365,0,0,1,12.064,17.25Zm-1.4,6.667a1.335,1.335,0,1,0-1.4-1.333A1.365,1.365,0,0,0,10.669,23.917Zm6.977-1.333a1.4,1.4,0,1,1-1.4-1.333A1.365,1.365,0,0,1,17.645,22.583Zm4.186,1.333a1.335,1.335,0,1,0-1.4-1.333A1.365,1.365,0,0,0,21.831,23.917ZM17.645,17.25a1.4,1.4,0,1,1-1.4-1.333A1.365,1.365,0,0,1,17.645,17.25Zm4.186,1.333a1.335,1.335,0,1,0-1.4-1.333A1.365,1.365,0,0,0,21.831,18.583Z" transform="translate(-1.25 -0.25)" fill="#43A9AC" fill-rule="evenodd"/>
</svg>
