<svg xmlns="http://www.w3.org/2000/svg" width="35" height="35" viewBox="0 0 35 35">
  <path id="calendar-dates" d="M12.238.25a1.2,1.2,0,0,1,1.221,1.167v.389h6c1.77,0,3.28,0,4.584.037V1.417a1.222,1.222,0,0,1,2.442,0v.571a10.93,10.93,0,0,1,3.767.963,10.757,10.757,0,0,1,4.8,4.589,10.436,10.436,0,0,1,1.061,4.141c.137,1.6.137,3.6.137,6.172V19.2c0,2.57,0,4.569-.137,6.172a10.436,10.436,0,0,1-1.061,4.141,10.757,10.757,0,0,1-4.8,4.589,11.753,11.753,0,0,1-4.333,1.014c-1.678.131-3.77.131-6.46.131H16.022c-3.515,0-5.6,0-7.316-.557a10.756,10.756,0,0,1-6.873-6.568c-.583-1.644-.583-3.632-.583-6.991V20.083a1.2,1.2,0,0,1,1.221-1.167,1.2,1.2,0,0,1,1.221,1.167v.778c0,3.715.016,5.283.454,6.515A8.366,8.366,0,0,0,9.49,32.483c1.289.418,2.93.434,6.818.434H19.4c2.756,0,4.749,0,6.316-.124a9.284,9.284,0,0,0,3.425-.765,8.366,8.366,0,0,0,3.734-3.57,8.254,8.254,0,0,0,.8-3.271c.127-1.5.129-3.4.129-6.036V17.906c0-2.634,0-4.538-.13-6.036a8.222,8.222,0,0,0-.8-3.271,8.366,8.366,0,0,0-3.734-3.57,8.1,8.1,0,0,0-2.66-.692V6.083a1.222,1.222,0,0,1-2.442,0V4.178q-2.319-.052-4.64-.039H13.459V6.083a1.222,1.222,0,0,1-2.442,0V4.139h-.684a6.5,6.5,0,0,0-6.642,6.347.729.729,0,0,0,.744.711H26.89a1.168,1.168,0,1,1,0,2.333H4.436A3.117,3.117,0,0,1,1.25,10.486a8.889,8.889,0,0,1,9.084-8.68h.684V1.417A1.2,1.2,0,0,1,12.238.25Zm1.628,19.833a1.63,1.63,0,1,1-1.628-1.556A1.593,1.593,0,0,1,13.866,20.083Zm-1.628,7.778a1.557,1.557,0,1,0-1.628-1.556A1.593,1.593,0,0,0,12.238,27.861Zm8.14-1.556A1.63,1.63,0,1,1,18.75,24.75,1.593,1.593,0,0,1,20.378,26.306Zm4.884,1.556a1.557,1.557,0,1,0-1.628-1.556A1.593,1.593,0,0,0,25.262,27.861Zm-4.884-7.778a1.63,1.63,0,1,1-1.628-1.556A1.593,1.593,0,0,1,20.378,20.083Zm4.884,1.556a1.557,1.557,0,1,0-1.628-1.556A1.593,1.593,0,0,0,25.262,21.639Z" transform="translate(-1.25 -0.25)" fill="#fff" fill-rule="evenodd"/>
</svg>
