<?xml version="1.0" encoding="UTF-8"?>
<svg width="28px" height="28px" viewBox="0 0 28 28" version="1.1" xmlns="http://www.w3.org/2000/svg" xmlns:xlink="http://www.w3.org/1999/xlink">
    <title>Call icon 3</title>
    <g id="Page-1" stroke="none" stroke-width="1" fill="none" fill-rule="evenodd">
        <g id="Altron---Contact-Us-page--02" transform="translate(-975, -2835)" stroke="#54B8DF" stroke-width="1.5">
            <path d="M976.058506,2844.06152 C975.706332,2841.18336 976.96416,2838.34259 979.289769,2836.57511 L979.517646,2836.40157 C980.303507,2835.8044 981.520354,2835.88227 982.221549,2836.57511 L984.702078,2839.02608 C985.508205,2839.8226 985.508205,2841.12596 984.702078,2841.92248 L983.517657,2843.44388 C982.818263,2844.3423 982.665594,2845.53931 983.114143,2846.5828 C984.264788,2849.26116 986.939418,2854.15242 991.430311,2855.14206 C992.362086,2855.3472 993.338445,2855.11492 994.095033,2854.54 L996.003167,2853.08935 C996.809294,2852.29283 998.128821,2852.29283 998.934947,2853.08935 L1001.41548,2855.54032 C1002.12748,2856.24384 1002.19909,2857.45776 1001.5749,2858.23781 L1001.41548,2858.43717 C999.09212,2861.34158 995.241625,2862.65339 991.625313,2861.68421 C988.9732,2860.97313 985.790124,2859.36852 982.423306,2856.04182 C977.958083,2851.6298 976.453013,2847.28498 976.058506,2844.06152 Z" id="Call-icon-3"></path>
        </g>
    </g>
</svg>