<?xml version="1.0" encoding="UTF-8"?>
<svg width="35px" height="35px" viewBox="0 0 35 35" version="1.1" xmlns="http://www.w3.org/2000/svg" xmlns:xlink="http://www.w3.org/1999/xlink">
    <title>Call Icon</title>
    <g id="Page-1" stroke="none" stroke-width="1" fill="none" fill-rule="evenodd">
        <g id="Altron---Contact-Us-page--02" transform="translate(-969, -1327)" stroke="#EBF892" stroke-width="1.5">
            <g id="Group-4" transform="translate(970, 1328)">
                <path d="M0.0742575547,10.2319285 C-0.372732387,6.57888518 1.22374192,2.973284 4.17547601,0.729949425 L4.4647048,0.509682436 C5.46214399,-0.248261924 7.00660284,-0.149424172 7.89658154,0.729949425 L11.0449455,3.84079706 C12.0681066,4.85176607 12.0681066,6.50602764 11.0449455,7.51699664 L9.54164171,9.44800392 C8.6539494,10.5883092 8.46017755,12.1075866 9.02948955,13.4320125 C10.4899234,16.8314664 13.8846463,23.0396068 19.5846254,24.2956934 C20.7672625,24.5560603 22.0064878,24.2612414 22.9667731,23.5315364 L25.3886355,21.6903303 C26.4117966,20.6793612 28.0865799,20.6793612 29.109741,21.6903303 L32.258105,24.8011779 C33.161802,25.6941064 33.2526862,27.2348457 32.4604508,28.2249176 L32.258105,28.4779423 C29.3092289,32.164308 24.4220626,33.8293005 19.8321275,32.5991941 C16.4659846,31.6966642 12.4259272,29.6600418 8.15265761,25.437693 C2.48525957,19.8378284 0.574977745,14.3232466 0.0742575547,10.2319285 Z" id="Call-Icon"></path>
            </g>
        </g>
    </g>
</svg>