<?xml version="1.0" encoding="UTF-8"?>
<svg width="35px" height="32px" viewBox="0 0 35 32" version="1.1" xmlns="http://www.w3.org/2000/svg" xmlns:xlink="http://www.w3.org/1999/xlink">
    <title>Chat Icon</title>
    <g id="Page-1" stroke="none" stroke-width="1" fill="none" fill-rule="evenodd" stroke-linecap="round" stroke-linejoin="round">
        <g id="Altron---Contact-Us-page--02" transform="translate(-969, -1385)" stroke="#EBF892" stroke-width="1.425">
            <g id="Chat-Icon" transform="translate(970, 1386)">
                <line x1="5.48429721" y1="7.37397024" x2="24.467497" y2="7.37397024" id="Stroke-1"></line>
                <line x1="5.48429721" y1="12.5418364" x2="19.332685" y2="12.5418364" id="Stroke-2"></line>
                <g id="Group-7">
                    <path d="M26.5166128,0 L3.4349851,0 C1.5457433,0 0,1.56394381 0,3.47543069 L0,16.4402766 C0,18.3517635 1.5457433,19.9157073 3.4349851,19.9157073 L6.3007441,19.9157073 L6.3007441,24.4814303 L10.8128424,19.9157073 L26.5166128,19.9157073 C28.4058546,19.9157073 29.9515979,18.3517635 29.9515979,16.4402766 L29.9515979,3.47543069 C29.9515979,1.56394381 28.4058546,0 26.5166128,0 Z" id="Stroke-3"></path>
                    <path d="M31.7069735,14.7860213 C32.4641423,15.1047679 33,15.8624118 33,16.7407028 L33,24.6319164 C33,25.7956892 32.0588141,26.7474607 30.9090755,26.7474607 L29.1650845,26.7474607 L29.1650845,29.5263158 L26.4180778,26.7474607 L16.8594957,26.7474607 C15.7097571,26.7474607 14.7690619,25.7956892 14.7690619,24.6319164 L14.7690619,21.6912055" id="Stroke-5"></path>
                </g>
            </g>
        </g>
    </g>
</svg>