<svg xmlns="http://www.w3.org/2000/svg" xmlns:xlink="http://www.w3.org/1999/xlink" width="260.192" height="216.521" viewBox="0 0 260.192 216.521">
  <defs>
    <clipPath id="clip-path">
      <path id="Path_7172" data-name="Path 7172" d="M92.894-99.636l0,0a2.7,2.7,0,0,1,3.662-1.084,2.7,2.7,0,0,1,1.084,3.662l0,0a2.7,2.7,0,0,1-3.662,1.084A2.7,2.7,0,0,1,92.894-99.636Zm5.158-9.5,0,0h0a2.7,2.7,0,0,1,3.662-1.084,2.7,2.7,0,0,1,1.084,3.662l0,0a2.7,2.7,0,0,1-3.662,1.084A2.7,2.7,0,0,1,98.052-109.133Zm6.408-9.366,0,0a2.7,2.7,0,0,1,3.8-.331,2.7,2.7,0,0,1,.331,3.8l0,0a2.7,2.7,0,0,1-3.8.331A2.7,2.7,0,0,1,104.46-118.5Zm7.174-8.435,0,0a2.7,2.7,0,0,1,3.819.048,2.7,2.7,0,0,1-.048,3.819l0,0a2.7,2.7,0,0,1-3.819-.048A2.7,2.7,0,0,1,111.634-126.934Zm8-7.646,0,0a2.7,2.7,0,0,1,3.8.421,2.7,2.7,0,0,1-.421,3.8l0,0a2.7,2.7,0,0,1-3.8-.421A2.7,2.7,0,0,1,119.635-134.58Zm8.74-6.783,0,0a2.7,2.7,0,0,1,3.737.787,2.7,2.7,0,0,1-.787,3.737l0,0a2.7,2.7,0,0,1-3.737-.787A2.7,2.7,0,0,1,128.375-141.363Zm9.383-5.853,0,0a2.7,2.7,0,0,1,3.644,1.143,2.7,2.7,0,0,1-1.143,3.644l0,0a2.7,2.7,0,0,1-3.644-1.143A2.7,2.7,0,0,1,137.758-147.216Zm9.926-4.869.005,0h0a2.7,2.7,0,0,1,3.518,1.485,2.7,2.7,0,0,1-1.485,3.518l0,0a2.7,2.7,0,0,1-3.518-1.485A2.7,2.7,0,0,1,147.683-152.086Zm10.366-3.84.005,0a2.7,2.7,0,0,1,3.361,1.814,2.7,2.7,0,0,1-1.814,3.361l-.005,0h0a2.7,2.7,0,0,1-3.361-1.814A2.7,2.7,0,0,1,158.049-155.926Zm10.7-2.772h.005a2.7,2.7,0,0,1,3.173,2.126A2.7,2.7,0,0,1,169.8-153.4H169.8a2.7,2.7,0,0,1-3.173-2.126A2.7,2.7,0,0,1,168.749-158.7Zm10.927-1.674h.005a2.7,2.7,0,0,1,2.954,2.421A2.7,2.7,0,0,1,180.215-155h-.005a2.7,2.7,0,0,1-2.954-2.421A2.7,2.7,0,0,1,179.677-160.372Zm11.043-.554h.005a2.7,2.7,0,0,1,2.705,2.7,2.7,2.7,0,0,1-2.7,2.705h-.005a2.7,2.7,0,0,1-2.706-2.7A2.7,2.7,0,0,1,190.719-160.926Zm11.119.479h.005a2.7,2.7,0,0,1,2.355,3.007,2.7,2.7,0,0,1-3.007,2.355h-.005a2.7,2.7,0,0,1-2.355-3.007A2.7,2.7,0,0,1,201.838-160.447Zm10.934,1.725h.005a2.7,2.7,0,0,1,2.046,3.225,2.7,2.7,0,0,1-3.225,2.046h-.005a2.7,2.7,0,0,1-2.046-3.225A2.7,2.7,0,0,1,212.772-158.721Zm10.7,2.837.005,0a2.7,2.7,0,0,1,1.713,3.414,2.7,2.7,0,0,1-3.414,1.713h0l-.005,0a2.7,2.7,0,0,1-1.713-3.414A2.7,2.7,0,0,1,223.475-155.884Zm10.36,3.913.005,0A2.7,2.7,0,0,1,235.2-148.4a2.7,2.7,0,0,1-3.569,1.359h0l0,0h0a2.7,2.7,0,0,1-1.359-3.569A2.7,2.7,0,0,1,233.834-151.971Zm9.81,4.99,0,0a2.7,2.7,0,0,1,1.084,3.662,2.7,2.7,0,0,1-3.662,1.084l0,0a2.7,2.7,0,0,1-1.084-3.662A2.7,2.7,0,0,1,243.644-146.981Zm9.362,5.9,0,0a2.7,2.7,0,0,1,.711,3.752,2.7,2.7,0,0,1-3.752.711l0,0a2.7,2.7,0,0,1-.711-3.752A2.7,2.7,0,0,1,253.006-141.081Zm8.711,6.826,0,0a2.7,2.7,0,0,1,.33,3.8,2.7,2.7,0,0,1-3.8.33l0,0a2.7,2.7,0,0,1-.33-3.8A2.7,2.7,0,0,1,261.717-134.255Zm7.963,7.68,0,0a2.7,2.7,0,0,1-.047,3.819,2.7,2.7,0,0,1-3.819-.046l0,0a2.7,2.7,0,0,1,.046-3.819A2.7,2.7,0,0,1,269.68-126.576Zm7.134,8.454,0,0a2.7,2.7,0,0,1-.42,3.8,2.7,2.7,0,0,1-3.8-.42l0,0a2.7,2.7,0,0,1,.42-3.8A2.7,2.7,0,0,1,276.814-118.121Zm6.234,9.137,0,0a2.7,2.7,0,0,1-.787,3.737,2.7,2.7,0,0,1-3.737-.787l0,0a2.7,2.7,0,0,1,.787-3.737A2.7,2.7,0,0,1,283.048-108.984Zm5.274,9.723,0,0a2.7,2.7,0,0,1-1.144,3.644,2.7,2.7,0,0,1-3.644-1.144l0,0a2.7,2.7,0,0,1,1.144-3.644A2.7,2.7,0,0,1,288.323-99.261Zm4.264,10.205,0,.005a2.7,2.7,0,0,1-1.485,3.518,2.7,2.7,0,0,1-3.518-1.485l0,0a2.7,2.7,0,0,1,1.485-3.518A2.7,2.7,0,0,1,292.586-89.056Zm3.242,10.843v.005a2.7,2.7,0,0,1-2.124,3.174,2.7,2.7,0,0,1-3.174-2.124v-.005a2.7,2.7,0,0,1,2.124-3.174A2.7,2.7,0,0,1,295.828-78.212Zm2.038,10.876v.005a2.7,2.7,0,0,1-2.422,2.953,2.7,2.7,0,0,1-2.953-2.422V-66.8a2.7,2.7,0,0,1,2.422-2.953A2.7,2.7,0,0,1,297.866-67.336Zm.924,11.022v.005A2.7,2.7,0,0,1,296.1-53.6a2.7,2.7,0,0,1-2.707-2.694V-56.3a2.7,2.7,0,0,1,2.694-2.707A2.7,2.7,0,0,1,298.79-56.315Zm-.145,11v.005a2.7,2.7,0,0,1-2.886,2.5,2.7,2.7,0,0,1-2.5-2.886V-45.7a2.7,2.7,0,0,1,2.886-2.5A2.7,2.7,0,0,1,298.645-45.313Zm-1.317,10.989v.005a2.7,2.7,0,0,1-3.119,2.2,2.7,2.7,0,0,1-2.2-3.119v-.005a2.7,2.7,0,0,1,3.119-2.2A2.7,2.7,0,0,1,297.328-34.325Zm-2.439,10.8v.005a2.7,2.7,0,0,1-3.325,1.878,2.7,2.7,0,0,1-1.878-3.325v-.005a2.7,2.7,0,0,1,3.325-1.878A2.7,2.7,0,0,1,294.889-23.524Zm-3.53,10.489,0,.005a2.7,2.7,0,0,1-3.494,1.541,2.7,2.7,0,0,1-1.541-3.494l0-.005a2.7,2.7,0,0,1,3.494-1.541A2.7,2.7,0,0,1,291.359-13.035Zm-4.681,10.11,0,0a2.7,2.7,0,0,1-3.662,1.083A2.7,2.7,0,0,1,281.93-5.5l0,0a2.7,2.7,0,0,1,3.662-1.083A2.7,2.7,0,0,1,286.678-2.925Zm-5.571,9.563,0,0A2.7,2.7,0,0,1,276.641,3.6l0,0a2.7,2.7,0,1,1,4.463,3.042Zm-6.519,8.941,0,0a2.7,2.7,0,0,1-4.137-3.472l0,0a2.7,2.7,0,1,1,4.137,3.472Zm-7.4,8.222,0,0a2.7,2.7,0,0,1-3.772-3.865l0,0a2.7,2.7,0,0,1,3.772,3.865Zm-8.205,7.414,0,0A2.7,2.7,0,1,1,255.6,27l0,0a2.7,2.7,0,1,1,3.377,4.215Zm-8.919,6.535,0,0a2.7,2.7,0,1,1-2.953-4.522l0,0a2.7,2.7,0,1,1,2.953,4.522Zm-9.539,5.593,0,0a2.7,2.7,0,0,1-2.5-4.787l0,0a2.7,2.7,0,0,1,2.5,4.787Zm-10.051,4.595-.005,0a2.7,2.7,0,1,1-2.036-5l.005,0a2.7,2.7,0,1,1,2.036,5ZM220,51.495l-.005,0a2.7,2.7,0,1,1-1.543-5.176l.005,0A2.7,2.7,0,0,1,220,51.495Zm-10.77,2.478h-.005a2.7,2.7,0,0,1-1.049-5.3h.005a2.7,2.7,0,1,1,1.049,5.3Zm-10.973,1.374h-.005a2.7,2.7,0,1,1-.532-5.375h.005a2.7,2.7,0,0,1,.532,5.375Zm-11.056.248H187.2a2.7,2.7,0,1,1-.013-5.4h.005a2.7,2.7,0,1,1,.013,5.4Zm-11.1-.866H176.1a2.7,2.7,0,0,1,.651-5.362h.005a2.7,2.7,0,0,1-.651,5.362Zm-10.883-2.035h-.005a2.7,2.7,0,0,1,1.183-5.27h.005a2.7,2.7,0,0,1-1.183,5.27Zm-10.616-3.142-.005,0a2.7,2.7,0,0,1,1.7-5.126l.005,0a2.7,2.7,0,1,1-1.7,5.126Zm-10.241-4.21,0,0a2.7,2.7,0,0,1,2.206-4.93l0,0a2.7,2.7,0,0,1-2.206,4.93Zm-9.7-5.208,0,0a2.7,2.7,0,1,1,2.579-4.746l0,0a2.7,2.7,0,0,1-2.579,4.746Zm-9.189-6.186,0,0a2.7,2.7,0,0,1,3.045-4.461l0,0a2.7,2.7,0,0,1-3.045,4.461Zm-8.512-7.092,0,0a2.7,2.7,0,1,1,3.481-4.129l0,0a2.7,2.7,0,1,1-3.481,4.129Zm-7.743-7.921,0,0a2.7,2.7,0,1,1,3.878-3.76l0,0a2.7,2.7,0,1,1-3.878,3.76Zm-7.034-8.9,0,0a2.7,2.7,0,0,1,4.546-2.916l0,0a2.7,2.7,0,1,1-4.546,2.916ZM96.251.681l0,0a2.7,2.7,0,0,1,1.185-3.631,2.7,2.7,0,0,1,3.631,1.185l0,0a2.7,2.7,0,0,1-1.185,3.631A2.7,2.7,0,0,1,96.251.681ZM91.3-9.231l0-.005h0a2.7,2.7,0,0,1,1.547-3.492,2.7,2.7,0,0,1,3.492,1.547l0,.005a2.7,2.7,0,0,1-1.547,3.492A2.7,2.7,0,0,1,91.3-9.231Z" transform="translate(-91.118 160.926)" fill="none"/>
    </clipPath>
    <linearGradient id="linear-gradient" x1="0.678" y1="0.006" x2="0.678" y2="0.997" gradientUnits="objectBoundingBox">
      <stop offset="0"/>
      <stop offset="0" stop-color="#54b8df"/>
      <stop offset="0.1" stop-color="#54bedf"/>
      <stop offset="0.2" stop-color="#54c5df"/>
      <stop offset="0.3" stop-color="#54cbdf"/>
      <stop offset="0.4" stop-color="#54d2df"/>
      <stop offset="0.5" stop-color="#54d8df"/>
      <stop offset="0.6" stop-color="#6adfd1"/>
      <stop offset="0.7" stop-color="#8ae5bd"/>
      <stop offset="0.8" stop-color="#abeca9"/>
      <stop offset="0.9" stop-color="#cbf296"/>
      <stop offset="1" stop-color="#ebf982"/>
      <stop offset="1"/>
    </linearGradient>
    <clipPath id="clip-path-2">
      <path id="Path_7174" data-name="Path 7174" d="M63.519-90.024a3.332,3.332,0,0,0-2.16.771,5.178,5.178,0,0,0-1.472,2.765,38.139,38.139,0,0,0-.688,8.711,37.859,37.859,0,0,0,.617,8.414,5.916,5.916,0,0,0,1.555,3.05,3.317,3.317,0,0,0,2.148.76,3.332,3.332,0,0,0,2.16-.771,5.179,5.179,0,0,0,1.472-2.765,37.8,37.8,0,0,0,.688-8.687,37.857,37.857,0,0,0-.617-8.414,6,6,0,0,0-1.555-3.062A3.285,3.285,0,0,0,63.519-90.024Zm26.72-5.53a10.344,10.344,0,0,1,7.88,3.133,8.178,8.178,0,0,1,2.445,5.791q0,4.581-5.008,7.31a8.1,8.1,0,0,1,4.783,2.872,8.333,8.333,0,0,1,1.792,5.388,10.451,10.451,0,0,1-3.347,7.809,11.528,11.528,0,0,1-8.331,3.228,11.47,11.47,0,0,1-7.833-2.718,10.68,10.68,0,0,1-3.608-7.109l6.456-.783a6.112,6.112,0,0,0,1.661,3.774,4.544,4.544,0,0,0,3.275,1.305,4.5,4.5,0,0,0,3.477-1.566A6.073,6.073,0,0,0,95.3-71.345a5.664,5.664,0,0,0-1.353-3.987,4.313,4.313,0,0,0-3.3-1.472,11.635,11.635,0,0,0-3.062.5l.736-5.435a5.846,5.846,0,0,0,4.13-1.175,4.182,4.182,0,0,0,1.424-3.311,3.785,3.785,0,0,0-1.044-2.8,3.753,3.753,0,0,0-2.777-1.044,4.019,4.019,0,0,0-2.919,1.187,5.575,5.575,0,0,0-1.472,3.465l-6.147-1.044a13.74,13.74,0,0,1,1.934-5.044,8.731,8.731,0,0,1,3.608-2.967A12.118,12.118,0,0,1,90.24-95.555Zm-26.72,0a9.507,9.507,0,0,1,7.9,3.608q3.394,4.272,3.394,14.17,0,9.874-3.418,14.193a9.492,9.492,0,0,1-7.88,3.56,9.958,9.958,0,0,1-8.189-3.9q-3.109-3.9-3.109-13.92,0-9.826,3.418-14.146A9.492,9.492,0,0,1,63.519-95.555Z" transform="translate(-52.222 95.555)" fill="none" clip-rule="evenodd"/>
    </clipPath>
    <linearGradient id="linear-gradient-2" x1="0.2" y1="0.61" x2="0.375" y2="0.364" gradientUnits="objectBoundingBox">
      <stop offset="0"/>
      <stop offset="0" stop-color="#54b8df"/>
      <stop offset="0.1" stop-color="#54bfdf"/>
      <stop offset="0.2" stop-color="#54c7df"/>
      <stop offset="0.3" stop-color="#54cedf"/>
      <stop offset="0.4" stop-color="#54d6df"/>
      <stop offset="0.5" stop-color="#5fdcd8"/>
      <stop offset="0.6" stop-color="#7be2c7"/>
      <stop offset="0.7" stop-color="#97e8b6"/>
      <stop offset="0.8" stop-color="#b3eea4"/>
      <stop offset="0.9" stop-color="#cff393"/>
      <stop offset="1" stop-color="#ebf982"/>
      <stop offset="1"/>
    </linearGradient>
    <clipPath id="clip-path-3">
      <rect id="Rectangle_2023" data-name="Rectangle 2023" width="72.899" height="64.448" fill="#fff"/>
    </clipPath>
  </defs>
  <g id="Group_3316" data-name="Group 3316" transform="translate(-1284.001 -1535)">
    <g id="Group_3304" data-name="Group 3304" transform="translate(1231.779 1695.926)">
      <path id="Path_7169" data-name="Path 7169" d="M101.5-58.947A84.053,84.053,0,0,1,185.553-143a84.053,84.053,0,0,1,84.053,84.053,84.053,84.053,0,0,1-84.053,84.053A84.053,84.053,0,0,1,101.5-58.947Z" transform="translate(17.26 6.279)" fill="rgba(255,255,255,0.43)" fill-rule="evenodd"/>
      <g id="Group_3299" data-name="Group 3299" transform="translate(118.76 -136.721)" opacity="0.431">
        <g id="Group_3298" data-name="Group 3298">
          <path id="Path_7170" data-name="Path 7170" d="M0,84.053a84.053,84.053,0,1,1,84.053,84.053A84.053,84.053,0,0,1,0,84.053Z" fill="none" stroke="#fff" stroke-linejoin="round" stroke-width="2.75"/>
        </g>
      </g>
      <g id="Group_3301" data-name="Group 3301" transform="translate(104.742 -160.926)" clip-path="url(#clip-path)">
        <g id="Group_3300" data-name="Group 3300" transform="translate(-123.032 -1.45)">
          <path id="Path_7171" data-name="Path 7171" d="M-86.5-3H245.662V215.741H-86.5Z" transform="translate(86.5 3)" fill="url(#linear-gradient)"/>
        </g>
      </g>
      <g id="Group_3303" data-name="Group 3303" transform="translate(52.222 -72.658)" clip-path="url(#clip-path-2)">
        <g id="Group_3302" data-name="Group 3302" transform="translate(-70.512 -89.718)">
          <path id="Path_7173" data-name="Path 7173" d="M-.706-53.72H331.456V165.02H-.706Z" transform="translate(0.706 53.72)" fill="url(#linear-gradient-2)"/>
        </g>
      </g>
    </g>
    <g id="Group_3315" data-name="Group 3315" transform="translate(1395.027 1601.371)">
      <g id="Group_3314" data-name="Group 3314" transform="translate(0 0)" clip-path="url(#clip-path-3)">
        <path id="Path_7179" data-name="Path 7179" d="M72.229,14.526a1.084,1.084,0,0,0-1.186.231L38.826,46.644,27.355,35.379a1.088,1.088,0,0,0-1.539.013L.313,61.313a1.088,1.088,0,0,0,.776,1.852H71.737a1.09,1.09,0,0,0,1.089-1.088L72.9,15.532a1.089,1.089,0,0,0-.669-1.006M56.548,32.167v28.82H44.6V44.1c0-.029-.015-.056-.017-.085ZM39.6,48.947l2.827-2.8V60.987H30.473v-19.5l7.593,7.457a1.088,1.088,0,0,0,1.529,0M26.605,37.7l1.69,1.658V60.987H16.345V48.123ZM14.168,50.335V60.987H3.687ZM70.65,60.987H58.726V30.012L70.717,18.144Z" transform="translate(0 1.283)" fill="#fff"/>
        <path id="Path_7180" data-name="Path 7180" d="M12.884,32.776a1.086,1.086,0,0,0,.77-.319L36.209,9.9l4.5,4.5L44.572,0,30.166,3.859l4.5,4.5L12.114,30.917a1.089,1.089,0,0,0,.77,1.859" transform="translate(1.048 0)" fill="#fff"/>
      </g>
    </g>
  </g>
</svg>
