<?xml version="1.0" encoding="UTF-8"?>
<svg id="Layer_1" data-name="Layer 1" xmlns="http://www.w3.org/2000/svg" xmlns:xlink="http://www.w3.org/1999/xlink" viewBox="0 0 250 217">
  <defs>
    <style>
      .cls-1 {
        clip-path: url(#clippath);
      }

      .cls-2, .cls-3, .cls-4, .cls-5, .cls-6 {
        stroke-width: 0px;
      }

      .cls-2, .cls-7 {
        fill: none;
      }

      .cls-3 {
        fill: url(#linear-gradient);
      }

      .cls-8 {
        clip-path: url(#clippath-1);
      }

      .cls-9 {
        clip-path: url(#clippath-2);
      }

      .cls-10 {
        opacity: .43;
      }

      .cls-4 {
        fill: #8096a1;
        fill-rule: evenodd;
      }

      .cls-5 {
        fill: url(#linear-gradient-2);
      }

      .cls-7 {
        stroke: #fff;
        stroke-linejoin: round;
        stroke-width: 2.75px;
      }

      .cls-6 {
        fill: #fff;
      }
    </style>
    <clipPath id="clippath">
      <path class="cls-2" d="M52.32,64.7h0c.68-1.25,2.24-1.71,3.49-1.03,0,0,0,0,0,0,1.25.68,1.71,2.24,1.03,3.49,0,0,0,0,0,0h0c-.68,1.25-2.24,1.71-3.49,1.03,0,0,0,0,0,0-1.25-.68-1.71-2.24-1.03-3.49,0,0,0,0,0,0ZM57.24,55.64h0c.68-1.25,2.24-1.71,3.49-1.03,0,0,0,0,0,0,1.25.68,1.71,2.24,1.03,3.49,0,0,0,0,0,0h0c-.68,1.25-2.24,1.71-3.49,1.03,0,0,0,0,0,0-1.25-.68-1.71-2.24-1.03-3.49h0ZM63.36,46.7h0c.91-1.09,2.54-1.23,3.62-.32,1.09.91,1.23,2.54.32,3.62h0c-.91,1.09-2.54,1.23-3.62.32-1.09-.91-1.23-2.53-.32-3.62h0ZM70.2,38.66h0c1.02-.99,2.65-.97,3.64.04h0c.99,1.02.97,2.65-.04,3.64h0c-1.02.99-2.65.97-3.64-.04h0c-.99-1.02-.97-2.65.05-3.64h0ZM77.83,31.37h0c1.11-.89,2.73-.71,3.62.4,0,0,0,0,0,0,.89,1.11.71,2.73-.4,3.62,0,0,0,0,0,0h0c-1.11.89-2.73.71-3.62-.4,0,0,0,0,0,0-.89-1.11-.71-2.73.4-3.62,0,0,0,0,0,0h0ZM86.17,24.9h0c1.19-.78,2.79-.44,3.56.75,0,0,0,0,0,0,.78,1.19.44,2.79-.75,3.56,0,0,0,0,0,0h0c-1.19.78-2.79.44-3.56-.75,0,0,0,0,0,0-.78-1.19-.44-2.79.75-3.56h0ZM95.12,19.31h0c1.26-.66,2.82-.17,3.48,1.09,0,0,0,0,0,0,.66,1.26.17,2.82-1.09,3.48,0,0,0,0,0,0h0c-1.26.66-2.82.17-3.48-1.09,0,0,0,0,0,0-.66-1.26-.17-2.81,1.09-3.47h0ZM104.58,14.67h0c1.32-.54,2.82.1,3.36,1.42,0,0,0,0,0,0,.54,1.32-.1,2.82-1.42,3.36,0,0,0,0,0,0h0c-1.32.54-2.82-.1-3.36-1.42,0,0,0,0,0,0-.53-1.32.1-2.82,1.41-3.35h0ZM114.47,11.01h0c1.36-.41,2.8.37,3.21,1.73,0,0,0,0,0,0,.41,1.36-.37,2.8-1.73,3.21h0s0,0,0,0h0c-1.36.41-2.8-.37-3.21-1.73,0,0,0,0,0,0-.41-1.36.37-2.8,1.73-3.2h0ZM124.68,8.36h0c1.4-.28,2.75.63,3.03,2.03,0,0,0,0,0,0,.28,1.4-.63,2.75-2.03,3.03,0,0,0,0,0,0h0c-1.4.28-2.75-.63-3.03-2.03,0,0,0,0,0,0-.28-1.39.63-2.75,2.02-3.03h0ZM135.1,6.77h0c1.42-.14,2.68.89,2.82,2.31,0,0,0,0,0,0,.14,1.42-.89,2.68-2.31,2.82h0c-1.42.14-2.68-.89-2.82-2.31,0,0,0,0,0,0-.14-1.41.89-2.67,2.31-2.81h0ZM145.63,6.24h0c1.42,0,2.58,1.15,2.58,2.57h0c0,1.43-1.15,2.58-2.57,2.58h0c-1.42,0-2.58-1.15-2.58-2.57h0c0-1.43,1.15-2.58,2.57-2.58h0,0ZM156.24,6.69h0c1.41.17,2.42,1.45,2.25,2.87,0,0,0,0,0,0-.17,1.41-1.45,2.42-2.87,2.25,0,0,0,0,0,0h0c-1.41-.17-2.42-1.45-2.25-2.87,0,0,0,0,0,0,.17-1.41,1.46-2.42,2.87-2.24h0ZM166.67,8.34h0c1.39.31,2.26,1.69,1.95,3.07h0c-.31,1.39-1.69,2.26-3.07,1.95h0s0,0,0,0c-1.39-.31-2.26-1.69-1.95-3.07h0c.31-1.39,1.69-2.26,3.08-1.95h0ZM176.87,11.05h0c1.35.45,2.08,1.9,1.63,3.25,0,0,0,0,0,0-.45,1.35-1.9,2.08-3.25,1.63,0,0,0,0,0,0h0c-1.35-.45-2.08-1.9-1.63-3.25,0,0,0,0,0,0,.45-1.35,1.91-2.08,3.26-1.63,0,0,0,0,0,0h0ZM186.75,14.78h0c1.3.58,1.88,2.1,1.3,3.4,0,0,0,0,0,0-.58,1.3-2.11,1.88-3.4,1.3,0,0,0,0,0,0h0c-1.3-.58-1.88-2.11-1.3-3.4,0,0,0,0,0,0,.58-1.3,2.1-1.88,3.4-1.3h0ZM196.11,19.54h0c1.25.68,1.71,2.24,1.03,3.49,0,0,0,0,0,0-.68,1.25-2.24,1.71-3.49,1.03,0,0,0,0,0,0h0c-1.25-.68-1.71-2.24-1.03-3.49,0,0,0,0,0,0,.68-1.25,2.24-1.71,3.49-1.03,0,0,0,0,0,0h0ZM205.04,25.17h0c1.18.8,1.48,2.4.68,3.58h0c-.8,1.18-2.4,1.48-3.58.68h0c-1.18-.8-1.48-2.4-.68-3.58h0c.8-1.18,2.4-1.48,3.58-.68,0,0,0,0,0,0h0ZM213.35,31.68h0c1.09.91,1.23,2.54.31,3.62-.91,1.09-2.54,1.23-3.62.31h0c-1.09-.91-1.23-2.54-.31-3.62.92-1.09,2.54-1.23,3.63-.31h0ZM220.95,39h0c.99,1.02.97,2.65-.04,3.64,0,0,0,0,0,0-1.02.99-2.65.97-3.64-.04,0,0,0,0,0,0h0c-.99-1.02-.97-2.65.04-3.64h0c1.02-.99,2.65-.98,3.64.04,0,0,0,0,0,0h0ZM227.75,47.07h0c.89,1.11.71,2.73-.4,3.62,0,0,0,0,0,0-1.11.89-2.73.71-3.62-.4,0,0,0,0,0,0h0c-.89-1.11-.71-2.73.4-3.62,0,0,0,0,0,0,1.11-.89,2.73-.71,3.62.4,0,0,0,0,0,0h0ZM233.7,55.78h0c.78,1.19.44,2.79-.75,3.56,0,0,0,0,0,0-1.19.78-2.79.44-3.56-.75,0,0,0,0,0,0h0c-.78-1.19-.44-2.79.75-3.56,0,0,0,0,0,0,1.19-.78,2.79-.44,3.56.75,0,0,0,0,0,0h0ZM238.73,65.05h0c.66,1.26.17,2.82-1.09,3.48,0,0,0,0,0,0-1.26.66-2.82.17-3.48-1.09,0,0,0,0,0,0h0c-.66-1.26-.17-2.82,1.09-3.48,0,0,0,0,0,0,1.26-.66,2.82-.17,3.48,1.09,0,0,0,0,0,0h0ZM242.79,74.79h0c.54,1.32-.1,2.82-1.42,3.36,0,0,0,0,0,0-1.32.54-2.82-.1-3.36-1.42,0,0,0,0,0,0h0c-.54-1.32.1-2.82,1.42-3.36,0,0,0,0,0,0,1.32-.54,2.82.1,3.36,1.41,0,0,0,0,0,0h0ZM245.89,85.13h0c.28,1.4-.63,2.76-2.02,3.03,0,0,0,0,0,0-1.4.28-2.75-.63-3.03-2.02,0,0,0,0,0,0h0c-.28-1.4.63-2.76,2.02-3.03,0,0,0,0,0,0,1.4-.28,2.75.63,3.03,2.02,0,0,0,0,0,0h0ZM247.83,95.5h0c.14,1.42-.89,2.68-2.31,2.82,0,0,0,0,0,0-1.42.14-2.68-.89-2.82-2.31,0,0,0,0,0,0h0c-.14-1.41.89-2.67,2.31-2.81,0,0,0,0,0,0,1.41-.14,2.68.89,2.82,2.31h0ZM248.71,106.02h0c0,1.43-1.14,2.59-2.56,2.59,0,0,0,0,0,0-1.42,0-2.58-1.15-2.58-2.57h0c0-1.43,1.15-2.59,2.57-2.59,0,0,0,0,0,0,1.42,0,2.57,1.15,2.58,2.57h0ZM248.57,116.51h0c-.1,1.42-1.33,2.49-2.75,2.39-1.42-.1-2.49-1.33-2.38-2.75h0c.1-1.42,1.33-2.49,2.75-2.39,1.42.1,2.49,1.33,2.39,2.75,0,0,0,0,0,0h0ZM247.32,126.99h0c-.24,1.41-1.57,2.34-2.97,2.1-1.4-.24-2.34-1.57-2.1-2.97h0c.24-1.41,1.57-2.34,2.97-2.1,1.4.24,2.34,1.57,2.1,2.98,0,0,0,0,0,0h0ZM244.99,137.29h0c-.38,1.38-1.8,2.18-3.17,1.8,0,0,0,0,0,0-1.37-.38-2.17-1.8-1.79-3.17,0,0,0,0,0,0h0c.38-1.38,1.8-2.18,3.17-1.8,0,0,0,0,0,0,1.37.38,2.17,1.8,1.8,3.17,0,0,0,0,0,0h0ZM241.62,147.3h0c-.51,1.33-2.01,1.99-3.33,1.47,0,0,0,0,0,0-1.33-.51-1.98-2.01-1.47-3.33,0,0,0,0,0,0h0c.51-1.33,2.01-1.99,3.33-1.47,0,0,0,0,0,0,1.33.51,1.99,2,1.47,3.33,0,0,0,0,0,0h0ZM237.16,156.94h0c-.68,1.25-2.24,1.71-3.49,1.03,0,0,0,0,0,0-1.25-.68-1.71-2.24-1.03-3.48h0c.68-1.25,2.24-1.71,3.49-1.03,0,0,0,0,0,0,1.25.68,1.71,2.24,1.04,3.49h0ZM231.85,166.06h0c-.84,1.15-2.45,1.4-3.6.56-1.09-.8-1.38-2.31-.66-3.46h0c.8-1.18,2.4-1.48,3.58-.68s1.48,2.4.68,3.58h0ZM225.63,174.59h0c-.91,1.09-2.54,1.23-3.63.32s-1.23-2.54-.32-3.63h0c.91-1.09,2.54-1.23,3.63-.32s1.23,2.54.32,3.63ZM218.57,182.43h0c-1.02.99-2.65.97-3.64-.04-.99-1.02-.97-2.65.04-3.64h0c1.02-.99,2.65-.97,3.64.04.99,1.02.97,2.65-.04,3.64h0ZM210.74,189.5h0c-1.1.9-2.72.75-3.63-.35-.9-1.1-.75-2.72.35-3.63.02-.01.03-.03.05-.04h0c1.11-.89,2.73-.71,3.62.4.89,1.11.71,2.73-.4,3.62h0ZM202.24,195.74h0c-1.19.78-2.79.44-3.56-.75-.78-1.19-.44-2.79.75-3.56h0c1.19-.78,2.79-.44,3.56.75.78,1.19.44,2.79-.75,3.56ZM193.14,201.07h0c-1.26.66-2.82.17-3.48-1.09-.66-1.26-.17-2.82,1.09-3.48h0c1.26-.66,2.82-.17,3.48,1.09.66,1.26.17,2.82-1.09,3.48ZM183.55,205.46h0c-1.3.57-2.82-.03-3.39-1.34-.57-1.3.03-2.82,1.34-3.39.04-.02.07-.03.11-.04h0c1.3-.57,2.82.03,3.39,1.34.57,1.3-.03,2.82-1.34,3.39-.04.02-.07.03-.11.04ZM173.56,208.85h0c-1.36.41-2.8-.37-3.2-1.73-.41-1.36.37-2.8,1.73-3.2h0c1.36-.41,2.8.37,3.2,1.73.41,1.36-.37,2.8-1.73,3.2h0ZM163.29,211.22h0c-1.4.28-2.75-.63-3.03-2.03-.28-1.4.63-2.75,2.03-3.03h0c1.4-.28,2.75.63,3.03,2.03.28,1.4-.63,2.75-2.03,3.03h0ZM152.82,212.53h0c-1.42.14-2.68-.89-2.82-2.31-.14-1.42.89-2.68,2.31-2.82h0c1.42-.14,2.68.89,2.82,2.31.14,1.42-.89,2.68-2.31,2.82h0ZM142.28,212.76h0c-1.42,0-2.58-1.15-2.58-2.57,0-1.42,1.15-2.58,2.57-2.58h0c1.42,0,2.58,1.15,2.58,2.57,0,1.42-1.15,2.58-2.57,2.58h0ZM131.69,211.94h0c-1.41-.17-2.42-1.46-2.25-2.87s1.46-2.42,2.87-2.25h0c1.41.17,2.42,1.46,2.25,2.87s-1.46,2.42-2.87,2.25h0ZM121.31,210h0c-1.39-.31-2.26-1.69-1.95-3.08.31-1.39,1.69-2.26,3.08-1.95h0c1.39.31,2.26,1.69,1.95,3.08-.31,1.39-1.69,2.26-3.08,1.95ZM111.18,207h0c-1.35-.45-2.08-1.91-1.63-3.26.45-1.35,1.91-2.08,3.26-1.63h0c1.35.45,2.08,1.91,1.63,3.26-.45,1.35-1.91,2.08-3.26,1.63ZM101.41,202.98h0c-1.3-.58-1.88-2.1-1.3-3.4.58-1.3,2.1-1.88,3.4-1.3h0c1.3.58,1.88,2.1,1.3,3.4-.58,1.3-2.1,1.88-3.4,1.3ZM92.16,198.02h0c-1.25-.68-1.71-2.24-1.03-3.49.68-1.25,2.24-1.71,3.49-1.03h0c1.25.68,1.71,2.24,1.03,3.49-.68,1.25-2.24,1.71-3.49,1.03ZM83.4,192.12h0c-1.17-.8-1.48-2.4-.68-3.58.8-1.17,2.4-1.48,3.58-.68h0c1.17.8,1.48,2.4.68,3.58-.8,1.17-2.4,1.48-3.58.68h0ZM75.28,185.35h0c-1.09-.92-1.23-2.54-.31-3.63.92-1.09,2.54-1.23,3.63-.31h0c1.09.92,1.23,2.54.31,3.63-.92,1.09-2.54,1.23-3.63.31h0ZM67.89,177.8h0c-.99-1.02-.97-2.65.06-3.64,1.02-.99,2.65-.97,3.64.06h0c.99,1.02.97,2.65-.06,3.64-1.02.99-2.65.97-3.64-.06ZM61.18,169.31h0c-.77-1.2-.42-2.79.78-3.56,1.2-.77,2.79-.42,3.56.78h0c.77,1.2.42,2.79-.78,3.56-1.2.77-2.79.42-3.56-.78ZM55.53,160.39h0c-.64-1.27-.14-2.82,1.13-3.46,0,0,0,0,0,0,1.27-.64,2.82-.14,3.46,1.13,0,0,0,0,0,0h0c.64,1.27.14,2.82-1.13,3.46,0,0,0,0,0,0-1.27.64-2.82.14-3.46-1.13,0,0,0,0,0,0ZM50.8,150.93h0c-.51-1.33.15-2.82,1.47-3.34,0,0,0,0,0,0,1.33-.51,2.82.15,3.33,1.47,0,0,0,0,0,0h0c.51,1.33-.15,2.82-1.47,3.34,0,0,0,0,0,0-1.33.51-2.82-.15-3.33-1.47,0,0,0,0,0,0Z"/>
    </clipPath>
    <linearGradient id="linear-gradient" x1="136.97" y1="97.56" x2="136.97" y2="96.62" gradientTransform="translate(-45404.54 21346.91) scale(332.16 -218.74)" gradientUnits="userSpaceOnUse">
      <stop offset="0" stop-color="#000"/>
      <stop offset="0" stop-color="#54b8df"/>
      <stop offset=".1" stop-color="#54bedf"/>
      <stop offset=".2" stop-color="#54c5df"/>
      <stop offset=".3" stop-color="#54cbdf"/>
      <stop offset=".4" stop-color="#54d2df"/>
      <stop offset=".5" stop-color="#54d8df"/>
      <stop offset=".6" stop-color="#6adfd1"/>
      <stop offset=".7" stop-color="#8ae5bd"/>
      <stop offset=".8" stop-color="#abeca9"/>
      <stop offset=".9" stop-color="#cbf296"/>
      <stop offset="1" stop-color="#ebf982"/>
      <stop offset="1" stop-color="#000"/>
    </linearGradient>
    <clipPath id="clippath-1">
      <path class="cls-2" d="M11.31,95.71c-.75,0-1.48.25-2.06.74-.73.71-1.22,1.63-1.4,2.64-.54,2.74-.76,5.52-.66,8.31-.1,2.69.09,5.38.59,8.03.2,1.09.71,2.11,1.48,2.91.58.48,1.3.73,2.05.72.75,0,1.48-.25,2.06-.74.73-.71,1.22-1.63,1.4-2.64.54-2.73.76-5.51.66-8.29.1-2.69-.09-5.38-.59-8.03-.2-1.1-.71-2.11-1.48-2.92-.57-.48-1.3-.74-2.05-.74ZM36.8,90.43c2.82-.12,5.55.96,7.52,2.99,1.48,1.46,2.32,3.45,2.33,5.52,0,2.91-1.59,5.24-4.78,6.97,1.8.34,3.41,1.31,4.56,2.74,1.15,1.46,1.76,3.28,1.71,5.14.04,2.82-1.12,5.53-3.19,7.45-2.13,2.05-4.99,3.16-7.95,3.08-2.73.1-5.39-.83-7.47-2.59-1.98-1.73-3.21-4.16-3.44-6.78l6.16-.75c.1,1.35.66,2.62,1.58,3.6.83.82,1.96,1.27,3.12,1.24,1.27.02,2.49-.53,3.32-1.49.95-1.12,1.43-2.56,1.35-4.03.07-1.39-.39-2.75-1.29-3.8-.79-.91-1.94-1.42-3.15-1.4-.99.03-1.97.19-2.92.48l.7-5.18c1.41.14,2.82-.26,3.94-1.12.91-.79,1.41-1.95,1.36-3.16.05-.99-.31-1.95-1-2.67-.71-.68-1.67-1.04-2.65-1-1.04-.02-2.05.39-2.78,1.13-.84.91-1.33,2.07-1.4,3.31l-5.86-1c.29-1.71.92-3.35,1.84-4.81.87-1.24,2.06-2.22,3.44-2.83,1.55-.7,3.24-1.06,4.94-1.03h0ZM11.31,90.43c2.92-.13,5.72,1.15,7.54,3.44,2.16,2.72,3.24,7.22,3.24,13.52s-1.09,10.79-3.26,13.54c-1.81,2.27-4.61,3.54-7.52,3.4-3.05.09-5.96-1.3-7.81-3.72-1.98-2.48-2.97-6.91-2.97-13.28s1.09-10.75,3.26-13.49c1.81-2.28,4.61-3.54,7.52-3.4h0Z"/>
    </clipPath>
    <linearGradient id="linear-gradient-2" x1="136.82" y1="96.89" x2="136.99" y2="97.12" gradientTransform="translate(-45404.54 21346.81) scale(332.16 -218.74)" gradientUnits="userSpaceOnUse">
      <stop offset="0" stop-color="#000"/>
      <stop offset="0" stop-color="#54b8df"/>
      <stop offset=".1" stop-color="#54bfdf"/>
      <stop offset=".2" stop-color="#54c7df"/>
      <stop offset=".3" stop-color="#54cedf"/>
      <stop offset=".4" stop-color="#54d6df"/>
      <stop offset=".5" stop-color="#5fdcd8"/>
      <stop offset=".6" stop-color="#7be2c7"/>
      <stop offset=".7" stop-color="#97e8b6"/>
      <stop offset=".8" stop-color="#b3eea4"/>
      <stop offset=".9" stop-color="#cff393"/>
      <stop offset="1" stop-color="#ebf982"/>
      <stop offset="1" stop-color="#000"/>
    </linearGradient>
    <clipPath id="clippath-2">
      <rect class="cls-2" x="106.43" y="69.55" width="69.53" height="61.47"/>
    </clipPath>
  </defs>
  <g id="Group_3304" data-name="Group 3304">
    <path id="Path_7169" data-name="Path 7169" class="cls-4" d="M64,109.5c0-44.28,35.89-80.17,80.17-80.17s80.17,35.89,80.17,80.17-35.89,80.17-80.17,80.17h0c-44.28,0-80.17-35.89-80.17-80.17Z"/>
    <g id="Group_3299" data-name="Group 3299" class="cls-10">
      <g id="Group_3298" data-name="Group 3298">
        <path id="Path_7170" data-name="Path 7170" class="cls-7" d="M64,109.5c0-44.28,35.89-80.17,80.17-80.17s80.17,35.89,80.17,80.17-35.89,80.17-80.17,80.17h0c-44.28,0-80.17-35.89-80.17-80.17Z"/>
      </g>
    </g>
    <g class="cls-1">
      <g id="Group_3301" data-name="Group 3301">
        <g id="Group_3300" data-name="Group 3300">
          <path id="Path_7171" data-name="Path 7171" class="cls-3" d="M-66.72,4.86H250.1v208.64H-66.72V4.86Z"/>
        </g>
      </g>
    </g>
    <g class="cls-8">
      <g id="Group_3303" data-name="Group 3303">
        <g id="Group_3302" data-name="Group 3302">
          <path id="Path_7173" data-name="Path 7173" class="cls-5" d="M-66.72,4.86H250.1v208.64H-66.72V4.86Z"/>
        </g>
      </g>
    </g>
  </g>
  <g id="Group_3315" data-name="Group 3315">
    <g class="cls-9">
      <g id="Group_3314" data-name="Group 3314">
        <path id="Path_7179" data-name="Path 7179" class="cls-6" d="M175.33,84.63c-.39-.16-.83-.08-1.13.22l-30.73,30.41-10.94-10.74c-.41-.4-1.07-.4-1.47.01,0,0,0,0,0,0l-24.33,24.72c-.4.41-.4,1.07.01,1.47.19.19.46.3.73.3h67.39c.57,0,1.04-.46,1.04-1.04l.07-44.4c0-.42-.25-.8-.64-.96M160.37,101.45v27.49h-11.4v-16.11s-.01-.05-.02-.08l11.41-11.3ZM144.21,117.46l2.7-2.67v14.15h-11.4v-18.6l7.24,7.11c.4.4,1.05.4,1.46,0M131.81,106.73l1.61,1.58v20.63h-11.4v-12.27l9.79-9.94ZM119.95,118.78v10.16h-10l10-10.16ZM173.82,128.94h-11.37v-29.54l11.44-11.32-.06,40.86Z"/>
        <path id="Path_7180" data-name="Path 7180" class="cls-6" d="M119.72,100.81c.28,0,.54-.11.73-.3l21.51-21.52,4.29,4.29,3.68-13.74-13.74,3.68,4.29,4.29-21.51,21.52c-.41.41-.41,1.06,0,1.47.19.19.46.3.73.3"/>
      </g>
    </g>
  </g>
</svg>