<svg xmlns="http://www.w3.org/2000/svg" xmlns:xlink="http://www.w3.org/1999/xlink" width="194" height="194" viewBox="0 0 194 194">
  <defs>
    <radialGradient id="radial-gradient" cx="0.5" cy="0.5" r="0.5" gradientUnits="objectBoundingBox">
      <stop offset="0" stop-color="#43a9ac" stop-opacity="0.502"/>
      <stop offset="1" stop-color="#43a9ac" stop-opacity="0"/>
    </radialGradient>
    <clipPath id="clip-path">
      <rect id="Rectangle_2198" data-name="Rectangle 2198" width="109.124" height="110" fill="none" stroke="#707070" stroke-width="3"/>
    </clipPath>
  </defs>
  <g id="Group_3566" data-name="Group 3566" transform="translate(-414 -985)">
    <circle id="Ellipse_153" data-name="Ellipse 153" cx="97" cy="97" r="97" transform="translate(414 985)" opacity="0.601" fill="url(#radial-gradient)"/>
    <g id="Group_3555" data-name="Group 3555" transform="translate(456 1027)">
      <g id="Group_3554" data-name="Group 3554" transform="translate(0 0)" clip-path="url(#clip-path)">
        <path id="Path_7423" data-name="Path 7423" d="M49.859,98.888h7.427m-7.427-7.168h7.427m2.316-7.96H47.542V76.048H59.6ZM28.531.676,30.9,3.042M25.759,48.71l2.3-2.3m-8.478-20.95h1.552M78.613.676,76.247,3.042M81.385,48.71l-2.3-2.3m8.478-20.95H86.006M56.166,2.289l5.765,11.68a2.89,2.89,0,0,0,2.178,1.581L77,17.425a2.894,2.894,0,0,1,1.6,4.936l-9.327,9.09a2.9,2.9,0,0,0-.834,2.563l2.2,12.837a2.893,2.893,0,0,1-4.2,3.049L54.918,43.838a2.9,2.9,0,0,0-2.694,0L40.7,49.9a2.892,2.892,0,0,1-4.2-3.049l2.2-12.837a2.9,2.9,0,0,0-.831-2.563l-9.327-9.09a2.893,2.893,0,0,1,1.6-4.936L43.033,15.55a2.885,2.885,0,0,0,2.178-1.581l5.765-11.68A2.894,2.894,0,0,1,56.166,2.289Zm20.308,81.47h29.993l-3.194,7.711h-26.8m-1.66-24.692H32.328L29.133,59.07H78.011ZM98.482,91.719v15.624H76.474m-6.45-40.565v40.565H37.12V66.779M30.67,83.759H3.869L.675,76.048h30m0,31.3H8.662V83.759" transform="translate(0.99 0.991)" fill="none" stroke="#0f1e41" stroke-linecap="round" stroke-linejoin="round" stroke-width="3"/>
      </g>
    </g>
  </g>
</svg>
