<svg xmlns="http://www.w3.org/2000/svg" xmlns:xlink="http://www.w3.org/1999/xlink" width="122" height="112" viewBox="0 0 122 112">
  <defs>
    <clipPath id="clip-path">
      <rect id="Rectangle_2005" data-name="Rectangle 2005" width="59.435" height="73.734" transform="translate(0 0)" fill="#eaf893"/>
    </clipPath>
  </defs>
  <g id="Group_3326" data-name="Group 3326" transform="translate(-748 -3020)">
    <g id="Group_3322" data-name="Group 3322" transform="translate(811 296)">
      <g id="Rectangle_2025" data-name="Rectangle 2025" transform="translate(-63 2724)" fill="none" stroke="#fff" stroke-width="2">
        <rect width="122" height="112" rx="17" stroke="none"/>
        <rect x="1" y="1" width="120" height="110" rx="16" fill="none"/>
      </g>
      <g id="Rectangle_2026" data-name="Rectangle 2026" transform="translate(-63 2724)" fill="#1f4659" stroke="#fff" stroke-width="2" style="mix-blend-mode: multiply;isolation: isolate">
        <rect width="122" height="112" rx="17" stroke="none"/>
        <rect x="1" y="1" width="120" height="110" rx="16" fill="none"/>
      </g>
    </g>
    <g id="Group_3209" data-name="Group 3209" transform="translate(780 3039)">
      <g id="Group_3208" data-name="Group 3208" clip-path="url(#clip-path)">
        <path id="Path_7150" data-name="Path 7150" d="M11.312,20.091a1,1,0,0,0-.673-1.244L1.286,16.061a1,1,0,1,0-.571,1.917l9.353,2.786a1.016,1.016,0,0,0,.286.042,1,1,0,0,0,.958-.715" fill="#eaf893"/>
        <path id="Path_7151" data-name="Path 7151" d="M13.391,14.159a1,1,0,0,0,1.477-1.349L8.285,5.605A1,1,0,1,0,6.808,6.954Z" fill="#eaf893"/>
        <path id="Path_7152" data-name="Path 7152" d="M20.806,11.676a.987.987,0,0,0,.132-.009,1,1,0,0,0,.861-1.122L20.521.87a1,1,0,1,0-1.983.262l1.278,9.675a1,1,0,0,0,.99.869" fill="#eaf893"/>
        <path id="Path_7153" data-name="Path 7153" d="M51.412,52.883a7.315,7.315,0,0,1-2.217-4.45L47.138,30.252a4.117,4.117,0,0,0-8.234.06v5.9L26.19,23.5a4.043,4.043,0,0,0-5.584,0,3.931,3.931,0,0,0-1.016,1.74l-.255-.255a4.044,4.044,0,0,0-5.585,0,3.95,3.95,0,0,0,0,5.584l.022.022a3.951,3.951,0,0,0-1.74,6.6l3.258,3.258a3.95,3.95,0,0,0-1.74,6.6L26.894,60.392a20.279,20.279,0,0,0,6.557,4.225,13.413,13.413,0,0,1,4.21,2.554l6.27,6.27a1,1,0,0,0,1.414,0L57.953,60.833a1,1,0,0,0,0-1.414ZM44.638,71.32l-5.563-5.563a15.139,15.139,0,0,0-4.8-2.961,18.339,18.339,0,0,1-5.971-3.818L14.964,45.633a1.948,1.948,0,1,1,2.756-2.755h0l5.271,5.272a1,1,0,0,0,1.415-1.414l-5.273-5.272h0l-5.687-5.687a1.948,1.948,0,0,1,1.378-3.327,1.932,1.932,0,0,1,1.377.571h0L27.163,43.98a1,1,0,1,0,1.414-1.414l-10.96-10.96h0l-2.452-2.452a1.951,1.951,0,0,1,0-2.756,2,2,0,0,1,2.756,0c1.142,1.142,1.871,1.871,2.365,2.324a4.041,4.041,0,0,0,.321.361L31.333,39.81A1,1,0,0,0,32.747,38.4L22.02,27.669h0a1.949,1.949,0,0,1,0-2.756,2,2,0,0,1,2.756,0L39.188,39.326a1.081,1.081,0,0,0,.712.293,1,1,0,0,0,1-1V30.312a2.117,2.117,0,1,1,4.234,0,1.052,1.052,0,0,0,.007.112l2.062,18.234a9.194,9.194,0,0,0,2.856,5.7l5.768,5.768Z" fill="#eaf893"/>
        <path id="Path_7154" data-name="Path 7154" d="M59.178,19.5a4.117,4.117,0,0,0-7.6-.3L49.1,24.562,42.884,7.692a3.949,3.949,0,0,0-6.722-1.18l-.126-.342A3.948,3.948,0,0,0,28.627,8.9l.011.032A3.947,3.947,0,0,0,24.294,14.2l1.594,4.323a3.9,3.9,0,0,0-2.005.193,4.269,4.269,0,0,0-1.349.787A1,1,0,1,0,23.855,21a2.261,2.261,0,0,1,.719-.412,1.947,1.947,0,0,1,2.5,1.151v0l.566,1.535a1,1,0,0,0,.939.655.978.978,0,0,0,.346-.063,1,1,0,0,0,.592-1.284l-.567-1.536L26.17,13.5a1.948,1.948,0,1,1,3.656-1.348L35.19,26.7a1,1,0,0,0,.939.655.973.973,0,0,0,.345-.063,1,1,0,0,0,.593-1.284L31.7,11.464h0L30.5,8.211A1.949,1.949,0,0,1,34.16,6.863l1.312,3.558,0,0h0l5.249,14.233a1,1,0,0,0,1.877-.693L37.35,9.733h0a1.949,1.949,0,0,1,3.657-1.347L48.06,27.508a1.016,1.016,0,0,0,.555.577,1,1,0,0,0,1.3-.5l3.479-7.544a2.117,2.117,0,1,1,3.845,1.774.865.865,0,0,0-.041.1L51.434,39.34a9.178,9.178,0,0,0,.208,6.372l3.088,8.373a1,1,0,0,0,.938.655.978.978,0,0,0,.346-.063,1,1,0,0,0,.592-1.284l-3.124-8.459a7.194,7.194,0,0,1-.149-4.966L59.079,22.6a4.088,4.088,0,0,0,.1-3.094" fill="#eaf893"/>
      </g>
    </g>
  </g>
</svg>
