<svg xmlns="http://www.w3.org/2000/svg" xmlns:xlink="http://www.w3.org/1999/xlink" width="94" height="94" viewBox="0 0 94 94">
  <defs>
    <radialGradient id="radial-gradient" cx="0.5" cy="0.5" r="0.5" gradientUnits="objectBoundingBox">
      <stop offset="0" stop-color="#43a9ac" stop-opacity="0.412"/>
      <stop offset="1" stop-color="#43a9ac" stop-opacity="0"/>
    </radialGradient>
  </defs>
  <g id="Group_3780" data-name="Group 3780" transform="translate(-893 -1743)">
    <circle id="Ellipse_176" data-name="Ellipse 176" cx="47" cy="47" r="47" transform="translate(893 1743)" opacity="0.996" fill="url(#radial-gradient)"/>
    <g id="diversification_icon" data-name="diversification icon" transform="translate(903 1760.5)">
      <path id="Path_8149" data-name="Path 8149" d="M51,29a15.507,15.507,0,0,0-1.1-5.6,15.541,15.541,0,0,0-3.1-4.6,14.359,14.359,0,0,0-4.6-3.1,14.8,14.8,0,0,0-11.2,0,15.541,15.541,0,0,0-4.6,3.1,14.359,14.359,0,0,0-3.1,4.6,14.8,14.8,0,0,0,0,11.2,15.541,15.541,0,0,0,3.1,4.6A14.359,14.359,0,0,0,31,42.3a14.8,14.8,0,0,0,11.2,0,15.541,15.541,0,0,0,4.6-3.1,14.359,14.359,0,0,0,3.1-4.6A15.1,15.1,0,0,0,51,29ZM36.7,41.5A12.5,12.5,0,1,1,49.2,29,12.5,12.5,0,0,1,36.7,41.5Z" fill="#fff"/>
      <path id="Path_8150" data-name="Path 8150" d="M16.7,7.8l2.5-2.5a.959.959,0,0,0,.2-.9.842.842,0,0,0-.7-.7L10.2,1.5a1.344,1.344,0,0,0-.9.2.959.959,0,0,0-.2.9l2.3,8.5a.961.961,0,0,0,.9.7h.2a.921.921,0,0,0,.7-1.1L11.3,3.8l5.4,1.4-2,2a.91.91,0,0,0-.1,1.2l.1.1L20.2,14a.908.908,0,0,0,.7.3c.3,0,.5,0,.7-.3a.853.853,0,0,0,0-1.3L16.8,7.9Z" fill="#fff"/>
      <path id="Path_8151" data-name="Path 8151" d="M23.1,16.8a.908.908,0,0,0,.7.3c.3,0,.5,0,.7-.3a.853.853,0,0,0,0-1.3l-.7-.7a.919.919,0,0,0-1.3,1.3l.7.7Z" fill="#fff"/>
      <path id="Path_8152" data-name="Path 8152" d="M62,47a.922.922,0,0,0-1.8.4l1.9,6.9-5.4-1.4,2-2a.853.853,0,0,0,0-1.3l-5.5-5.5a.919.919,0,1,0-1.3,1.3l4.8,4.8-2.5,2.5a.959.959,0,0,0-.2.9.842.842,0,0,0,.7.7l8.5,2.3h.2a.745.745,0,0,0,.7-.3.959.959,0,0,0,.2-.9L62,46.9Z" fill="#fff"/>
      <path id="Path_8153" data-name="Path 8153" d="M50.2,41.3a.919.919,0,0,0-1.3,1.3l.7.7a.908.908,0,0,0,.7.3c.3,0,.5,0,.7-.3A.853.853,0,0,0,51,42l-.7-.7Z" fill="#fff"/>
      <path id="Path_8154" data-name="Path 8154" d="M20.2,44.2,15.4,49l-2.5-2.5a.959.959,0,0,0-.9-.2.842.842,0,0,0-.7.7L9,55.5a1.344,1.344,0,0,0,.2.9.908.908,0,0,0,.7.3h.2l8.5-2.3a.922.922,0,1,0-.4-1.8l-6.9,1.9,1.4-5.4,2,2a.853.853,0,0,0,1.3,0l5.5-5.5a.919.919,0,1,0-1.3-1.3Z" fill="#fff"/>
      <path id="Path_8155" data-name="Path 8155" d="M23.1,41.3l-.7.7a.853.853,0,0,0,0,1.3.908.908,0,0,0,.7.3c.3,0,.5,0,.7-.3l.7-.7a.919.919,0,0,0-1.3-1.3Z" fill="#fff"/>
      <path id="Path_8156" data-name="Path 8156" d="M52.4,14.2a.745.745,0,0,0,.7-.3l4.8-4.8,2.5,2.5a.908.908,0,0,0,.7.3h.2a.842.842,0,0,0,.7-.7l2.3-8.5a1.344,1.344,0,0,0-.2-.9.959.959,0,0,0-.9-.2L54.7,3.9a.922.922,0,1,0,.4,1.8L62,3.8,60.6,9.2l-2-2a.853.853,0,0,0-1.3,0l-5.5,5.5a.853.853,0,0,0,0,1.3.908.908,0,0,0,.7.3Z" fill="#fff"/>
      <path id="Path_8157" data-name="Path 8157" d="M49.5,14.8l-.7.7a.853.853,0,0,0,0,1.3.908.908,0,0,0,.7.3c.3,0,.5,0,.7-.3l.7-.7a.919.919,0,0,0-1.3-1.3Z" fill="#fff"/>
      <path id="Path_8158" data-name="Path 8158" d="M36.7,11.4a.9.9,0,0,0,.9-.9V5.9a.9.9,0,0,0-1.8,0v4.6A.9.9,0,0,0,36.7,11.4Z" fill="#fff"/>
      <path id="Path_8159" data-name="Path 8159" d="M36.7,46.7a.9.9,0,0,0-.9.9v4.6a.9.9,0,0,0,1.8,0V47.6A.9.9,0,0,0,36.7,46.7Z" fill="#fff"/>
      <path id="Path_8160" data-name="Path 8160" d="M18,30a.9.9,0,1,0,0-1.8H13.4a.9.9,0,1,0,0,1.8Z" fill="#fff"/>
      <path id="Path_8161" data-name="Path 8161" d="M55.3,28.1a.9.9,0,1,0,0,1.8h4.6a.9.9,0,1,0,0-1.8Z" fill="#fff"/>
    </g>
  </g>
</svg>
