<svg xmlns="http://www.w3.org/2000/svg" xmlns:xlink="http://www.w3.org/1999/xlink" width="94" height="94" viewBox="0 0 94 94">
  <defs>
    <radialGradient id="radial-gradient" cx="0.5" cy="0.5" r="0.5" gradientUnits="objectBoundingBox">
      <stop offset="0" stop-color="#43a9ac" stop-opacity="0.412"/>
      <stop offset="1" stop-color="#43a9ac" stop-opacity="0"/>
    </radialGradient>
  </defs>
  <g id="Group_3782" data-name="Group 3782" transform="translate(-893 -1876)">
    <circle id="Ellipse_178" data-name="Ellipse 178" cx="47" cy="47" r="47" transform="translate(893 1876)" opacity="0.996" fill="url(#radial-gradient)"/>
    <g id="optimisation_icon" data-name="optimisation icon" transform="translate(904.2 1894.5)">
      <circle id="Ellipse_172" data-name="Ellipse 172" cx="27.2" cy="27.2" r="27.2" transform="translate(8.8 1.5)" fill="none" stroke="#fff" stroke-linecap="round" stroke-linejoin="round" stroke-width="1.5"/>
      <path id="Path_8182" data-name="Path 8182" d="M36,7.2A21.4,21.4,0,1,1,36,50c-11.8,0-8.7-1.4-12.2-3.8" fill="none" stroke="#fff" stroke-linecap="round" stroke-linejoin="round" stroke-width="1.5"/>
      <g id="Group_3741" data-name="Group 3741">
        <path id="Path_8183" data-name="Path 8183" d="M21.4,13a10.592,10.592,0,0,1,1.2-1" fill="none" stroke="#fff" stroke-linecap="round" stroke-linejoin="round" stroke-width="1.5"/>
        <path id="Path_8184" data-name="Path 8184" d="M24.7,10.5a20.67,20.67,0,0,1,8.4-3" fill="none" stroke="#fff" stroke-linecap="round" stroke-linejoin="round" stroke-width="1.5" stroke-dasharray="0 0 2.6 2.6"/>
        <path id="Path_8185" data-name="Path 8185" d="M34.4,7.3H36" fill="none" stroke="#fff" stroke-linecap="round" stroke-linejoin="round" stroke-width="1.5"/>
      </g>
      <g id="Group_3742" data-name="Group 3742">
        <path id="Path_8186" data-name="Path 8186" d="M15.6,35.1c-.2-.8-.4-1.5-.6-2.3" fill="none" stroke="#fff" stroke-linecap="round" stroke-linejoin="round" stroke-width="1.5"/>
        <path id="Path_8187" data-name="Path 8187" d="M14.6,28.9v-.2a21.331,21.331,0,0,1,4-12.4" fill="none" stroke="#fff" stroke-linecap="round" stroke-linejoin="round" stroke-width="1.5" stroke-dasharray="0 0 3.9 3.9"/>
        <path id="Path_8188" data-name="Path 8188" d="M19.8,14.7A13.65,13.65,0,0,1,21.5,13" fill="none" stroke="#fff" stroke-linecap="round" stroke-linejoin="round" stroke-width="1.5"/>
      </g>
      <g id="Group_3743" data-name="Group 3743">
        <path id="Path_8189" data-name="Path 8189" d="M23.8,46.3a18.752,18.752,0,0,1-3.9-3.5" fill="none" stroke="#fff" stroke-linecap="round" stroke-linejoin="round" stroke-width="1.5"/>
        <path id="Path_8190" data-name="Path 8190" d="M17.7,39.9a20.876,20.876,0,0,1-2.2-4.8" fill="none" stroke="#fff" stroke-linecap="round" stroke-linejoin="round" stroke-width="1.5"/>
      </g>
      <path id="Path_8191" data-name="Path 8191" d="M35.1,38a3.012,3.012,0,0,1-4.5.3h0l-5.4-5.6a3.085,3.085,0,0,1,0-4.2h0a3.018,3.018,0,0,1,4.3,0l2.9,3L42.8,17.7a3.022,3.022,0,0,1,4.2-.6h0a3.006,3.006,0,0,1,.5,4.2L35,37.8h0Z" fill="none" stroke="#fff" stroke-linecap="round" stroke-linejoin="round" stroke-width="1.5"/>
    </g>
  </g>
</svg>
