<svg xmlns="http://www.w3.org/2000/svg" xmlns:xlink="http://www.w3.org/1999/xlink" width="94" height="94" viewBox="0 0 94 94">
  <defs>
    <radialGradient id="radial-gradient" cx="0.5" cy="0.5" r="0.5" gradientUnits="objectBoundingBox">
      <stop offset="0" stop-color="#43a9ac" stop-opacity="0.412"/>
      <stop offset="1" stop-color="#43a9ac" stop-opacity="0"/>
    </radialGradient>
  </defs>
  <g id="Group_3779" data-name="Group 3779" transform="translate(-751 -1743)">
    <circle id="Ellipse_177" data-name="Ellipse 177" cx="47" cy="47" r="47" transform="translate(751 1743)" opacity="0.996" fill="url(#radial-gradient)"/>
    <g id="efficiency_icon" data-name="efficiency icon" transform="translate(762.9 1761.301)">
      <path id="Path_8162" data-name="Path 8162" d="M52.1,29.1A16.6,16.6,0,1,1,35.5,12.5,16.623,16.623,0,0,1,52.1,29.1Z" fill="none" stroke="#fff" stroke-linecap="round" stroke-linejoin="round" stroke-width="1.5"/>
      <path id="Path_8163" data-name="Path 8163" d="M58.2,24.7l4.8-3L60.2,15l-5.5,1.3A22.236,22.236,0,0,0,48.4,10l1.3-5.5L43,1.7,40,6.5a22.226,22.226,0,0,0-8.9,0l-3-4.8L21.4,4.5,22.7,10a22.236,22.236,0,0,0-6.3,6.3L10.9,15,8.1,21.7l4.8,3a22.226,22.226,0,0,0,0,8.9l-4.8,3,2.8,6.7L16.4,42a22.236,22.236,0,0,0,6.3,6.3l-1.3,5.5,6.7,2.8,3-4.8a22.226,22.226,0,0,0,8.9,0l3,4.8,6.7-2.8-1.3-5.5A22.236,22.236,0,0,0,54.7,42l5.5,1.3L63,36.6l-4.8-3a22.226,22.226,0,0,0,0-8.9Z" fill="none" stroke="#fff" stroke-linecap="round" stroke-linejoin="round" stroke-width="1.5"/>
      <path id="Path_8164" data-name="Path 8164" d="M35.6,19.2v9.9l6.2.1" fill="none" stroke="#fff" stroke-linecap="round" stroke-linejoin="round" stroke-width="1.5"/>
    </g>
  </g>
</svg>
