<svg xmlns="http://www.w3.org/2000/svg" xmlns:xlink="http://www.w3.org/1999/xlink" width="122" height="112" viewBox="0 0 122 112">
  <defs>
    <clipPath id="clip-path">
      <rect id="Rectangle_2002" data-name="Rectangle 2002" width="77.313" height="74.674" transform="translate(0 0)" fill="#eaf893"/>
    </clipPath>
  </defs>
  <g id="Group_3325" data-name="Group 3325" transform="translate(-483 -3036)">
    <g id="Group_3318" data-name="Group 3318" transform="translate(546 312)">
      <g id="Rectangle_2025" data-name="Rectangle 2025" transform="translate(-63 2724)" fill="none" stroke="#fff" stroke-width="2">
        <rect width="122" height="112" rx="17" stroke="none"/>
        <rect x="1" y="1" width="120" height="110" rx="16" fill="none"/>
      </g>
      <g id="Rectangle_2026" data-name="Rectangle 2026" transform="translate(-63 2724)" fill="#1f4659" stroke="#fff" stroke-width="2" style="mix-blend-mode: multiply;isolation: isolate">
        <rect width="122" height="112" rx="17" stroke="none"/>
        <rect x="1" y="1" width="120" height="110" rx="16" fill="none"/>
      </g>
    </g>
    <g id="Group_3203" data-name="Group 3203" transform="translate(505 3055)">
      <g id="Group_3202" data-name="Group 3202" clip-path="url(#clip-path)">
        <path id="Path_7138" data-name="Path 7138" d="M50.691,31.843h4.3a1,1,0,0,0,0-2H50.93V20.322a1,1,0,0,0-2,0v9.8a4.51,4.51,0,0,1-4.505,4.5H19.148a1,1,0,0,0-.707.293l-6.5,6.5V35.625a1,1,0,0,0-1-1H6.505A4.51,4.51,0,0,1,2,30.12V6.505A4.51,4.51,0,0,1,6.505,2h37.92A4.51,4.51,0,0,1,48.93,6.505v5.928a1,1,0,0,0,2,0V6.505A6.512,6.512,0,0,0,44.425,0H6.505A6.512,6.512,0,0,0,0,6.505V30.12a6.512,6.512,0,0,0,6.505,6.5H9.942V43.83a1,1,0,0,0,1.707.707l7.913-7.912H44.425a6.511,6.511,0,0,0,6.266-4.782" fill="#eaf893"/>
        <path id="Path_7139" data-name="Path 7139" d="M70.808,29.844H62.114a1,1,0,0,0,0,2h8.694a4.511,4.511,0,0,1,4.506,4.5V59.964a4.511,4.511,0,0,1-4.506,4.505H45.531a1,1,0,0,0-.707.293l-6.5,6.5V65.469a1,1,0,0,0-1-1H32.889a4.51,4.51,0,0,1-4.506-4.505V38.657a1,1,0,0,0-2,0V59.964a6.513,6.513,0,0,0,6.506,6.505h3.436v7.205a1,1,0,0,0,1.707.707l7.913-7.912H70.808a6.513,6.513,0,0,0,6.506-6.505V36.349a6.513,6.513,0,0,0-6.506-6.5" fill="#eaf893"/>
        <path id="Path_7140" data-name="Path 7140" d="M61.641,44.231A63.506,63.506,0,0,0,60.106,34.2c-1.493-6.314-4.69-15.069-11.448-20.927-5.887-5.1-11.776-7.941-17.506-8.438A15.875,15.875,0,0,0,20.514,7.321a.969.969,0,0,0-.292.356,7.994,7.994,0,0,0-2.773,6.05,1,1,0,0,0,2,0,6.017,6.017,0,0,1,12.033-.009,8.971,8.971,0,0,1-.308,1.753,5.3,5.3,0,0,1-1.875,2.88A13.688,13.688,0,0,1,27.01,19.6c-1.867.865-3.8,1.76-3.8,5.481v1.981a1,1,0,0,0,2,0V25.085c0-2.444.827-2.827,2.639-3.667a15.6,15.6,0,0,0,2.607-1.436,7.291,7.291,0,0,0,2.658-4.027,10.1,10.1,0,0,0,.365-2.228A8.018,8.018,0,0,0,29.434,6.77c4.722.017,10.914,1.947,17.913,8.015C54.9,21.328,57.847,31.871,59,39.008c-.015-.015-.027-.031-.043-.046a9.056,9.056,0,0,0-6.673-2.59,9.185,9.185,0,0,0-4.131,17.239.73.73,0,0,1,.391.634l0,4.624a.99.99,0,0,0,.916.983,3.145,3.145,0,0,0,6.195,0,.991.991,0,0,0,.917-.983V54.247a.739.739,0,0,1,.4-.639,9.181,9.181,0,0,0,4.633-6.547.967.967,0,0,0,.14-.481c0-.046,0-.315-.017-.758,0-.091.017-.179.017-.271a9.313,9.313,0,0,0-.1-1.32m-11.37.716h-.292a.292.292,0,1,1,.292-.292Zm2.292,15.506a1.15,1.15,0,0,1-1-.584h2a1.151,1.151,0,0,1-1,.584m2.014-2.584H50.548V55.561h4.03ZM52.271,46.947h.583v6.614h-.583Zm3.741,4.908a2.751,2.751,0,0,0-1.158,1.258V46.947h.292a2.292,2.292,0,1,0-2.292-2.292v.292h-.583v-.292a2.292,2.292,0,1,0-2.292,2.292h.292v6.166a2.738,2.738,0,0,0-1.154-1.256,7.15,7.15,0,0,1-3.731-6.64,7.3,7.3,0,0,1,6.96-6.846,7.171,7.171,0,0,1,7.287,5.943c.048.648.076,1.171.092,1.553a7.18,7.18,0,0,1-3.713,5.988m-1.158-6.908v-.292a.292.292,0,1,1,.292.292Z" fill="#eaf893"/>
        <path id="Path_7141" data-name="Path 7141" d="M24.148,28.771a1.137,1.137,0,1,0,1.137,1.137,1.138,1.138,0,0,0-1.137-1.137" fill="#eaf893"/>
      </g>
    </g>
  </g>
</svg>
