<svg xmlns="http://www.w3.org/2000/svg" xmlns:xlink="http://www.w3.org/1999/xlink" width="122" height="112" viewBox="0 0 122 112">
  <defs>
    <clipPath id="clip-path">
      <rect id="Rectangle_2003" data-name="Rectangle 2003" width="72.93" height="75.606" transform="translate(0 0)" fill="#eaf893"/>
    </clipPath>
  </defs>
  <g id="Group_3323" data-name="Group 3323" transform="translate(-454 -2867)">
    <g id="Group_3320" data-name="Group 3320" transform="translate(517 143)">
      <g id="Rectangle_2025" data-name="Rectangle 2025" transform="translate(-63 2724)" fill="none" stroke="#fff" stroke-width="2">
        <rect width="122" height="112" rx="17" stroke="none"/>
        <rect x="1" y="1" width="120" height="110" rx="16" fill="none"/>
      </g>
      <g id="Rectangle_2026" data-name="Rectangle 2026" transform="translate(-63 2724)" fill="#1f4659" stroke="#fff" stroke-width="2" style="mix-blend-mode: multiply;isolation: isolate">
        <rect width="122" height="112" rx="17" stroke="none"/>
        <rect x="1" y="1" width="120" height="110" rx="16" fill="none"/>
      </g>
    </g>
    <g id="Group_3205" data-name="Group 3205" transform="translate(479 2885)">
      <g id="Group_3204" data-name="Group 3204" clip-path="url(#clip-path)">
        <path id="Path_7142" data-name="Path 7142" d="M72.633,4.142a.938.938,0,0,0-.716-.288,16.021,16.021,0,0,1-8.129-2.149A14.994,14.994,0,0,0,60.4.331c-3.346-.754-4.921,0-5.09.09a1,1,0,0,0-.535.886V48.021l-3.01.543-1.8-6.508,1.025-7.495c1.025-.522,2.783-1.6,3.153-2.963,0-.007,0-.015.007-.023.014-.053.04-.1.05-.157a1,1,0,0,0,0-.11.975.975,0,0,0,.019-.108L54,23.273a1,1,0,0,0-.577-.88l-7.4-3.446a250.876,250.876,0,0,1-.346-.083.921.921,0,0,0-.21.017.865.865,0,0,0-.144.011c-1.588.459-3,.926-4.23,1.372A5.437,5.437,0,0,0,42.49,14.4c-.005-.017-.011-.032-.017-.048s-.013-.047-.016-.056v0A4.279,4.279,0,0,0,34.274,16.8l.019.059c0,.016.009.033.014.05.754,2.458,2.726,4.114,4.691,4.114.052,0,.1-.009.154-.012a36.329,36.329,0,0,0-4,1.85,1.018,1.018,0,0,0-.339.317L28.139,33.264l-5.677,3.167a4.451,4.451,0,0,0,1.049-1.325,6.347,6.347,0,0,0,.574-3.877c0-.015,0-.03-.008-.044s-.007-.055-.008-.064a4.279,4.279,0,0,0-8.46,1.292l.01.063c0,.016,0,.033.007.049a6.341,6.341,0,0,0,1.708,3.527,4.046,4.046,0,0,0,2.833,1.259,3.424,3.424,0,0,0,.515-.039,3.5,3.5,0,0,0,.466-.108l-3.227,1.8a1,1,0,0,0-.47.582L13.68,51.922a.968.968,0,0,0-.042.244L13.276,59.6,8.61,68.566l-2.9.26a1,1,0,0,0-.617.288L.294,73.9a1,1,0,1,0,1.412,1.416l4.539-4.528,8.229-.737a1,1,0,0,0,.473-.169l7.531-5.107,6.345-.415,8.686,3.812a1,1,0,1,0,.8-1.831l-8.875-3.895,9.414-9.52L61.8,48.788a1,1,0,0,0-.355-1.969l-4.667.842V12.746a8.541,8.541,0,0,1,3.186.216,13.446,13.446,0,0,1,2.928,1.21,17.987,17.987,0,0,0,8.805,2.363h.248A.992.992,0,0,0,72.1,16.5a1.024,1.024,0,0,0,.23-.05.9.9,0,0,0,.132-.089.979.979,0,0,0,.183-.127,1.03,1.03,0,0,0,.1-.145.989.989,0,0,0,.113-.173.972.972,0,0,0,.039-.2.913.913,0,0,0,.038-.187V4.854a1,1,0,0,0-.3-.712M36.22,16.32h-.006a.968.968,0,0,0-.027-.106,2.279,2.279,0,1,1,4.358-1.336l.956-.293-.936.367c.01.033.02.066.032.1.517,1.77-.019,3.549-1.185,3.907s-2.643-.846-3.192-2.638M20.379,35.295a2,2,0,0,1-1.632-.658A4.4,4.4,0,0,1,17.6,32.223H17.6a.982.982,0,0,0-.011-.109,2.279,2.279,0,1,1,4.506-.691l.981-.15L22.1,31.5c0,.031.01.063.016.093a4.381,4.381,0,0,1-.378,2.583,1.989,1.989,0,0,1-1.36,1.117M12.732,68.052h-1.6l4.02-7.725a1.009,1.009,0,0,0,.111-.413l.366-7.527,3.618-11.872,11.82-6.593a3.485,3.485,0,0,1-.022,1.833L31,35.813c-.723.681-5.078,3.432-7.695,5.03a1,1,0,0,0-.451.617L18.33,59.977Zm3.4-1.39,3.949-5.7a.988.988,0,0,0,.15-.332l.744-3.044.175.117.227,5.4Zm8.444-4.187H23.35l-.225-5.363a1,1,0,0,0-.445-.79l-1.2-.8.863-3.532,2.993,3.422ZM38.186,51.012a1,1,0,0,0-.533.281L26.585,62.486l.784-7.3a1,1,0,0,0-.241-.766l-4.207-4.81L24.7,42.335A87.975,87.975,0,0,0,32.448,37.2c.017-.017.025-.042.043-.06s.03-.022.042-.037l5.355-6.957,1.2,3.017L36.7,41.806a.994.994,0,0,0-.018.46l1.714,8.709Zm5.7-1.028-.241-7.133.149-.493.057,1.487a1,1,0,0,0,.072.336l2.181,5.4Zm4.206-.818-2.249-5.573-.281-7.3a1,1,0,0,0-1.957-.25l-1.923,6.388a.986.986,0,0,0-.015.162.943.943,0,0,0-.027.159l.252,7.431-1.561.281-1.645-8.355,2.416-8.74a1,1,0,0,0-.035-.636L39.1,27.771a1,1,0,0,0-1.722-.242l-4.4,5.715c-.1-.483-.207-.893-.281-1.135a1,1,0,0,0-.583-.636,1.022,1.022,0,0,0-.354-.057l4.581-6.929a51.464,51.464,0,0,1,9.186-3.567l6.491,3.024.192,7.164a3.407,3.407,0,0,1-1.3,1.188l-.666-6.559a1,1,0,0,0-.839-.886L46.5,24.392a1,1,0,0,0-1.072,1.388l3.614,8.257-1.087,7.952a.993.993,0,0,0,.027.4l1.8,6.507Zm.339-21.509-.439-1,.343.054Zm22.5-13.149a16.4,16.4,0,0,1-7.143-2.123A14.987,14.987,0,0,0,60.4,11.011a10.973,10.973,0,0,0-3.625-.279V2.064a8.619,8.619,0,0,1,3.186.218,13.377,13.377,0,0,1,2.928,1.21,18.227,18.227,0,0,0,8.04,2.347Z" fill="#eaf893"/>
      </g>
    </g>
  </g>
</svg>
