<svg xmlns="http://www.w3.org/2000/svg" xmlns:xlink="http://www.w3.org/1999/xlink" width="255.872" height="217.541" viewBox="0 0 255.872 217.541">
  <defs>
    <clipPath id="clip-path">
      <path id="Path_7166" data-name="Path 7166" d="M88.4-99.347l0,0a2.713,2.713,0,0,1,3.679-1.089,2.713,2.713,0,0,1,1.089,3.679l0,0a2.713,2.713,0,0,1-3.679,1.089A2.713,2.713,0,0,1,88.4-99.347Zm5.182-9.542,0,0h0a2.713,2.713,0,0,1,3.679-1.089,2.713,2.713,0,0,1,1.089,3.679l0,0a2.713,2.713,0,0,1-3.679,1.089A2.713,2.713,0,0,1,93.585-108.889Zm6.438-9.41,0,0a2.713,2.713,0,0,1,3.823-.333,2.713,2.713,0,0,1,.333,3.823l0,0a2.713,2.713,0,0,1-3.823.333A2.713,2.713,0,0,1,100.023-118.3Zm7.208-8.475,0,0a2.713,2.713,0,0,1,3.837.048,2.713,2.713,0,0,1-.048,3.837l0,0a2.713,2.713,0,0,1-3.837-.048A2.713,2.713,0,0,1,107.231-126.774Zm8.038-7.682,0,0a2.713,2.713,0,0,1,3.814.423,2.713,2.713,0,0,1-.423,3.814l0,0a2.713,2.713,0,0,1-3.814-.423A2.713,2.713,0,0,1,115.269-134.456Zm8.781-6.815,0,0a2.713,2.713,0,0,1,3.755.791,2.713,2.713,0,0,1-.791,3.755l0,0a2.713,2.713,0,0,1-3.755-.791A2.713,2.713,0,0,1,124.05-141.271Zm9.427-5.881,0,0a2.713,2.713,0,0,1,3.661,1.148A2.713,2.713,0,0,1,136-142.345l0,0a2.713,2.713,0,0,1-3.661-1.148A2.713,2.713,0,0,1,133.478-147.152Zm9.972-4.892.005,0h0a2.713,2.713,0,0,1,3.535,1.492,2.713,2.713,0,0,1-1.492,3.535l-.005,0a2.713,2.713,0,0,1-3.535-1.492A2.713,2.713,0,0,1,143.45-152.044Zm10.415-3.858.005,0a2.713,2.713,0,0,1,3.377,1.822,2.713,2.713,0,0,1-1.822,3.377l-.005,0h0a2.713,2.713,0,0,1-3.377-1.822A2.713,2.713,0,0,1,153.865-155.9Zm10.75-2.785h.005a2.713,2.713,0,0,1,3.188,2.136,2.713,2.713,0,0,1-2.136,3.188h-.005a2.713,2.713,0,0,1-3.188-2.136A2.713,2.713,0,0,1,164.615-158.687Zm10.979-1.682h.005a2.713,2.713,0,0,1,2.968,2.432,2.713,2.713,0,0,1-2.432,2.968h-.005a2.713,2.713,0,0,1-2.968-2.432A2.713,2.713,0,0,1,175.594-160.37Zm11.095-.556h.005a2.713,2.713,0,0,1,2.718,2.708A2.713,2.713,0,0,1,186.7-155.5H186.7a2.713,2.713,0,0,1-2.718-2.708A2.713,2.713,0,0,1,186.689-160.926Zm11.171.482h.005a2.713,2.713,0,0,1,2.366,3.021,2.713,2.713,0,0,1-3.021,2.366h-.005a2.713,2.713,0,0,1-2.366-3.021A2.713,2.713,0,0,1,197.86-160.444Zm10.985,1.733h.005a2.713,2.713,0,0,1,2.056,3.24,2.713,2.713,0,0,1-3.24,2.056h-.005a2.713,2.713,0,0,1-2.056-3.24A2.713,2.713,0,0,1,208.845-158.711ZM219.6-155.86l.005,0a2.713,2.713,0,0,1,1.721,3.43,2.713,2.713,0,0,1-3.43,1.721h0l-.005,0a2.713,2.713,0,0,1-1.721-3.43A2.713,2.713,0,0,1,219.6-155.86Zm10.408,3.932.005,0a2.713,2.713,0,0,1,1.365,3.586,2.713,2.713,0,0,1-3.586,1.366h0l0,0h0a2.713,2.713,0,0,1-1.365-3.586A2.713,2.713,0,0,1,230.007-151.929Zm9.856,5.013,0,0a2.713,2.713,0,0,1,1.089,3.679,2.713,2.713,0,0,1-3.679,1.089l0,0a2.713,2.713,0,0,1-1.089-3.679A2.713,2.713,0,0,1,239.863-146.916Zm9.406,5.928,0,0a2.713,2.713,0,0,1,.714,3.77,2.713,2.713,0,0,1-3.77.714l0,0a2.713,2.713,0,0,1-.714-3.77A2.713,2.713,0,0,1,249.269-140.988Zm8.752,6.858,0,0a2.713,2.713,0,0,1,.331,3.823,2.713,2.713,0,0,1-3.823.331l0,0a2.713,2.713,0,0,1-.331-3.823A2.713,2.713,0,0,1,258.021-134.13Zm8,7.716,0,0a2.713,2.713,0,0,1-.047,3.837,2.713,2.713,0,0,1-3.837-.047l0,0a2.713,2.713,0,0,1,.047-3.837A2.713,2.713,0,0,1,266.022-126.414Zm7.168,8.494,0,0a2.713,2.713,0,0,1-.422,3.814,2.713,2.713,0,0,1-3.814-.422l0,0a2.713,2.713,0,0,1,.422-3.814A2.713,2.713,0,0,1,273.189-117.92Zm6.264,9.18,0,0a2.713,2.713,0,0,1-.791,3.755,2.713,2.713,0,0,1-3.755-.791l0,0a2.713,2.713,0,0,1,.791-3.755A2.713,2.713,0,0,1,279.453-108.739Zm5.3,9.769,0,0a2.713,2.713,0,0,1-1.149,3.661,2.713,2.713,0,0,1-3.661-1.149l0,0a2.713,2.713,0,0,1,1.149-3.661A2.713,2.713,0,0,1,284.752-98.971Zm4.284,10.254,0,.005a2.713,2.713,0,0,1-1.492,3.535,2.713,2.713,0,0,1-3.535-1.492l0-.005a2.713,2.713,0,0,1,1.492-3.535A2.713,2.713,0,0,1,289.036-88.717Zm3.257,10.894v.005a2.713,2.713,0,0,1-2.134,3.189,2.713,2.713,0,0,1-3.189-2.134v-.005a2.713,2.713,0,0,1,2.134-3.189A2.713,2.713,0,0,1,292.293-77.823ZM294.341-66.9v.005a2.713,2.713,0,0,1-2.433,2.967,2.713,2.713,0,0,1-2.967-2.433v-.005a2.713,2.713,0,0,1,2.433-2.967A2.713,2.713,0,0,1,294.341-66.9Zm.928,11.074v.005a2.713,2.713,0,0,1-2.707,2.72,2.713,2.713,0,0,1-2.72-2.707v-.005a2.713,2.713,0,0,1,2.707-2.72A2.713,2.713,0,0,1,295.269-55.822Zm-.146,11.053v.005a2.713,2.713,0,0,1-2.9,2.512,2.713,2.713,0,0,1-2.513-2.9v-.005a2.713,2.713,0,0,1,2.9-2.513A2.713,2.713,0,0,1,295.123-44.769ZM293.8-33.728v.005a2.713,2.713,0,0,1-3.134,2.214,2.713,2.713,0,0,1-2.214-3.134v-.005a2.713,2.713,0,0,1,3.134-2.214A2.713,2.713,0,0,1,293.8-33.728Zm-2.451,10.851v.005a2.713,2.713,0,0,1-3.341,1.887,2.713,2.713,0,0,1-1.887-3.341v-.005a2.713,2.713,0,0,1,3.341-1.887A2.713,2.713,0,0,1,291.349-22.876ZM287.8-12.338l0,.005a2.713,2.713,0,0,1-3.511,1.548,2.713,2.713,0,0,1-1.548-3.511l0-.005a2.713,2.713,0,0,1,3.511-1.548A2.713,2.713,0,0,1,287.8-12.338ZM283.1-2.18l0,0a2.713,2.713,0,0,1-3.679,1.088,2.713,2.713,0,0,1-1.088-3.679l0,0a2.713,2.713,0,0,1,3.679-1.088A2.713,2.713,0,0,1,283.1-2.18Zm-5.6,9.608,0,0a2.713,2.713,0,1,1-4.484-3.056l0,0A2.713,2.713,0,0,1,277.5,7.428Zm-6.55,8.984,0,0a2.713,2.713,0,0,1-4.157-3.488l0,0a2.713,2.713,0,1,1,4.157,3.488Zm-7.438,8.261,0,0a2.713,2.713,0,0,1-3.79-3.884l0,0a2.713,2.713,0,0,1,3.79,3.884Zm-8.244,7.449,0,0a2.713,2.713,0,1,1-3.393-4.235l0,0a2.713,2.713,0,1,1,3.393,4.235Zm-8.961,6.565,0,0a2.713,2.713,0,0,1-2.967-4.544l0,0a2.713,2.713,0,0,1,2.967,4.544Zm-9.584,5.619,0,0a2.713,2.713,0,0,1-2.512-4.81l0,0a2.713,2.713,0,0,1,2.512,4.81Zm-10.1,4.616-.005,0a2.713,2.713,0,1,1-2.045-5.026l.005,0a2.713,2.713,0,0,1,2.045,5.026ZM216.11,52.5l-.005,0a2.713,2.713,0,1,1-1.551-5.2l.005,0a2.713,2.713,0,0,1,1.551,5.2Zm-10.821,2.49h-.005a2.713,2.713,0,0,1-1.054-5.323h.005a2.713,2.713,0,1,1,1.054,5.323Zm-11.025,1.381h-.005a2.713,2.713,0,1,1-.535-5.4h.005a2.713,2.713,0,0,1,.535,5.4Zm-11.108.249h-.005a2.713,2.713,0,1,1-.013-5.426h.005a2.713,2.713,0,1,1,.013,5.426Zm-11.15-.87H172a2.713,2.713,0,0,1,.654-5.387h.005a2.713,2.713,0,0,1-.654,5.387ZM161.072,53.7h-.005a2.713,2.713,0,1,1,1.189-5.295h.005a2.713,2.713,0,0,1-1.189,5.295Zm-10.666-3.157-.005,0a2.713,2.713,0,0,1,1.71-5.15l.005,0a2.713,2.713,0,1,1-1.71,5.15Zm-10.29-4.23-.005,0a2.713,2.713,0,0,1,2.216-4.953l.005,0a2.713,2.713,0,0,1-2.216,4.953Zm-9.75-5.233,0,0a2.713,2.713,0,1,1,2.591-4.768l0,0a2.713,2.713,0,0,1-2.591,4.768Zm-9.233-6.215,0,0a2.713,2.713,0,0,1,3.059-4.482l0,0a2.713,2.713,0,0,1-3.059,4.482Zm-8.552-7.125,0,0a2.713,2.713,0,1,1,3.5-4.149l0,0a2.713,2.713,0,1,1-3.5,4.149ZM104.8,19.783l0,0a2.713,2.713,0,1,1,3.9-3.777l0,0a2.713,2.713,0,1,1-3.9,3.777Zm-7.067-8.943,0,0a2.713,2.713,0,1,1,4.568-2.93l0,0a2.713,2.713,0,1,1-4.568,2.93Zm-5.96-9.4,0,0a2.713,2.713,0,1,1,4.838-2.457l0,0a2.713,2.713,0,1,1-4.838,2.457ZM86.8-8.516l0-.005h0a2.713,2.713,0,0,1,1.555-3.508,2.713,2.713,0,0,1,3.508,1.555l0,.005a2.713,2.713,0,0,1-1.554,3.508A2.713,2.713,0,0,1,86.8-8.516Z" transform="translate(-86.618 160.926)" fill="none"/>
    </clipPath>
    <linearGradient id="linear-gradient" x1="0.673" y1="0.006" x2="0.673" y2="0.997" gradientUnits="objectBoundingBox">
      <stop offset="0"/>
      <stop offset="0" stop-color="#54b8df"/>
      <stop offset="0.1" stop-color="#54bedf"/>
      <stop offset="0.2" stop-color="#54c5df"/>
      <stop offset="0.3" stop-color="#54cbdf"/>
      <stop offset="0.4" stop-color="#54d2df"/>
      <stop offset="0.5" stop-color="#54d8df"/>
      <stop offset="0.6" stop-color="#6adfd1"/>
      <stop offset="0.7" stop-color="#8ae5bd"/>
      <stop offset="0.8" stop-color="#abeca9"/>
      <stop offset="0.9" stop-color="#cbf296"/>
      <stop offset="1" stop-color="#ebf982"/>
      <stop offset="1"/>
    </linearGradient>
    <clipPath id="clip-path-2">
      <path id="Path_7168" data-name="Path 7168" d="M63.161-90a3.347,3.347,0,0,0-2.17.775,5.2,5.2,0,0,0-1.478,2.778,38.318,38.318,0,0,0-.692,8.752,38.037,38.037,0,0,0,.62,8.454A5.944,5.944,0,0,0,61-66.176a3.332,3.332,0,0,0,2.158.763,3.347,3.347,0,0,0,2.17-.775,5.2,5.2,0,0,0,1.478-2.778,37.979,37.979,0,0,0,.692-8.728,38.037,38.037,0,0,0-.62-8.454,6.027,6.027,0,0,0-1.562-3.076A3.3,3.3,0,0,0,63.161-90Zm27.347-5.556q5.175,0,8.132,2.79a9.152,9.152,0,0,1,2.957,6.939,12.08,12.08,0,0,1-.847,4.5,18.28,18.28,0,0,1-2.683,4.471A42.926,42.926,0,0,1,93.679-72.4q-3.172,2.909-4.018,3.863a11.567,11.567,0,0,0-1.371,1.86H101.6v6.224H78.107A16.177,16.177,0,0,1,80.4-67.141q1.908-3.16,7.536-8.382a47.4,47.4,0,0,0,5.556-5.723,7.372,7.372,0,0,0,1.383-4.1,4.663,4.663,0,0,0-1.2-3.446A4.5,4.5,0,0,0,90.341-90,4.464,4.464,0,0,0,87-88.735a6.491,6.491,0,0,0-1.431,4.2l-6.677-.668q.6-5.532,3.744-7.941A12.571,12.571,0,0,1,90.508-95.555Zm-27.347,0A9.552,9.552,0,0,1,71.1-91.93q3.41,4.292,3.41,14.237,0,9.92-3.434,14.26a9.537,9.537,0,0,1-7.917,3.577,10,10,0,0,1-8.227-3.923Q51.81-67.7,51.81-77.765q0-9.873,3.434-14.213A9.537,9.537,0,0,1,63.161-95.555Z" transform="translate(-51.81 95.555)" fill="none" clip-rule="evenodd"/>
    </clipPath>
    <linearGradient id="linear-gradient-2" x1="0.202" y1="0.61" x2="0.381" y2="0.364" gradientUnits="objectBoundingBox">
      <stop offset="0"/>
      <stop offset="0" stop-color="#54b8df"/>
      <stop offset="0.1" stop-color="#54bfdf"/>
      <stop offset="0.2" stop-color="#54c7df"/>
      <stop offset="0.3" stop-color="#54cedf"/>
      <stop offset="0.4" stop-color="#54d6df"/>
      <stop offset="0.5" stop-color="#5fdcd8"/>
      <stop offset="0.6" stop-color="#7be2c7"/>
      <stop offset="0.7" stop-color="#97e8b6"/>
      <stop offset="0.8" stop-color="#b3eea4"/>
      <stop offset="0.9" stop-color="#cff393"/>
      <stop offset="1" stop-color="#ebf982"/>
      <stop offset="1"/>
    </linearGradient>
    <clipPath id="clip-path-3">
      <rect id="Rectangle_2022" data-name="Rectangle 2022" width="77.1" height="74.182" fill="#fff"/>
    </clipPath>
  </defs>
  <g id="Group_3313" data-name="Group 3313" transform="translate(-836.999 -1535)">
    <g id="Group_3297" data-name="Group 3297" transform="translate(785.189 1695.926)">
      <path id="Path_7163" data-name="Path 7163" d="M98-58.551C98-105.191,135.657-143,182.11-143s84.11,37.809,84.11,84.449S228.563,25.9,182.11,25.9,98-11.911,98-58.551Z" transform="translate(16.472 6.393)" fill="rgba(255,255,255,0.43)" fill-rule="evenodd"/>
      <g id="Group_3292" data-name="Group 3292" transform="translate(114.472 -136.607)" opacity="0.431">
        <g id="Group_3291" data-name="Group 3291">
          <path id="Path_7164" data-name="Path 7164" d="M0,84.449C0,37.809,37.657,0,84.11,0s84.11,37.809,84.11,84.449S130.563,168.9,84.11,168.9,0,131.089,0,84.449Z" fill="none" stroke="#fff" stroke-linejoin="round" stroke-width="2.75"/>
        </g>
      </g>
      <g id="Group_3294" data-name="Group 3294" transform="translate(99.031 -160.926)" clip-path="url(#clip-path)">
        <g id="Group_3293" data-name="Group 3293" transform="translate(-117.507 -1.457)">
          <path id="Path_7165" data-name="Path 7165" d="M-82-3H244.944V216.772H-82Z" transform="translate(82 3)" fill="url(#linear-gradient)"/>
        </g>
      </g>
      <g id="Group_3296" data-name="Group 3296" transform="translate(51.81 -72.242)" clip-path="url(#clip-path-2)">
        <g id="Group_3295" data-name="Group 3295" transform="translate(-70.286 -90.141)">
          <path id="Path_7167" data-name="Path 7167" d="M-.294-53.72H326.65V166.051H-.294Z" transform="translate(0.294 53.72)" fill="url(#linear-gradient-2)"/>
        </g>
      </g>
    </g>
    <g id="Group_3311" data-name="Group 3311" transform="translate(950 1602.169)">
      <g id="Group_3310" data-name="Group 3310" transform="translate(0 0.001)" clip-path="url(#clip-path-3)">
        <path id="Path_7176" data-name="Path 7176" d="M76.962,40.175,76.7,39.132a3.928,3.928,0,0,0-3.819-2.98,3.073,3.073,0,0,0-1.624.462l-2.689,1.664a4.746,4.746,0,0,0-2.9-2.893,4.157,4.157,0,0,0-2.766.02L51.576,39.9,23.223,36.309a6.385,6.385,0,0,0-2.809.276L3,42.519a1.195,1.195,0,1,0,.772,2.261l17.4-5.931a3.95,3.95,0,0,1,1.744-.17l29.9,3.787a1.331,1.331,0,0,1,1.163,1.44l-.14,1.621a1.662,1.662,0,0,1-1.624,1.518l-15.506.265-6.278-.222a1.195,1.195,0,0,0-.085,2.388l5.991.21,9.094,5a1.2,1.2,0,0,0,1.2-.031l25.877-16.01a.687.687,0,0,1,.364-.1,1.543,1.543,0,0,1,1.5,1.173l.263,1.04a2.261,2.261,0,0,1-.844,2.364L46.453,63.426a6.424,6.424,0,0,1-2.146,1.048l-1.3.361a3.338,3.338,0,0,1-1.955-.047l-27.1-8.99a6.15,6.15,0,0,0-4.65.333L.668,60.365A1.195,1.195,0,0,0,1.72,62.51l8.643-4.239a3.743,3.743,0,0,1,2.837-.207l27.1,8.992a5.7,5.7,0,0,0,3.349.079l1.29-.357a8.814,8.814,0,0,0,2.937-1.434L75.224,45.035a4.644,4.644,0,0,0,1.738-4.86M63.743,37.642a1.707,1.707,0,0,1,1.138,0,2.348,2.348,0,0,1,1.541,1.966L56.185,45.939c.01-.069.031-.134.038-.2l.14-1.623a3.7,3.7,0,0,0-1.2-3.064ZM45.975,52.256l-4.791-2.634,9.3-.158Z" transform="translate(0 6.834)" fill="#fff"/>
        <path id="Path_7177" data-name="Path 7177" d="M29.226,21.148l-2.07,6.369a1.195,1.195,0,0,0,1.838,1.335l5.418-3.936,5.418,3.936a1.194,1.194,0,0,0,1.837-1.335L39.6,21.148l5.417-3.936a1.194,1.194,0,0,0-.7-2.161h-6.7l-2.07-6.369a1.194,1.194,0,0,0-2.272,0l-2.07,6.369h-6.7a1.194,1.194,0,0,0-.7,2.161Zm2.849-3.707a1.2,1.2,0,0,0,1.136-.825l1.2-3.7,1.2,3.7a1.194,1.194,0,0,0,1.136.825h3.888l-3.145,2.285a1.2,1.2,0,0,0-.435,1.335l1.2,3.7-3.146-2.285a1.193,1.193,0,0,0-1.4,0l-3.146,2.285,1.2-3.7a1.2,1.2,0,0,0-.435-1.335l-3.145-2.285Z" transform="translate(4.533 1.527)" fill="#fff"/>
        <path id="Path_7178" data-name="Path 7178" d="M20.452,30.187l2.265,5.245a1.192,1.192,0,0,0,.905.7l5.638.917,4.915,2.913a1.207,1.207,0,0,0,.609.166,1.191,1.191,0,0,0,.539-.128l5.1-2.573L46.11,36.9a1.194,1.194,0,0,0,.951-.643l2.615-5.079L53.964,27.4a1.2,1.2,0,0,0,.392-1.079l-.871-5.645L54.735,15.1a1.194,1.194,0,0,0-.317-1.1L50.4,9.946,48.131,4.7a1.2,1.2,0,0,0-.905-.7l-5.639-.917L36.672.167A1.2,1.2,0,0,0,35.526.128L30.425,2.7l-5.688.533a1.2,1.2,0,0,0-.951.643L21.172,8.954,16.884,12.73a1.191,1.191,0,0,0-.392,1.079l.87,5.646-1.249,5.574a1.192,1.192,0,0,0,.317,1.1Zm-1.5-16.1L22.92,10.6a1.174,1.174,0,0,0,.272-.35l2.42-4.7,5.26-.492a1.2,1.2,0,0,0,.426-.123l4.719-2.379,4.546,2.693a1.214,1.214,0,0,0,.417.15l5.217.849L48.291,11.1a1.236,1.236,0,0,0,.248.367l3.722,3.753L51.1,20.377a1.2,1.2,0,0,0-.014.443l.805,5.223-3.968,3.491a1.214,1.214,0,0,0-.272.35l-2.419,4.7-5.261.492a1.208,1.208,0,0,0-.426.123l-4.719,2.38-4.546-2.695a1.205,1.205,0,0,0-.417-.15l-5.216-.848-2.095-4.853a1.193,1.193,0,0,0-.248-.367l-3.721-3.753,1.157-5.156a1.2,1.2,0,0,0,.014-.443Z" transform="translate(3.127 -0.001)" fill="#fff"/>
      </g>
    </g>
  </g>
</svg>
