<svg xmlns="http://www.w3.org/2000/svg" width="24.428" height="29.008" viewBox="0 0 24.428 29.008">
  <g id="Group_3003" data-name="Group 3003" transform="translate(-2 -1)">
    <path id="Path_639" data-name="Path 639" d="M26.275,8.023,19.4,1.153c-.153,0-.458-.153-.611-.153H4.29A2.348,2.348,0,0,0,2,3.29V27.718a2.348,2.348,0,0,0,2.29,2.29H24.138a2.348,2.348,0,0,0,2.29-2.29V8.634C26.428,8.481,26.275,8.176,26.275,8.023ZM24.6,8.634H19.557a.721.721,0,0,1-.763-.763V2.832ZM24.9,27.718a.721.721,0,0,1-.763.763H4.29a.721.721,0,0,1-.763-.763V3.29a.721.721,0,0,1,.763-.763H17.267V7.87a2.348,2.348,0,0,0,2.29,2.29H24.9Z" fill="#1f4659"/>
  </g>
</svg>
