<svg xmlns="http://www.w3.org/2000/svg" width="30" height="30" viewBox="0 0 30 30">
  <path id="arrow-bottom-rec" d="M20.436,3.343c2.679,0,3.77.014,4.623.29a5.93,5.93,0,0,1,3.808,3.808c.278.853.29,1.944.29,4.623v6.977c0,1.97,0,3.387-.092,4.5a6.25,6.25,0,0,1-.554,2.382,5.932,5.932,0,0,1-2.591,2.591,6.224,6.224,0,0,1-2.382.554c-1.111.091-2.526.092-4.5.092H13.459c-1.972,0-3.387,0-4.5-.092a6.235,6.235,0,0,1-2.38-.554A5.93,5.93,0,0,1,3.989,25.92a6.224,6.224,0,0,1-.554-2.382c-.091-1.111-.092-2.526-.092-4.5V12.064c0-2.679.014-3.77.29-4.623A5.93,5.93,0,0,1,7.441,3.633c.853-.278,1.944-.29,4.623-.29h.7a1.047,1.047,0,1,0,0-2.093h-.924a17.313,17.313,0,0,0-5.044.392A8.023,8.023,0,0,0,1.642,6.794a17.313,17.313,0,0,0-.392,5.044v7.25c0,1.913,0,3.414.1,4.62a8.266,8.266,0,0,0,.777,3.16,8.023,8.023,0,0,0,3.507,3.507,8.216,8.216,0,0,0,3.16.776c1.206.1,2.707.1,4.62.1h5.676c1.913,0,3.414,0,4.62-.1a8.241,8.241,0,0,0,3.16-.777,8.023,8.023,0,0,0,3.507-3.507,8.216,8.216,0,0,0,.776-3.16c.1-1.206.1-2.707.1-4.62v-7.25a17.313,17.313,0,0,0-.392-5.044,8.023,8.023,0,0,0-5.152-5.152,17.313,17.313,0,0,0-5.044-.392h-.924a1.047,1.047,0,1,0,0,2.093h.7ZM17.3,9.273a1.047,1.047,0,0,0-2.093,0V20.7l-3.8-3.8a1.047,1.047,0,1,0-1.479,1.479l5.581,5.581a1.047,1.047,0,0,0,1.479,0l5.581-5.581a1.047,1.047,0,0,0-1.479-1.479l-3.8,3.8V9.273Z" transform="translate(-1.25 -1.25)" fill="#1f4659" fill-rule="evenodd"/>
</svg>
