<svg xmlns="http://www.w3.org/2000/svg" width="20.901" height="30.547" viewBox="0 0 20.901 30.547">
  <g id="Group_3006" data-name="Group 3006" transform="translate(-3 -1)">
    <path id="Path_2651" data-name="Path 2651" d="M11.627,21.9A5.7,5.7,0,0,1,6,16.273V6.627A5.7,5.7,0,0,1,11.627,1a5.7,5.7,0,0,1,5.627,5.627v9.646A5.7,5.7,0,0,1,11.627,21.9Zm0-19.293A3.98,3.98,0,0,0,7.608,6.627v9.646a4.019,4.019,0,0,0,8.039,0V6.627A3.98,3.98,0,0,0,11.627,2.608Z" transform="translate(1.823)" fill="#1f4650"/>
    <path id="Path_2652" data-name="Path 2652" d="M23.9,10.8a.8.8,0,1,0-1.608,0,8.921,8.921,0,0,1-8.843,8.843A8.921,8.921,0,0,1,4.608,10.8a.759.759,0,0,0-.8-.8.759.759,0,0,0-.8.8,10.5,10.5,0,0,0,9.646,10.45V24.47H10.235a.8.8,0,0,0,0,1.608h6.431a.8.8,0,1,0,0-1.608H14.254V21.254A10.5,10.5,0,0,0,23.9,10.8Z" transform="translate(0 5.47)" fill="#1f4650"/>
  </g>
</svg>
