<?xml version="1.0" encoding="UTF-8"?>
<svg id="Layer_1" data-name="Layer 1" xmlns="http://www.w3.org/2000/svg" xmlns:xlink="http://www.w3.org/1999/xlink" viewBox="0 0 250 217">
  <defs>
    <style>
      .cls-1 {
        clip-path: url(#clippath);
      }

      .cls-2, .cls-3, .cls-4, .cls-5, .cls-6 {
        stroke-width: 0px;
      }

      .cls-2, .cls-7 {
        fill: none;
      }

      .cls-3 {
        fill: url(#linear-gradient);
      }

      .cls-8 {
        clip-path: url(#clippath-1);
      }

      .cls-9 {
        clip-path: url(#clippath-2);
      }

      .cls-10 {
        opacity: .43;
      }

      .cls-4 {
        fill: #8096a1;
        fill-rule: evenodd;
      }

      .cls-5 {
        fill: url(#linear-gradient-2);
      }

      .cls-7 {
        stroke: #fff;
        stroke-linejoin: round;
        stroke-width: 2.75px;
      }

      .cls-6 {
        fill: #fff;
      }
    </style>
    <clipPath id="clippath">
      <path class="cls-2" d="M49.28,65.5h0c.67-1.23,2.21-1.69,3.44-1.02,0,0,0,0,0,0,1.23.67,1.69,2.21,1.02,3.44,0,0,0,0,0,0h0c-.67,1.23-2.21,1.69-3.44,1.02,0,0,0,0,0,0-1.23-.67-1.69-2.21-1.02-3.44,0,0,0,0,0,0ZM54.12,56.58h0c.67-1.23,2.21-1.69,3.44-1.02,0,0,0,0,0,0,1.23.67,1.69,2.21,1.02,3.44,0,0,0,0,0,0h0c-.67,1.23-2.21,1.69-3.44,1.02,0,0,0,0,0,0-1.23-.67-1.68-2.21-1.02-3.44h0ZM60.14,47.79h0c.9-1.07,2.5-1.21,3.57-.31,0,0,0,0,0,0,1.07.9,1.21,2.5.31,3.57,0,0,0,0,0,0h0c-.9,1.07-2.5,1.21-3.57.31,0,0,0,0,0,0-1.07-.9-1.21-2.5-.31-3.57h0s0,0,0,0ZM66.88,39.87h0c1-.98,2.61-.96,3.59.04,0,0,0,0,0,0,.98,1,.96,2.61-.04,3.59,0,0,0,0,0,0h0c-1,.98-2.61.96-3.59-.04,0,0,0,0,0,0-.98-1-.96-2.61.05-3.59,0,0,0,0,0,0h0ZM74.39,32.68h0c1.09-.88,2.69-.7,3.56.39,0,0,0,0,0,0,.88,1.09.7,2.69-.39,3.56h0c-1.09.88-2.69.7-3.56-.39,0,0,0,0,0,0-.87-1.09-.7-2.69.4-3.56,0,0,0,0,0,0h0ZM82.6,26.31h0c1.17-.77,2.74-.43,3.51.74,0,0,0,0,0,0,.77,1.17.43,2.74-.74,3.51,0,0,0,0,0,0h0c-1.17.77-2.74.43-3.51-.74,0,0,0,0,0,0-.76-1.17-.43-2.74.74-3.51,0,0,0,0,0,0h0ZM91.41,20.82h0c1.24-.65,2.77-.17,3.42,1.07h0c.65,1.24.17,2.77-1.06,3.42h0c-1.24.65-2.77.17-3.42-1.07h0c-.65-1.24-.17-2.77,1.06-3.42h0ZM100.73,16.24h0c1.3-.53,2.78.1,3.3,1.39,0,0,0,0,0,0,.53,1.3-.1,2.78-1.39,3.3,0,0,0,0,0,0h0c-1.3.53-2.78-.1-3.3-1.39,0,0,0,0,0,0-.53-1.3.1-2.78,1.4-3.3,0,0,0,0,0,0h0ZM110.47,12.64h0c1.34-.4,2.75.36,3.16,1.7,0,0,0,0,0,0,.4,1.34-.36,2.75-1.7,3.16,0,0,0,0,0,0h0c-1.34.4-2.75-.36-3.16-1.7,0,0,0,0,0,0-.4-1.34.36-2.75,1.71-3.15,0,0,0,0,0,0h0ZM120.51,10.04h0c1.37-.27,2.71.62,2.98,2,0,0,0,0,0,0,.27,1.37-.62,2.71-2,2.98,0,0,0,0,0,0h0c-1.37.27-2.71-.62-2.98-2,0,0,0,0,0,0-.27-1.37.62-2.71,2-2.98,0,0,0,0,0,0h0ZM130.78,8.46h0c1.39-.14,2.64.88,2.77,2.27,0,0,0,0,0,0,.14,1.39-.88,2.64-2.27,2.77,0,0,0,0,0,0h0c-1.39.14-2.64-.88-2.77-2.27,0,0,0,0,0,0-.14-1.39.88-2.64,2.27-2.77,0,0,0,0,0,0h0ZM141.15,7.94h0c1.4,0,2.54,1.13,2.54,2.53h0c0,1.4-1.13,2.54-2.53,2.54h0c-1.4,0-2.54-1.13-2.54-2.53h0c0-1.4,1.13-2.54,2.53-2.54h0ZM151.59,8.39h0c1.39.17,2.38,1.43,2.21,2.82,0,0,0,0,0,0-.17,1.39-1.43,2.38-2.82,2.21,0,0,0,0,0,0h0c-1.39-.17-2.38-1.43-2.21-2.82,0,0,0,0,0,0,.17-1.39,1.43-2.38,2.82-2.21,0,0,0,0,0,0h0ZM161.86,10.01h0c1.37.31,2.23,1.66,1.92,3.03,0,0,0,0,0,0-.31,1.37-1.66,2.23-3.03,1.92,0,0,0,0,0,0h0c-1.37-.31-2.23-1.66-1.92-3.03,0,0,0,0,0,0,.3-1.37,1.66-2.23,3.03-1.92,0,0,0,0,0,0h0ZM171.91,12.68h0c1.33.44,2.05,1.88,1.61,3.21,0,0,0,0,0,0-.44,1.33-1.88,2.05-3.21,1.61,0,0,0,0,0,0h0c-1.33-.44-2.05-1.88-1.61-3.21,0,0,0,0,0,0,.44-1.33,1.88-2.05,3.21-1.61,0,0,0,0,0,0ZM181.64,16.35h0c1.28.57,1.85,2.07,1.28,3.35h0c-.57,1.28-2.07,1.85-3.35,1.28,0,0,0,0,0,0h0c-1.28-.57-1.85-2.07-1.28-3.35h0c.57-1.28,2.07-1.85,3.35-1.28h0ZM190.86,21.04h0c1.23.67,1.69,2.21,1.02,3.44,0,0,0,0,0,0-.67,1.23-2.21,1.69-3.44,1.02,0,0,0,0,0,0h0c-1.23-.67-1.69-2.21-1.02-3.44,0,0,0,0,0,0,.67-1.23,2.21-1.69,3.44-1.02h0ZM199.65,26.58h0c1.16.79,1.46,2.37.67,3.52,0,0,0,0,0,0-.79,1.16-2.37,1.46-3.52.67,0,0,0,0,0,0h0c-1.16-.79-1.46-2.37-.67-3.52,0,0,0,0,0,0,.79-1.16,2.37-1.46,3.52-.67h0ZM207.83,32.99h0c1.07.9,1.21,2.5.31,3.57,0,0,0,0,0,0-.9,1.07-2.5,1.21-3.57.31,0,0,0,0,0,0h0c-1.07-.9-1.21-2.5-.31-3.57,0,0,0,0,0,0,.9-1.07,2.5-1.21,3.57-.31h0ZM215.31,40.2h0c.98,1,.96,2.61-.04,3.59,0,0,0,0,0,0-1,.98-2.61.96-3.59-.04,0,0,0,0,0,0h0c-.98-1-.96-2.61.04-3.59,0,0,0,0,0,0,1-.98,2.61-.96,3.59.04,0,0,0,0,0,0h0ZM222.01,48.14h0c.88,1.09.7,2.69-.39,3.56,0,0,0,0,0,0-1.09.88-2.69.7-3.56-.39,0,0,0,0,0,0h0c-.88-1.09-.7-2.69.39-3.56,0,0,0,0,0,0,1.09-.88,2.69-.7,3.56.39h0ZM227.86,56.72h0c.77,1.17.43,2.74-.74,3.51,0,0,0,0,0,0-1.17.77-2.74.43-3.51-.74,0,0,0,0,0,0h0c-.77-1.17-.43-2.74.74-3.51,0,0,0,0,0,0,1.17-.76,2.74-.43,3.51.74h0ZM232.82,65.86h0c.65,1.24.17,2.77-1.07,3.42,0,0,0,0,0,0-1.24.65-2.77.17-3.42-1.07,0,0,0,0,0,0h0c-.65-1.24-.17-2.77,1.07-3.42,0,0,0,0,0,0,1.24-.65,2.77-.17,3.42,1.07h0ZM236.82,75.44h0c.53,1.3-.1,2.78-1.39,3.31,0,0,0,0,0,0-1.3.53-2.78-.1-3.3-1.39,0,0,0,0,0,0h0c-.53-1.3.1-2.78,1.39-3.31,0,0,0,0,0,0,1.3-.53,2.77.1,3.3,1.39h0ZM239.87,85.62h0c.27,1.38-.62,2.71-1.99,2.99,0,0,0,0,0,0-1.37.27-2.71-.62-2.98-1.99h0c-.27-1.38.62-2.71,1.99-2.99,0,0,0,0,0,0,1.37-.27,2.71.62,2.98,1.99h0ZM241.78,95.83h0c.14,1.4-.88,2.64-2.27,2.78,0,0,0,0,0,0-1.39.14-2.64-.88-2.77-2.27,0,0,0,0,0,0h0c-.14-1.4.88-2.64,2.27-2.78,0,0,0,0,0,0,1.39-.14,2.64.88,2.77,2.27,0,0,0,0,0,0ZM242.65,106.18h0c0,1.41-1.13,2.54-2.53,2.55,0,0,0,0,0,0-1.4,0-2.54-1.13-2.54-2.53h0c0-1.41,1.13-2.54,2.53-2.55,0,0,0,0,0,0,1.4,0,2.54,1.13,2.54,2.53h0s0,0,0,0ZM242.51,116.52h0c-.1,1.4-1.31,2.45-2.71,2.35-1.4-.1-2.45-1.31-2.35-2.71,0,0,0,0,0,0h0c.1-1.4,1.31-2.45,2.71-2.35,0,0,0,0,0,0,1.4.1,2.45,1.31,2.35,2.71,0,0,0,0,0,0h0ZM241.27,126.84h0c-.24,1.38-1.55,2.31-2.93,2.07,0,0,0,0,0,0-1.38-.24-2.31-1.55-2.07-2.93h0c.24-1.39,1.55-2.31,2.93-2.07,0,0,0,0,0,0,1.38.24,2.31,1.55,2.07,2.93h0ZM238.98,136.98h0c-.38,1.35-1.77,2.14-3.12,1.77,0,0,0,0,0,0-1.35-.38-2.14-1.77-1.76-3.12,0,0,0,0,0,0h0c.38-1.35,1.77-2.14,3.12-1.77,0,0,0,0,0,0,1.35.38,2.14,1.77,1.76,3.12,0,0,0,0,0,0h0ZM235.66,146.83h0c-.51,1.31-1.98,1.96-3.28,1.45,0,0,0,0,0,0-1.31-.51-1.95-1.98-1.45-3.28h0c.51-1.31,1.98-1.96,3.28-1.45,0,0,0,0,0,0,1.31.51,1.95,1.98,1.45,3.28h0ZM231.27,156.33h0c-.67,1.23-2.21,1.69-3.44,1.02-1.23-.67-1.69-2.21-1.02-3.44h0c.67-1.23,2.21-1.69,3.44-1.02,1.23.67,1.69,2.21,1.02,3.44ZM226.04,165.31h0c-.79,1.16-2.37,1.46-3.52.67-1.16-.79-1.46-2.37-.67-3.52h0c.79-1.16,2.37-1.46,3.52-.67,1.16.79,1.46,2.37.67,3.52ZM219.91,173.71h0c-.9,1.07-2.5,1.21-3.57.31-1.07-.9-1.21-2.5-.31-3.57h0c.9-1.07,2.5-1.21,3.57-.31,1.07.9,1.21,2.5.31,3.57ZM212.96,181.43h0c-1,.98-2.61.96-3.59-.04-.98-1-.96-2.61.04-3.59h0c1-.98,2.61-.96,3.59.04.98,1,.96,2.61-.04,3.59ZM205.25,188.39h0c-1.09.88-2.69.7-3.57-.39-.88-1.09-.7-2.69.39-3.57h0c1.09-.88,2.69-.7,3.57.39.88,1.09.7,2.69-.39,3.57h0ZM196.88,194.53h0c-1.17.77-2.74.44-3.51-.74-.77-1.17-.44-2.74.74-3.51h0c1.17-.77,2.74-.44,3.51.74.77,1.17.44,2.74-.74,3.51h0ZM187.92,199.78h0c-1.24.65-2.77.17-3.42-1.07-.65-1.24-.17-2.77,1.07-3.42h0c1.24-.65,2.77-.17,3.42,1.07.65,1.24.17,2.77-1.07,3.42h0ZM178.48,204.1h0c-1.3.53-2.78-.1-3.3-1.39-.53-1.3.1-2.78,1.39-3.3h0c1.3-.53,2.78.1,3.3,1.39.53,1.3-.1,2.78-1.39,3.3ZM168.65,207.44h0c-1.34.4-2.75-.36-3.16-1.71-.4-1.34.36-2.75,1.71-3.16h0c1.34-.4,2.75.36,3.16,1.71.4,1.34-.36,2.75-1.71,3.16ZM158.54,209.77h0c-1.37.27-2.71-.62-2.98-2-.27-1.37.62-2.71,2-2.98h0c1.37-.27,2.71.62,2.98,2,.27,1.37-.62,2.71-2,2.98ZM148.23,211.06h0c-1.39.14-2.64-.88-2.77-2.27s.88-2.64,2.27-2.77h0c1.39-.14,2.64.88,2.77,2.27s-.88,2.64-2.27,2.77h0ZM137.85,211.29h0c-1.4,0-2.54-1.13-2.54-2.53,0-1.4,1.13-2.54,2.53-2.54h0c1.4,0,2.54,1.13,2.54,2.53,0,1.4-1.13,2.54-2.53,2.54ZM127.43,210.48h0c-1.39-.17-2.38-1.43-2.21-2.82.17-1.39,1.43-2.38,2.82-2.21h0c1.39.17,2.38,1.43,2.21,2.82-.17,1.39-1.43,2.38-2.82,2.21h0ZM117.21,208.56h0c-1.37-.31-2.23-1.66-1.92-3.03.31-1.37,1.66-2.23,3.03-1.92h0c1.37.31,2.23,1.66,1.92,3.03-.31,1.37-1.66,2.23-3.03,1.92ZM107.24,205.61h0c-1.33-.44-2.05-1.88-1.61-3.21.44-1.33,1.88-2.05,3.21-1.61h0c1.33.44,2.05,1.88,1.61,3.21-.44,1.33-1.88,2.05-3.21,1.61ZM97.62,201.66h0c-1.28-.57-1.85-2.07-1.28-3.35.57-1.28,2.07-1.85,3.35-1.28h0c1.28.57,1.85,2.07,1.28,3.35-.57,1.28-2.07,1.85-3.35,1.28ZM88.5,196.77h0c-1.23-.67-1.69-2.21-1.02-3.44.67-1.23,2.21-1.69,3.44-1.02h0c1.23.67,1.69,2.21,1.02,3.44-.67,1.23-2.21,1.69-3.44,1.02ZM79.87,190.96h0c-1.16-.79-1.45-2.37-.67-3.52.79-1.16,2.37-1.45,3.52-.67h0c1.16.79,1.45,2.37.67,3.52s-2.37,1.45-3.52.67ZM71.88,184.3h0c-1.07-.9-1.21-2.5-.3-3.57.9-1.07,2.5-1.21,3.57-.3h0c1.07.9,1.21,2.5.3,3.57-.9,1.07-2.5,1.21-3.57.3ZM64.61,176.86h0c-.97-1.01-.95-2.61.06-3.59s2.61-.95,3.59.06h0c.97,1.01.95,2.61-.06,3.59s-2.61.95-3.59-.06ZM58,168.5h0c-.76-1.18-.41-2.75.77-3.5s2.75-.41,3.5.77h0c.76,1.18.41,2.75-.77,3.5s-2.75.41-3.5-.77h0ZM52.43,159.71h0c-.63-1.25-.14-2.78,1.11-3.41s2.78-.14,3.41,1.11h0c.63,1.25.14,2.78-1.11,3.41s-2.78.14-3.41-1.11h0ZM47.78,150.41h0c-.5-1.31.15-2.78,1.45-3.28,0,0,0,0,0,0,1.31-.5,2.77.15,3.28,1.45,0,0,0,0,0,0h0c.5,1.31-.15,2.78-1.45,3.28,0,0,0,0,0,0-1.31.5-2.77-.15-3.28-1.45,0,0,0,0,0,0Z"/>
    </clipPath>
    <linearGradient id="linear-gradient" x1="-132.19" y1="335.64" x2="-132.19" y2="334.71" gradientTransform="translate(43310.21 73771.94) scale(326.94 -219.77)" gradientUnits="userSpaceOnUse">
      <stop offset="0" stop-color="#000"/>
      <stop offset="0" stop-color="#54b8df"/>
      <stop offset=".1" stop-color="#54bedf"/>
      <stop offset=".2" stop-color="#54c5df"/>
      <stop offset=".3" stop-color="#54cbdf"/>
      <stop offset=".4" stop-color="#54d2df"/>
      <stop offset=".5" stop-color="#54d8df"/>
      <stop offset=".6" stop-color="#6adfd1"/>
      <stop offset=".7" stop-color="#8ae5bd"/>
      <stop offset=".8" stop-color="#abeca9"/>
      <stop offset=".9" stop-color="#cbf296"/>
      <stop offset="1" stop-color="#ebf982"/>
      <stop offset="1" stop-color="#000"/>
    </linearGradient>
    <clipPath id="clippath-1">
      <path class="cls-2" d="M14.08,96.03c-.74,0-1.46.25-2.03.72-.72.7-1.2,1.61-1.38,2.6-.53,2.69-.75,5.44-.65,8.18-.1,2.65.09,5.3.58,7.9.19,1.08.7,2.07,1.46,2.86.57.47,1.28.72,2.02.71.74,0,1.46-.25,2.03-.72.72-.7,1.2-1.61,1.38-2.6.53-2.69.75-5.42.65-8.16.1-2.65-.09-5.3-.58-7.9-.2-1.08-.7-2.08-1.46-2.88-.56-.47-1.28-.73-2.01-.73ZM39.64,90.84c3.22,0,5.76.87,7.6,2.61,1.81,1.66,2.82,4.03,2.76,6.49,0,1.44-.26,2.87-.79,4.21-.63,1.51-1.48,2.91-2.51,4.18-1.26,1.49-2.63,2.88-4.1,4.17-1.98,1.81-3.23,3.02-3.76,3.61-.48.54-.91,1.12-1.28,1.74h12.44v5.82h-21.96c.24-2.22.98-4.35,2.14-6.25,1.19-1.97,3.54-4.58,7.04-7.83,1.88-1.63,3.62-3.42,5.19-5.35.8-1.12,1.25-2.45,1.29-3.83.08-1.18-.33-2.34-1.12-3.22-.84-.79-1.97-1.2-3.12-1.13-1.16-.06-2.29.37-3.12,1.18-.89,1.11-1.37,2.5-1.34,3.93l-6.24-.62c.37-3.45,1.54-5.92,3.5-7.42,2.13-1.56,4.72-2.35,7.36-2.25h0ZM14.08,90.84c2.88-.13,5.64,1.13,7.42,3.39,2.12,2.67,3.19,7.11,3.19,13.31s-1.07,10.62-3.21,13.33c-1.79,2.24-4.54,3.48-7.4,3.34-3,.08-5.87-1.28-7.69-3.67-1.95-2.44-2.92-6.8-2.92-13.07s1.07-10.58,3.21-13.29c1.79-2.24,4.54-3.48,7.4-3.34h0Z"/>
    </clipPath>
    <linearGradient id="linear-gradient-2" x1="-132.34" y1="334.98" x2="-132.17" y2="335.21" gradientTransform="translate(43310.21 73771.6) scale(326.94 -219.77)" gradientUnits="userSpaceOnUse">
      <stop offset="0" stop-color="#000"/>
      <stop offset="0" stop-color="#54b8df"/>
      <stop offset=".1" stop-color="#54bfdf"/>
      <stop offset=".2" stop-color="#54c7df"/>
      <stop offset=".3" stop-color="#54cedf"/>
      <stop offset=".4" stop-color="#54d6df"/>
      <stop offset=".5" stop-color="#5fdcd8"/>
      <stop offset=".6" stop-color="#7be2c7"/>
      <stop offset=".7" stop-color="#97e8b6"/>
      <stop offset=".8" stop-color="#b3eea4"/>
      <stop offset=".9" stop-color="#cff393"/>
      <stop offset="1" stop-color="#ebf982"/>
      <stop offset="1" stop-color="#000"/>
    </linearGradient>
    <clipPath id="clippath-2">
      <rect class="cls-2" x="109.1" y="70.73" width="72.07" height="69.34"/>
    </clipPath>
  </defs>
  <g id="Group_3313" data-name="Group 3313">
    <g id="Group_3297" data-name="Group 3297">
      <path id="Path_7163" data-name="Path 7163" class="cls-4" d="M62.04,109.61c0-43.6,35.2-78.94,78.62-78.94s78.62,35.34,78.62,78.94-35.2,78.94-78.62,78.94-78.62-35.34-78.62-78.94Z"/>
      <g id="Group_3292" data-name="Group 3292" class="cls-10">
        <g id="Group_3291" data-name="Group 3291">
          <path id="Path_7164" data-name="Path 7164" class="cls-7" d="M62.04,109.61c0-43.6,35.2-78.94,78.62-78.94s78.62,35.34,78.62,78.94-35.2,78.94-78.62,78.94-78.62-35.34-78.62-78.94Z"/>
        </g>
      </g>
      <g class="cls-1">
        <g id="Group_3294" data-name="Group 3294">
          <g id="Group_3293" data-name="Group 3293">
            <path id="Path_7165" data-name="Path 7165" class="cls-3" d="M-62.23,6.58H243.38v205.43H-62.23V6.58Z"/>
          </g>
        </g>
      </g>
      <g class="cls-8">
        <g id="Group_3296" data-name="Group 3296">
          <g id="Group_3295" data-name="Group 3295">
            <path id="Path_7167" data-name="Path 7167" class="cls-5" d="M-62.23,6.58H243.38v205.43H-62.23V6.58Z"/>
          </g>
        </g>
      </g>
    </g>
    <g id="Group_3311" data-name="Group 3311">
      <g class="cls-9">
        <g id="Group_3310" data-name="Group 3310">
          <path id="Path_7176" data-name="Path 7176" class="cls-6" d="M181.04,114.67l-.24-.97c-.41-1.64-1.88-2.79-3.57-2.79-.54,0-1.06.15-1.52.43l-2.51,1.56c-.45-1.27-1.44-2.26-2.71-2.7-.84-.29-1.75-.28-2.59.02l-10.59,4.2-26.5-3.36c-.88-.11-1.78-.02-2.63.26l-16.28,5.55c-.59.18-.92.81-.73,1.4s.81.92,1.4.73c.02,0,.04-.01.06-.02l16.26-5.54c.52-.17,1.08-.23,1.63-.16l27.95,3.54c.67.08,1.15.68,1.09,1.35l-.13,1.52c-.07.79-.72,1.4-1.52,1.42l-14.49.25-5.87-.21c-.62,0-1.12.48-1.13,1.1,0,.6.46,1.1,1.05,1.13l5.6.2,8.5,4.67c.35.19.78.18,1.12-.03l24.19-14.97c.1-.06.22-.09.34-.09.66,0,1.24.45,1.4,1.1l.25.97c.21.83-.1,1.7-.79,2.21l-25.55,18.98c-.6.45-1.28.78-2.01.98l-1.22.34c-.6.17-1.24.15-1.83-.04l-25.33-8.4c-1.43-.47-2.99-.36-4.35.31l-8.07,3.96c-.55.29-.76.96-.47,1.51.28.52.91.74,1.45.5l8.08-3.96c.82-.41,1.78-.48,2.65-.19l25.33,8.41c1.01.34,2.1.36,3.13.07l1.21-.33c.99-.27,1.92-.73,2.75-1.34l25.56-18.98c1.41-1.05,2.05-2.84,1.62-4.54M168.68,112.3c.34-.12.72-.12,1.06,0,.79.29,1.35,1,1.44,1.84l-9.57,5.92c0-.06.03-.13.04-.19l.13-1.52c.09-1.08-.32-2.14-1.12-2.86l8.02-3.19ZM152.07,125.96l-4.48-2.46,8.69-.15-4.21,2.61Z"/>
          <path id="Path_7177" data-name="Path 7177" class="cls-6" d="M140.65,91.92l-1.93,5.95c-.19.59.13,1.22.72,1.41.34.11.71.05,1-.16l5.06-3.68,5.06,3.68c.5.36,1.2.25,1.56-.25.21-.29.27-.66.16-1l-1.93-5.95,5.06-3.68c.5-.36.61-1.06.25-1.56-.21-.29-.55-.46-.9-.46h-6.26l-1.93-5.95c-.19-.59-.82-.91-1.41-.72-.34.11-.61.38-.72.72l-1.93,5.95h-6.26c-.62,0-1.12.5-1.12,1.12,0,.36.17.69.46.9l5.07,3.68ZM143.32,88.46c.48,0,.91-.31,1.06-.77l1.12-3.46,1.12,3.46c.15.46.58.77,1.06.77h3.63l-2.94,2.14c-.39.28-.55.79-.41,1.25l1.12,3.46-2.94-2.14c-.39-.28-.92-.28-1.31,0l-2.94,2.14,1.12-3.46c.15-.46-.02-.96-.41-1.25l-2.94-2.14h3.64Z"/>
          <path id="Path_7178" data-name="Path 7178" class="cls-6" d="M131.14,98.94l2.12,4.9c.15.35.47.59.85.65l5.27.86,4.59,2.72c.17.1.37.15.57.16.18,0,.35-.04.5-.12l4.77-2.41,5.32-.49c.38-.04.71-.26.89-.6l2.44-4.75,4.01-3.53c.29-.25.42-.63.37-1.01l-.81-5.28,1.17-5.21c.08-.37-.03-.76-.3-1.03l-3.76-3.79-2.12-4.9c-.15-.35-.47-.59-.85-.65l-5.27-.86-4.59-2.73c-.33-.19-.73-.21-1.07-.04l-4.77,2.4-5.32.5c-.38.04-.71.26-.89.6l-2.44,4.75-4.01,3.53c-.29.25-.43.63-.37,1.01l.81,5.28-1.17,5.21c-.08.37.03.76.3,1.03l3.76,3.79ZM129.74,83.9l3.71-3.26c.1-.09.19-.2.25-.33l2.26-4.39,4.92-.46c.14-.01.27-.05.4-.11l4.41-2.22,4.25,2.52c.12.07.25.12.39.14l4.88.79,1.96,4.54c.06.13.13.24.23.34l3.48,3.51-1.09,4.82c-.03.14-.03.28-.01.41l.75,4.88-3.71,3.26c-.1.09-.19.2-.25.33l-2.26,4.39-4.92.46c-.14.01-.27.05-.4.11l-4.41,2.22-4.25-2.52c-.12-.07-.25-.12-.39-.14l-4.88-.79-1.96-4.54c-.06-.13-.13-.24-.23-.34l-3.48-3.51,1.08-4.82c.03-.14.03-.28.01-.41l-.75-4.89Z"/>
        </g>
      </g>
    </g>
  </g>
</svg>