<?xml version="1.0" encoding="UTF-8"?>
<svg id="Layer_1" data-name="Layer 1" xmlns="http://www.w3.org/2000/svg" xmlns:xlink="http://www.w3.org/1999/xlink" viewBox="0 0 250 217">
  <defs>
    <style>
      .cls-1 {
        clip-path: url(#clippath);
      }

      .cls-2, .cls-3, .cls-4, .cls-5, .cls-6, .cls-7, .cls-8 {
        stroke-width: 0px;
      }

      .cls-2, .cls-9 {
        fill: none;
      }

      .cls-3 {
        fill: url(#linear-gradient);
      }

      .cls-10 {
        clip-path: url(#clippath-1);
      }

      .cls-11 {
        clip-path: url(#clippath-4);
      }

      .cls-12 {
        clip-path: url(#clippath-3);
      }

      .cls-13 {
        clip-path: url(#clippath-2);
      }

      .cls-14 {
        opacity: .43;
      }

      .cls-4 {
        fill: #8096a1;
        fill-rule: evenodd;
      }

      .cls-5 {
        fill: url(#linear-gradient-4);
      }

      .cls-6 {
        fill: url(#linear-gradient-2);
      }

      .cls-7 {
        fill: url(#linear-gradient-3);
      }

      .cls-9 {
        stroke: #fff;
        stroke-linejoin: round;
        stroke-width: 2.75px;
      }

      .cls-8 {
        fill: #fff;
      }
    </style>
    <clipPath id="clippath">
      <path class="cls-2" d="M46.25,65.6h0c.65-1.2,2.15-1.64,3.34-.99,0,0,0,0,0,0,1.2.65,1.64,2.15.99,3.34,0,0,0,0,0,0h0c-.65,1.2-2.15,1.64-3.34.99,0,0,0,0,0,0-1.2-.65-1.64-2.15-.99-3.34,0,0,0,0,0,0ZM50.96,56.92h0c.65-1.2,2.15-1.64,3.34-.99,0,0,0,0,0,0,1.2.65,1.64,2.15.99,3.34,0,0,0,0,0,0h0c-.65,1.2-2.15,1.64-3.34.99,0,0,0,0,0,0-1.2-.65-1.64-2.15-.99-3.34h0ZM56.81,48.37h0c.88-1.04,2.43-1.18,3.47-.3,0,0,0,0,0,0,1.04.88,1.18,2.43.3,3.47,0,0,0,0,0,0h0c-.88,1.04-2.43,1.18-3.47.3,0,0,0,0,0,0-1.04-.88-1.18-2.43-.3-3.47,0,0,0,0,0,0h0ZM63.37,40.67h0c.97-.95,2.54-.93,3.49.04,0,0,0,0,0,0,.95.97.93,2.54-.04,3.49,0,0,0,0,0,0h0c-.97.95-2.54.93-3.49-.04,0,0,0,0,0,0-.95-.98-.93-2.54.05-3.49,0,0,0,0,0,0h0ZM70.67,33.68h0c1.06-.85,2.62-.68,3.47.38,0,0,0,0,0,0,.85,1.06.68,2.62-.38,3.47,0,0,0,0,0,0h0c-1.06.85-2.62.68-3.47-.38,0,0,0,0,0,0-.85-1.06-.68-2.62.38-3.47,0,0,0,0,0,0h0ZM78.66,27.49h0c1.14-.74,2.67-.42,3.41.72,0,0,0,0,0,0,.74,1.14.42,2.67-.72,3.41,0,0,0,0,0,0h0c-1.14.74-2.67.42-3.41-.72,0,0,0,0,0,0-.74-1.14-.42-2.67.72-3.41h0s0,0,0,0ZM87.23,22.14h0c1.21-.63,2.7-.16,3.33,1.04,0,0,0,0,0,0,.63,1.21.16,2.7-1.04,3.33,0,0,0,0,0,0h0c-1.21.63-2.7.16-3.33-1.04,0,0,0,0,0,0-.63-1.21-.16-2.7,1.04-3.33,0,0,0,0,0,0h0ZM96.29,17.69h0c1.26-.51,2.7.09,3.21,1.36h0c.51,1.26-.09,2.7-1.36,3.21h0s0,0,0,0c-1.26.51-2.7-.09-3.21-1.35-.51-1.26.1-2.7,1.36-3.21h0ZM105.76,14.18h0c1.31-.39,2.68.35,3.07,1.66,0,0,0,0,0,0,.39,1.31-.35,2.68-1.66,3.07,0,0,0,0,0,0h0c-1.31.39-2.68-.35-3.07-1.66-.39-1.31.35-2.68,1.66-3.07,0,0,0,0,0,0h0ZM115.53,11.65h0c1.34-.26,2.63.6,2.9,1.94,0,0,0,0,0,0,.26,1.34-.6,2.63-1.94,2.9,0,0,0,0,0,0h0c-1.34.26-2.63-.6-2.9-1.94,0,0,0,0,0,0-.26-1.34.61-2.63,1.94-2.9,0,0,0,0,0,0h0ZM125.52,10.12h0c1.36-.13,2.56.86,2.7,2.21,0,0,0,0,0,0,.13,1.36-.86,2.56-2.21,2.7,0,0,0,0,0,0h0c-1.36.13-2.56-.86-2.7-2.21,0,0,0,0,0,0-.13-1.35.86-2.56,2.21-2.7h0ZM135.6,9.61h0c1.36,0,2.47,1.1,2.47,2.46h0c0,1.36-1.1,2.47-2.46,2.47h0c-1.36,0-2.47-1.1-2.47-2.46h0c0-1.36,1.1-2.47,2.46-2.47h0,0ZM145.75,10.05h0c1.35.16,2.32,1.39,2.15,2.75,0,0,0,0,0,0-.16,1.35-1.39,2.32-2.75,2.15,0,0,0,0,0,0h0c-1.35-.16-2.32-1.39-2.15-2.75.17-1.35,1.4-2.31,2.75-2.15,0,0,0,0,0,0h0ZM155.74,11.63h0c1.33.29,2.17,1.61,1.87,2.94,0,0,0,0,0,0-.3,1.33-1.62,2.17-2.94,1.87h0s0,0,0,0c-1.33-.3-2.17-1.62-1.87-2.95.3-1.33,1.62-2.17,2.94-1.87,0,0,0,0,0,0h0ZM165.52,14.22h0c1.29.43,1.99,1.82,1.56,3.12,0,0,0,0,0,0-.43,1.29-1.82,1.99-3.11,1.57h0c-1.29-.43-1.99-1.82-1.56-3.12,0,0,0,0,0,0,.43-1.29,1.82-1.99,3.11-1.57h0ZM174.98,17.79h0c1.24.56,1.8,2.02,1.24,3.26,0,0,0,0,0,0-.56,1.24-2.02,1.8-3.26,1.24,0,0,0,0,0,0h0c-1.24-.56-1.8-2.02-1.24-3.26,0,0,0,0,0,0,.56-1.24,2.02-1.8,3.26-1.24,0,0,0,0,0,0h0ZM183.94,22.35h0c1.2.65,1.64,2.15.99,3.34,0,0,0,0,0,0-.65,1.2-2.15,1.64-3.34.99,0,0,0,0,0,0h0c-1.2-.65-1.64-2.15-.99-3.34,0,0,0,0,0,0,.65-1.2,2.15-1.64,3.35-.99,0,0,0,0,0,0h0ZM192.49,27.74h0c1.13.77,1.42,2.3.65,3.43,0,0,0,0,0,0-.77,1.13-2.3,1.42-3.43.65,0,0,0,0,0,0h0c-1.13-.77-1.42-2.3-.65-3.43,0,0,0,0,0,0,.76-1.13,2.3-1.42,3.43-.66,0,0,0,0,.01,0h0ZM200.45,33.98h0c1.04.88,1.18,2.43.3,3.47,0,0,0,0,0,0-.88,1.04-2.43,1.18-3.47.3,0,0,0,0,0,0h0c-1.04-.88-1.18-2.43-.3-3.47,0,0,0,0,0,0,.87-1.04,2.43-1.18,3.47-.31,0,0,0,0,0,0h0ZM207.72,40.99h0c.95.97.93,2.54-.04,3.49,0,0,0,0,0,0-.97.95-2.54.93-3.49-.04,0,0,0,0,0,0h0c-.95-.97-.93-2.54.04-3.49,0,0,0,0,0,0,.97-.95,2.53-.94,3.49.04,0,0,0,0,0,0h0ZM214.24,48.71h0c.85,1.06.68,2.62-.38,3.47,0,0,0,0,0,0-1.06.85-2.62.68-3.47-.38,0,0,0,0,0,0h0c-.85-1.06-.68-2.62.38-3.47,0,0,0,0,0,0,1.06-.85,2.61-.68,3.47.38,0,0,0,0,0,0h0ZM219.93,57.06h0c.74,1.14.42,2.67-.72,3.41-1.14.74-2.67.42-3.41-.72h0c-.74-1.14-.42-2.67.72-3.41,1.14-.74,2.67-.42,3.41.72ZM224.75,65.94h0c.63,1.21.16,2.7-1.04,3.33,0,0,0,0,0,0-1.21.63-2.7.16-3.33-1.04,0,0,0,0,0,0h0c-.63-1.21-.16-2.7,1.04-3.33,0,0,0,0,0,0,1.21-.63,2.7-.17,3.33,1.04,0,0,0,0,0,0h0ZM228.64,75.26h0c.51,1.27-.09,2.71-1.36,3.22,0,0,0,0,0,0-1.26.51-2.7-.09-3.21-1.36h0c-.51-1.27.09-2.71,1.36-3.22,0,0,0,0,0,0,1.26-.52,2.7.09,3.22,1.35,0,0,0,0,0,0h0ZM231.6,85.16h0c.27,1.34-.6,2.64-1.94,2.9,0,0,0,0,0,0-1.34.27-2.63-.6-2.9-1.94,0,0,0,0,0,0h0c-.26-1.34.6-2.63,1.94-2.9,1.34-.27,2.64.6,2.9,1.93,0,0,0,0,0,0h0ZM233.47,95.1h0c.13,1.36-.86,2.57-2.21,2.7,0,0,0,0,0,0-1.36.13-2.56-.86-2.7-2.21,0,0,0,0,0,0h0c-.13-1.36.86-2.57,2.21-2.7,0,0,0,0,0,0,1.36-.13,2.56.86,2.7,2.21,0,0,0,0,0,0ZM234.31,105.17h0c0,1.37-1.1,2.47-2.46,2.48,0,0,0,0,0,0-1.36,0-2.47-1.1-2.47-2.46h0c0-1.37,1.1-2.47,2.46-2.48,0,0,0,0,0,0,1.36,0,2.47,1.1,2.47,2.46h0s0,0,0,0ZM234.18,115.22h0c-.1,1.36-1.28,2.38-2.63,2.29-1.36-.1-2.38-1.28-2.28-2.63h0c.1-1.36,1.28-2.38,2.63-2.29,1.36.1,2.38,1.28,2.29,2.63,0,0,0,0,0,0h0ZM232.98,125.25h0c-.23,1.35-1.51,2.25-2.85,2.02,0,0,0,0,0,0-1.34-.23-2.24-1.51-2.01-2.85,0,0,0,0,0,0h0c.23-1.35,1.51-2.25,2.85-2.02,0,0,0,0,0,0,1.34.23,2.24,1.5,2.02,2.85,0,0,0,0,0,0h0ZM230.75,135.12h0c-.36,1.32-1.72,2.09-3.04,1.72,0,0,0,0,0,0-1.31-.36-2.08-1.72-1.72-3.04,0,0,0,0,0,0h0c.36-1.32,1.72-2.09,3.04-1.72,0,0,0,0,0,0,1.31.36,2.08,1.72,1.72,3.04,0,0,0,0,0,0h0ZM227.53,144.7h0c-.49,1.27-1.92,1.91-3.19,1.41,0,0,0,0,0,0-1.27-.49-1.9-1.92-1.41-3.19,0,0,0,0,0,0h0c.49-1.27,1.92-1.91,3.19-1.41,0,0,0,0,0,0,1.27.49,1.9,1.92,1.41,3.19,0,0,0,0,0,0h0ZM223.25,153.93h0c-.65,1.2-2.15,1.64-3.34.99h0c-1.2-.65-1.64-2.15-.99-3.34,0,0,0,0,0,0h0c.65-1.2,2.15-1.64,3.34-.99,0,0,0,0,0,0,1.2.65,1.64,2.15.99,3.34,0,0,0,0,0,0ZM218.17,162.67h0c-.77,1.13-2.3,1.42-3.43.65-1.13-.77-1.42-2.3-.65-3.43h0c.77-1.13,2.3-1.42,3.43-.65,1.13.77,1.42,2.3.65,3.43h0ZM212.21,170.84h0c-.88,1.04-2.43,1.18-3.48.3-1.04-.88-1.18-2.43-.3-3.48h0c.88-1.04,2.43-1.18,3.48-.3,1.04.88,1.18,2.43.3,3.48ZM205.45,178.35h0c-.98.95-2.54.93-3.49-.04-.95-.98-.93-2.54.04-3.49h0c.98-.95,2.54-.93,3.49.04.95.98.93,2.54-.04,3.49h0ZM197.96,185.12h0c-1.06.85-2.62.68-3.47-.38-.85-1.06-.68-2.62.38-3.47h0c1.06-.85,2.62-.68,3.47.38.85,1.06.68,2.62-.38,3.47ZM189.81,191.09h0c-1.14.75-2.67.43-3.42-.71-.75-1.14-.43-2.67.71-3.42h0c1.14-.74,2.67-.42,3.41.72.74,1.14.42,2.67-.72,3.41h0ZM181.1,196.19h0c-1.21.63-2.7.16-3.33-1.04-.63-1.21-.16-2.7,1.04-3.33h0c1.21-.63,2.7-.16,3.33,1.04.63,1.21.16,2.7-1.04,3.33h0ZM171.92,200.39h0c-1.26.51-2.7-.09-3.21-1.35s.09-2.7,1.35-3.21h0c1.26-.51,2.7.09,3.21,1.35s-.09,2.7-1.35,3.21h0ZM162.35,203.64h0c-1.29.44-2.69-.26-3.12-1.55-.44-1.29.26-2.69,1.55-3.12.05-.02.11-.03.17-.05h0c1.32-.34,2.67.45,3.01,1.76.33,1.25-.37,2.55-1.6,2.96ZM152.51,205.9h0c-1.34.26-2.63-.6-2.9-1.94-.26-1.34.6-2.63,1.94-2.9h0c1.34-.26,2.63.6,2.9,1.94.26,1.34-.6,2.63-1.94,2.9ZM142.49,207.16h0c-1.35.18-2.59-.76-2.78-2.11s.76-2.59,2.11-2.78c.06,0,.12-.01.18-.02h0c1.36-.09,2.53.95,2.62,2.31.08,1.29-.85,2.42-2.13,2.6ZM132.39,207.39h0c-1.36,0-2.47-1.1-2.47-2.46s1.1-2.47,2.46-2.47h0c1.36,0,2.47,1.1,2.47,2.46s-1.1,2.47-2.46,2.47h0ZM122.26,206.6h0c-1.35-.16-2.32-1.39-2.15-2.75.16-1.35,1.39-2.32,2.75-2.15h0c1.35.16,2.32,1.39,2.15,2.75-.16,1.35-1.39,2.32-2.75,2.15h0ZM112.32,204.74h0c-1.33-.3-2.17-1.62-1.87-2.95.3-1.33,1.62-2.17,2.95-1.87h0c1.33.3,2.17,1.62,1.87,2.95-.3,1.33-1.62,2.17-2.95,1.87ZM102.62,201.87h0c-1.29-.43-1.99-1.83-1.56-3.12.43-1.29,1.83-1.99,3.12-1.56h0c1.29.43,1.99,1.83,1.56,3.12-.43,1.29-1.83,1.99-3.12,1.56h0ZM93.26,198.02h0c-1.24-.56-1.8-2.02-1.24-3.26.56-1.24,2.02-1.8,3.26-1.24h0c1.24.56,1.8,2.02,1.24,3.26-.56,1.24-2.02,1.8-3.26,1.24ZM84.4,193.26h0c-1.2-.65-1.64-2.15-.99-3.35.65-1.2,2.15-1.64,3.35-.99h0c1.2.65,1.64,2.15.99,3.35-.65,1.2-2.15,1.64-3.35.99h0ZM76.01,187.61h0c-1.13-.77-1.41-2.3-.65-3.43s2.3-1.41,3.43-.65h0c1.13.77,1.41,2.3.65,3.43s-2.3,1.41-3.43.65ZM68.23,181.14h0c-1.04-.88-1.17-2.43-.3-3.48.88-1.04,2.43-1.17,3.48-.3h0c1.04.88,1.17,2.43.3,3.48-.88,1.04-2.43,1.17-3.48.3h0ZM61.16,173.9h0c-.95-.98-.92-2.54.05-3.49.98-.95,2.54-.92,3.49.05h0c.95.98.92,2.54-.05,3.49-.98.95-2.54.92-3.49-.05ZM54.74,165.77h0c-.74-1.15-.4-2.67.74-3.41,1.15-.74,2.67-.4,3.41.74h0c.74,1.15.4,2.67-.74,3.41-1.15.74-2.67.4-3.41-.74h0ZM49.32,157.23h0c-.62-1.21-.14-2.7,1.08-3.32,1.21-.62,2.7-.14,3.32,1.08h0c.62,1.21.13,2.7-1.08,3.32-1.21.62-2.7.13-3.32-1.08h0ZM44.79,148.17h0c-.49-1.28.14-2.7,1.41-3.19,0,0,0,0,0,0,1.27-.49,2.7.14,3.19,1.41,0,0,0,0,0,0h0c.49,1.28-.14,2.7-1.41,3.19,0,0,0,0,0,0-1.27.49-2.7-.14-3.19-1.41,0,0,0,0,0,0Z"/>
    </clipPath>
    <linearGradient id="linear-gradient" x1="136.99" y1="335.63" x2="136.99" y2="334.73" gradientTransform="translate(-43990.73 73829.05) scale(321.77 -219.94)" gradientUnits="userSpaceOnUse">
      <stop offset="0" stop-color="#000"/>
      <stop offset="0" stop-color="#54b8df"/>
      <stop offset=".1" stop-color="#54bedf"/>
      <stop offset=".2" stop-color="#54c5df"/>
      <stop offset=".3" stop-color="#54cbdf"/>
      <stop offset=".4" stop-color="#54d2df"/>
      <stop offset=".5" stop-color="#54d8df"/>
      <stop offset=".6" stop-color="#6adfd1"/>
      <stop offset=".7" stop-color="#8ae5bd"/>
      <stop offset=".8" stop-color="#abeca9"/>
      <stop offset=".9" stop-color="#cbf296"/>
      <stop offset="1" stop-color="#ebf982"/>
      <stop offset="1" stop-color="#000"/>
    </linearGradient>
    <clipPath id="clippath-1">
      <path class="cls-2" d="M17.02,95.29c-.72,0-1.42.24-1.97.7-.7.68-1.17,1.56-1.34,2.53-.51,2.62-.72,5.29-.63,7.96-.1,2.57.09,5.15.56,7.69.19,1.05.68,2.02,1.42,2.79.55.46,1.25.7,1.96.69.72,0,1.42-.24,1.97-.7.7-.68,1.17-1.56,1.34-2.53.51-2.61.73-5.27.63-7.93.1-2.57-.09-5.15-.56-7.69-.19-1.05-.68-2.02-1.42-2.8-.55-.46-1.24-.71-1.96-.7ZM42.03,90.24h4.94v31.91h-6.09v-22.96c-2.25,2.1-4.94,3.67-7.87,4.62v-5.53c1.88-.69,3.63-1.69,5.18-2.96,1.74-1.29,3.08-3.05,3.84-5.08ZM17.02,90.24c2.8-.13,5.48,1.1,7.22,3.3,2.07,2.6,3.1,6.92,3.1,12.94s-1.04,10.33-3.12,12.96c-1.74,2.18-4.42,3.39-7.2,3.25-2.92.08-5.7-1.24-7.48-3.57-1.89-2.38-2.84-6.62-2.84-12.72s1.04-10.29,3.12-12.92c1.74-2.18,4.42-3.39,7.2-3.25Z"/>
    </clipPath>
    <linearGradient id="linear-gradient-2" x1="136.85" y1="334.99" x2="137.02" y2="335.21" gradientTransform="translate(-43990.73 73829.05) scale(321.77 -219.94)" gradientUnits="userSpaceOnUse">
      <stop offset="0" stop-color="#000"/>
      <stop offset="0" stop-color="#54b8df"/>
      <stop offset=".1" stop-color="#54bfdf"/>
      <stop offset=".2" stop-color="#54c7df"/>
      <stop offset=".3" stop-color="#54cedf"/>
      <stop offset=".4" stop-color="#54d6df"/>
      <stop offset=".5" stop-color="#5fdcd8"/>
      <stop offset=".6" stop-color="#7be2c7"/>
      <stop offset=".7" stop-color="#97e8b6"/>
      <stop offset=".8" stop-color="#b3eea4"/>
      <stop offset=".9" stop-color="#cff393"/>
      <stop offset="1" stop-color="#ebf982"/>
      <stop offset="1" stop-color="#000"/>
    </linearGradient>
    <clipPath id="clippath-2">
      <rect class="cls-2" x="101.24" y="70.48" width="74.82" height="73.56"/>
    </clipPath>
    <clipPath id="clippath-3">
      <path class="cls-2" d="M319.28,65.5h0c.67-1.23,2.21-1.69,3.44-1.02,0,0,0,0,0,0,1.23.67,1.69,2.21,1.02,3.44,0,0,0,0,0,0h0c-.67,1.23-2.21,1.69-3.44,1.02,0,0,0,0,0,0-1.23-.67-1.69-2.21-1.02-3.44,0,0,0,0,0,0ZM324.12,56.58h0c.67-1.23,2.21-1.69,3.44-1.02,0,0,0,0,0,0,1.23.67,1.69,2.21,1.02,3.44,0,0,0,0,0,0h0c-.67,1.23-2.21,1.69-3.44,1.02,0,0,0,0,0,0-1.23-.67-1.68-2.21-1.02-3.44h0ZM330.14,47.79h0c.9-1.07,2.5-1.21,3.57-.31,0,0,0,0,0,0,1.07.9,1.21,2.5.31,3.57,0,0,0,0,0,0h0c-.9,1.07-2.5,1.21-3.57.31,0,0,0,0,0,0-1.07-.9-1.21-2.5-.31-3.57h0s0,0,0,0ZM336.88,39.87h0c1-.98,2.61-.96,3.59.04,0,0,0,0,0,0,.98,1,.96,2.61-.04,3.59,0,0,0,0,0,0h0c-1,.98-2.61.96-3.59-.04,0,0,0,0,0,0-.98-1-.96-2.61.05-3.59,0,0,0,0,0,0h0ZM344.39,32.68h0c1.09-.88,2.69-.7,3.56.39,0,0,0,0,0,0,.88,1.09.7,2.69-.39,3.56h0c-1.09.88-2.69.7-3.56-.39,0,0,0,0,0,0-.87-1.09-.7-2.69.4-3.56,0,0,0,0,0,0h0ZM352.6,26.31h0c1.17-.77,2.74-.43,3.51.74,0,0,0,0,0,0,.77,1.17.43,2.74-.74,3.51,0,0,0,0,0,0h0c-1.17.77-2.74.43-3.51-.74,0,0,0,0,0,0-.76-1.17-.43-2.74.74-3.51,0,0,0,0,0,0h0ZM361.41,20.82h0c1.24-.65,2.77-.17,3.42,1.07h0c.65,1.24.17,2.77-1.06,3.42h0c-1.24.65-2.77.17-3.42-1.07h0c-.65-1.24-.17-2.77,1.06-3.42h0ZM370.73,16.24h0c1.3-.53,2.78.1,3.3,1.39,0,0,0,0,0,0,.53,1.3-.1,2.78-1.39,3.3,0,0,0,0,0,0h0c-1.3.53-2.78-.1-3.3-1.39,0,0,0,0,0,0-.53-1.3.1-2.78,1.4-3.3,0,0,0,0,0,0h0ZM380.47,12.64h0c1.34-.4,2.75.36,3.16,1.7,0,0,0,0,0,0,.4,1.34-.36,2.75-1.7,3.16,0,0,0,0,0,0h0c-1.34.4-2.75-.36-3.16-1.7,0,0,0,0,0,0-.4-1.34.36-2.75,1.71-3.15,0,0,0,0,0,0h0ZM390.51,10.04h0c1.37-.27,2.71.62,2.98,2,0,0,0,0,0,0,.27,1.37-.62,2.71-2,2.98,0,0,0,0,0,0h0c-1.37.27-2.71-.62-2.98-2,0,0,0,0,0,0-.27-1.37.62-2.71,2-2.98,0,0,0,0,0,0h0ZM400.78,8.46h0c1.39-.14,2.64.88,2.77,2.27,0,0,0,0,0,0,.14,1.39-.88,2.64-2.27,2.77,0,0,0,0,0,0h0c-1.39.14-2.64-.88-2.77-2.27,0,0,0,0,0,0-.14-1.39.88-2.64,2.27-2.77,0,0,0,0,0,0h0ZM411.15,7.94h0c1.4,0,2.54,1.13,2.54,2.53h0c0,1.4-1.13,2.54-2.53,2.54h0c-1.4,0-2.54-1.13-2.54-2.53h0c0-1.4,1.13-2.54,2.53-2.54h0ZM421.59,8.39h0c1.39.17,2.38,1.43,2.21,2.82,0,0,0,0,0,0-.17,1.39-1.43,2.38-2.82,2.21,0,0,0,0,0,0h0c-1.39-.17-2.38-1.43-2.21-2.82,0,0,0,0,0,0,.17-1.39,1.43-2.38,2.82-2.21,0,0,0,0,0,0h0ZM431.86,10.01h0c1.37.31,2.23,1.66,1.92,3.03,0,0,0,0,0,0-.31,1.37-1.66,2.23-3.03,1.92,0,0,0,0,0,0h0c-1.37-.31-2.23-1.66-1.92-3.03,0,0,0,0,0,0,.3-1.37,1.66-2.23,3.03-1.92,0,0,0,0,0,0h0ZM441.91,12.68h0c1.33.44,2.05,1.88,1.61,3.21,0,0,0,0,0,0-.44,1.33-1.88,2.05-3.21,1.61,0,0,0,0,0,0h0c-1.33-.44-2.05-1.88-1.61-3.21,0,0,0,0,0,0,.44-1.33,1.88-2.05,3.21-1.61,0,0,0,0,0,0ZM451.64,16.35h0c1.28.57,1.85,2.07,1.28,3.35h0c-.57,1.28-2.07,1.85-3.35,1.28,0,0,0,0,0,0h0c-1.28-.57-1.85-2.07-1.28-3.35h0c.57-1.28,2.07-1.85,3.35-1.28h0ZM460.86,21.04h0c1.23.67,1.69,2.21,1.02,3.44,0,0,0,0,0,0-.67,1.23-2.21,1.69-3.44,1.02,0,0,0,0,0,0h0c-1.23-.67-1.69-2.21-1.02-3.44,0,0,0,0,0,0,.67-1.23,2.21-1.69,3.44-1.02h0ZM469.65,26.58h0c1.16.79,1.46,2.37.67,3.52,0,0,0,0,0,0-.79,1.16-2.37,1.46-3.52.67,0,0,0,0,0,0h0c-1.16-.79-1.46-2.37-.67-3.52,0,0,0,0,0,0,.79-1.16,2.37-1.46,3.52-.67h0ZM477.83,32.99h0c1.07.9,1.21,2.5.31,3.57,0,0,0,0,0,0-.9,1.07-2.5,1.21-3.57.31,0,0,0,0,0,0h0c-1.07-.9-1.21-2.5-.31-3.57,0,0,0,0,0,0,.9-1.07,2.5-1.21,3.57-.31h0ZM485.31,40.2h0c.98,1,.96,2.61-.04,3.59,0,0,0,0,0,0-1,.98-2.61.96-3.59-.04,0,0,0,0,0,0h0c-.98-1-.96-2.61.04-3.59,0,0,0,0,0,0,1-.98,2.61-.96,3.59.04,0,0,0,0,0,0h0ZM492.01,48.14h0c.88,1.09.7,2.69-.39,3.56,0,0,0,0,0,0-1.09.88-2.69.7-3.56-.39,0,0,0,0,0,0h0c-.88-1.09-.7-2.69.39-3.56,0,0,0,0,0,0,1.09-.88,2.69-.7,3.56.39h0ZM497.86,56.72h0c.77,1.17.43,2.74-.74,3.51,0,0,0,0,0,0-1.17.77-2.74.43-3.51-.74,0,0,0,0,0,0h0c-.77-1.17-.43-2.74.74-3.51,0,0,0,0,0,0,1.17-.76,2.74-.43,3.51.74h0ZM502.82,65.86h0c.65,1.24.17,2.77-1.07,3.42,0,0,0,0,0,0-1.24.65-2.77.17-3.42-1.07,0,0,0,0,0,0h0c-.65-1.24-.17-2.77,1.07-3.42,0,0,0,0,0,0,1.24-.65,2.77-.17,3.42,1.07h0ZM506.82,75.44h0c.53,1.3-.1,2.78-1.39,3.31,0,0,0,0,0,0-1.3.53-2.78-.1-3.3-1.39,0,0,0,0,0,0h0c-.53-1.3.1-2.78,1.39-3.31,0,0,0,0,0,0,1.3-.53,2.77.1,3.3,1.39h0ZM509.87,85.62h0c.27,1.38-.62,2.71-1.99,2.99,0,0,0,0,0,0-1.37.27-2.71-.62-2.98-1.99h0c-.27-1.38.62-2.71,1.99-2.99,0,0,0,0,0,0,1.37-.27,2.71.62,2.98,1.99h0ZM511.78,95.83h0c.14,1.4-.88,2.64-2.27,2.78,0,0,0,0,0,0-1.39.14-2.64-.88-2.77-2.27,0,0,0,0,0,0h0c-.14-1.4.88-2.64,2.27-2.78,0,0,0,0,0,0,1.39-.14,2.64.88,2.77,2.27,0,0,0,0,0,0ZM512.65,106.18h0c0,1.41-1.13,2.54-2.53,2.55,0,0,0,0,0,0-1.4,0-2.54-1.13-2.54-2.53h0c0-1.41,1.13-2.54,2.53-2.55,0,0,0,0,0,0,1.4,0,2.54,1.13,2.54,2.53h0s0,0,0,0ZM512.51,116.52h0c-.1,1.4-1.31,2.45-2.71,2.35-1.4-.1-2.45-1.31-2.35-2.71,0,0,0,0,0,0h0c.1-1.4,1.31-2.45,2.71-2.35,0,0,0,0,0,0,1.4.1,2.45,1.31,2.35,2.71,0,0,0,0,0,0h0ZM511.27,126.84h0c-.24,1.38-1.55,2.31-2.93,2.07,0,0,0,0,0,0-1.38-.24-2.31-1.55-2.07-2.93h0c.24-1.39,1.55-2.31,2.93-2.07,0,0,0,0,0,0,1.38.24,2.31,1.55,2.07,2.93h0ZM508.98,136.98h0c-.38,1.35-1.77,2.14-3.12,1.77,0,0,0,0,0,0-1.35-.38-2.14-1.77-1.76-3.12,0,0,0,0,0,0h0c.38-1.35,1.77-2.14,3.12-1.77,0,0,0,0,0,0,1.35.38,2.14,1.77,1.76,3.12,0,0,0,0,0,0h0ZM505.66,146.83h0c-.51,1.31-1.98,1.96-3.28,1.45,0,0,0,0,0,0-1.31-.51-1.95-1.98-1.45-3.28h0c.51-1.31,1.98-1.96,3.28-1.45,0,0,0,0,0,0,1.31.51,1.95,1.98,1.45,3.28h0ZM501.27,156.33h0c-.67,1.23-2.21,1.69-3.44,1.02-1.23-.67-1.69-2.21-1.02-3.44h0c.67-1.23,2.21-1.69,3.44-1.02,1.23.67,1.69,2.21,1.02,3.44ZM496.04,165.31h0c-.79,1.16-2.37,1.46-3.52.67-1.16-.79-1.46-2.37-.67-3.52h0c.79-1.16,2.37-1.46,3.52-.67,1.16.79,1.46,2.37.67,3.52ZM489.91,173.71h0c-.9,1.07-2.5,1.21-3.57.31-1.07-.9-1.21-2.5-.31-3.57h0c.9-1.07,2.5-1.21,3.57-.31,1.07.9,1.21,2.5.31,3.57ZM482.96,181.43h0c-1,.98-2.61.96-3.59-.04-.98-1-.96-2.61.04-3.59h0c1-.98,2.61-.96,3.59.04.98,1,.96,2.61-.04,3.59ZM475.25,188.39h0c-1.09.88-2.69.7-3.57-.39-.88-1.09-.7-2.69.39-3.57h0c1.09-.88,2.69-.7,3.57.39.88,1.09.7,2.69-.39,3.57h0ZM466.88,194.53h0c-1.17.77-2.74.44-3.51-.74-.77-1.17-.44-2.74.74-3.51h0c1.17-.77,2.74-.44,3.51.74.77,1.17.44,2.74-.74,3.51h0ZM457.92,199.78h0c-1.24.65-2.77.17-3.42-1.07-.65-1.24-.17-2.77,1.07-3.42h0c1.24-.65,2.77-.17,3.42,1.07.65,1.24.17,2.77-1.07,3.42h0ZM448.48,204.1h0c-1.3.53-2.78-.1-3.3-1.39-.53-1.3.1-2.78,1.39-3.3h0c1.3-.53,2.78.1,3.3,1.39.53,1.3-.1,2.78-1.39,3.3ZM438.65,207.44h0c-1.34.4-2.75-.36-3.16-1.71-.4-1.34.36-2.75,1.71-3.16h0c1.34-.4,2.75.36,3.16,1.71.4,1.34-.36,2.75-1.71,3.16ZM428.54,209.77h0c-1.37.27-2.71-.62-2.98-2-.27-1.37.62-2.71,2-2.98h0c1.37-.27,2.71.62,2.98,2,.27,1.37-.62,2.71-2,2.98ZM418.23,211.06h0c-1.39.14-2.64-.88-2.77-2.27s.88-2.64,2.27-2.77h0c1.39-.14,2.64.88,2.77,2.27s-.88,2.64-2.27,2.77h0ZM407.85,211.29h0c-1.4,0-2.54-1.13-2.54-2.53,0-1.4,1.13-2.54,2.53-2.54h0c1.4,0,2.54,1.13,2.54,2.53,0,1.4-1.13,2.54-2.53,2.54ZM397.43,210.48h0c-1.39-.17-2.38-1.43-2.21-2.82.17-1.39,1.43-2.38,2.82-2.21h0c1.39.17,2.38,1.43,2.21,2.82-.17,1.39-1.43,2.38-2.82,2.21h0ZM387.21,208.56h0c-1.37-.31-2.23-1.66-1.92-3.03.31-1.37,1.66-2.23,3.03-1.92h0c1.37.31,2.23,1.66,1.92,3.03-.31,1.37-1.66,2.23-3.03,1.92ZM377.24,205.61h0c-1.33-.44-2.05-1.88-1.61-3.21.44-1.33,1.88-2.05,3.21-1.61h0c1.33.44,2.05,1.88,1.61,3.21-.44,1.33-1.88,2.05-3.21,1.61ZM367.62,201.66h0c-1.28-.57-1.85-2.07-1.28-3.35.57-1.28,2.07-1.85,3.35-1.28h0c1.28.57,1.85,2.07,1.28,3.35-.57,1.28-2.07,1.85-3.35,1.28ZM358.5,196.77h0c-1.23-.67-1.69-2.21-1.02-3.44.67-1.23,2.21-1.69,3.44-1.02h0c1.23.67,1.69,2.21,1.02,3.44-.67,1.23-2.21,1.69-3.44,1.02ZM349.87,190.96h0c-1.16-.79-1.45-2.37-.67-3.52.79-1.16,2.37-1.45,3.52-.67h0c1.16.79,1.45,2.37.67,3.52s-2.37,1.45-3.52.67ZM341.88,184.3h0c-1.07-.9-1.21-2.5-.3-3.57.9-1.07,2.5-1.21,3.57-.3h0c1.07.9,1.21,2.5.3,3.57-.9,1.07-2.5,1.21-3.57.3ZM334.61,176.86h0c-.97-1.01-.95-2.61.06-3.59s2.61-.95,3.59.06h0c.97,1.01.95,2.61-.06,3.59s-2.61.95-3.59-.06ZM328,168.5h0c-.76-1.18-.41-2.75.77-3.5s2.75-.41,3.5.77h0c.76,1.18.41,2.75-.77,3.5s-2.75.41-3.5-.77h0ZM322.43,159.71h0c-.63-1.25-.14-2.78,1.11-3.41s2.78-.14,3.41,1.11h0c.63,1.25.14,2.78-1.11,3.41s-2.78.14-3.41-1.11h0ZM317.78,150.41h0c-.5-1.31.15-2.78,1.45-3.28,0,0,0,0,0,0,1.31-.5,2.77.15,3.28,1.45,0,0,0,0,0,0h0c.5,1.31-.15,2.78-1.45,3.28,0,0,0,0,0,0-1.31.5-2.77-.15-3.28-1.45,0,0,0,0,0,0Z"/>
    </clipPath>
    <linearGradient id="linear-gradient-3" x1="137.81" y1="335.64" x2="137.81" y2="334.71" gradientTransform="translate(-44694.67 73771.94) scale(326.94 -219.77)" xlink:href="#linear-gradient"/>
    <clipPath id="clippath-4">
      <path class="cls-2" d="M284.08,96.03c-.74,0-1.46.25-2.03.72-.72.7-1.2,1.61-1.38,2.6-.53,2.69-.75,5.44-.65,8.18-.1,2.65.09,5.3.58,7.9.19,1.08.7,2.07,1.46,2.86.57.47,1.28.72,2.02.71.74,0,1.46-.25,2.03-.72.72-.7,1.2-1.61,1.38-2.6.53-2.69.75-5.42.65-8.16.1-2.65-.09-5.3-.58-7.9-.2-1.08-.7-2.08-1.46-2.88-.56-.47-1.28-.73-2.01-.73ZM309.64,90.84c3.22,0,5.76.87,7.6,2.61,1.81,1.66,2.82,4.03,2.76,6.49,0,1.44-.26,2.87-.79,4.21-.63,1.51-1.48,2.91-2.51,4.18-1.26,1.49-2.63,2.88-4.1,4.17-1.98,1.81-3.23,3.02-3.76,3.61-.48.54-.91,1.12-1.28,1.74h12.44v5.82h-21.96c.24-2.22.98-4.35,2.14-6.25,1.19-1.97,3.54-4.58,7.04-7.83,1.88-1.63,3.62-3.42,5.19-5.35.8-1.12,1.25-2.45,1.29-3.83.08-1.18-.33-2.34-1.12-3.22-.84-.79-1.97-1.2-3.12-1.13-1.16-.06-2.29.37-3.12,1.18-.89,1.11-1.37,2.5-1.34,3.93l-6.24-.62c.37-3.45,1.54-5.92,3.5-7.42,2.13-1.56,4.72-2.35,7.36-2.25h0ZM284.08,90.84c2.88-.13,5.64,1.13,7.42,3.39,2.12,2.67,3.19,7.11,3.19,13.31s-1.07,10.62-3.21,13.33c-1.79,2.24-4.54,3.48-7.4,3.34-3,.08-5.87-1.28-7.69-3.67-1.95-2.44-2.92-6.8-2.92-13.07s1.07-10.58,3.21-13.29c1.79-2.24,4.54-3.48,7.4-3.34h0Z"/>
    </clipPath>
    <linearGradient id="linear-gradient-4" x1="137.66" y1="334.98" x2="137.83" y2="335.21" gradientTransform="translate(-44694.67 73771.6) scale(326.94 -219.77)" xlink:href="#linear-gradient-2"/>
  </defs>
  <g id="Group_3309" data-name="Group 3309">
    <g id="Group_3286" data-name="Group 3286">
      <g id="Group_3285" data-name="Group 3285">
        <path id="Path_7157" data-name="Path 7157" class="cls-4" d="M58.67,108.5c0-42.4,34.37-76.77,76.77-76.77s76.77,34.37,76.77,76.77-34.37,76.77-76.77,76.77h0c-42.4,0-76.77-34.37-76.77-76.77h0Z"/>
        <g id="Group_3279" data-name="Group 3279" class="cls-14">
          <g id="Group_3278" data-name="Group 3278">
            <path id="Path_7158" data-name="Path 7158" class="cls-9" d="M58.67,108.5c0-42.4,34.37-76.77,76.77-76.77s76.77,34.37,76.77,76.77-34.37,76.77-76.77,76.77h0c-42.4,0-76.77-34.37-76.77-76.77Z"/>
          </g>
        </g>
        <g class="cls-1">
          <g id="Group_3282" data-name="Group 3282">
            <g id="Group_3281" data-name="Group 3281">
              <path id="Path_7159" data-name="Path 7159" class="cls-3" d="M-57.26,8.29H235.03v199.8H-57.26V8.29Z"/>
            </g>
          </g>
        </g>
        <g class="cls-10">
          <g id="Group_3284" data-name="Group 3284">
            <g id="Group_3283" data-name="Group 3283">
              <path id="Path_7161" data-name="Path 7161" class="cls-6" d="M-57.26,8.29H235.03v199.8H-57.26V8.29Z"/>
            </g>
          </g>
        </g>
      </g>
    </g>
    <g id="Group_3308" data-name="Group 3308">
      <g class="cls-13">
        <g id="Group_3307" data-name="Group 3307">
          <path id="Path_7175" data-name="Path 7175" class="cls-8" d="M174.97,77.11h-5.53v-5.54c0-.6-.49-1.09-1.09-1.09s-1.09.49-1.09,1.09v6.16l-8.13,7.81c-13.45-13.05-34.94-12.73-48,.73-13.05,13.45-12.73,34.94.73,48,13.45,13.05,34.94,12.73,48-.73,12.46-12.85,12.81-33.16.79-46.43l8.14-7.82h6.19c.6,0,1.09-.49,1.09-1.09s-.49-1.09-1.09-1.09h0M167.25,109.95c.03,17.66-14.26,32-31.91,32.03-17.66.03-32-14.26-32.03-31.91-.03-17.66,14.26-32,31.91-32.03,8.33-.01,16.35,3.23,22.33,9.03l-5.51,5.3c-9.73-9.23-25.1-8.83-34.34.9-9.23,9.73-8.83,25.1.9,34.34,9.73,9.23,25.1,8.83,34.34-.9,8.65-9.12,8.92-23.33.62-32.76l5.52-5.31c5.27,5.85,8.19,13.44,8.18,21.31M138.96,109.95c0,2-1.62,3.63-3.63,3.63s-3.63-1.62-3.63-3.63,1.62-3.63,3.63-3.63c.6,0,1.2.16,1.73.45l-2.48,2.38c-.43.42-.45,1.11-.03,1.54.42.43,1.11.45,1.54.03l2.48-2.39c.25.5.39,1.04.39,1.6M138.68,105.21c-2.63-1.86-6.26-1.23-8.12,1.4-1.86,2.63-1.23,6.26,1.4,8.12,2.63,1.86,6.26,1.23,8.12-1.4,1.38-1.95,1.43-4.55.12-6.55l4.91-4.72c4.42,5.44,3.59,13.43-1.84,17.85-5.44,4.42-13.43,3.59-17.85-1.84-4.42-5.44-3.59-13.43,1.84-17.85,4.79-3.89,11.68-3.78,16.33.27l-4.91,4.72ZM145.17,98.97c-6.03-5.31-15.22-4.73-20.53,1.29-5.31,6.03-4.73,15.22,1.29,20.53,6.03,5.31,15.22,4.73,20.53-1.29,4.76-5.39,4.85-13.45.23-18.96l5.27-5.07c8.07,9.23,7.12,23.26-2.12,31.32-9.23,8.07-23.26,7.12-31.32-2.12-8.07-9.23-7.12-23.26,2.12-31.32,8.6-7.51,21.49-7.27,29.81.54l-5.28,5.07Z"/>
        </g>
      </g>
    </g>
  </g>
  <g id="Group_3313" data-name="Group 3313">
    <g id="Group_3297" data-name="Group 3297">
      <g class="cls-12">
        <g id="Group_3294" data-name="Group 3294">
          <g id="Group_3293" data-name="Group 3293">
            <path id="Path_7165" data-name="Path 7165" class="cls-7" d="M207.77,6.58h305.61v205.43H207.77V6.58Z"/>
          </g>
        </g>
      </g>
      <g class="cls-11">
        <g id="Group_3296" data-name="Group 3296">
          <g id="Group_3295" data-name="Group 3295">
            <path id="Path_7167" data-name="Path 7167" class="cls-5" d="M207.77,6.58h305.61v205.43H207.77V6.58Z"/>
          </g>
        </g>
      </g>
    </g>
  </g>
</svg>