<svg xmlns="http://www.w3.org/2000/svg" xmlns:xlink="http://www.w3.org/1999/xlink" width="250.567" height="217.71" viewBox="0 0 250.567 217.71">
  <defs>
    <clipPath id="clip-path">
      <path id="Path_7160" data-name="Path 7160" d="M84.4-99.3l0,0a2.715,2.715,0,0,1,3.682-1.09,2.715,2.715,0,0,1,1.09,3.682l0,0a2.715,2.715,0,0,1-3.682,1.09A2.715,2.715,0,0,1,84.4-99.3Zm5.186-9.549,0,0h0a2.715,2.715,0,0,1,3.682-1.09,2.715,2.715,0,0,1,1.09,3.682l0,0a2.715,2.715,0,0,1-3.682,1.09A2.715,2.715,0,0,1,89.59-108.848Zm6.444-9.417,0,0a2.715,2.715,0,0,1,3.826-.333,2.715,2.715,0,0,1,.333,3.826l0,0a2.715,2.715,0,0,1-3.826.333A2.715,2.715,0,0,1,96.033-118.266Zm7.213-8.481,0,0a2.715,2.715,0,0,1,3.84.048,2.715,2.715,0,0,1-.048,3.84l0,0a2.715,2.715,0,0,1-3.84-.048A2.715,2.715,0,0,1,103.247-126.747Zm8.045-7.688,0,0a2.715,2.715,0,0,1,3.817.423,2.715,2.715,0,0,1-.423,3.817l0,0a2.715,2.715,0,0,1-3.817-.423A2.715,2.715,0,0,1,111.291-134.436Zm8.788-6.82,0,0a2.715,2.715,0,0,1,3.758.792,2.715,2.715,0,0,1-.792,3.758l0,0a2.715,2.715,0,0,1-3.758-.792A2.715,2.715,0,0,1,120.079-141.256Zm9.435-5.885,0,0a2.715,2.715,0,0,1,3.664,1.149,2.715,2.715,0,0,1-1.149,3.664l0,0a2.715,2.715,0,0,1-3.664-1.149A2.715,2.715,0,0,1,129.514-147.141Zm9.98-4.9.005,0h0a2.715,2.715,0,0,1,3.538,1.493,2.715,2.715,0,0,1-1.493,3.538l-.005,0A2.715,2.715,0,0,1,138-148.5,2.715,2.715,0,0,1,139.494-152.037Zm10.423-3.861.005,0a2.715,2.715,0,0,1,3.379,1.824,2.715,2.715,0,0,1-1.824,3.379l-.005,0h0a2.716,2.716,0,0,1-3.379-1.824A2.715,2.715,0,0,1,149.917-155.9Zm10.759-2.787h.005a2.715,2.715,0,0,1,3.19,2.137,2.715,2.715,0,0,1-2.137,3.19h-.005a2.715,2.715,0,0,1-3.19-2.137A2.715,2.715,0,0,1,160.676-158.686Zm10.987-1.684h.005a2.715,2.715,0,0,1,2.97,2.434,2.715,2.715,0,0,1-2.434,2.97H172.2a2.715,2.715,0,0,1-2.97-2.434A2.715,2.715,0,0,1,171.663-160.369Zm11.1-.557h.005a2.715,2.715,0,0,1,2.72,2.71,2.715,2.715,0,0,1-2.71,2.72h-.005a2.715,2.715,0,0,1-2.72-2.71A2.715,2.715,0,0,1,182.767-160.926Zm11.18.482h.005a2.715,2.715,0,0,1,2.368,3.023,2.715,2.715,0,0,1-3.023,2.368h-.005a2.716,2.716,0,0,1-2.368-3.023A2.715,2.715,0,0,1,193.947-160.444Zm10.994,1.735h.005A2.715,2.715,0,0,1,207-155.466a2.715,2.715,0,0,1-3.243,2.057h-.005a2.716,2.716,0,0,1-2.057-3.243A2.715,2.715,0,0,1,204.94-158.709Zm10.761,2.853.005,0a2.715,2.715,0,0,1,1.722,3.432A2.715,2.715,0,0,1,214-150.7h0l-.005,0a2.715,2.715,0,0,1-1.722-3.432A2.715,2.715,0,0,1,215.7-155.856Zm10.416,3.935.005,0a2.715,2.715,0,0,1,1.367,3.589,2.715,2.715,0,0,1-3.589,1.367h0l0,0h0a2.715,2.715,0,0,1-1.367-3.589A2.715,2.715,0,0,1,226.118-151.922Zm9.864,5.017,0,0a2.715,2.715,0,0,1,1.09,3.682,2.715,2.715,0,0,1-3.682,1.09l0,0a2.715,2.715,0,0,1-1.09-3.682A2.715,2.715,0,0,1,235.982-146.9Zm9.414,5.933,0,0a2.715,2.715,0,0,1,.715,3.773,2.715,2.715,0,0,1-3.773.715l0,0a2.715,2.715,0,0,1-.715-3.773A2.715,2.715,0,0,1,245.4-140.972Zm8.759,6.863,0,0a2.715,2.715,0,0,1,.332,3.826,2.715,2.715,0,0,1-3.826.332l0,0a2.715,2.715,0,0,1-.332-3.826A2.715,2.715,0,0,1,254.155-134.109Zm8.006,7.722,0,0a2.715,2.715,0,0,1-.047,3.84,2.715,2.715,0,0,1-3.84-.047l0,0a2.715,2.715,0,0,1,.047-3.84A2.715,2.715,0,0,1,262.161-126.387Zm7.173,8.5,0,0a2.715,2.715,0,0,1-.423,3.817,2.715,2.715,0,0,1-3.817-.423l0,0a2.715,2.715,0,0,1,.423-3.817A2.715,2.715,0,0,1,269.334-117.886ZM275.6-108.7l0,0a2.715,2.715,0,0,1-.792,3.757,2.715,2.715,0,0,1-3.757-.792l0,0a2.715,2.715,0,0,1,.792-3.757A2.715,2.715,0,0,1,275.6-108.7Zm5.3,9.776,0,0a2.715,2.715,0,0,1-1.15,3.664,2.715,2.715,0,0,1-3.664-1.15l0,0a2.715,2.715,0,0,1,1.15-3.664A2.715,2.715,0,0,1,280.906-98.922Zm4.287,10.262,0,.005a2.715,2.715,0,0,1-1.493,3.538,2.715,2.715,0,0,1-3.538-1.493l0-.005a2.715,2.715,0,0,1,1.493-3.538A2.715,2.715,0,0,1,285.193-88.661Zm3.259,10.9v.005a2.715,2.715,0,0,1-2.135,3.192,2.715,2.715,0,0,1-3.192-2.135V-76.7a2.715,2.715,0,0,1,2.135-3.191A2.715,2.715,0,0,1,288.452-77.758ZM290.5-66.822v.005a2.715,2.715,0,0,1-2.435,2.969,2.715,2.715,0,0,1-2.969-2.435v-.005a2.715,2.715,0,0,1,2.435-2.969A2.715,2.715,0,0,1,290.5-66.822Zm.929,11.082v.005a2.715,2.715,0,0,1-2.709,2.722A2.715,2.715,0,0,1,286-55.721v-.005a2.715,2.715,0,0,1,2.709-2.722A2.715,2.715,0,0,1,291.431-55.74Zm-.146,11.062v.005a2.715,2.715,0,0,1-2.9,2.514,2.715,2.715,0,0,1-2.515-2.9v-.005a2.715,2.715,0,0,1,2.9-2.514A2.715,2.715,0,0,1,291.285-44.678Zm-1.324,11.049v.005a2.715,2.715,0,0,1-3.136,2.216,2.715,2.715,0,0,1-2.216-3.136v-.005a2.715,2.715,0,0,1,3.136-2.216A2.715,2.715,0,0,1,289.961-33.629Zm-2.453,10.86v.005a2.715,2.715,0,0,1-3.344,1.889,2.715,2.715,0,0,1-1.889-3.344v-.005a2.715,2.715,0,0,1,3.344-1.889A2.715,2.715,0,0,1,287.508-22.769Zm-3.55,10.547,0,.005a2.715,2.715,0,0,1-3.514,1.55,2.715,2.715,0,0,1-1.55-3.513l0-.005a2.715,2.715,0,0,1,3.514-1.55A2.715,2.715,0,0,1,283.959-12.222ZM279.252-2.057l0,0a2.715,2.715,0,0,1-3.682,1.089,2.715,2.715,0,0,1-1.089-3.682l0,0a2.715,2.715,0,0,1,3.682-1.089A2.715,2.715,0,0,1,279.252-2.057Zm-5.6,9.616,0,0A2.715,2.715,0,1,1,269.16,4.5l0,0a2.715,2.715,0,1,1,4.488,3.058ZM267.1,16.549l0,0a2.715,2.715,0,1,1-4.16-3.491l0,0a2.715,2.715,0,1,1,4.16,3.491Zm-7.444,8.267,0,0a2.715,2.715,0,0,1-3.793-3.887l0,0a2.715,2.715,0,0,1,3.793,3.887Zm-8.25,7.455,0,0a2.715,2.715,0,1,1-3.4-4.238l0,0a2.715,2.715,0,1,1,3.4,4.238Zm-8.968,6.57,0,0A2.715,2.715,0,0,1,239.46,34.3l0,0a2.715,2.715,0,0,1,2.969,4.547Zm-9.591,5.623,0,0a2.715,2.715,0,0,1-2.514-4.814l0,0a2.715,2.715,0,0,1,2.514,4.814Zm-10.106,4.62-.005,0a2.715,2.715,0,0,1-2.047-5.03l.005,0a2.715,2.715,0,0,1,2.047,5.03ZM212.21,52.661l-.005,0a2.715,2.715,0,1,1-1.552-5.2l.005,0a2.715,2.715,0,0,1,1.552,5.2Zm-10.829,2.492h-.005a2.715,2.715,0,0,1-1.055-5.327h.005a2.715,2.715,0,1,1,1.055,5.327Zm-11.033,1.382h-.005a2.715,2.715,0,1,1-.535-5.4h.005a2.715,2.715,0,0,1,.535,5.4Zm-11.117.249h-.005a2.715,2.715,0,1,1-.013-5.431h.005a2.715,2.715,0,1,1,.013,5.431Zm-11.158-.87h-.005a2.715,2.715,0,0,1,.655-5.391h.005a2.715,2.715,0,0,1-.655,5.391ZM157.13,53.868h-.005a2.715,2.715,0,1,1,1.189-5.3h.005a2.715,2.715,0,0,1-1.189,5.3Zm-10.674-3.16-.005,0a2.715,2.715,0,0,1,1.711-5.154l.005,0a2.715,2.715,0,1,1-1.711,5.154Zm-10.3-4.233-.005,0a2.715,2.715,0,0,1,2.218-4.957l.005,0a2.715,2.715,0,0,1-2.218,4.957ZM126.4,41.238l0,0a2.715,2.715,0,1,1,2.593-4.772l0,0a2.715,2.715,0,0,1-2.593,4.772Zm-9.24-6.22,0,0a2.715,2.715,0,0,1,3.062-4.485l0,0a2.715,2.715,0,0,1-3.062,4.485Zm-8.559-7.13,0,0a2.715,2.715,0,1,1,3.5-4.152l0,0a2.715,2.715,0,1,1-3.5,4.152Zm-7.785-7.964,0,0a2.715,2.715,0,1,1,3.9-3.78l0,0a2.715,2.715,0,0,1-3.9,3.78Zm-7.073-8.95,0,0a2.715,2.715,0,1,1,4.571-2.932l0,0a2.715,2.715,0,1,1-4.571,2.932Zm-5.965-9.4,0,0A2.715,2.715,0,1,1,92.619-.895l0,0a2.715,2.715,0,1,1-4.842,2.459ZM82.8-8.4l0-.005h0a2.715,2.715,0,0,1,1.556-3.511,2.715,2.715,0,0,1,3.511,1.556l0,.005a2.715,2.715,0,0,1-1.556,3.511A2.715,2.715,0,0,1,82.8-8.4Z" transform="translate(-82.618 160.926)" fill="none"/>
    </clipPath>
    <linearGradient id="linear-gradient" x1="0.668" y1="0.006" x2="0.668" y2="0.997" gradientUnits="objectBoundingBox">
      <stop offset="0"/>
      <stop offset="0" stop-color="#54b8df"/>
      <stop offset="0.1" stop-color="#54bedf"/>
      <stop offset="0.2" stop-color="#54c5df"/>
      <stop offset="0.3" stop-color="#54cbdf"/>
      <stop offset="0.4" stop-color="#54d2df"/>
      <stop offset="0.5" stop-color="#54d8df"/>
      <stop offset="0.6" stop-color="#6adfd1"/>
      <stop offset="0.7" stop-color="#8ae5bd"/>
      <stop offset="0.8" stop-color="#abeca9"/>
      <stop offset="0.9" stop-color="#cbf296"/>
      <stop offset="1" stop-color="#ebf982"/>
      <stop offset="1"/>
    </linearGradient>
    <clipPath id="clip-path-2">
      <path id="Path_7162" data-name="Path 7162" d="M63.224-89.994a3.35,3.35,0,0,0-2.172.776,5.207,5.207,0,0,0-1.48,2.78,38.349,38.349,0,0,0-.692,8.759,38.067,38.067,0,0,0,.62,8.46,5.949,5.949,0,0,0,1.563,3.067,3.335,3.335,0,0,0,2.16.764,3.35,3.35,0,0,0,2.172-.776,5.207,5.207,0,0,0,1.48-2.78,38.01,38.01,0,0,0,.692-8.735,38.067,38.067,0,0,0-.62-8.46,6.031,6.031,0,0,0-1.563-3.079A3.3,3.3,0,0,0,63.224-89.994Zm27.535-5.561H96.2v35.13H89.494V-85.7a23.119,23.119,0,0,1-8.663,5.083V-86.7a19.4,19.4,0,0,0,5.7-3.258A12.378,12.378,0,0,0,90.759-95.555Zm-27.535,0a9.559,9.559,0,0,1,7.947,3.628q3.413,4.3,3.413,14.248,0,9.928-3.437,14.271a9.544,9.544,0,0,1-7.923,3.58,10.012,10.012,0,0,1-8.234-3.926q-3.126-3.926-3.126-14,0-9.88,3.437-14.224A9.544,9.544,0,0,1,63.224-95.555Z" transform="translate(-51.864 95.555)" fill="none" clip-rule="evenodd"/>
    </clipPath>
    <linearGradient id="linear-gradient-2" x1="0.206" y1="0.61" x2="0.388" y2="0.364" gradientUnits="objectBoundingBox">
      <stop offset="0"/>
      <stop offset="0" stop-color="#54b8df"/>
      <stop offset="0.1" stop-color="#54bfdf"/>
      <stop offset="0.2" stop-color="#54c7df"/>
      <stop offset="0.3" stop-color="#54cedf"/>
      <stop offset="0.4" stop-color="#54d6df"/>
      <stop offset="0.5" stop-color="#5fdcd8"/>
      <stop offset="0.6" stop-color="#7be2c7"/>
      <stop offset="0.7" stop-color="#97e8b6"/>
      <stop offset="0.8" stop-color="#b3eea4"/>
      <stop offset="0.9" stop-color="#cff393"/>
      <stop offset="1" stop-color="#ebf982"/>
      <stop offset="1"/>
    </linearGradient>
    <clipPath id="clip-path-3">
      <rect id="Rectangle_2021" data-name="Rectangle 2021" width="82.366" height="80.982" fill="#fff"/>
    </clipPath>
  </defs>
  <g id="Group_3309" data-name="Group 3309" transform="translate(-381.001 -1535)">
    <g id="Group_3286" data-name="Group 3286" transform="translate(-165 -104)">
      <g id="Group_3285" data-name="Group 3285" transform="translate(546.001 1639)">
        <path id="Path_7157" data-name="Path 7157" d="M94-58.485A84.515,84.515,0,0,1,178.515-143,84.515,84.515,0,0,1,263.03-58.485,84.515,84.515,0,0,1,178.515,26.03,84.515,84.515,0,0,1,94-58.485Z" transform="translate(-36.793 167.337)" fill="rgba(255,255,255,0.43)" fill-rule="evenodd"/>
        <g id="Group_3279" data-name="Group 3279" transform="translate(57.207 24.337)" opacity="0.431">
          <g id="Group_3278" data-name="Group 3278">
            <path id="Path_7158" data-name="Path 7158" d="M0,84.515A84.515,84.515,0,1,1,84.515,169.03,84.515,84.515,0,0,1,0,84.515Z" fill="none" stroke="#fff" stroke-linejoin="round" stroke-width="2.75"/>
          </g>
        </g>
        <g id="Group_3282" data-name="Group 3282" transform="translate(41.754 0)" clip-path="url(#clip-path)">
          <g id="Group_3281" data-name="Group 3281" transform="translate(-112.168 -1.458)">
            <path id="Path_7159" data-name="Path 7159" d="M-78-3H243.767V216.942H-78Z" transform="translate(78 3)" fill="url(#linear-gradient)"/>
          </g>
        </g>
        <g id="Group_3284" data-name="Group 3284" transform="translate(0 88.752)" clip-path="url(#clip-path-2)">
          <g id="Group_3283" data-name="Group 3283" transform="translate(-70.414 -90.211)">
            <path id="Path_7161" data-name="Path 7161" d="M-.348-53.72H321.419V166.222H-.348Z" transform="translate(0.348 53.72)" fill="url(#linear-gradient-2)"/>
          </g>
        </g>
      </g>
    </g>
    <g id="Group_3308" data-name="Group 3308" transform="translate(485.072 1602)">
      <g id="Group_3307" data-name="Group 3307" transform="translate(0 0)" clip-path="url(#clip-path-3)">
        <path id="Path_7175" data-name="Path 7175" d="M81.164,7.294H75.072V1.2a1.2,1.2,0,1,0-2.4,0V7.984l-8.945,8.6a37.367,37.367,0,1,0,1.671,1.729L74.354,9.7h6.81a1.2,1.2,0,1,0,0-2.4m-8.5,36.152a35.194,35.194,0,1,1-10.679-25.19L55.915,24.1a26.737,26.737,0,1,0,1.668,1.732l6.077-5.845a34.993,34.993,0,0,1,9.007,23.461m-31.139,0a3.993,3.993,0,1,1-3.993-3.993,3.941,3.941,0,0,1,1.9.5L36.7,42.579a1.2,1.2,0,1,0,1.666,1.732L41.1,41.685a3.931,3.931,0,0,1,.428,1.761m-.308-5.213a6.414,6.414,0,1,0,1.669,1.731l5.41-5.2a13.971,13.971,0,1,1-1.672-1.729Zm7.14-6.869a16.011,16.011,0,1,0,1.68,1.722l5.8-5.577a24.438,24.438,0,1,1-1.669-1.731Z" transform="translate(0 0)" fill="#fff"/>
      </g>
    </g>
  </g>
</svg>
