<svg xmlns="http://www.w3.org/2000/svg" xmlns:xlink="http://www.w3.org/1999/xlink" width="194" height="194" viewBox="0 0 194 194">
  <defs>
    <radialGradient id="radial-gradient" cx="0.5" cy="0.5" r="0.5" gradientUnits="objectBoundingBox">
      <stop offset="0" stop-color="#43a9ac" stop-opacity="0.502"/>
      <stop offset="1" stop-color="#43a9ac" stop-opacity="0"/>
    </radialGradient>
    <clipPath id="clip-path">
      <rect id="Rectangle_2200" data-name="Rectangle 2200" width="86.696" height="110" fill="none" stroke="#707070" stroke-width="1"/>
    </clipPath>
  </defs>
  <g id="Group_3594" data-name="Group 3594" transform="translate(-414 -1711)">
    <circle id="Ellipse_157" data-name="Ellipse 157" cx="97" cy="97" r="97" transform="translate(414 1711)" opacity="0.601" fill="url(#radial-gradient)"/>
    <g id="Group_3559" data-name="Group 3559" transform="translate(468 1753)">
      <g id="Mask_Group_3558" data-name="Mask Group 3558" clip-path="url(#clip-path)">
        <path id="Path_7428" data-name="Path 7428" d="M64.777,26.529c-7.261-.015-13.191,6.354-13.2,14.178s5.892,14.215,13.152,14.232,13.189-6.354,13.2-14.178S72.037,26.546,64.777,26.529ZM84.251,15.723V101.87a5.491,5.491,0,0,1-5.274,5.685H5.907A5.491,5.491,0,0,1,.633,101.87V6.318A5.491,5.491,0,0,1,5.907.633H67.2" transform="translate(0.906 0.906)" fill="none" stroke="#0f1e41" stroke-linecap="round" stroke-linejoin="round" stroke-width="2"/>
        <path id="Path_7429" data-name="Path 7429" d="M30.9,21.5A5.152,5.152,0,0,0,29,20.405a3.793,3.793,0,0,1-1.478-.819,1.5,1.5,0,0,1-.35-1.048,1.6,1.6,0,0,1,.4-1.131,1.546,1.546,0,0,1,1.2-.44,1.394,1.394,0,0,1,1.177.535,2.256,2.256,0,0,1,.428,1.427v.219h1.007l.075-.207V18.9a3.309,3.309,0,0,0-.6-2.135,2.387,2.387,0,0,0-1.568-.9V14.521H28.285v1.345a2.5,2.5,0,0,0-1.561.8,2.736,2.736,0,0,0-.654,1.882,2.586,2.586,0,0,0,.659,1.875,4.907,4.907,0,0,0,1.9,1.087,4.069,4.069,0,0,1,1.439.834,1.427,1.427,0,0,1,.37,1.024,1.5,1.5,0,0,1-.45,1.123,1.732,1.732,0,0,1-1.264.45,1.993,1.993,0,0,1-1.33-.464,1.85,1.85,0,0,1-.523-1.5v-.219h-.99l-.092.2,0,.049a2.693,2.693,0,0,0,2.478,3.027V27.3h1V26.032a2.52,2.52,0,0,0,2.281-2.677A2.535,2.535,0,0,0,30.9,21.5" transform="translate(36.919 20.787)" fill="#fff"/>
        <path id="Path_7430" data-name="Path 7430" d="M30.9,21.5A5.152,5.152,0,0,0,29,20.405a3.793,3.793,0,0,1-1.478-.819,1.5,1.5,0,0,1-.35-1.048,1.6,1.6,0,0,1,.4-1.131,1.546,1.546,0,0,1,1.2-.44,1.394,1.394,0,0,1,1.177.535,2.256,2.256,0,0,1,.428,1.427v.219h1.007l.075-.207V18.9a3.309,3.309,0,0,0-.6-2.135,2.387,2.387,0,0,0-1.568-.9V14.521H28.285v1.345a2.5,2.5,0,0,0-1.561.8,2.736,2.736,0,0,0-.654,1.882,2.586,2.586,0,0,0,.659,1.875,4.907,4.907,0,0,0,1.9,1.087,4.069,4.069,0,0,1,1.439.834,1.427,1.427,0,0,1,.37,1.024,1.5,1.5,0,0,1-.45,1.123,1.732,1.732,0,0,1-1.264.45,1.993,1.993,0,0,1-1.33-.464,1.85,1.85,0,0,1-.523-1.5v-.219h-.99l-.092.2,0,.049a2.693,2.693,0,0,0,2.478,3.027V27.3h1V26.032a2.52,2.52,0,0,0,2.281-2.677A2.535,2.535,0,0,0,30.9,21.5Z" transform="translate(36.919 20.787)" fill="#0f1e41" stroke="#0f1e41" stroke-miterlimit="10" stroke-width="1"/>
        <path id="Path_7431" data-name="Path 7431" d="M80.454,15.723H66.283a2.991,2.991,0,0,1-2.874-3.1V.633ZM54.228,97.308H72.591M54.228,82.026H72.591M54.228,66.744H72.591M4.892,39.9H41.985M4.892,26.721h36.67M4.892,13.542h17.6M7.5,68.757H43.313m-22.039,29h7.82M27.138,61.21a1.99,1.99,0,1,1-1.984-2.14A2.067,2.067,0,0,1,27.138,61.21Zm-1.945,2.363V97.308M3.387,86.432H18.618M11,68.757,3.4,86.425a.741.741,0,0,0-.092.562c.073,3.112,3.5,5.622,7.706,5.622,4.258,0,7.71-2.563,7.71-5.726l0-.049H18.71a.707.707,0,0,0-.083-.36ZM30.9,86.432H46.136M38.51,68.743,30.9,86.425a.752.752,0,0,0-.092.562c.073,3.112,3.5,5.622,7.706,5.622,4.258,0,7.71-2.563,7.71-5.726l0-.049h0a.734.734,0,0,0-.085-.36Z" transform="translate(4.703 0.906)" fill="none" stroke="#0f1e41" stroke-linecap="round" stroke-linejoin="round" stroke-width="2.5"/>
      </g>
    </g>
  </g>
</svg>
