<svg xmlns="http://www.w3.org/2000/svg" xmlns:xlink="http://www.w3.org/1999/xlink" width="94" height="94" viewBox="0 0 94 94">
  <defs>
    <radialGradient id="radial-gradient" cx="0.5" cy="0.5" r="0.5" gradientUnits="objectBoundingBox">
      <stop offset="0" stop-color="#43a9ac" stop-opacity="0.412"/>
      <stop offset="1" stop-color="#43a9ac" stop-opacity="0"/>
    </radialGradient>
  </defs>
  <g id="Group_3781" data-name="Group 3781" transform="translate(-1035 -1743)">
    <circle id="Ellipse_175" data-name="Ellipse 175" cx="47" cy="47" r="47" transform="translate(1035 1743)" opacity="0.996" fill="url(#radial-gradient)"/>
    <g id="innovation_icon" data-name="innovation icon" transform="translate(1045.638 1760.601)">
      <path id="Path_8165" data-name="Path 8165" d="M30.6,31.5c-.4-2.2-1.7-3.2-3.1-4.9a8.179,8.179,0,0,1-1.9-5.3,8.3,8.3,0,1,1,16.6,0c0,4.6-.7,3.8-1.9,5.3-1.4,1.7-2.6,2.7-3.1,4.9" fill="none" stroke="#fff" stroke-linecap="round" stroke-linejoin="round" stroke-width="1.5"/>
      <line id="Line_252" data-name="Line 252" y2="5.8" transform="translate(33.9 25.9)" fill="none" stroke="#fff" stroke-linecap="round" stroke-linejoin="round" stroke-width="1.5"/>
      <path id="Path_8166" data-name="Path 8166" d="M36.3,23.3l-2.4,2.4-2.4-2.4" fill="none" stroke="#fff" stroke-linecap="round" stroke-linejoin="round" stroke-width="1.5"/>
      <path id="Path_8167" data-name="Path 8167" d="M35,37.7H32.8a1.855,1.855,0,0,1-1.6-1.2l-.6-2.4h6.3l-.5,2.4a1.508,1.508,0,0,1-1.5,1.2Z" fill="none" stroke="#fff" stroke-linecap="round" stroke-linejoin="round" stroke-width="1.5"/>
      <line id="Line_253" data-name="Line 253" y2="2.2" transform="translate(33.9 7.2)" fill="none" stroke="#fff" stroke-linecap="round" stroke-linejoin="round" stroke-width="1.5"/>
      <line id="Line_254" data-name="Line 254" x2="1.5" y2="1.5" transform="translate(22.6 12.2)" fill="none" stroke="#fff" stroke-linecap="round" stroke-linejoin="round" stroke-width="1.5"/>
      <line id="Line_255" data-name="Line 255" y1="1.5" x2="1.5" transform="translate(43.8 12.2)" fill="none" stroke="#fff" stroke-linecap="round" stroke-linejoin="round" stroke-width="1.5"/>
      <path id="Path_8168" data-name="Path 8168" d="M38.3,49.5a5.446,5.446,0,0,0,2.8,2.2c16.3,3.1,15.8-1,13.9-7.6" fill="none" stroke="#fff" stroke-linecap="round" stroke-linejoin="round" stroke-width="1.5"/>
      <path id="Path_8169" data-name="Path 8169" d="M18.1,57C19,43.6,16,36.3,15.4,35.3c-1.7-2.5-6.2-10.5-2.8-19.5C16.1,6.9,24.1.6,34.1.6S47,3.2,50.8,7.5c4.5,5.1,5.4,8.3,5.1,14.9,0,2.2,0,3,.7,4.1.9,1.4,3.2,4.7,4.4,6.5.8,1.3.6,2.8-3.4,2.8-3.3,0-1.9,3.8-2.2,5.2s-2.5,1.3-5.4,1.3" fill="none" stroke="#fff" stroke-linecap="round" stroke-linejoin="round" stroke-width="1.5"/>
      <path id="Path_8170" data-name="Path 8170" d="M40.5,53.8v3.3" fill="none" stroke="#fff" stroke-linecap="round" stroke-linejoin="round" stroke-width="1.5"/>
    </g>
  </g>
</svg>
