<svg xmlns="http://www.w3.org/2000/svg" width="19.547" height="19.547" viewBox="0 0 19.547 19.547">
  <g id="Group_1667" data-name="Group 1667" transform="translate(0)">
    <path id="Path_3" data-name="Path 3" d="M9.773,1.737a29.967,29.967,0,0,1,3.909.109,5.037,5.037,0,0,1,1.846.326,3.814,3.814,0,0,1,1.846,1.846A5.037,5.037,0,0,1,17.7,5.864c0,.977.109,1.3.109,3.909a29.968,29.968,0,0,1-.109,3.909,5.037,5.037,0,0,1-.326,1.846,3.814,3.814,0,0,1-1.846,1.846,5.037,5.037,0,0,1-1.846.326c-.977,0-1.3.109-3.909.109A29.968,29.968,0,0,1,5.864,17.7a5.037,5.037,0,0,1-1.846-.326,3.814,3.814,0,0,1-1.846-1.846,5.037,5.037,0,0,1-.326-1.846c0-.977-.109-1.3-.109-3.909a29.967,29.967,0,0,1,.109-3.909,5.037,5.037,0,0,1,.326-1.846,3.9,3.9,0,0,1,.76-1.086,1.836,1.836,0,0,1,1.086-.76,5.037,5.037,0,0,1,1.846-.326,29.967,29.967,0,0,1,3.909-.109M9.773,0A32.086,32.086,0,0,0,5.755.109,6.7,6.7,0,0,0,3.366.543,4.251,4.251,0,0,0,1.629,1.629,4.251,4.251,0,0,0,.543,3.366,4.948,4.948,0,0,0,.109,5.755,32.086,32.086,0,0,0,0,9.773a32.086,32.086,0,0,0,.109,4.018A6.7,6.7,0,0,0,.543,16.18a4.251,4.251,0,0,0,1.086,1.737A4.251,4.251,0,0,0,3.366,19a6.7,6.7,0,0,0,2.389.434,32.086,32.086,0,0,0,4.018.109,32.086,32.086,0,0,0,4.018-.109A6.7,6.7,0,0,0,16.18,19,4.556,4.556,0,0,0,19,16.18a6.7,6.7,0,0,0,.434-2.389c0-1.086.109-1.412.109-4.018a32.086,32.086,0,0,0-.109-4.018A6.7,6.7,0,0,0,19,3.366a4.251,4.251,0,0,0-1.086-1.737A4.251,4.251,0,0,0,16.18.543,6.7,6.7,0,0,0,13.791.109,32.086,32.086,0,0,0,9.773,0m0,4.778a4.915,4.915,0,0,0-5,5,5,5,0,1,0,5-5m0,8.253A3.2,3.2,0,0,1,6.516,9.773,3.2,3.2,0,0,1,9.773,6.516a3.2,3.2,0,0,1,3.258,3.258,3.2,3.2,0,0,1-3.258,3.258m5.212-9.665A1.195,1.195,0,1,0,16.18,4.561a1.205,1.205,0,0,0-1.195-1.195" transform="translate(0)" fill="#fff" fill-rule="evenodd"/>
  </g>
</svg>
