<svg id="Group_2773" data-name="Group 2773" xmlns="http://www.w3.org/2000/svg" xmlns:xlink="http://www.w3.org/1999/xlink" width="25.444" height="17.774" viewBox="0 0 25.444 17.774">
  <defs>
    <clipPath id="clip-path">
      <rect id="Rectangle_1162" data-name="Rectangle 1162" width="25.444" height="17.774" fill="#fff"/>
    </clipPath>
  </defs>
  <g id="Group_2772" data-name="Group 2772" clip-path="url(#clip-path)">
    <path id="Path_6937" data-name="Path 6937" d="M12.671,0c2.611.1,5.224.114,7.835.232a13.643,13.643,0,0,1,1.838.22,3.209,3.209,0,0,1,2.686,2.8,30.5,30.5,0,0,1,.39,6.439c-.05,1.506-.2,3.011-.34,4.512a3.379,3.379,0,0,1-1.532,2.682,4.3,4.3,0,0,1-1.938.56,71.975,71.975,0,0,1-7.91.326c-2.648-.013-5.3-.093-7.943-.179a22.629,22.629,0,0,1-2.579-.263A3.119,3.119,0,0,1,.46,14.64C.268,13.5.163,12.348.081,11.2A36.735,36.735,0,0,1,.138,5.613,20.844,20.844,0,0,1,.486,3.019,3.2,3.2,0,0,1,3.414.383,69.344,69.344,0,0,1,10.869,0c.6-.01,1.2,0,1.8,0ZM10.2,12.7l6.613-3.809L10.2,5.079Z" transform="translate(-0.001 0.001)" fill="#fff"/>
  </g>
</svg>
