<svg xmlns="http://www.w3.org/2000/svg" xmlns:xlink="http://www.w3.org/1999/xlink" width="194" height="194" viewBox="0 0 194 194">
  <defs>
    <radialGradient id="radial-gradient" cx="0.5" cy="0.5" r="0.5" gradientUnits="objectBoundingBox">
      <stop offset="0" stop-color="#43a9ac" stop-opacity="0.502"/>
      <stop offset="1" stop-color="#43a9ac" stop-opacity="0"/>
    </radialGradient>
  </defs>
  <g id="Group_3646" data-name="Group 3646" transform="translate(-695 -2311)">
    <circle id="Ellipse_168" data-name="Ellipse 168" cx="97" cy="97" r="97" transform="translate(695 2311)" opacity="0.601" fill="url(#radial-gradient)"/>
    <g id="development_icon" data-name="development icon" transform="translate(738.564 2372.448)">
      <path id="Path_7535" data-name="Path 7535" d="M18.035,18.769A6.535,6.535,0,1,0,11.5,12.235,6.593,6.593,0,0,0,18.035,18.769Zm0-11.139a4.6,4.6,0,1,1-4.6,4.6A4.627,4.627,0,0,1,18.035,7.631Z" transform="translate(5.355 0)" fill="#0f1e41" stroke="#0f1e41" stroke-width="0.5"/>
      <path id="Path_7536" data-name="Path 7536" d="M12.77,44.306H26.136a.958.958,0,0,1,.891.891V56.633a4.151,4.151,0,0,0,4.158,4.158,4.25,4.25,0,0,0,4.158-4.158V42.375h0c-.3-3.861-2.822-6.535-6.535-6.535H20.79c-.149,0-.446,0-.446-.149v-.446l1.782-9.059v0c2.376,3.119,4.9,6.683,4.9,6.683a3.533,3.533,0,0,0,1.931,1.337,2.717,2.717,0,0,0,1.634,0l6.683-.891a3.907,3.907,0,0,0-1.188-7.723s-1.485.3-4.01.594a.593.593,0,0,1-.594-.3c-2.525-3.416-4.9-6.386-4.9-6.535C23.611,15.791,21.235,15.2,19.3,14.9H17.968A8.241,8.241,0,0,0,9.5,21.583s-2.376,10.1-3.267,15.3a6.415,6.415,0,0,0,1.188,5.2,6.272,6.272,0,0,0,4.9,2.079Zm-4.307-6.98c1.04-5.2,3.267-15.149,3.267-15.3.594-3.267,3.267-5.2,6.683-5.2H19.6c1.337.149,3.416.446,6.089,3.713,0,0,2.228,2.97,4.9,6.386a2.549,2.549,0,0,0,2.228.891c2.376-.3,4.01-.594,4.01-.594a2.1,2.1,0,0,1,.594,4.158l-6.683.891a2.171,2.171,0,0,1-1.931-.743s-2.673-3.564-4.9-6.683a2.094,2.094,0,0,0-1.782-1.04c-.446,0-1.485,0-1.782,1.782l-1.782,9.059a2.577,2.577,0,0,0,.446,2.079,2.4,2.4,0,0,0,1.931.891h8.02c2.673,0,4.455,1.931,4.753,4.753V56.484a2.376,2.376,0,0,1-4.753,0V45.049a2.82,2.82,0,0,0-2.822-2.822H12.77a3.926,3.926,0,0,1-3.416-1.485,4.8,4.8,0,0,1-.891-3.564Z" transform="translate(2.749 4.463)" fill="#0f1e41" stroke="#0f1e41" stroke-width="0.5"/>
      <path id="Path_7537" data-name="Path 7537" d="M28.588,45.8a2.82,2.82,0,0,0-2.822-2.822H10.023a1.72,1.72,0,0,1-1.485-1.337L5.865,23.081A2.824,2.824,0,0,0,2.746,20.7a2.265,2.265,0,0,0-1.782,1.04,2.577,2.577,0,0,0-.446,2.079L3.191,42.388a7.036,7.036,0,0,0,6.98,5.941H26.063a2.82,2.82,0,0,0,2.822-2.822ZM4.825,42.388,2.152,23.823a1.339,1.339,0,0,1,.149-.743c0-.149.3-.3.594-.3h0a.832.832,0,0,1,.891.743L6.459,42.091a3.625,3.625,0,0,0,3.267,2.822H25.617a.891.891,0,1,1,0,1.782H10.023a5.391,5.391,0,0,1-5.2-4.455Z" transform="translate(0 7.273)" fill="#0f1e41" stroke="#0f1e41" stroke-width="0.5"/>
      <path id="Path_7538" data-name="Path 7538" d="M57.835,18.769A6.535,6.535,0,1,0,51.3,12.235,6.593,6.593,0,0,0,57.835,18.769Zm0-11.139a4.6,4.6,0,1,1-4.6,4.6A4.627,4.627,0,0,1,57.835,7.631Z" transform="translate(24.664 0)" fill="#0f1e41" stroke="#0f1e41" stroke-width="0.5"/>
      <path id="Path_7539" data-name="Path 7539" d="M46.474,25.645a3.963,3.963,0,0,0-.594,7.871l6.683.891a3.8,3.8,0,0,0,3.713-1.485s2.673-3.564,4.9-6.683v0L62.959,35.3v.446a1.5,1.5,0,0,1-.446.149h-8.02c-3.713,0-6.238,2.673-6.535,6.535V56.684a4.151,4.151,0,0,0,4.158,4.158,4.25,4.25,0,0,0,4.158-4.158V45.249a.958.958,0,0,1,.891-.891H70.533a6.5,6.5,0,0,0,4.9-2.079,5.813,5.813,0,0,0,1.188-5.2c-1.04-5.2-3.267-15.149-3.267-15.3A8.241,8.241,0,0,0,64.89,15.1H63.553c-1.931.3-4.307.743-7.277,4.455,0,0-2.228,2.97-4.9,6.386a1.037,1.037,0,0,1-.594.3h0c-2.376-.3-4.01-.594-4.01-.594h-.3Zm6.535,1.337c2.525-3.416,4.753-6.386,4.753-6.386h0c2.822-3.416,4.753-3.564,6.089-3.713h1.188c3.416,0,6.089,1.931,6.683,5.2,0,0,2.376,10.1,3.267,15.3a3.8,3.8,0,0,1-.891,3.564,4.347,4.347,0,0,1-3.416,1.485H57.315a2.82,2.82,0,0,0-2.822,2.822V56.684a2.376,2.376,0,0,1-4.753,0V42.575a4.69,4.69,0,0,1,4.753-4.753h8.02a2.4,2.4,0,0,0,1.931-.891,2.577,2.577,0,0,0,.446-2.079l-1.782-9.059a1.884,1.884,0,0,0-1.782-1.782,2.486,2.486,0,0,0-1.782,1.04c-2.376,3.119-4.9,6.683-4.9,6.683a1.828,1.828,0,0,1-1.931.743l-6.683-.891a2.054,2.054,0,0,1-1.782-2.376,1.979,1.979,0,0,1,2.079-1.782h.3s1.485.3,4.01.594a2.8,2.8,0,0,0,2.228-.891Z" transform="translate(20.431 4.56)" fill="#0f1e41" stroke="#0f1e41" stroke-width="0.5"/>
      <path id="Path_7540" data-name="Path 7540" d="M78.69,20.8a2.824,2.824,0,0,0-3.119,2.376L72.9,41.745a1.743,1.743,0,0,1-1.485,1.337H55.522A2.82,2.82,0,0,0,52.7,45.9a2.731,2.731,0,0,0,2.822,2.822H71.413a7.3,7.3,0,0,0,6.98-5.941L81.067,24.22a3.315,3.315,0,0,0-.446-2.079,2.265,2.265,0,0,0-1.782-1.04Zm.446,2.822L76.463,42.191a5.272,5.272,0,0,1-5.2,4.455H55.373a.891.891,0,0,1,0-1.782H71.264a3.357,3.357,0,0,0,3.267-2.822l2.673-18.564a.872.872,0,0,1,1.04-.743.772.772,0,0,1,.594.3,6.432,6.432,0,0,1,.149.743Z" transform="translate(25.343 7.321)" fill="#0f1e41" stroke="#0f1e41" stroke-width="0.5"/>
      <path id="Path_7541" data-name="Path 7541" d="M56.782,30.082a.891.891,0,1,0,0-1.782H25.891a.891.891,0,1,0,0,1.782H38.515V48.2H34.8a1.806,1.806,0,0,0-1.782,1.782V53.1a.891.891,0,0,0,1.782,0V49.983h3.713A1.806,1.806,0,0,0,40.3,48.2V30.082h2.228V48.2a1.806,1.806,0,0,0,1.782,1.782H48.02V53.1a.891.891,0,0,0,1.782,0V49.983A1.806,1.806,0,0,0,48.02,48.2H44.307V30.082H56.782Z" transform="translate(11.905 10.965)" fill="#0f1e41" stroke="#0f1e41" stroke-width="0.5"/>
      <path id="Path_7542" data-name="Path 7542" d="M42.986,25.171a.817.817,0,0,0,.743.446h.446a.823.823,0,0,0,.3-1.188l-3.119-5.2H45.51c.149,0,.594.149.594.3l2.525,4.01a.968.968,0,0,0,1.634-1.04l-2.525-4.01A2.619,2.619,0,0,0,45.51,17.3h-4.9a1.56,1.56,0,0,0-1.337.743,1.349,1.349,0,0,0,0,1.485l3.416,5.792Z" transform="translate(18.721 5.628)" fill="#0f1e41" stroke="#0f1e41" stroke-width="0.5"/>
    </g>
  </g>
</svg>
