<?xml version="1.0" encoding="UTF-8"?>
<svg id="Layer_1" data-name="Layer 1" xmlns="http://www.w3.org/2000/svg" width="129.06" height="44.753" version="1.1" viewBox="0 0 291.2 84.3">
  <defs>
    <style>
      .cls-1 {
        stroke: #fff;
        stroke-miterlimit: 3.9;
        stroke-width: .9px;
      }

      .cls-1, .cls-2, .cls-3 {
        fill: #fff;
      }

      .cls-2 {
        fill-rule: evenodd;
      }

      .cls-2, .cls-3 {
        stroke-width: 0px;
      }
    </style>
  </defs>
  <path class="cls-2" d="M11.5,75h2.3c1.6,0,2.7.4,2.7,1.8s-.9,1.8-2.7,1.8h-2.3M11.5,84.2v-4.6h2.7l2.3,4.6h1.4l-2.5-4.8c1.4-.4,2.3-1.2,2.3-2.6s-1.4-2.6-3.9-2.6h-3.7v10.1h1.3Z"/>
  <polyline class="cls-3" points="30.7 74.1 30.7 84.2 37.9 84.2 37.9 83.2 32 83.2 32 79.4 36 79.4 36 78.4 32 78.4 32 75.1 37.6 75.1 37.6 74.1"/>
  <path class="cls-3" d="M50.1,74.1v7c0,2,1.7,3.2,4.1,3.2s4.1-1.2,4.1-3.2v-7h-1.3v7.1c0,1.2-1,2.1-2.8,2.1s-2.8-1-2.8-2.1v-7.1"/>
  <g>
    <polyline class="cls-3" points="72.4 84.2 72.4 75.2 72.4 75.2 78.3 84.2 79.4 84.2 79.4 74.1 78.2 74.1 78.2 81.9 78.1 81.9 73.1 74.1 71.3 74.1 71.3 84.2"/>
    <polyline class="cls-3" points="92.4 74.1 92.4 84.2 99.7 84.2 99.7 83.2 93.7 83.2 93.7 79.4 97.7 79.4 97.7 78.4 93.7 78.4 93.7 75.1 99.4 75.1 99.4 74.1"/>
  </g>
  <g>
    <path class="cls-2" d="M113,75h2.3c1.6,0,2.7.4,2.7,1.8s-.9,1.8-2.7,1.8h-2.3M113,84.2v-4.6h2.7l2.3,4.6h1.4l-2.5-4.8c1.4-.4,2.3-1.2,2.3-2.6s-1.4-2.6-3.9-2.6h-3.7v10.1h1.3Z"/>
    <polyline class="cls-3" points="138.4 75 138.4 74.1 130.2 74.1 130.2 75 133.6 75 133.6 84.2 134.9 84.2 134.9 75"/>
    <polyline class="cls-3" points="171.3 84.2 171.3 83.2 165.8 83.2 165.8 74.1 164.6 74.1 164.6 84.2"/>
    <rect class="cls-3" x="183.4" y="74.1" width="1.3" height="10.1"/>
    <polyline class="cls-3" points="207.9 84.2 207.9 74.1 205.9 74.1 203 82.2 202.9 82.2 200 74.1 198 74.1 198 84.2 199.2 84.2 199.2 75 199.2 75 202.5 84.2 203.5 84.2 206.7 75 206.7 75 206.7 84.2"/>
    <rect class="cls-3" x="221.3" y="74.1" width="1.3" height="10.1"/>
    <polyline class="cls-3" points="242.7 75 242.7 74.1 234.5 74.1 234.5 75 238 75 238 84.2 239.3 84.2 239.3 75"/>
    <polyline class="cls-3" points="254.4 74.1 254.4 84.2 261.7 84.2 261.7 83.2 255.7 83.2 255.7 79.4 259.7 79.4 259.7 78.4 255.7 78.4 255.7 75.1 261.4 75.1 261.4 74.1"/>
  </g>
  <g>
    <path class="cls-2" d="M275,75h1.8c2.4,0,4,1.1,4,4.1s-1.4,4.1-4,4.1h-1.7M273.7,84.2h3c3.5,0,5.3-2.1,5.3-5s-2.1-5-5.2-5h-3.1v10.1Z"/>
    <path class="cls-2" d="M35.1,10.4c0,7.4-6.2,8.7-7.7,8.8-1.5.2-7.9,0-7.9,0V3.4s.2-.6.5-.8c.3-.2,1-.3,1-.3h5.3s8.9.9,8.9,8.2M9.5,0h20.8c1.9,0,12,.5,12,9.9s-9.2,10.8-10.6,10.9c4.7,5.8,13.8,17,14.3,17.4.5.3.5.5,1.5.7,1,.2,1.7,0,1.7,0v1.2h-13.1v-1s1.4-.1,1.7-.2c.3,0,.5,0,.5-.5s-13.7-16.1-13.7-16.1h-5v14.5c0,.6.2,1,.4,1.3.3.4.8,1.4.8,1.4v.7c0,0-11.5-.1-11.5-.1v-1.1h2s.8,0,1.3-.9c.4-.8.4-1.1.4-1.1V2.8s-.2-.7-.5-1c-.4-.3-1.2-.4-1.2-.4h-1.9V0Z"/>
    <path class="cls-2" d="M235.1,10.4c0,7.4-6.2,8.7-7.7,8.8-1.5.2-7.9,0-7.9,0V3.4s.2-.6.5-.8c.3-.2,1-.3,1-.3h5.3s8.9.9,8.9,8.2M209.4,0h20.7c1.9,0,12.1.5,12.1,9.9s-9.2,10.8-10.6,10.9c4.7,5.8,13.8,17,14.3,17.4.5.3.5.5,1.5.7,1,.2,1.7,0,1.7,0v1.2h-13.1v-1s1.4-.1,1.7-.2c.3,0,.5,0,.5-.5s-13.7-16.1-13.7-16.1h-5v14.5c0,.6.2,1,.4,1.3.3.4.8,1.4.8,1.4v.7c0,0-11.5-.1-11.5-.1v-1.1h2s.8,0,1.3-.9c.4-.8.4-1.1.4-1.1V2.8s-.2-.7-.5-1c-.4-.3-1.2-.4-1.2-.4h-1.9V0Z"/>
  </g>
  <g>
    <path class="cls-3" d="M52.1.1h31.9v3s-2.7-.6-4.6-.7c-1.9,0-16.3,0-16.3,0,0,0-.3,0-.7.4-.3.5-.4,1.1-.4,1.1v13.8c0,0,14.1,0,14.1,0l4.8-.9v4.1l-4.5-.8h-14.4v15.1s-.3,1.3.5,1.9c.9.6,1.9.6,1.9.6h17.1s.7,0,1.3-.3c.6-.3,2.2-1.7,2.2-1.7v4.4h-33c0,0,0-1.2,0-1.2h2.2s.7,0,1.1-.5c.4-.4.3-1.6.3-1.6V2.7s0-.9-.9-1.2c-.9-.3-2.5-.2-2.5-.2"/>
    <path class="cls-3" d="M86.4.1h14.8v1.1s-2.3.1-2.9.4c-.9.5-.9,1.4-1,2.1,0,.7,0,23.8,0,23.8,0,0,.2,4.1,2.3,5.9,1.7,1.4,3.8,3.2,9.2,2.9,6.8-.3,8.1-4.5,8.7-7.6.5-2.4.4-23,.4-24s-.5-2.1-1.4-2.8c-.9-.7-3.9-.7-3.9-.7V0c-.1,0,13.7,0,13.7,0v1.1s-1.5,0-2.3.4c-.9.5-1.5,1.1-1.6,2.1-.1,1,0,19.5,0,21.3s-.7,8.8-3.6,11.5c-2.8,2.7-6.3,5.1-12,5-8.7-.3-13.9-5.8-15.1-8.6-1.1-2.8-.9-4.4-.9-4.4V3.9s-.2-1.1-.7-1.7c-.9-1.1-3.7-.8-3.7-.8"/>
    <path class="cls-3" d="M171.6.1h31.9v3s-2.7-.6-4.6-.7c-1.9,0-16.3,0-16.3,0,0,0-.3,0-.7.4-.3.5-.4,1.1-.4,1.1v13.8c0,0,14.1,0,14.1,0l4.8-.9v4.1l-4.5-.8h-14.4v15.1s-.3,1.3.5,1.9c.9.6,1.9.6,1.9.6h17.1s.7,0,1.3-.3c.6-.3,2.2-1.7,2.2-1.7v4.4h-33c0,0,0-1.2,0-1.2h2.2s.7,0,1.1-.5c.4-.4.3-1.6.3-1.6V2.7s0-.9-.9-1.2c-.9-.3-2.5-.2-2.5-.2"/>
    <path class="cls-3" d="M130.2.2h6.4l24.4,29.6V3.6c-.1-.7-.4-1.2-.9-1.7-.5-.4-1.5-.7-1.5-.7h-1.9V.3h11.8v.9s-2.2,0-3.2.7c-.6.4-.9.8-1.2,1.5v36.5h-1.3l-27.5-27v23.4s.2,1.3.7,1.9c1,1.2,3.8.8,3.8.8v1.3h-12.1v-1.3h2.1s1.6-.5,2.2-1.3c.4-.6.5-1.7.5-1.7V3.5s-.1-1.3-.7-1.7c-.5-.4-1.6-.3-1.6-.3"/>
    <path class="cls-3" d="M245.5.1h36.5l-1.8,8.9s-.2,1.2-.8,1.2c-.6,0-.9-.7-.9-1.1,0-.4-1.1-5-1.3-5.4-.2-.4-.4-1-1.1-1.2-.7-.2-7.7,0-7.7,0,0,0-.6.2-.9.5-.4.3-.7,1-.7,1v32.4s.2,1.3.7,1.8c.7.8,2.7.7,2.7.7h1.3v1.2h-15.9v-1s2.1-.1,2.5-.2c.5,0,1.4-.3,1.8-1,.4-.7.5-1.8.5-1.8V3.5s-.3-1.1-.9-1.1c-3.6,0-6.3,0-6.9,0-.5,0-1.8.3-2.2,1.2-.4.9-1.4,5.7-1.4,6.1s-.4.7-.8.7c-.3,0-.7-.5-.7-.5"/>
    <line class="cls-1" y1="58.5" x2="291.2" y2="58.5"/>
  </g>
</svg>