<svg id="Reunert_logo" data-name="Reunert logo" xmlns="http://www.w3.org/2000/svg" xmlns:xlink="http://www.w3.org/1999/xlink" width="129.06" height="44.753" viewBox="0 0 129.06 44.753">
  <defs>
    <clipPath id="clip-path">
      <rect id="Rectangle_2049" data-name="Rectangle 2049" width="129.06" height="44.753" fill="none"/>
    </clipPath>
  </defs>
  <g id="Group_3435" data-name="Group 3435" clip-path="url(#clip-path)">
    <path id="Path_7250" data-name="Path 7250" d="M90.352,13.312a12.981,12.981,0,0,1,1.494-1.822h-3.8a1.276,1.276,0,0,0-1.276,1.276v8.15c.163-.383.328-.778.493-1.17a40.924,40.924,0,0,1,3.091-6.434" transform="translate(-26.519 -3.512)" fill="#43a9ac"/>
    <path id="Path_7251" data-name="Path 7251" d="M92.168,10.692c-2.907,0-4.507,1.244-6.019,3.42s-3.678,8.416-4.8,10.252-2.478,3.1-4.508,3.1c-2.575,0-3.346-1.585-3.366-3.645V11.246H68.13V24.724c0,5.967,4,7.288,7.19,7.288a6.48,6.48,0,0,0,5.751-3.075v2.532h5.346V21.243c0-3.311,1.635-6,4.229-6,2.575,0,3.346,1.584,3.366,3.644V31.458h5.347V17.98c0-5.967-4-7.288-7.19-7.288" transform="translate(-20.823 -3.268)" fill="#fff"/>
    <path id="Path_7252" data-name="Path 7252" d="M21.209,20.456c-.351-3.43-1.7-4.927-4.312-5.675v-.117a6.487,6.487,0,0,0,5.18-6.822c0-4.684-3.638-7.842-9.1-7.842H0V28.182H5.737V16.87h4.634c3.561,0,5.307,1.739,5.541,4.81.234,3.032.312,6.19,1.024,6.5h5.5v-.272c-1-.437-.829-3.469-1.229-7.453m-9.375-8H5.747V4.616H12c3.044,0,4.507,1.739,4.507,3.984s-1.551,3.858-4.673,3.858" transform="translate(0 0)" fill="#fff"/>
    <path id="Path_7253" data-name="Path 7253" d="M45.819,10.678c-5.932,0-10.01,4.655-10.01,10.641H35.8c0,6.025,3.8,10.719,10.527,10.719,5.22,0,8.429-3.032,9.18-6.618h-5.3A3.8,3.8,0,0,1,46.287,27.9c-3.043,0-4.781-1.934-5.181-5.044H55.828c0-7.21-3.483-12.176-10.009-12.176m-4.624,8.464c.478-2.643,1.864-4.334,4.712-4.334a4.27,4.27,0,0,1,4.312,4.334Z" transform="translate(-10.941 -3.264)" fill="#fff"/>
    <path id="Path_7254" data-name="Path 7254" d="M126.606,10.678c-5.932,0-10.01,4.655-10.01,10.641h-.01c0,6.025,3.8,10.719,10.527,10.719,5.22,0,8.429-3.032,9.18-6.618H131a3.8,3.8,0,0,1-3.922,2.478c-3.043,0-4.78-1.934-5.181-5.044h14.722c0-7.21-3.483-12.176-10.009-12.176m-4.624,8.464c.478-2.643,1.864-4.334,4.712-4.334a4.27,4.27,0,0,1,4.312,4.334Z" transform="translate(-35.632 -3.264)" fill="#fff"/>
    <path id="Path_7255" data-name="Path 7255" d="M154.226,14.664H154.1V11.428h-5.18V31.65H154.3V21.8c0-4.256,2.478-5.753,6.058-5.753h.117V11.35c-3.493,0-5.024,1.03-6.253,3.314" transform="translate(-45.514 -3.469)" fill="#fff"/>
    <path id="Path_7256" data-name="Path 7256" d="M179.146,24.963a1.779,1.779,0,0,1-2.02-2.012V13.3h3.483V8.608h-3.483V2.379h-5.258V8.608h-2.82V13.3H174.5a7.767,7.767,0,0,0-.892,1.087,22.732,22.732,0,0,0-1.751,3.619V24.1c0,3.829,2.887,4.849,5.5,4.849,2.137,0,3.366-.078,3.366-.078V24.924s-.908.039-1.58.039" transform="translate(-51.667 -0.727)" fill="#fff"/>
    <path id="Path_7257" data-name="Path 7257" d="M.1,57.956V50.9h4.51v.965H1.127v1.98h2.9v.966h-2.9V56.99H4.613v.966Z" transform="translate(-0.032 -15.556)" fill="#fff"/>
    <path id="Path_7258" data-name="Path 7258" d="M8.638,58.674V53.381H9.55V54.91h.117v3.765Zm3.177,0,0-3.279a1.32,1.32,0,0,0-.292-.907,1.088,1.088,0,0,0-1.563,0,1.263,1.263,0,0,0-.3.873l-.49-.314a1.734,1.734,0,0,1,.25-.926,1.8,1.8,0,0,1,.676-.642,1.963,1.963,0,0,1,.965-.235,1.832,1.832,0,0,1,.961.238,1.549,1.549,0,0,1,.605.664,2.232,2.232,0,0,1,.208.99l0,3.534Zm3.171,0,0-3.3a1.272,1.272,0,0,0-.294-.894,1,1,0,0,0-.774-.321,1.09,1.09,0,0,0-.537.135,1.018,1.018,0,0,0-.392.4,1.362,1.362,0,0,0-.149.669l-.5-.25a1.841,1.841,0,0,1,.237-.98,1.729,1.729,0,0,1,.674-.654,1.959,1.959,0,0,1,.956-.233,1.71,1.71,0,0,1,1.328.515,1.949,1.949,0,0,1,.47,1.368l0,3.544Z" transform="translate(-2.64 -16.275)" fill="#fff"/>
    <path id="Path_7259" data-name="Path 7259" d="M21.444,61.022V53.375h.911v3.809h.118v3.838Zm2.49-2.206a2.123,2.123,0,0,1-1.275-.37,2.291,2.291,0,0,1-.779-1,4,4,0,0,1,0-2.853,2.255,2.255,0,0,1,.775-1,2.118,2.118,0,0,1,1.262-.365,2.252,2.252,0,0,1,1.287.365,2.4,2.4,0,0,1,.835,1,3.329,3.329,0,0,1,.294,1.428,3.382,3.382,0,0,1-.292,1.429,2.4,2.4,0,0,1-.828,1,2.206,2.206,0,0,1-1.277.367m-.142-.926a1.281,1.281,0,0,0,.811-.25,1.5,1.5,0,0,0,.481-.674,2.678,2.678,0,0,0,.16-.949,2.643,2.643,0,0,0-.16-.941A1.478,1.478,0,0,0,24.6,54.4a1.347,1.347,0,0,0-.839-.25,1.276,1.276,0,0,0-.792.235,1.365,1.365,0,0,0-.46.657,2.884,2.884,0,0,0-.15.97,2.947,2.947,0,0,0,.147.971,1.364,1.364,0,0,0,.466.662,1.33,1.33,0,0,0,.824.24" transform="translate(-6.554 -16.269)" fill="#fff"/>
    <path id="Path_7260" data-name="Path 7260" d="M32.557,58.815a2.581,2.581,0,0,1-1.378-.358,2.389,2.389,0,0,1-.9-.987,3.2,3.2,0,0,1-.316-1.453,3.147,3.147,0,0,1,.324-1.459,2.384,2.384,0,0,1,.907-.98,2.827,2.827,0,0,1,2.74.007,2.416,2.416,0,0,1,.9.985,3.454,3.454,0,0,1,0,2.9,2.4,2.4,0,0,1-.9.985,2.588,2.588,0,0,1-1.373.356m0-.966a1.314,1.314,0,0,0,1.135-.512,2.179,2.179,0,0,0,.375-1.321,2.129,2.129,0,0,0-.38-1.326,1.332,1.332,0,0,0-1.13-.5,1.444,1.444,0,0,0-.848.233,1.38,1.38,0,0,0-.5.642,2.558,2.558,0,0,0-.162.949,2.135,2.135,0,0,0,.383,1.333,1.325,1.325,0,0,0,1.122.5" transform="translate(-9.158 -16.268)" fill="#fff"/>
    <path id="Path_7261" data-name="Path 7261" d="M39.975,58.731l-1.618-5.3,1.015,0,1.108,3.632L41.6,53.437h.882L43.6,57.069l1.108-3.632h1.01L44.1,58.731h-.824L42.039,54.9,40.8,58.731Z" transform="translate(-11.723 -16.331)" fill="#fff"/>
    <path id="Path_7262" data-name="Path 7262" d="M52.514,58.816a2.716,2.716,0,0,1-1.385-.345A2.4,2.4,0,0,1,50.2,57.5a3.007,3.007,0,0,1-.331-1.439,3.262,3.262,0,0,1,.326-1.5,2.376,2.376,0,0,1,.91-.985,2.6,2.6,0,0,1,1.357-.348,2.452,2.452,0,0,1,1.378.374,2.263,2.263,0,0,1,.851,1.067,3.73,3.73,0,0,1,.223,1.642H53.891v-.373a2.262,2.262,0,0,0-.35-1.362,1.228,1.228,0,0,0-1.037-.442,1.392,1.392,0,0,0-1.158.485,2.208,2.208,0,0,0-.387,1.4,2.1,2.1,0,0,0,.387,1.351,1.356,1.356,0,0,0,1.118.478,1.539,1.539,0,0,0,.831-.219,1.46,1.46,0,0,0,.546-.625l1,.319a2.373,2.373,0,0,1-.936,1.1,2.6,2.6,0,0,1-1.4.39m-1.887-3.3h3.779v.8H50.627Z" transform="translate(-15.243 -16.269)" fill="#fff"/>
    <path id="Path_7263" data-name="Path 7263" d="M59.07,58.719V53.425h.912v1.284l-.127-.167a1.968,1.968,0,0,1,.255-.468,1.418,1.418,0,0,1,.362-.35,1.581,1.581,0,0,1,.449-.228,2.072,2.072,0,0,1,.507-.1,2.02,2.02,0,0,1,.5.027v.961a1.653,1.653,0,0,0-.576-.04,1.315,1.315,0,0,0-.976.593,1.624,1.624,0,0,0-.208.512,2.7,2.7,0,0,0-.064.6v2.671Z" transform="translate(-18.054 -16.319)" fill="#fff"/>
    <rect id="Rectangle_2045" data-name="Rectangle 2045" width="1.083" height="1.083" transform="translate(44.443 41.316)" fill="#fff"/>
    <rect id="Rectangle_2046" data-name="Rectangle 2046" width="1.024" height="7.058" transform="translate(49.624 35.341)" fill="#fff"/>
    <path id="Path_7264" data-name="Path 7264" d="M75.4,58.67V53.376h.917v1.529h.122V58.67Zm3.72,0v-2.6a4.107,4.107,0,0,0-.051-.635,2.011,2.011,0,0,0-.2-.605,1.183,1.183,0,0,0-.407-.451,1.228,1.228,0,0,0-.684-.172,1.49,1.49,0,0,0-.52.09,1.1,1.1,0,0,0-.428.292,1.409,1.409,0,0,0-.29.53,2.641,2.641,0,0,0-.106.8l-.637-.24a2.859,2.859,0,0,1,.269-1.272,2.028,2.028,0,0,1,.774-.86,2.294,2.294,0,0,1,1.221-.309,2.149,2.149,0,0,1,.921.176,1.707,1.707,0,0,1,.605.463,2.157,2.157,0,0,1,.356.625,3.2,3.2,0,0,1,.167.662,4.327,4.327,0,0,1,.044.569V58.67Z" transform="translate(-23.046 -16.27)" fill="#fff"/>
    <path id="Path_7265" data-name="Path 7265" d="M84.441,58.67V53.376h.917v1.529h.122V58.67Zm3.72,0v-2.6a4.107,4.107,0,0,0-.051-.635,2.011,2.011,0,0,0-.2-.605,1.183,1.183,0,0,0-.407-.451,1.228,1.228,0,0,0-.684-.172,1.489,1.489,0,0,0-.52.09,1.1,1.1,0,0,0-.428.292,1.409,1.409,0,0,0-.29.53,2.641,2.641,0,0,0-.106.8l-.637-.24a2.859,2.859,0,0,1,.269-1.272,2.028,2.028,0,0,1,.774-.86,2.294,2.294,0,0,1,1.221-.309,2.149,2.149,0,0,1,.921.176,1.707,1.707,0,0,1,.605.463,2.157,2.157,0,0,1,.356.625,3.2,3.2,0,0,1,.167.662,4.326,4.326,0,0,1,.044.569V58.67Z" transform="translate(-25.808 -16.27)" fill="#fff"/>
    <path id="Path_7266" data-name="Path 7266" d="M95.562,58.815a2.581,2.581,0,0,1-1.378-.358,2.389,2.389,0,0,1-.9-.987,3.2,3.2,0,0,1-.316-1.453,3.147,3.147,0,0,1,.324-1.459,2.384,2.384,0,0,1,.907-.98,2.827,2.827,0,0,1,2.74.007,2.416,2.416,0,0,1,.9.985,3.454,3.454,0,0,1,0,2.9,2.4,2.4,0,0,1-.9.985,2.588,2.588,0,0,1-1.373.356m0-.966a1.314,1.314,0,0,0,1.135-.512,2.179,2.179,0,0,0,.375-1.321,2.129,2.129,0,0,0-.38-1.326,1.331,1.331,0,0,0-1.13-.5,1.444,1.444,0,0,0-.848.233,1.38,1.38,0,0,0-.5.642,2.558,2.558,0,0,0-.162.949,2.135,2.135,0,0,0,.383,1.333,1.325,1.325,0,0,0,1.122.5" transform="translate(-28.414 -16.268)" fill="#fff"/>
    <path id="Path_7267" data-name="Path 7267" d="M103.285,58.733l-1.921-5.294H102.4l1.407,4.009,1.407-4.009h1.035l-1.921,5.294Z" transform="translate(-30.98 -16.333)" fill="#fff"/>
    <path id="Path_7268" data-name="Path 7268" d="M110.959,58.816a2.027,2.027,0,0,1-.985-.218,1.5,1.5,0,0,1-.6-.578,1.585,1.585,0,0,1-.2-.792,1.641,1.641,0,0,1,.142-.705,1.374,1.374,0,0,1,.421-.517,2.285,2.285,0,0,1,.686-.346,7.468,7.468,0,0,1,.8-.181q.446-.078.939-.147l.978-.137-.372.206a1.316,1.316,0,0,0-.262-.924,1.215,1.215,0,0,0-.934-.3,1.545,1.545,0,0,0-.765.194,1.045,1.045,0,0,0-.485.64l-.956-.294a1.977,1.977,0,0,1,.748-1.084,2.442,2.442,0,0,1,1.468-.4,2.935,2.935,0,0,1,1.238.242,1.537,1.537,0,0,1,.772.767,1.622,1.622,0,0,1,.157.549,6.233,6.233,0,0,1,.029.623v3.259h-.907v-1.21l.176.157a2.254,2.254,0,0,1-.836.9,2.433,2.433,0,0,1-1.247.3m.181-.838a1.684,1.684,0,0,0,.75-.154,1.445,1.445,0,0,0,.5-.4,1.23,1.23,0,0,0,.25-.5,1.812,1.812,0,0,0,.1-.529q.012-.294.012-.471l.333.123-.883.132q-.4.059-.718.115a4.553,4.553,0,0,0-.571.135,1.875,1.875,0,0,0-.375.177.82.82,0,0,0-.26.249.645.645,0,0,0-.1.358.731.731,0,0,0,.1.38.715.715,0,0,0,.313.277,1.231,1.231,0,0,0,.54.1" transform="translate(-33.366 -16.269)" fill="#fff"/>
    <path id="Path_7269" data-name="Path 7269" d="M117.14,52.792h3.618v.824H117.14Zm3.618,5.294a4.4,4.4,0,0,1-.98.083,2.212,2.212,0,0,1-.858-.186,1.173,1.173,0,0,1-.569-.54,1.551,1.551,0,0,1-.184-.669q-.011-.341-.012-.772V51.321h1.029v4.632c0,.212,0,.4.008.554a.843.843,0,0,0,.1.4.694.694,0,0,0,.561.345,3.722,3.722,0,0,0,.9-.031Z" transform="translate(-35.802 -15.686)" fill="#fff"/>
    <path id="Path_7270" data-name="Path 7270" d="M126.171,58.816a2.716,2.716,0,0,1-1.385-.345,2.4,2.4,0,0,1-.926-.966,3.007,3.007,0,0,1-.331-1.439,3.262,3.262,0,0,1,.326-1.5,2.379,2.379,0,0,1,.909-.985,2.6,2.6,0,0,1,1.358-.348,2.451,2.451,0,0,1,1.377.374,2.263,2.263,0,0,1,.851,1.067,3.71,3.71,0,0,1,.223,1.642h-1.024v-.373a2.267,2.267,0,0,0-.351-1.362,1.227,1.227,0,0,0-1.037-.442A1.391,1.391,0,0,0,125,54.62a2.2,2.2,0,0,0-.387,1.4A2.093,2.093,0,0,0,125,57.372a1.355,1.355,0,0,0,1.118.478,1.535,1.535,0,0,0,.83-.219,1.456,1.456,0,0,0,.546-.625l1,.319a2.369,2.369,0,0,1-.936,1.1,2.6,2.6,0,0,1-1.4.39m-1.887-3.3h3.779v.8h-3.779Z" transform="translate(-37.754 -16.269)" fill="#fff"/>
    <rect id="Rectangle_2047" data-name="Rectangle 2047" width="1.083" height="1.083" transform="translate(92.142 41.316)" fill="#fff"/>
    <path id="Path_7271" data-name="Path 7271" d="M141.521,57.956V51.863h-2.348V50.9h5.721v.965h-2.348v6.093Z" transform="translate(-42.536 -15.556)" fill="#fff"/>
    <path id="Path_7272" data-name="Path 7272" d="M148.886,57.956V50.9h.917v3.809h.123v3.25Zm3.72,0v-2.6a4.107,4.107,0,0,0-.051-.635,1.991,1.991,0,0,0-.2-.605,1.177,1.177,0,0,0-.407-.451,1.228,1.228,0,0,0-.684-.172,1.483,1.483,0,0,0-.519.09,1.1,1.1,0,0,0-.429.292,1.428,1.428,0,0,0-.29.53,2.643,2.643,0,0,0-.1.8l-.637-.24a2.859,2.859,0,0,1,.269-1.272,2.025,2.025,0,0,1,.775-.86,2.29,2.29,0,0,1,1.22-.309,2.154,2.154,0,0,1,.922.176,1.71,1.71,0,0,1,.6.463,2.157,2.157,0,0,1,.356.625,3.2,3.2,0,0,1,.167.662,4.21,4.21,0,0,1,.044.569v2.941Z" transform="translate(-45.504 -15.556)" fill="#fff"/>
    <path id="Path_7273" data-name="Path 7273" d="M157.929,58.719V53.425h.912v1.284l-.127-.167a1.967,1.967,0,0,1,.255-.468,1.418,1.418,0,0,1,.362-.35,1.581,1.581,0,0,1,.449-.228,2.066,2.066,0,0,1,.507-.1,2.02,2.02,0,0,1,.5.027v.961a1.653,1.653,0,0,0-.576-.04,1.315,1.315,0,0,0-.976.593,1.624,1.624,0,0,0-.208.512,2.7,2.7,0,0,0-.064.6v2.671Z" transform="translate(-48.268 -16.319)" fill="#fff"/>
    <path id="Path_7274" data-name="Path 7274" d="M163.88,50.757H164.9v1H163.88Zm0,1.862H164.9v5.294H163.88Z" transform="translate(-50.087 -15.513)" fill="#fff"/>
    <path id="Path_7275" data-name="Path 7275" d="M169.042,58.733l-1.921-5.294h1.034l1.407,4.009,1.407-4.009H172l-1.921,5.294Z" transform="translate(-51.077 -16.333)" fill="#fff"/>
    <path id="Path_7276" data-name="Path 7276" d="M177.711,58.816a2.715,2.715,0,0,1-1.385-.345,2.4,2.4,0,0,1-.926-.966,3.007,3.007,0,0,1-.331-1.439,3.262,3.262,0,0,1,.326-1.5,2.379,2.379,0,0,1,.909-.985,2.6,2.6,0,0,1,1.358-.348,2.452,2.452,0,0,1,1.378.374,2.262,2.262,0,0,1,.85,1.067,3.719,3.719,0,0,1,.224,1.642h-1.025v-.373a2.257,2.257,0,0,0-.351-1.362,1.226,1.226,0,0,0-1.037-.442,1.389,1.389,0,0,0-1.156.485,2.2,2.2,0,0,0-.387,1.4,2.093,2.093,0,0,0,.387,1.351,1.354,1.354,0,0,0,1.117.478,1.535,1.535,0,0,0,.83-.219,1.461,1.461,0,0,0,.547-.625l1,.319a2.37,2.37,0,0,1-.937,1.1,2.6,2.6,0,0,1-1.4.39m-1.887-3.3H179.6v.8h-3.779Z" transform="translate(-53.507 -16.269)" fill="#fff"/>
    <rect id="Rectangle_2048" data-name="Rectangle 2048" width="1.083" height="1.083" transform="translate(127.93 41.316)" fill="#fff"/>
  </g>
</svg>
