<svg id="Group_3710" data-name="Group 3710" xmlns="http://www.w3.org/2000/svg" xmlns:xlink="http://www.w3.org/1999/xlink" width="169.133" height="43.201" viewBox="0 0 169.133 43.201">
  <defs>
    <clipPath id="clip-path">
      <rect id="Rectangle_2286" data-name="Rectangle 2286" width="169.133" height="43.201" fill="none"/>
    </clipPath>
  </defs>
  <g id="Group_3709" data-name="Group 3709" transform="translate(0 0)" clip-path="url(#clip-path)">
    <path id="Path_8071" data-name="Path 8071" d="M.028,25.7H3.262V.473H.028ZM26.95,20.814a7.934,7.934,0,0,1-2.856,1.961,9.338,9.338,0,0,1-3.541.66,9.581,9.581,0,0,1-3.58-.66A7.879,7.879,0,0,1,14.1,20.814a9.3,9.3,0,0,1-1.924-3.232,13.071,13.071,0,0,1-.7-4.477,13.258,13.258,0,0,1,.7-4.487,9.208,9.208,0,0,1,1.914-3.244A8.023,8.023,0,0,1,16.952,3.4a9.791,9.791,0,0,1,7.121,0,8,8,0,0,1,2.877,1.97,9.141,9.141,0,0,1,1.914,3.244,13.258,13.258,0,0,1,.7,4.487,13.179,13.179,0,0,1-.7,4.477,9.188,9.188,0,0,1-1.914,3.232m.486,2.773V23.51a10.558,10.558,0,0,0,2.252-1.81,11.2,11.2,0,0,0,1.756-2.441,12.638,12.638,0,0,0,1.131-2.989,14.337,14.337,0,0,0,.4-3.431,14.917,14.917,0,0,0-.853-5.11,11.676,11.676,0,0,0-2.46-4.072A11.279,11.279,0,0,0,25.742.971,13.375,13.375,0,0,0,20.516,0,12.99,12.99,0,0,0,15.36.971a11.3,11.3,0,0,0-3.919,2.7,12.136,12.136,0,0,0-2.5,4.139,15.271,15.271,0,0,0-.882,5.291,15.633,15.633,0,0,0,.853,5.278,11.537,11.537,0,0,0,2.46,4.1,10.953,10.953,0,0,0,3.937,2.65,14.04,14.04,0,0,0,5.289.942c.621,0,1.274-.021,1.963-.058s1.391-.081,2.1-.131,1.436-.093,2.161-.133,1.449-.056,2.163-.056q1.429,0,2.518.066l2.024.122V23.115a26.66,26.66,0,0,0-2.974.093q-1.469.134-3.113.378" transform="translate(0.03 0)" fill="#fff"/>
    <path id="Path_8072" data-name="Path 8072" d="M31.723,16.425a10.693,10.693,0,0,1-.357,2.837A6.572,6.572,0,0,1,30.3,21.487a4.773,4.773,0,0,1-1.746,1.443,5.444,5.444,0,0,1-2.41.509,5.29,5.29,0,0,1-1.675-.255,7,7,0,0,1-1.378-.623,5.787,5.787,0,0,1-1.061-.793,6.966,6.966,0,0,1-.724-.782V11.613a8.092,8.092,0,0,1,2.231-1.472,6.483,6.483,0,0,1,2.688-.565,6.377,6.377,0,0,1,1.864.282,4.58,4.58,0,0,1,1.756,1.027A5.455,5.455,0,0,1,31.2,12.963a9.539,9.539,0,0,1,.525,3.46m2.5,4.108a11.912,11.912,0,0,0,.714-4.336,12.316,12.316,0,0,0-.376-3.2,8.921,8.921,0,0,0-1.013-2.4,6.818,6.818,0,0,0-1.467-1.687,8.04,8.04,0,0,0-1.737-1.094,7.665,7.665,0,0,0-1.826-.585A9.6,9.6,0,0,0,26.8,7.068a7.877,7.877,0,0,0-3.076.567,7.281,7.281,0,0,0-2.36,1.582H21.31V.229H18.234V25.453h2.32l.656-2h.06a5.195,5.195,0,0,0,1.577,1.482,6.824,6.824,0,0,0,1.565.7,7.14,7.14,0,0,0,2.134.291,8.525,8.525,0,0,0,3.113-.583,7.54,7.54,0,0,0,2.68-1.781,8.88,8.88,0,0,0,1.885-3.028M54,20.242a12.281,12.281,0,0,0,.11-1.687V7.543H51.036V18.517A6.773,6.773,0,0,1,50.7,20.8a3.941,3.941,0,0,1-1.519,1.924,4.929,4.929,0,0,1-2.806.716,5.107,5.107,0,0,1-2.709-.65,3.774,3.774,0,0,1-1.538-1.781,6.451,6.451,0,0,1-.417-2.491V7.543H38.635V18.535a12,12,0,0,0,.12,1.773,6.33,6.33,0,0,0,.394,1.488,6.464,6.464,0,0,0,.971,1.669,5.9,5.9,0,0,0,1.5,1.31,7.384,7.384,0,0,0,2.053.849,10.584,10.584,0,0,0,2.638.3,10.962,10.962,0,0,0,2.709-.309,7.633,7.633,0,0,0,2.113-.878A5.973,5.973,0,0,0,52.67,23.39a6.454,6.454,0,0,0,.982-1.706A7.057,7.057,0,0,0,54,20.242m16.094,2.487a5.052,5.052,0,0,0,.556-2.4,5.165,5.165,0,0,0-.5-2.424,3.988,3.988,0,0,0-1.3-1.478A6.019,6.019,0,0,0,67.1,15.6c-.633-.183-1.308-.349-2.015-.5q-.775-.149-1.5-.338a5.9,5.9,0,0,1-1.279-.479,2.44,2.44,0,0,1-.882-.764,2.068,2.068,0,0,1-.33-1.206,2.7,2.7,0,0,1,.222-1.1,2.2,2.2,0,0,1,.708-.868,3.611,3.611,0,0,1,1.239-.573,6.984,6.984,0,0,1,1.818-.21,11.815,11.815,0,0,1,2.449.293,18.841,18.841,0,0,1,2.352.706V8.066a14.843,14.843,0,0,0-2.433-.716,14.02,14.02,0,0,0-2.908-.282,9.348,9.348,0,0,0-2.557.34,6.421,6.421,0,0,0-2.123,1.019,4.918,4.918,0,0,0-1.447,1.714,5.278,5.278,0,0,0-.538,2.451,4.353,4.353,0,0,0,.515,2.252,3.95,3.95,0,0,0,1.353,1.384,7.359,7.359,0,0,0,1.862.793q1.021.283,2.015.49c.509.114.99.239,1.451.378a5.232,5.232,0,0,1,1.216.531,2.588,2.588,0,0,1,.839.809,2.277,2.277,0,0,1,.309,1.243,2.431,2.431,0,0,1-.338,1.293,2.741,2.741,0,0,1-.976.926,5.107,5.107,0,0,1-1.507.556,9.464,9.464,0,0,1-1.968.189,11.416,11.416,0,0,1-2.532-.264,16.725,16.725,0,0,1-2.316-.716v2.451a7.865,7.865,0,0,0,.753.322,10.834,10.834,0,0,0,1.1.33,13.077,13.077,0,0,0,1.488.266,15.542,15.542,0,0,0,1.876.1,12.137,12.137,0,0,0,3.093-.369,7.473,7.473,0,0,0,2.42-1.073,4.965,4.965,0,0,0,1.567-1.754m4.284-19.24H77.45V.233H74.374Zm.081,21.966h3.074V7.543H74.455V25.459Zm20.65,0H98.18V13.467a8.122,8.122,0,0,0-.486-2.987,5.239,5.239,0,0,0-1.32-1.97,5.051,5.051,0,0,0-1.966-1.094,8.385,8.385,0,0,0-2.418-.342,8.5,8.5,0,0,0-2.013.226,7.442,7.442,0,0,0-3.095,1.575,9.561,9.561,0,0,0-1.142,1.16h-.058l-.6-2.491H82.707V25.457h3.076V12.73a8.03,8.03,0,0,1,2.557-2.312,6.181,6.181,0,0,1,3.074-.839A3.555,3.555,0,0,1,94.162,10.6a4.827,4.827,0,0,1,.942,3.335V25.459ZM114.864,14.6h-9.641a6,6,0,0,1,.523-1.949,5.356,5.356,0,0,1,1.1-1.592,5.028,5.028,0,0,1,1.6-1.075,4.9,4.9,0,0,1,1.98-.394,4.517,4.517,0,0,1,1.907.384,3.969,3.969,0,0,1,1.384,1.065,4.738,4.738,0,0,1,.855,1.592,6.512,6.512,0,0,1,.291,1.97m3.213,2.507c.012-.378.021-.619.021-.726v-.386a12.6,12.6,0,0,0-.583-4.072,7.6,7.6,0,0,0-1.594-2.773,6.088,6.088,0,0,0-2.385-1.575,8.567,8.567,0,0,0-2.958-.5,8.769,8.769,0,0,0-3.225.6,7.743,7.743,0,0,0-2.731,1.81,8.882,8.882,0,0,0-1.9,3.007,11.521,11.521,0,0,0-.712,4.253A11.121,11.121,0,0,0,102.746,21a7.371,7.371,0,0,0,2.032,2.856,7.971,7.971,0,0,0,3.076,1.582,14.251,14.251,0,0,0,3.8.49,17.65,17.65,0,0,0,3.194-.272,10.312,10.312,0,0,0,2.5-.745v-2.43a17.319,17.319,0,0,1-2.509.668,15.138,15.138,0,0,1-2.785.237,10.431,10.431,0,0,1-2.738-.338,6.1,6.1,0,0,1-2.213-1.086,5.123,5.123,0,0,1-1.488-1.943,6.969,6.969,0,0,1-.546-2.914h13.016Zm15.488,5.629a5.066,5.066,0,0,0,.556-2.406,5.162,5.162,0,0,0-.5-2.422,3.977,3.977,0,0,0-1.3-1.48,6.179,6.179,0,0,0-1.756-.822q-.953-.274-2.015-.5c-.519-.1-1.019-.214-1.5-.338a5.823,5.823,0,0,1-1.279-.482,2.4,2.4,0,0,1-.882-.764,2.053,2.053,0,0,1-.33-1.206,2.7,2.7,0,0,1,.222-1.1,2.2,2.2,0,0,1,.708-.866,3.576,3.576,0,0,1,1.239-.575,6.98,6.98,0,0,1,1.818-.208A11.8,11.8,0,0,1,131,9.853a18.479,18.479,0,0,1,2.35.708V8.07a15.058,15.058,0,0,0-2.428-.716,14.048,14.048,0,0,0-2.908-.282,9.348,9.348,0,0,0-2.557.34,6.421,6.421,0,0,0-2.123,1.019,4.955,4.955,0,0,0-1.447,1.714,5.278,5.278,0,0,0-.538,2.451,4.3,4.3,0,0,0,.519,2.252,3.95,3.95,0,0,0,1.351,1.386,7.387,7.387,0,0,0,1.862.791c.683.189,1.353.355,2.015.492.506.112.988.237,1.451.378a5.144,5.144,0,0,1,1.216.529,2.568,2.568,0,0,1,.839.809,2.3,2.3,0,0,1,.311,1.243,2.4,2.4,0,0,1-.34,1.293,2.706,2.706,0,0,1-.976.926,5.085,5.085,0,0,1-1.507.556,9.45,9.45,0,0,1-1.968.189,11.44,11.44,0,0,1-2.534-.262,17.012,17.012,0,0,1-2.316-.716v2.449a7.233,7.233,0,0,0,.756.322,10.291,10.291,0,0,0,1.1.332,13.108,13.108,0,0,0,1.488.264,15.152,15.152,0,0,0,1.876.1,12.238,12.238,0,0,0,3.095-.367A7.464,7.464,0,0,0,132,24.492a4.927,4.927,0,0,0,1.567-1.754m6.721-9.209a2.071,2.071,0,0,1-.33-1.208,2.662,2.662,0,0,1,.224-1.1,2.178,2.178,0,0,1,.706-.868,3.611,3.611,0,0,1,1.239-.573,6.984,6.984,0,0,1,1.818-.21,11.815,11.815,0,0,1,2.449.293,18.427,18.427,0,0,1,2.354.706V8.079a14.877,14.877,0,0,0-2.43-.716,14.048,14.048,0,0,0-2.908-.282,9.363,9.363,0,0,0-2.559.34,6.427,6.427,0,0,0-2.121,1.017,4.927,4.927,0,0,0-1.449,1.716,5.275,5.275,0,0,0-.536,2.449,4.343,4.343,0,0,0,.515,2.252,3.9,3.9,0,0,0,1.353,1.386,7.344,7.344,0,0,0,1.86.793c.683.189,1.353.353,2.015.49.509.114.992.239,1.451.378a5.194,5.194,0,0,1,1.216.531,2.567,2.567,0,0,1,.839.809,2.26,2.26,0,0,1,.311,1.243,2.413,2.413,0,0,1-.34,1.293,2.729,2.729,0,0,1-.973.924,5.144,5.144,0,0,1-1.509.558,9.465,9.465,0,0,1-1.968.189,11.384,11.384,0,0,1-2.53-.264,16.75,16.75,0,0,1-2.318-.716v2.451c.2.1.45.205.753.322a10.836,10.836,0,0,0,1.1.33,13.075,13.075,0,0,0,1.488.266,15.567,15.567,0,0,0,1.876.1,12.153,12.153,0,0,0,3.095-.369A7.482,7.482,0,0,0,147.4,24.5a4.965,4.965,0,0,0,1.567-1.754,5.066,5.066,0,0,0,.556-2.406,5.177,5.177,0,0,0-.5-2.424,4,4,0,0,0-1.3-1.478,6.073,6.073,0,0,0-1.756-.822q-.95-.274-2.015-.5-.775-.153-1.5-.338a5.881,5.881,0,0,1-1.281-.482,2.4,2.4,0,0,1-.882-.764" transform="translate(19.612 0.246)" fill="#fff"/>
    <path id="Path_8073" data-name="Path 8073" d="M0,16.305H1.279V17.5H0Zm.044,2.02h1.2v5.693H.044Z" transform="translate(0 17.537)" fill="#fff"/>
    <path id="Path_8074" data-name="Path 8074" d="M1.338,17.333h1.2v.839a1.767,1.767,0,0,1,1.542-.944c1.086,0,1.735.772,1.735,1.988v3.813h-1.2V19.56c0-.795-.372-1.237-1.011-1.237S2.54,18.8,2.54,19.581v3.447h-1.2v-5.7Z" transform="translate(1.439 18.529)" fill="#fff"/>
    <path id="Path_8075" data-name="Path 8075" d="M3.954,22.33l.562-.872a2.541,2.541,0,0,0,1.553.666c.5,0,.787-.27.787-.625v-.008c0-.407-.436-.592-1.106-.882-.841-.365-1.542-.751-1.542-1.687V18.9a1.694,1.694,0,0,1,1.86-1.667,3.188,3.188,0,0,1,1.829.614l-.509.89a2.5,2.5,0,0,0-1.341-.506c-.448,0-.714.249-.714.56v.021c0,.376.446.569,1.106.872.872.4,1.534.805,1.534,1.7v.008a1.728,1.728,0,0,1-1.926,1.731,3.319,3.319,0,0,1-2.1-.795Z" transform="translate(4.248 18.537)" fill="#fff"/>
    <path id="Path_8076" data-name="Path 8076" d="M6.463,16.305H7.742V17.5H6.463Zm.044,2.02h1.2v5.693h-1.2Z" transform="translate(6.951 17.537)" fill="#fff"/>
    <path id="Path_8077" data-name="Path 8077" d="M7.925,24.131l.392-.955a3.28,3.28,0,0,0,1.692.482,1.351,1.351,0,0,0,1.532-1.5v-.548a1.987,1.987,0,0,1-1.7,1c-1.127,0-2.15-.911-2.15-2.663V19.9c0-1.762,1.034-2.675,2.15-2.675a2,2,0,0,1,1.69.957v-.849h1.2V22.1a2.577,2.577,0,0,1-.639,1.891,2.72,2.72,0,0,1-2.03.679,4.377,4.377,0,0,1-2.138-.538Zm3.626-4.2V19.91A1.456,1.456,0,0,0,10.2,18.289c-.722,0-1.3.614-1.3,1.621v.01c0,1.011.575,1.633,1.3,1.633a1.462,1.462,0,0,0,1.351-1.621" transform="translate(8.269 18.528)" fill="#fff"/>
    <path id="Path_8078" data-name="Path 8078" d="M10.826,16.284h1.2v2.9a1.767,1.767,0,0,1,1.542-.944c1.086,0,1.735.772,1.735,1.986V24.04H14.1V20.572c0-.795-.372-1.237-1.011-1.237s-1.065.473-1.065,1.256v3.45h-1.2Z" transform="translate(11.644 17.514)" fill="#fff"/>
    <path id="Path_8079" data-name="Path 8079" d="M14.088,22.393V19.116h-.616V18.074h.616V16.538h1.2v1.536h1.266v1.042H15.29v3.03a.543.543,0,0,0,.608.623,1.344,1.344,0,0,0,.648-.162v1a2.028,2.028,0,0,1-1,.247,1.289,1.289,0,0,1-1.457-1.461Z" transform="translate(14.49 17.788)" fill="#fff"/>
    <path id="Path_8080" data-name="Path 8080" d="M15.309,22.33l.562-.872a2.541,2.541,0,0,0,1.553.666c.5,0,.787-.27.787-.625v-.008c0-.407-.436-.592-1.106-.882-.841-.365-1.542-.751-1.542-1.687V18.9a1.694,1.694,0,0,1,1.86-1.667,3.188,3.188,0,0,1,1.829.614l-.509.89a2.5,2.5,0,0,0-1.341-.506c-.448,0-.714.249-.714.56v.021c0,.376.446.569,1.106.872.872.4,1.534.805,1.534,1.7v.008A1.728,1.728,0,0,1,17.4,23.123a3.319,3.319,0,0,1-2.1-.795Z" transform="translate(16.461 18.537)" fill="#fff"/>
    <rect id="Rectangle_2283" data-name="Rectangle 2283" width="0.967" height="9.753" transform="translate(43.113 33.078)" fill="#fff"/>
    <path id="Path_8081" data-name="Path 8081" d="M24.787,20.255v-.108a2.679,2.679,0,0,1,2.574-2.922A2.371,2.371,0,0,1,29.169,18l-.67.89a1.516,1.516,0,0,0-1.139-.571c-.787,0-1.362.764-1.362,1.839v.054c0,1.106.573,1.847,1.395,1.847a1.571,1.571,0,0,0,1.148-.579l.648.8a2.341,2.341,0,0,1-1.872.859,2.623,2.623,0,0,1-2.53-2.889Z" transform="translate(26.658 18.526)" fill="#fff"/>
    <path id="Path_8082" data-name="Path 8082" d="M27.236,20.245v-.1a2.7,2.7,0,0,1,2.607-2.922,2.669,2.669,0,0,1,2.584,2.912v.1a2.692,2.692,0,0,1-2.6,2.912,2.66,2.66,0,0,1-2.586-2.9Zm3.989-.023v-.064c0-1.065-.585-1.86-1.4-1.86s-1.382.787-1.382,1.847v.064c0,1.065.585,1.87,1.4,1.87s1.382-.795,1.382-1.86Z" transform="translate(29.294 18.529)" fill="#fff"/>
    <path id="Path_8083" data-name="Path 8083" d="M30.321,17.333h1.2v.839a1.767,1.767,0,0,1,1.542-.944c1.086,0,1.735.772,1.735,1.988v3.813H33.6V19.56c0-.795-.372-1.237-1.011-1.237s-1.065.475-1.065,1.258v3.447h-1.2v-5.7Z" transform="translate(32.612 18.529)" fill="#fff"/>
    <path id="Path_8084" data-name="Path 8084" d="M32.938,22.33l.562-.872a2.541,2.541,0,0,0,1.553.666c.5,0,.787-.27.787-.625v-.008c0-.407-.436-.592-1.106-.882-.841-.365-1.542-.751-1.542-1.687V18.9a1.694,1.694,0,0,1,1.86-1.667,3.188,3.188,0,0,1,1.829.614l-.509.89a2.5,2.5,0,0,0-1.341-.506c-.448,0-.714.249-.714.56v.021c0,.376.446.569,1.106.872.872.4,1.534.805,1.534,1.7v.008a1.728,1.728,0,0,1-1.926,1.731,3.319,3.319,0,0,1-2.1-.795Z" transform="translate(35.422 18.537)" fill="#fff"/>
    <path id="Path_8085" data-name="Path 8085" d="M35.411,21.092V17.277h1.2v3.468c0,.795.372,1.237,1,1.237s1.065-.473,1.065-1.256v-3.45H39.89V22.97H38.678v-.826a1.733,1.733,0,0,1-1.532.934C36.05,23.078,35.411,22.316,35.411,21.092Z" transform="translate(38.086 18.582)" fill="#fff"/>
    <rect id="Rectangle_2284" data-name="Rectangle 2284" width="1.202" height="7.756" transform="translate(79.51 33.798)" fill="#fff"/>
    <path id="Path_8086" data-name="Path 8086" d="M40.057,22.393V19.116h-.616V18.074h.616V16.538h1.2v1.536h1.266v1.042H41.259v3.03a.543.543,0,0,0,.608.623,1.344,1.344,0,0,0,.648-.162v1a2.028,2.028,0,0,1-1,.247,1.289,1.289,0,0,1-1.457-1.461Z" transform="translate(42.421 17.788)" fill="#fff"/>
    <path id="Path_8087" data-name="Path 8087" d="M41.512,16.305h1.279V17.5H41.512Zm.044,2.02h1.2v5.693h-1.2Z" transform="translate(44.648 17.537)" fill="#fff"/>
    <path id="Path_8088" data-name="Path 8088" d="M42.849,17.333h1.2v.839a1.767,1.767,0,0,1,1.542-.944c1.086,0,1.735.772,1.735,1.988v3.813h-1.2V19.56c0-.795-.372-1.237-1.011-1.237s-1.065.475-1.065,1.258v3.447h-1.2v-5.7Z" transform="translate(46.086 18.529)" fill="#fff"/>
    <path id="Path_8089" data-name="Path 8089" d="M45.813,24.131l.392-.955a3.28,3.28,0,0,0,1.692.482,1.351,1.351,0,0,0,1.532-1.5v-.548a1.987,1.987,0,0,1-1.7,1c-1.127,0-2.15-.911-2.15-2.663V19.9c0-1.762,1.034-2.675,2.15-2.675a2,2,0,0,1,1.69.957v-.849h1.2V22.1a2.577,2.577,0,0,1-.639,1.891,2.72,2.72,0,0,1-2.03.679,4.377,4.377,0,0,1-2.138-.538Zm3.626-4.2V19.91a1.456,1.456,0,0,0-1.351-1.621c-.722,0-1.3.614-1.3,1.621v.01c0,1.011.575,1.633,1.3,1.633a1.462,1.462,0,0,0,1.351-1.621" transform="translate(49.019 18.528)" fill="#fff"/>
    <rect id="Rectangle_2285" data-name="Rectangle 2285" width="0.967" height="9.753" transform="translate(107.258 33.078)" fill="#fff"/>
    <path id="Path_8090" data-name="Path 8090" d="M55.693,20.255v-.108a2.679,2.679,0,0,1,2.574-2.922A2.371,2.371,0,0,1,60.075,18l-.67.89a1.516,1.516,0,0,0-1.139-.571c-.787,0-1.362.764-1.362,1.839v.054c0,1.106.573,1.847,1.395,1.847a1.571,1.571,0,0,0,1.148-.579l.648.8a2.341,2.341,0,0,1-1.872.859,2.623,2.623,0,0,1-2.53-2.889Z" transform="translate(59.899 18.526)" fill="#fff"/>
    <path id="Path_8091" data-name="Path 8091" d="M58.142,20.245v-.1a2.7,2.7,0,0,1,2.607-2.922,2.669,2.669,0,0,1,2.584,2.912v.1a2.692,2.692,0,0,1-2.6,2.912,2.66,2.66,0,0,1-2.586-2.9Zm3.989-.023v-.064c0-1.065-.585-1.86-1.4-1.86s-1.382.787-1.382,1.847v.064c0,1.065.585,1.87,1.4,1.87s1.382-.795,1.382-1.86Z" transform="translate(62.535 18.529)" fill="#fff"/>
    <path id="Path_8092" data-name="Path 8092" d="M61.228,17.333h1.2v.839a1.767,1.767,0,0,1,1.542-.944c1.086,0,1.735.772,1.735,1.988v3.813h-1.2V19.56c0-.795-.372-1.237-1.011-1.237s-1.065.475-1.065,1.258v3.447h-1.2v-5.7Z" transform="translate(65.854 18.529)" fill="#fff"/>
    <path id="Path_8093" data-name="Path 8093" d="M64.489,22.393V19.116h-.616V18.074h.616V16.538h1.2v1.536h1.266v1.042H65.691v3.03a.543.543,0,0,0,.608.623,1.344,1.344,0,0,0,.648-.162v1a2.028,2.028,0,0,1-1,.247,1.289,1.289,0,0,1-1.457-1.461Z" transform="translate(68.699 17.788)" fill="#fff"/>
    <path id="Path_8094" data-name="Path 8094" d="M65.934,17.324h1.2V18.44a1.675,1.675,0,0,1,1.692-1.2v1.322h-.054c-.98,0-1.638.645-1.638,1.945v2.513h-1.2v-5.7Z" transform="translate(70.916 18.538)" fill="#fff"/>
    <path id="Path_8095" data-name="Path 8095" d="M67.57,21.371v-.054a1.752,1.752,0,0,1,2-1.826,3.742,3.742,0,0,1,1.3.226v-.235a1.071,1.071,0,0,0-1.212-1.16,3.184,3.184,0,0,0-1.362.342l-.34-.967a3.958,3.958,0,0,1,1.86-.45,2.2,2.2,0,0,1,1.66.579,2.261,2.261,0,0,1,.562,1.644V23H70.854v-.7a1.785,1.785,0,0,1-1.563.805,1.655,1.655,0,0,1-1.725-1.739Zm3.308-.28v-.569a2.689,2.689,0,0,0-1.042-.2c-.693,0-1.1.355-1.1.957V21.3a.866.866,0,0,0,.915.9,1.132,1.132,0,0,0,1.225-1.106Z" transform="translate(72.671 18.55)" fill="#fff"/>
    <path id="Path_8096" data-name="Path 8096" d="M70.276,20.255v-.108a2.679,2.679,0,0,1,2.574-2.922A2.371,2.371,0,0,1,74.658,18l-.67.89a1.516,1.516,0,0,0-1.139-.571c-.787,0-1.362.764-1.362,1.839v.054c0,1.106.573,1.847,1.393,1.847a1.572,1.572,0,0,0,1.15-.579l.648.8a2.341,2.341,0,0,1-1.872.859,2.623,2.623,0,0,1-2.53-2.889Z" transform="translate(75.584 18.526)" fill="#fff"/>
    <path id="Path_8097" data-name="Path 8097" d="M73.337,22.393V19.116h-.616V18.074h.616V16.538h1.2v1.536h1.266v1.042H74.539v3.03a.543.543,0,0,0,.608.623,1.344,1.344,0,0,0,.648-.162v1a2.028,2.028,0,0,1-1,.247,1.289,1.289,0,0,1-1.457-1.461Z" transform="translate(78.215 17.788)" fill="#fff"/>
    <path id="Path_8098" data-name="Path 8098" d="M74.791,16.305H76.07V17.5H74.791Zm.044,2.02h1.2v5.693h-1.2Z" transform="translate(80.442 17.537)" fill="#fff"/>
    <path id="Path_8099" data-name="Path 8099" d="M76.13,17.333h1.2v.839a1.767,1.767,0,0,1,1.542-.944c1.086,0,1.735.772,1.735,1.988v3.813h-1.2V19.56c0-.795-.372-1.237-1.011-1.237s-1.065.475-1.065,1.258v3.447h-1.2v-5.7Z" transform="translate(81.882 18.529)" fill="#fff"/>
    <path id="Path_8100" data-name="Path 8100" d="M79.093,24.131l.392-.955a3.28,3.28,0,0,0,1.692.482,1.351,1.351,0,0,0,1.532-1.5v-.548a1.987,1.987,0,0,1-1.7,1c-1.127,0-2.15-.911-2.15-2.663V19.9c0-1.762,1.034-2.675,2.15-2.675a2,2,0,0,1,1.69.957v-.849h1.2V22.1a2.577,2.577,0,0,1-.639,1.891,2.72,2.72,0,0,1-2.03.679,4.376,4.376,0,0,1-2.138-.538Zm3.626-4.2V19.91a1.456,1.456,0,0,0-1.351-1.621c-.722,0-1.3.614-1.3,1.621v.01c0,1.011.575,1.633,1.3,1.633a1.462,1.462,0,0,0,1.351-1.621" transform="translate(84.814 18.528)" fill="#fff"/>
  </g>
</svg>
