<svg id="nanotec" xmlns="http://www.w3.org/2000/svg" xmlns:xlink="http://www.w3.org/1999/xlink" width="183.813" height="38.5" viewBox="0 0 183.813 38.5">
  <defs>
    <clipPath id="clip-path">
      <rect id="Rectangle_2224" data-name="Rectangle 2224" width="183.813" height="38.5" fill="none"/>
    </clipPath>
  </defs>
  <g id="Group_3665" data-name="Group 3665" clip-path="url(#clip-path)">
    <path id="Path_7562" data-name="Path 7562" d="M194.08,0l9.205,12.472a40.975,40.975,0,0,1,4.039,6.514c-.155-1.591-.311-3.183-.349-4.774-.078-1.184-.078-2.369-.116-3.553L206.742,0h5.593V26.129h-5.321l-9.555-12.99c-.855-1.147-1.709-2.332-2.486-3.516-.427-.666-.855-1.369-1.282-2.035.078,1.073.194,2.147.233,3.183.039.962.078,1.888.116,2.85l.272,12.509h-5.632V0Z" transform="translate(-146.358)" fill="#fff"/>
    <path id="Path_7563" data-name="Path 7563" d="M326.15,38.879h5.084V55.738h-5.048V54.075A12.874,12.874,0,0,1,325.1,55a7.587,7.587,0,0,1-4.327,1.353,6.621,6.621,0,0,1-3.029-.7c-2.993-1.469-4.327-4.949-4.327-8.274a10,10,0,0,1,2.452-6.883,6.514,6.514,0,0,1,4.976-2.049,6.084,6.084,0,0,1,4.075,1.392A8.439,8.439,0,0,1,326.15,41.2Zm-7.681,8.352c0,2.281,1.293,5.122,4.256,5.122,2.344,0,4-2.238,4-4.774,0-3.382-1.8-4.973-4.18-4.973a4.384,4.384,0,0,0-4.075,4.625" transform="translate(-243.117 -29.828)" fill="#fff"/>
    <path id="Path_7564" data-name="Path 7564" d="M425.327,55.577V46.439c0-2.226-.734-4.255-3.409-4.255-.8,0-4.185.075-4.185,5.1v8.3h-4.743V38.539h4.82v2.585a8.164,8.164,0,0,1,6.493-3.16,5.6,5.6,0,0,1,4.706,2.071c.882,1.338,1.182,2.186,1.182,4.874V55.577Z" transform="translate(-320.351 -29.448)" fill="#fff"/>
    <path id="Path_7565" data-name="Path 7565" d="M606.333,21.656h2.7v3.969H606.3V38.551h-4.846V25.625h-2.047V21.656h2.047V16.174h4.88Z" transform="translate(-464.952 -12.546)" fill="#fff"/>
    <path id="Path_7566" data-name="Path 7566" d="M654.886,48.432a5.559,5.559,0,0,0,.548,1.728,3.907,3.907,0,0,0,3.549,1.815,4.643,4.643,0,0,0,3.759-2.165l4.238,2.274a9.191,9.191,0,0,1-8.1,4.281,9,9,0,0,1-7.713-3.849,9.762,9.762,0,0,1-1.41-5.263,9.575,9.575,0,0,1,.979-4.4A7.849,7.849,0,0,1,654.1,39.2a9.491,9.491,0,0,1,4.581-1.178,10.477,10.477,0,0,1,2.662.354,7.615,7.615,0,0,1,5.795,5.695,16.5,16.5,0,0,1,.313,4.359Zm7.626-3.26c0-1.2-1.544-3.029-3.679-3.029-2.2,0-3.755,1.609-3.755,3.029Z" transform="translate(-504.006 -29.495)" fill="#fff"/>
    <path id="Path_7567" data-name="Path 7567" d="M752.888,38.938h5.033V63.461h-5.033V54.2a6.622,6.622,0,0,1-5.213,2.339,7.156,7.156,0,0,1-3.631-.961c-1.438-.846-3.918-2.95-3.918-8.189,0-1.269.057-5.569,3.544-7.761a6.869,6.869,0,0,1,3.72-1.15,7.276,7.276,0,0,1,3.845,1.3,8.888,8.888,0,0,1,1.654,1.461Zm-5.248,4.528a4.244,4.244,0,0,0-2.049,3.961,6,6,0,0,0,.252,1.653,3.667,3.667,0,0,0,3.451,2.807,3.275,3.275,0,0,0,1.294-.231A4.057,4.057,0,0,0,753.1,47.5a4.653,4.653,0,0,0-1.474-3.576,3.64,3.64,0,0,0-2.265-.846,4.128,4.128,0,0,0-1.725.384" transform="translate(-574.107 -29.847)" fill="#fff"/>
    <path id="Path_7568" data-name="Path 7568" d="M526.135,47.068a9.166,9.166,0,1,1-9.166-9.166,9.166,9.166,0,0,1,9.166,9.166m-9.166-5.288a5.288,5.288,0,1,0,5.288,5.288,5.288,5.288,0,0,0-5.288-5.288" transform="translate(-393.897 -29.4)" fill="#fff"/>
    <path id="Path_7569" data-name="Path 7569" d="M12.421,28.275H.866L0,27.409V15.421l.866,0H9.88a.643.643,0,0,0,.619-.472L13.145,5.26a.866.866,0,0,1,1.637-.1l2.9,7.09a.642.642,0,0,0,1.2-.021L22.054,3.6a.869.869,0,0,1,.812-.567H37.314V15.308s-.46,0-.92.019l-11.436.493a.644.644,0,0,0-.583.443C20.787,27.339,20.669,27.457,20.63,27.5a.122.122,0,0,1-.11.031c-.1-.025-.231-.055-3.334-9.548a.641.641,0,0,0-1.227.027l-2.7,9.636a.869.869,0,0,1-.834.632" transform="translate(0 -2.356)" fill="#fff"/>
    <path id="Path_7570" data-name="Path 7570" d="M15.03,84.363H0V72.373l.965-.865H12.516a.642.642,0,0,0,.618-.472l2.646-9.689a.865.865,0,0,1,1.635-.1l2.9,7.095a.641.641,0,0,0,1.194-.021l3.177-8.629a.869.869,0,0,1,.812-.566H36.363a4.368,4.368,0,0,1,.95.124v11.81c0,.016,0,.872,0,.872H27.631a.644.644,0,0,0-.616.463l-2.689,9.293a.865.865,0,0,1-1.6.147l-3.577-7.146a.641.641,0,0,0-1.2.141l-2.075,8.866a.862.862,0,0,1-.842.668" transform="translate(0 -45.863)" fill="#fff"/>
    <path id="Path_7571" data-name="Path 7571" d="M20.6,69.137a.9.9,0,0,1-.852-.617l-3.164-9.607-2.729,9.573a.9.9,0,0,1-.863.651H0V67.342H12.315L15.66,55.611a.9.9,0,0,1,1.715-.035l3.158,9.589,2.685-9.551a.9.9,0,0,1,.864-.654H37.314v1.794H24.761l-3.3,11.728a.9.9,0,0,1-.844.654H20.6" transform="translate(0 -42.632)" fill="#389395"/>
  </g>
</svg>
