<svg id="Group_3693" data-name="Group 3693" xmlns="http://www.w3.org/2000/svg" xmlns:xlink="http://www.w3.org/1999/xlink" width="183.813" height="43.783" viewBox="0 0 183.813 43.783">
  <defs>
    <clipPath id="clip-path">
      <rect id="Rectangle_2272" data-name="Rectangle 2272" width="183.813" height="43.783" fill="none"/>
    </clipPath>
  </defs>
  <g id="Group_3692" data-name="Group 3692" clip-path="url(#clip-path)">
    <path id="Path_7732" data-name="Path 7732" d="M11.224,1.909c6.544,0,9.1,4.679,9.1,8.3A7.8,7.8,0,0,1,15.5,17.373l5.667,12.978h-6L10.054,18.543H5.7V30.352H0V1.909ZM8.189,13.718c2.486,0,6.288.146,6.288-3.4,0-3.912-3.839-3.583-6.654-3.583H5.7v6.983Z" transform="translate(0 -1.47)" fill="#fff"/>
    <path id="Path_7733" data-name="Path 7733" d="M140.6,6.734H128.609v6.8h9.944V18.36h-9.944v7.165H141.3v4.826H122.906V1.909H140.6Z" transform="translate(-94.646 -1.47)" fill="#fff"/>
    <path id="Path_7734" data-name="Path 7734" d="M255.829,1.908V21.577c0,5.849-4.022,9.213-10.017,9.213s-10.017-3.364-10.017-9.213V1.908h5.7V19.749c0,4.753,1.426,6.215,4.314,6.215s4.314-1.462,4.314-6.215V1.908Z" transform="translate(-181.577 -1.469)" fill="#fff"/>
    <path id="Path_7735" data-name="Path 7735" d="M370.587,6.734H363.2V30.351h-5.7V6.734h-7.385V1.909h20.473Z" transform="translate(-269.61 -1.47)" fill="#fff"/>
    <path id="Path_7736" data-name="Path 7736" d="M484.673,6.734H472.681v6.8h9.944V18.36h-9.944v7.165h12.686v4.826H466.978V1.909h17.694Z" transform="translate(-359.603 -1.47)" fill="#fff"/>
    <path id="Path_7737" data-name="Path 7737" d="M600.565,19.925c-.877,5.849-4.789,9.4-10.712,9.4-8.116,0-11.735-7.495-11.735-14.66S581.737,0,589.853,0c5.85,0,9.761,3.364,10.712,9.4l-5.411.731c-.548-2.961-1.865-5.63-5.3-5.63-4.9,0-5.886,6.508-5.886,10.163s.987,10.164,5.886,10.164c3.4,0,4.753-2.669,5.3-5.594Z" transform="translate(-445.188)" fill="#fff"/>
    <path id="Path_7738" data-name="Path 7738" d="M723.753,13.022V1.908h5.7V30.351h-5.7v-12.5h-9.4v12.5h-5.7V1.908h5.7V13.022Z" transform="translate(-545.709 -1.469)" fill="#fff"/>
    <path id="Path_7739" data-name="Path 7739" d="M418.96,160.048h-.993a1.507,1.507,0,0,0-1.7-1.478,2,2,0,0,0-1.053.253.862.862,0,0,0-.451.776.831.831,0,0,0,.3.659,2.2,2.2,0,0,0,.937.4l1.108.264a4.4,4.4,0,0,1,1.183.412,1.806,1.806,0,0,1,.917,1.667,1.937,1.937,0,0,1-.777,1.641,3.1,3.1,0,0,1-1.93.559,2.731,2.731,0,0,1-2.512-1.182,3.319,3.319,0,0,1-.476-1.5h1.013a2.128,2.128,0,0,0,.406,1.119,1.568,1.568,0,0,0,.672.491,2.492,2.492,0,0,0,.927.169,2.12,2.12,0,0,0,1.133-.29,1.054,1.054,0,0,0,.551-.945q0-.8-1.093-1.076l-1.539-.39a2.856,2.856,0,0,1-1.364-.676,1.658,1.658,0,0,1-.451-1.2,1.9,1.9,0,0,1,.381-1.177,2.565,2.565,0,0,1,2.186-.876,2.4,2.4,0,0,1,2.627,2.38" transform="translate(-318.43 -121.414)" fill="#fff"/>
    <path id="Path_7740" data-name="Path 7740" d="M464.317,157.668a2.986,2.986,0,0,1,2.306,1.024,4.4,4.4,0,0,1,0,5.483,3.206,3.206,0,0,1-4.7,0,4.4,4.4,0,0,1,0-5.483,3.1,3.1,0,0,1,2.391-1.024m-.075.9a2.028,2.028,0,0,0-1.634.786,3.648,3.648,0,0,0,0,4.148,2.151,2.151,0,0,0,3.334,0,3.145,3.145,0,0,0,.646-2.063,3.192,3.192,0,0,0-.646-2.084,2.086,2.086,0,0,0-1.7-.786" transform="translate(-354.975 -121.414)" fill="#fff"/>
    <path id="Path_7741" data-name="Path 7741" d="M514.829,158.379v6.3h3.564v.9h-4.542v-7.2Z" transform="translate(-395.698 -121.962)" fill="#fff"/>
    <path id="Path_7742" data-name="Path 7742" d="M559.959,158.379h.977v4.707a3.2,3.2,0,0,1-.241,1.367,2.1,2.1,0,0,1-1.123,1.05,3.371,3.371,0,0,1-1.318.243,2.739,2.739,0,0,1-2.07-.76,1.957,1.957,0,0,1-.516-.944,4.372,4.372,0,0,1-.1-.955v-4.707h.978v4.855a1.557,1.557,0,0,0,.426,1.166,2.066,2.066,0,0,0,2.557,0,1.557,1.557,0,0,0,.426-1.166Z" transform="translate(-427.827 -121.962)" fill="#fff"/>
    <path id="Path_7743" data-name="Path 7743" d="M604.287,159.281v6.3h-.977v-6.3h-2.136v-.9h5.249v.9Z" transform="translate(-462.943 -121.962)" fill="#fff"/>
    <rect id="Rectangle_2271" data-name="Rectangle 2271" width="0.978" height="7.203" transform="translate(148.597 36.417)" fill="#fff"/>
    <path id="Path_7744" data-name="Path 7744" d="M677.96,157.668a2.986,2.986,0,0,1,2.306,1.024,4.4,4.4,0,0,1,0,5.483,3.206,3.206,0,0,1-4.7,0,4.4,4.4,0,0,1,0-5.483,3.1,3.1,0,0,1,2.391-1.024m-.075.9a2.028,2.028,0,0,0-1.634.786,3.648,3.648,0,0,0,0,4.148,2.151,2.151,0,0,0,3.334,0,3.145,3.145,0,0,0,.646-2.063,3.192,3.192,0,0,0-.646-2.084,2.086,2.086,0,0,0-1.7-.786" transform="translate(-519.494 -121.414)" fill="#fff"/>
    <path id="Path_7745" data-name="Path 7745" d="M732.884,165.582H731.9l-2.8-4.554q-.471-.776-.707-1.245.01.248.015.649.01.5.01.718v4.432h-.922v-7.2h.993l2.692,4.38a13.873,13.873,0,0,1,.807,1.493q-.02-.6-.02-1l-.005-.353v-4.49h.923Z" transform="translate(-560.218 -121.962)" fill="#fff"/>
    <path id="Path_7746" data-name="Path 7746" d="M780.094,160.048H779.1a1.507,1.507,0,0,0-1.7-1.478,2,2,0,0,0-1.053.253.862.862,0,0,0-.451.776.831.831,0,0,0,.3.659,2.2,2.2,0,0,0,.937.4l1.108.264a4.4,4.4,0,0,1,1.183.412A1.806,1.806,0,0,1,780.34,163a1.937,1.937,0,0,1-.777,1.641,3.1,3.1,0,0,1-1.93.559,2.731,2.731,0,0,1-2.512-1.182,3.318,3.318,0,0,1-.476-1.5h1.013a2.128,2.128,0,0,0,.406,1.119,1.568,1.568,0,0,0,.672.491,2.492,2.492,0,0,0,.927.169,2.12,2.12,0,0,0,1.133-.29,1.054,1.054,0,0,0,.551-.945q0-.8-1.093-1.076l-1.539-.39a2.856,2.856,0,0,1-1.364-.676,1.658,1.658,0,0,1-.451-1.2,1.9,1.9,0,0,1,.381-1.177,2.565,2.565,0,0,1,2.186-.876,2.4,2.4,0,0,1,2.627,2.38" transform="translate(-596.526 -121.414)" fill="#fff"/>
  </g>
</svg>
