<svg id="Group_3684" data-name="Group 3684" xmlns="http://www.w3.org/2000/svg" xmlns:xlink="http://www.w3.org/1999/xlink" width="183.813" height="47.063" viewBox="0 0 183.813 47.063">
  <defs>
    <clipPath id="clip-path">
      <rect id="Rectangle_2266" data-name="Rectangle 2266" width="183.813" height="47.063" fill="none"/>
    </clipPath>
  </defs>
  <g id="Group_3683" data-name="Group 3683" clip-path="url(#clip-path)">
    <path id="Path_7695" data-name="Path 7695" d="M11.185,1.909c6.521,0,9.072,4.663,9.072,8.27a7.778,7.778,0,0,1-4.809,7.141l5.647,12.934H15.119l-5.1-11.768H5.683V30.253H0V1.909ZM8.161,13.677c2.477,0,6.266.146,6.266-3.388,0-3.9-3.825-3.57-6.631-3.57H5.683v6.959Z" transform="translate(0 -1.472)" fill="#fff"/>
    <path id="Path_7696" data-name="Path 7696" d="M140.54,6.718H128.59v6.776h9.91V18.3h-9.91v7.141h12.642v4.809H122.906V1.909H140.54Z" transform="translate(-94.744 -1.471)" fill="#fff"/>
    <path id="Path_7697" data-name="Path 7697" d="M255.76,1.909v19.6c0,5.829-4.008,9.181-9.982,9.181S235.8,27.339,235.8,21.51V1.909h5.683V19.688c0,4.736,1.421,6.193,4.3,6.193s4.3-1.457,4.3-6.193V1.909Z" transform="translate(-181.765 -1.472)" fill="#fff"/>
    <path id="Path_7698" data-name="Path 7698" d="M370.516,6.718h-7.359V30.253h-5.683V6.718h-7.36V1.909h20.4Z" transform="translate(-269.889 -1.471)" fill="#fff"/>
    <path id="Path_7699" data-name="Path 7699" d="M484.611,6.718h-11.95v6.776h9.91V18.3h-9.91v7.141H485.3v4.809H466.978V1.909h17.633Z" transform="translate(-359.975 -1.471)" fill="#fff"/>
    <path id="Path_7700" data-name="Path 7700" d="M600.488,19.857c-.874,5.829-4.773,9.363-10.675,9.363-8.088,0-11.695-7.469-11.695-14.609S581.725,0,589.813,0c5.829,0,9.727,3.352,10.675,9.363l-5.392.729c-.547-2.951-1.858-5.611-5.283-5.611-4.882,0-5.866,6.485-5.866,10.128s.984,10.128,5.866,10.128c3.388,0,4.736-2.66,5.283-5.574Z" transform="translate(-445.648 -0.001)" fill="#fff"/>
    <path id="Path_7701" data-name="Path 7701" d="M745.388,50.244l-3.272,4.809h-5.328V50.244Z" transform="translate(-567.961 -38.731)" fill="#fff"/>
    <path id="Path_7702" data-name="Path 7702" d="M719.59,12.984l-3.272,4.809h-1.981v12.46h-5.683V1.909h5.683V12.984Z" transform="translate(-546.273 -1.471)" fill="#fff"/>
    <path id="Path_7703" data-name="Path 7703" d="M774.319,12.984V1.909H780V30.253h-5.684V12.984Z" transform="translate(-596.892 -1.471)" fill="#fff"/>
    <path id="Path_7704" data-name="Path 7704" d="M234.323,171.542l-1.943-3.97h-1.4v3.97h-1.943v-9.953h3.9a3.009,3.009,0,0,1,3.229,3.047,2.68,2.68,0,0,1-1.817,2.614l2.223,4.291Zm-1.51-8.219h-1.831v2.628h1.831a1.317,1.317,0,1,0,0-2.628" transform="translate(-176.557 -124.563)" fill="#fff"/>
    <path id="Path_7705" data-name="Path 7705" d="M279.77,171.541l-.587-1.761h-3.536l-.6,1.761h-2.027l3.62-9.953h1.524l3.634,9.953Zm-2.32-7.017-1.258,3.62h2.474Z" transform="translate(-210.46 -124.562)" fill="#fff"/>
    <path id="Path_7706" data-name="Path 7706" d="M332.137,170.087a3.382,3.382,0,0,1-3.005,1.454h-3.593v-9.953h3.593a3.383,3.383,0,0,1,3.005,1.454c.615.853.629,1.873.629,3.523s-.014,2.67-.629,3.523m-1.719-6.151a1.734,1.734,0,0,0-1.454-.615h-1.482v6.486h1.482a1.734,1.734,0,0,0,1.454-.615c.363-.433.405-1.062.405-2.628s-.042-2.194-.405-2.628" transform="translate(-250.945 -124.562)" fill="#fff"/>
    <path id="Path_7707" data-name="Path 7707" d="M375.967,171.541l-.587-1.761h-3.537l-.6,1.761h-2.027l3.62-9.953h1.524l3.635,9.953Zm-2.32-7.017-1.258,3.62h2.474Z" transform="translate(-284.613 -124.562)" fill="#fff"/>
    <path id="Path_7708" data-name="Path 7708" d="M427.02,171.542l-1.943-3.97h-1.4v3.97h-1.943v-9.953h3.9a3.009,3.009,0,0,1,3.229,3.047,2.681,2.681,0,0,1-1.817,2.614l2.222,4.291Zm-1.51-8.219h-1.831v2.628h1.831a1.317,1.317,0,1,0,0-2.628" transform="translate(-325.1 -124.563)" fill="#fff"/>
    <path id="Path_7709" data-name="Path 7709" d="M493.2,171.343a4.674,4.674,0,0,1-3.634-1.314l1.258-1.258a3.245,3.245,0,0,0,2.39.839c1.16,0,1.775-.448,1.775-1.244a1.117,1.117,0,0,0-.308-.825,1.419,1.419,0,0,0-.895-.335l-1.188-.182a3.291,3.291,0,0,1-1.929-.825,2.608,2.608,0,0,1-.713-1.957c0-1.775,1.314-3.02,3.467-3.02a4.265,4.265,0,0,1,3.215,1.16l-1.23,1.216a2.752,2.752,0,0,0-2.041-.685c-1.034,0-1.524.573-1.524,1.258a.927.927,0,0,0,.28.713,1.612,1.612,0,0,0,.909.378l1.188.182a3.158,3.158,0,0,1,1.9.783,2.715,2.715,0,0,1,.769,2.1c0,1.929-1.594,3.019-3.69,3.019" transform="translate(-377.388 -124.28)" fill="#fff"/>
    <path id="Path_7710" data-name="Path 7710" d="M537.795,167.459v4.082h-1.929v-4.082l-2.992-5.871h2.111l1.859,4.012,1.831-4.012h2.111Z" transform="translate(-410.772 -124.562)" fill="#fff"/>
    <path id="Path_7711" data-name="Path 7711" d="M581.222,171.343a4.674,4.674,0,0,1-3.634-1.314l1.258-1.258a3.245,3.245,0,0,0,2.39.839c1.16,0,1.775-.448,1.775-1.244a1.118,1.118,0,0,0-.308-.825,1.419,1.419,0,0,0-.895-.335l-1.188-.182a3.291,3.291,0,0,1-1.929-.825,2.608,2.608,0,0,1-.713-1.957c0-1.775,1.314-3.02,3.467-3.02a4.265,4.265,0,0,1,3.215,1.16l-1.23,1.216a2.752,2.752,0,0,0-2.041-.685c-1.034,0-1.524.573-1.524,1.258a.927.927,0,0,0,.28.713,1.612,1.612,0,0,0,.909.378l1.188.182a3.158,3.158,0,0,1,1.9.783,2.714,2.714,0,0,1,.769,2.1c0,1.929-1.594,3.019-3.69,3.019" transform="translate(-445.24 -124.28)" fill="#fff"/>
    <path id="Path_7712" data-name="Path 7712" d="M627.7,163.322v8.219h-1.943v-8.219h-2.6v-1.733H630.3v1.733Z" transform="translate(-480.365 -124.562)" fill="#fff"/>
    <path id="Path_7713" data-name="Path 7713" d="M670.063,171.541v-9.953h6.556v1.733h-4.613v2.334h3.928v1.733h-3.928v2.418h4.613v1.733Z" transform="translate(-516.525 -124.562)" fill="#fff"/>
    <path id="Path_7714" data-name="Path 7714" d="M722.885,171.541v-5.8l-1.9,3.774H719.67l-1.915-3.774v5.8h-1.943v-9.953h1.915l2.6,5.382,2.586-5.382h1.915v9.953Z" transform="translate(-551.791 -124.562)" fill="#fff"/>
    <path id="Path_7715" data-name="Path 7715" d="M773.857,171.343a4.674,4.674,0,0,1-3.634-1.314l1.258-1.258a3.245,3.245,0,0,0,2.39.839c1.16,0,1.775-.448,1.775-1.244a1.117,1.117,0,0,0-.308-.825,1.419,1.419,0,0,0-.895-.335l-1.188-.182a3.291,3.291,0,0,1-1.929-.825,2.608,2.608,0,0,1-.713-1.957c0-1.775,1.314-3.02,3.467-3.02a4.265,4.265,0,0,1,3.215,1.16l-1.23,1.216a2.752,2.752,0,0,0-2.041-.685c-1.034,0-1.524.573-1.524,1.258a.927.927,0,0,0,.28.713,1.611,1.611,0,0,0,.908.378l1.188.182a3.158,3.158,0,0,1,1.9.783,2.715,2.715,0,0,1,.769,2.1c0,1.929-1.594,3.019-3.69,3.019" transform="translate(-593.734 -124.28)" fill="#fff"/>
  </g>
</svg>
