<svg xmlns="http://www.w3.org/2000/svg" xmlns:xlink="http://www.w3.org/1999/xlink" width="169.696" height="48.813" viewBox="0 0 169.696 48.813">
  <defs>
    <clipPath id="clip-path">
      <rect id="Rectangle_2282" data-name="Rectangle 2282" width="169.696" height="48.813" fill="none"/>
    </clipPath>
  </defs>
  <g id="Group_3708" data-name="Group 3708" transform="translate(0 0)">
    <path id="Path_8057" data-name="Path 8057" d="M32.734,6.691h.1l3.036,8.91H29.694ZM29.445.237,20.432,24.53h6.251l1.529-4.462H37.3l1.563,4.462h6.3L36.141.237Z" transform="translate(25.31 0.294)" fill="#fff"/>
    <g id="Group_3707" data-name="Group 3707" transform="translate(0 0)">
      <g id="Group_3706" data-name="Group 3706" clip-path="url(#clip-path)">
        <path id="Path_8058" data-name="Path 8058" d="M41.852,15.931h-4.2v8.6H31.713V.237H41.886c6.21,0,8.324,4.142,8.324,8.033,0,4.357-3.51,7.661-8.357,7.661m-1.9-11.039h-2.3V11.27h2.528c2.554,0,4.021-.777,4.021-3.239,0-2.528-1.6-3.139-4.251-3.139" transform="translate(39.284 0.294)" fill="#fff"/>
        <path id="Path_8059" data-name="Path 8059" d="M52.422,24.971c-6.862,0-12.248-4.912-12.248-12.759a12.316,12.316,0,0,1,24.631,0c0,7.267-4.912,12.759-12.382,12.759m.152-19.45c-4.486,0-6.43,3.226-6.43,7.034,0,3.873,2.183,6.958,6.43,6.958,3.907,0,6.26-3.094,6.26-6.8,0-3.775-2.013-7.189-6.26-7.189" transform="translate(49.765 0.001)" fill="#fff"/>
        <path id="Path_8060" data-name="Path 8060" d="M77.046,24.971c-6.862,0-12.248-4.912-12.248-12.759a12.316,12.316,0,0,1,24.631,0c0,7.267-4.912,12.759-12.382,12.759M77.2,5.521c-4.486,0-6.43,3.226-6.43,7.034,0,3.873,2.183,6.958,6.43,6.958,3.907,0,6.26-3.094,6.26-6.8,0-3.775-2.013-7.189-6.26-7.189" transform="translate(80.268 0.001)" fill="#fff"/>
        <path id="Path_8061" data-name="Path 8061" d="M51.887,24.53V.237h5.879V19.969h7.88v4.56Z" transform="translate(64.274 0.294)" fill="#fff"/>
        <path id="Path_8062" data-name="Path 8062" d="M58.51,24.53V.237h5.879V19.969h7.88v4.56Z" transform="translate(72.479 0.294)" fill="#fff"/>
        <path id="Path_8063" data-name="Path 8063" d="M32.421,12.982h4.435l7.13,19.32h-4l-1.46-3.967H30.716L29.352,32.3h-4.1Zm5.118,12.5-2.933-8.165-2.935,8.165Z" transform="translate(31.282 16.082)" fill="#fff"/>
        <path id="Path_8064" data-name="Path 8064" d="M74.5,12.982h4.435l7.13,19.32h-4l-1.46-3.967H72.793L71.429,32.3h-4.1Zm5.118,12.5-2.933-8.165-2.935,8.165Z" transform="translate(83.404 16.082)" fill="#fff"/>
        <path id="Path_8065" data-name="Path 8065" d="M35.861,12.906H47.972v3.172H39.752V21.23h6.584v3.036H39.752V32.4H35.861Z" transform="translate(44.422 15.988)" fill="#fff"/>
        <path id="Path_8066" data-name="Path 8066" d="M43.754,12.907H51.91a6.192,6.192,0,0,1,6.242,5.968,5.581,5.581,0,0,1-4.742,5.731L58.221,32.4H53.889l-4.572-7.618H47.645V32.4H43.754Zm7.03,9.21c2.7,0,3.412-1.023,3.412-2.933a2.981,2.981,0,0,0-3.275-3.112H47.645v6.045Z" transform="translate(54.2 15.989)" fill="#fff"/>
        <rect id="Rectangle_2281" data-name="Rectangle 2281" width="3.958" height="19.558" transform="translate(117.809 28.826)" fill="#fff"/>
        <path id="Path_8067" data-name="Path 8067" d="M66.8,32.684c-9.324,0-9.826-8.462-9.826-9.873,0-5.478,3.389-9.98,9.461-9.98,6.915,0,8.659,4.939,9.165,6.913h-4a5.4,5.4,0,0,0-5.142-3.367c-4.755,0-5.545,4.594-5.545,6.434,0,1.641.631,6.28,5.771,6.28A5.39,5.39,0,0,0,71.6,25.7h4.139c-1,3.32-3.593,6.983-8.937,6.983" transform="translate(70.578 15.895)" fill="#fff"/>
        <path id="Path_8068" data-name="Path 8068" d="M5.073,16.981,0,27.776H10.146Z" transform="translate(0 21.036)" fill="#fff"/>
        <path id="Path_8069" data-name="Path 8069" d="M12.409.213,34.7,48.427h-8.46L8.133,9.674Z" transform="translate(10.075 0.265)" fill="#fff"/>
        <path id="Path_8070" data-name="Path 8070" d="M12.409.213,34.7,48.427h-8.46L8.133,9.674Z" transform="translate(10.075 0.265)" fill="#fff"/>
      </g>
    </g>
  </g>
</svg>
