<svg id="Group_3705" data-name="Group 3705" xmlns="http://www.w3.org/2000/svg" xmlns:xlink="http://www.w3.org/1999/xlink" width="169.133" height="50" viewBox="0 0 169.133 50">
  <defs>
    <clipPath id="clip-path">
      <rect id="Rectangle_2280" data-name="Rectangle 2280" width="169.133" height="50" fill="none"/>
    </clipPath>
  </defs>
  <g id="Group_3704" data-name="Group 3704" clip-path="url(#clip-path)">
    <path id="Path_8042" data-name="Path 8042" d="M9.121,38.155H2.614A2.692,2.692,0,0,1,.6,37.523,2.838,2.838,0,0,1,0,35.511V19.505a2.787,2.787,0,0,1,.617-2.026,2.739,2.739,0,0,1,2-.617h6.9a16.132,16.132,0,0,1,2.643.189,5.642,5.642,0,0,1,2,.726,5.263,5.263,0,0,1,1.336,1.14,5.032,5.032,0,0,1,.886,1.525,5.1,5.1,0,0,1,.305,1.765,4.9,4.9,0,0,1-3.2,4.677q4.2,1.336,4.2,5.2a5.843,5.843,0,0,1-.915,3.217,5.494,5.494,0,0,1-2.469,2.113,8.775,8.775,0,0,1-2.237.574,22.8,22.8,0,0,1-2.948.167M4.314,20.1v5.5H8.264a7.937,7.937,0,0,0,2.491-.3A2.379,2.379,0,0,0,12.1,24.139a2.62,2.62,0,0,0,.363-1.365,2.119,2.119,0,0,0-1.147-2.143,8.766,8.766,0,0,0-3.5-.53ZM8.8,28.7H4.314v6.216H8.947q4.372,0,4.372-3.152a2.57,2.57,0,0,0-1.133-2.338A6.346,6.346,0,0,0,8.8,28.7" transform="translate(0 -13.379)" fill="#fff"/>
    <path id="Path_8043" data-name="Path 8043" d="M106.883,17.719v15.5h8.744a2.306,2.306,0,0,1,1.605.508A1.656,1.656,0,0,1,117.791,35a1.614,1.614,0,0,1-.552,1.271,2.367,2.367,0,0,1-1.612.487H105.212a2.766,2.766,0,0,1-2.026-.625,2.79,2.79,0,0,1-.617-2.019v-16.4a2.85,2.85,0,0,1,.588-1.961A1.981,1.981,0,0,1,104.7,15.1a2.056,2.056,0,0,1,1.576.646,2.8,2.8,0,0,1,.6,1.968" transform="translate(-81.381 -11.985)" fill="#fff"/>
    <path id="Path_8044" data-name="Path 8044" d="M182.216,27.958V17.719a2.851,2.851,0,0,1,.588-1.961,1.982,1.982,0,0,1,1.547-.654,2.033,2.033,0,0,1,1.59.654,2.851,2.851,0,0,1,.588,1.961V28.191a9.547,9.547,0,0,0,.4,2.985,3.445,3.445,0,0,0,1.416,1.859,5.2,5.2,0,0,0,2.847.661,4.266,4.266,0,0,0,3.573-1.343,6.582,6.582,0,0,0,1.046-4.074V17.719a2.871,2.871,0,0,1,.581-1.968,1.987,1.987,0,0,1,1.554-.646,2.056,2.056,0,0,1,1.576.646,2.8,2.8,0,0,1,.6,1.968v10.24a15.152,15.152,0,0,1-.486,4.169,6.436,6.436,0,0,1-1.837,2.934,7.134,7.134,0,0,1-2.7,1.569,11.834,11.834,0,0,1-3.6.494,14.848,14.848,0,0,1-4.227-.53,6.761,6.761,0,0,1-2.89-1.641,6.613,6.613,0,0,1-1.641-2.847,14.482,14.482,0,0,1-.523-4.147" transform="translate(-144.576 -11.984)" fill="#fff"/>
    <path id="Path_8045" data-name="Path 8045" d="M303.793,20.188h-9.717v5.229h8.947a2.13,2.13,0,0,1,1.474.443,1.506,1.506,0,0,1,.487,1.169,1.563,1.563,0,0,1-.479,1.184,2.081,2.081,0,0,1-1.482.458h-8.947v6.057h10.051a2.2,2.2,0,0,1,1.532.472,1.621,1.621,0,0,1,.516,1.256,1.586,1.586,0,0,1-.516,1.227,2.2,2.2,0,0,1-1.532.472H292.405a2.766,2.766,0,0,1-2.026-.625,2.791,2.791,0,0,1-.617-2.019V19.505a3.584,3.584,0,0,1,.276-1.518,1.712,1.712,0,0,1,.864-.857,3.633,3.633,0,0,1,1.5-.269h11.387a2.214,2.214,0,0,1,1.532.458,1.547,1.547,0,0,1,.5,1.2,1.564,1.564,0,0,1-.5,1.213,2.213,2.213,0,0,1-1.532.458" transform="translate(-229.906 -13.379)" fill="#fff"/>
    <path id="Path_8046" data-name="Path 8046" d="M220.426,168.171H214.32a3.854,3.854,0,0,0,.429,1.8,2.87,2.87,0,0,0,1.109,1.176,3.019,3.019,0,0,0,1.526.4,3.882,3.882,0,0,0,1.023-.126,3.394,3.394,0,0,0,.9-.4,6.859,6.859,0,0,0,.8-.577q.366-.308.949-.836a1.052,1.052,0,0,1,.686-.2,1.16,1.16,0,0,1,.778.253.888.888,0,0,1,.3.715,1.9,1.9,0,0,1-.332.951,3.835,3.835,0,0,1-1,1.044,5.778,5.778,0,0,1-1.681.83,7.511,7.511,0,0,1-2.327.33,6.366,6.366,0,0,1-4.676-1.649,6,6,0,0,1-1.669-4.475,7.205,7.205,0,0,1,.411-2.468,5.4,5.4,0,0,1,1.2-1.951,5.227,5.227,0,0,1,1.944-1.248,7.225,7.225,0,0,1,2.561-.434,6.267,6.267,0,0,1,3.139.742,4.979,4.979,0,0,1,1.961,1.919,4.894,4.894,0,0,1,.652,2.4,1.476,1.476,0,0,1-.675,1.468,4.348,4.348,0,0,1-1.9.335m-6.106-1.7h5.66a3.567,3.567,0,0,0-.863-2.3,2.638,2.638,0,0,0-1.972-.764,2.547,2.547,0,0,0-1.915.775,3.773,3.773,0,0,0-.909,2.292" transform="translate(-167.517 -127.989)" fill="#fff"/>
    <path id="Path_8047" data-name="Path 8047" d="M284.367,163.078v.363a5.4,5.4,0,0,1,1.8-1.534,4.955,4.955,0,0,1,2.247-.489,4.629,4.629,0,0,1,2.207.517,3.343,3.343,0,0,1,1.452,1.462,3.386,3.386,0,0,1,.4,1.187,11.847,11.847,0,0,1,.091,1.627V171.8a1.938,1.938,0,0,1-.429,1.363,1.451,1.451,0,0,1-1.115.461,1.466,1.466,0,0,1-1.132-.473,1.927,1.927,0,0,1-.435-1.352v-5a4.834,4.834,0,0,0-.429-2.27,1.768,1.768,0,0,0-1.709-.786,2.6,2.6,0,0,0-1.521.478,2.76,2.76,0,0,0-1.006,1.314,9.057,9.057,0,0,0-.229,2.507v3.76a1.9,1.9,0,0,1-.44,1.369,1.511,1.511,0,0,1-1.138.456,1.439,1.439,0,0,1-1.109-.473,1.927,1.927,0,0,1-.435-1.352v-8.674a1.839,1.839,0,0,1,.389-1.281,1.371,1.371,0,0,1,1.063-.423,1.49,1.49,0,0,1,.743.187,1.363,1.363,0,0,1,.531.561,1.911,1.911,0,0,1,.2.912" transform="translate(-223.303 -128.074)" fill="#fff"/>
    <path id="Path_8048" data-name="Path 8048" d="M357.393,168.171h-6.106a3.854,3.854,0,0,0,.429,1.8,2.87,2.87,0,0,0,1.109,1.176,3.019,3.019,0,0,0,1.526.4,3.882,3.882,0,0,0,1.023-.126,3.394,3.394,0,0,0,.9-.4,6.864,6.864,0,0,0,.8-.577q.366-.308.949-.836a1.052,1.052,0,0,1,.686-.2,1.16,1.16,0,0,1,.778.253.888.888,0,0,1,.3.715,1.9,1.9,0,0,1-.332.951,3.834,3.834,0,0,1-1,1.044,5.778,5.778,0,0,1-1.681.83,7.511,7.511,0,0,1-2.327.33,6.366,6.366,0,0,1-4.677-1.649,6,6,0,0,1-1.669-4.475,7.205,7.205,0,0,1,.411-2.468,5.4,5.4,0,0,1,1.2-1.951,5.227,5.227,0,0,1,1.944-1.248,7.225,7.225,0,0,1,2.561-.434,6.267,6.267,0,0,1,3.139.742,4.978,4.978,0,0,1,1.961,1.919,4.894,4.894,0,0,1,.652,2.4,1.476,1.476,0,0,1-.675,1.468,4.348,4.348,0,0,1-1.9.335m-6.106-1.7h5.66a3.567,3.567,0,0,0-.863-2.3,2.638,2.638,0,0,0-1.972-.764,2.547,2.547,0,0,0-1.915.775,3.773,3.773,0,0,0-.909,2.292" transform="translate(-276.191 -127.989)" fill="#fff"/>
    <path id="Path_8049" data-name="Path 8049" d="M421.859,169.291V171.8a1.886,1.886,0,0,1-.446,1.369,1.517,1.517,0,0,1-1.132.456,1.456,1.456,0,0,1-1.109-.462,1.921,1.921,0,0,1-.434-1.363v-8.356q0-2.023,1.521-2.023a1.29,1.29,0,0,1,1.12.473,2.532,2.532,0,0,1,.377,1.4,5.3,5.3,0,0,1,1.149-1.4,2.438,2.438,0,0,1,1.572-.473,4.151,4.151,0,0,1,1.909.473,1.414,1.414,0,0,1,.926,1.253,1.17,1.17,0,0,1-.394.907,1.248,1.248,0,0,1-.852.357,4.047,4.047,0,0,1-.829-.2,4,4,0,0,0-1.161-.2,1.743,1.743,0,0,0-1.121.346,2.214,2.214,0,0,0-.674,1.028,6.928,6.928,0,0,0-.332,1.621q-.092.94-.091,2.292" transform="translate(-332.24 -128.075)" fill="#fff"/>
    <path id="Path_8050" data-name="Path 8050" d="M475.044,163.617v8.718a8.811,8.811,0,0,1-.331,2.573,4.087,4.087,0,0,1-1.064,1.781,4.506,4.506,0,0,1-1.915,1.045,10.827,10.827,0,0,1-2.944.341,8.877,8.877,0,0,1-2.881-.434,5.015,5.015,0,0,1-1.955-1.121,2.012,2.012,0,0,1-.686-1.413,1.145,1.145,0,0,1,.389-.9,1.361,1.361,0,0,1,.938-.346,1.559,1.559,0,0,1,1.2.583q.251.3.52.6a3.009,3.009,0,0,0,.595.517,2.372,2.372,0,0,0,.783.319,4.754,4.754,0,0,0,1.052.1,4.407,4.407,0,0,0,1.881-.324,1.89,1.89,0,0,0,.937-.907,3.532,3.532,0,0,0,.314-1.248q.046-.665.069-2.138a5.055,5.055,0,0,1-1.664,1.473,4.688,4.688,0,0,1-2.246.506,4.873,4.873,0,0,1-2.738-.769,4.953,4.953,0,0,1-1.8-2.155,7.667,7.667,0,0,1-.629-3.2,7.314,7.314,0,0,1,.383-2.441,5.075,5.075,0,0,1,1.092-1.836,4.671,4.671,0,0,1,1.635-1.127,5.317,5.317,0,0,1,2.035-.379,5.055,5.055,0,0,1,2.3.489,5.533,5.533,0,0,1,1.806,1.534v-.407a1.7,1.7,0,0,1,.4-1.209,1.344,1.344,0,0,1,1.029-.429,1.227,1.227,0,0,1,1.2.566,3.593,3.593,0,0,1,.3,1.633m-9.044,3.8a4.041,4.041,0,0,0,.829,2.76,2.732,2.732,0,0,0,2.144.935,2.882,2.882,0,0,0,1.469-.4,2.989,2.989,0,0,0,1.126-1.209,4.1,4.1,0,0,0,.434-1.962,4.381,4.381,0,0,0-.841-2.859,2.723,2.723,0,0,0-2.212-1.022,2.639,2.639,0,0,0-2.144.978,4.266,4.266,0,0,0-.806,2.781" transform="translate(-367.253 -128.074)" fill="#fff"/>
    <path id="Path_8051" data-name="Path 8051" d="M535.228,174l.286-.671-3.842-9.3a3.382,3.382,0,0,1-.355-1.165,1.326,1.326,0,0,1,.206-.715,1.51,1.51,0,0,1,.566-.528,1.537,1.537,0,0,1,.749-.2,1.248,1.248,0,0,1,1.017.412,3.755,3.755,0,0,1,.606,1.182L537.1,170.4l2.5-6.871a11.615,11.615,0,0,1,.538-1.308,1.549,1.549,0,0,1,.509-.638,1.458,1.458,0,0,1,.76-.165,1.378,1.378,0,0,1,.68.181,1.3,1.3,0,0,1,.68,1.138q-.046.209-.149.593t-.252.781l-4.07,10.247a11.8,11.8,0,0,1-1.029,2.122,3.339,3.339,0,0,1-1.332,1.182,5.068,5.068,0,0,1-2.235.412,5.635,5.635,0,0,1-2.058-.286,1.041,1.041,0,0,1-.686-1.044.994.994,0,0,1,.326-.8,1.446,1.446,0,0,1,.966-.28,1.845,1.845,0,0,1,.492.066,2.427,2.427,0,0,0,.515.066,1.92,1.92,0,0,0,.846-.154,1.454,1.454,0,0,0,.555-.533,8.059,8.059,0,0,0,.566-1.116" transform="translate(-421.283 -128.074)" fill="#fff"/>
    <path id="Path_8052" data-name="Path 8052" d="M433.3,17.024l8.293,12.549V16.908a2.78,2.78,0,0,1,.53-1.852,1.788,1.788,0,0,1,1.431-.617,1.844,1.844,0,0,1,1.467.617,2.755,2.755,0,0,1,.537,1.852V33.655q0,2.8-2.324,2.8a3.082,3.082,0,0,1-1.046-.167,2.652,2.652,0,0,1-.871-.53,5.136,5.136,0,0,1-.755-.85q-.349-.486-.7-1l-8.09-12.4V33.989a2.662,2.662,0,0,1-.566,1.845,1.874,1.874,0,0,1-1.452.624,1.851,1.851,0,0,1-1.467-.632,2.713,2.713,0,0,1-.552-1.837V17.562a4.648,4.648,0,0,1,.232-1.641,2.342,2.342,0,0,1,.915-1.068,2.49,2.49,0,0,1,1.38-.414,2.261,2.261,0,0,1,1.721.7,5.263,5.263,0,0,1,.639.828q.327.509.675,1.06" transform="translate(-339.377 -11.456)" fill="#fff"/>
    <path id="Path_8053" data-name="Path 8053" d="M646.631,17.272l4.822,14.277,4.837-14.379q.377-1.133.566-1.576a2.1,2.1,0,0,1,.624-.8,1.829,1.829,0,0,1,1.191-.356,2,2,0,0,1,1.024.276,2.033,2.033,0,0,1,.741.734,1.807,1.807,0,0,1,.269.922,3.025,3.025,0,0,1-.087.69,6.206,6.206,0,0,1-.218.726q-.131.356-.261.734l-5.156,13.914q-.276.8-.552,1.518a6.444,6.444,0,0,1-.639,1.264,2.862,2.862,0,0,1-.966.893,2.9,2.9,0,0,1-1.474.349,2.952,2.952,0,0,1-1.474-.341,2.8,2.8,0,0,1-.973-.9,6.635,6.635,0,0,1-.646-1.271q-.276-.711-.552-1.511l-5.069-13.8q-.131-.377-.269-.741a5.685,5.685,0,0,1-.232-.784,3.343,3.343,0,0,1-.094-.712,1.9,1.9,0,0,1,.6-1.351,2,2,0,0,1,1.5-.61,1.748,1.748,0,0,1,1.561.675,8.991,8.991,0,0,1,.937,2.157" transform="translate(-509.415 -11.457)" fill="#fff"/>
    <path id="Path_8054" data-name="Path 8054" d="M738.3,33.684l-1.017-2.672h-8.656l-1.017,2.73A9.576,9.576,0,0,1,726.59,35.9a1.617,1.617,0,0,1-1.38.559,2.023,2.023,0,0,1-1.438-.6,1.823,1.823,0,0,1-.625-1.351,3.007,3.007,0,0,1,.145-.9q.145-.465.479-1.293l5.447-13.827q.232-.6.559-1.43a7.241,7.241,0,0,1,.7-1.387,2.83,2.83,0,0,1,.973-.893,2.985,2.985,0,0,1,1.489-.341,3.021,3.021,0,0,1,1.5.341,2.9,2.9,0,0,1,.973.879,6.173,6.173,0,0,1,.625,1.155q.254.617.646,1.649l5.563,13.74a6.909,6.909,0,0,1,.654,2.28,1.889,1.889,0,0,1-.617,1.358,2.03,2.03,0,0,1-1.489.617,1.926,1.926,0,0,1-.872-.182,1.781,1.781,0,0,1-.61-.494,4.522,4.522,0,0,1-.53-.958q-.283-.646-.486-1.14m-8.54-5.912h6.362l-3.21-8.787Z" transform="translate(-573.768 -11.456)" fill="#fff"/>
    <path id="Path_8055" data-name="Path 8055" d="M543.649,17.141l-.036-.027a1.951,1.951,0,0,0-1.3-.484,1.7,1.7,0,0,0-1.7,1.7,1.65,1.65,0,0,0,.868,1.511c2.777,2.054,3.835,4.288,3.835,6.893a8.579,8.579,0,1,1-17.159.012c0-2.769,1.256-5.069,3.916-6.959a1.606,1.606,0,0,0,.755-1.476,1.732,1.732,0,0,0-1.7-1.7,1.6,1.6,0,0,0-1.158.377l-.19.118c-2.833,2.2-5.1,5.08-5.1,9.646a12.057,12.057,0,0,0,12.033,12.055,11.886,11.886,0,0,0,6.938-21.665" transform="translate(-416.296 -13.18)" fill="#fff"/>
    <path id="Path_8056" data-name="Path 8056" d="M576.447,15.394h0a1.694,1.694,0,0,0,1.71-1.5V1.5a1.724,1.724,0,0,0-3.42,0V13.891a1.694,1.694,0,0,0,1.71,1.5" transform="translate(-456.014)" fill="#fff"/>
  </g>
</svg>
