<svg xmlns="http://www.w3.org/2000/svg" xmlns:xlink="http://www.w3.org/1999/xlink" width="183.814" height="50" viewBox="0 0 183.814 50">
  <defs>
    <clipPath id="clip-path">
      <rect id="Rectangle_2233" data-name="Rectangle 2233" width="183.814" height="50" fill="none"/>
    </clipPath>
  </defs>
  <g id="cbi-zamefa" transform="translate(0 0)">
    <path id="Path_7572" data-name="Path 7572" d="M59.773,18.505v1.08h3.19l-3.431,4.157v.96h5.456V23.624H61.261l3.546-4.16v-.96Z" transform="translate(80.848 25.13)" fill="#fff"/>
    <g id="Group_3668" data-name="Group 3668" transform="translate(0 0)">
      <g id="Group_3667" data-name="Group 3667" clip-path="url(#clip-path)">
        <path id="Path_7573" data-name="Path 7573" d="M67.946,23.421a.752.752,0,0,0,.066.361.283.283,0,0,0,.259.108h.141a.876.876,0,0,0,.193-.026v.948l-.186.054c-.075.021-.153.035-.233.052s-.16.028-.241.038-.146.012-.2.012a1.3,1.3,0,0,1-.7-.17.814.814,0,0,1-.358-.587,2.393,2.393,0,0,1-1,.578,4,4,0,0,1-1.144.179,2.918,2.918,0,0,1-.8-.113,2.094,2.094,0,0,1-.677-.337,1.582,1.582,0,0,1-.467-.564,1.741,1.741,0,0,1-.174-.8,1.838,1.838,0,0,1,.21-.934,1.588,1.588,0,0,1,.552-.566,2.614,2.614,0,0,1,.766-.292c.285-.059.571-.106.858-.137a6.808,6.808,0,0,1,.707-.1,3.457,3.457,0,0,0,.592-.1.907.907,0,0,0,.408-.224.6.6,0,0,0,.149-.448.689.689,0,0,0-.125-.432.837.837,0,0,0-.311-.257,1.274,1.274,0,0,0-.413-.12,3.153,3.153,0,0,0-.434-.031,1.711,1.711,0,0,0-.946.241.936.936,0,0,0-.42.743H62.65a2.055,2.055,0,0,1,.288-1,1.918,1.918,0,0,1,.641-.634,2.591,2.591,0,0,1,.882-.337,5.238,5.238,0,0,1,1-.1,4.244,4.244,0,0,1,.9.1,2.536,2.536,0,0,1,.8.314,1.7,1.7,0,0,1,.571.557,1.523,1.523,0,0,1,.215.832ZM66.581,21.7a1.619,1.619,0,0,1-.766.245q-.456.042-.913.127a3.2,3.2,0,0,0-.42.1,1.308,1.308,0,0,0-.358.179.8.8,0,0,0-.245.3,1.016,1.016,0,0,0-.092.45.581.581,0,0,0,.132.384.971.971,0,0,0,.318.243,1.422,1.422,0,0,0,.408.127,2.334,2.334,0,0,0,.4.038,2.23,2.23,0,0,0,.49-.061,1.658,1.658,0,0,0,.5-.205,1.3,1.3,0,0,0,.389-.363.935.935,0,0,0,.156-.547Z" transform="translate(84.77 25.034)" fill="#fff"/>
        <path id="Path_7574" data-name="Path 7574" d="M65.685,18.6H66.98v.863h.033a3.7,3.7,0,0,1,.337-.42,1.883,1.883,0,0,1,.4-.323,2.057,2.057,0,0,1,.512-.21,2.518,2.518,0,0,1,.658-.078,2.236,2.236,0,0,1,1.047.252,1.412,1.412,0,0,1,.691.778,2.725,2.725,0,0,1,.8-.755,2.17,2.17,0,0,1,1.141-.276,2.229,2.229,0,0,1,1.526.481,2.045,2.045,0,0,1,.547,1.6V24.8H73.306v-3.62c0-.248-.007-.472-.024-.677a1.426,1.426,0,0,0-.137-.528.811.811,0,0,0-.342-.342,1.355,1.355,0,0,0-.623-.118,1.162,1.162,0,0,0-1.009.429,2.068,2.068,0,0,0-.311,1.224V24.8H69.5v-3.98a1.7,1.7,0,0,0-.233-.976.987.987,0,0,0-.858-.328,1.207,1.207,0,0,0-.509.108,1.287,1.287,0,0,0-.432.309,1.583,1.583,0,0,0-.3.5,1.911,1.911,0,0,0-.113.681V24.8H65.685Z" transform="translate(89.203 25.034)" fill="#fff"/>
        <path id="Path_7575" data-name="Path 7575" d="M71.641,22.054a2.457,2.457,0,0,0,.1.7,1.741,1.741,0,0,0,.307.587,1.492,1.492,0,0,0,.516.4,1.7,1.7,0,0,0,.74.149,1.646,1.646,0,0,0,.967-.257,1.539,1.539,0,0,0,.545-.773h1.295a2.614,2.614,0,0,1-.37.9,2.583,2.583,0,0,1-.637.663,2.685,2.685,0,0,1-.832.408,3.351,3.351,0,0,1-.967.137,3.306,3.306,0,0,1-1.292-.238,2.7,2.7,0,0,1-.955-.672,2.913,2.913,0,0,1-.587-1.03,4.257,4.257,0,0,1-.2-1.318,3.733,3.733,0,0,1,.212-1.252,3.187,3.187,0,0,1,.6-1.042,2.794,2.794,0,0,1,.941-.714,2.874,2.874,0,0,1,1.247-.264,2.792,2.792,0,0,1,1.311.307,2.955,2.955,0,0,1,.967.806,3.352,3.352,0,0,1,.557,1.16,3.528,3.528,0,0,1,.09,1.346Zm3.188-.9a2.166,2.166,0,0,0-.139-.625,1.648,1.648,0,0,0-.309-.519,1.536,1.536,0,0,0-.481-.361,1.407,1.407,0,0,0-.627-.137,1.621,1.621,0,0,0-.653.125,1.471,1.471,0,0,0-.5.347,1.716,1.716,0,0,0-.335.523,1.77,1.77,0,0,0-.139.646Z" transform="translate(95.433 25.034)" fill="#fff"/>
        <path id="Path_7576" data-name="Path 7576" d="M73.263,19.864h1.021V19.35a2.626,2.626,0,0,1,.141-.953,1.334,1.334,0,0,1,.384-.564,1.31,1.31,0,0,1,.545-.266A3.324,3.324,0,0,1,76,17.5a4,4,0,0,1,.957.083v1.068a2.372,2.372,0,0,0-.281-.054,3.05,3.05,0,0,0-.354-.019.829.829,0,0,0-.472.134.573.573,0,0,0-.2.514v.634h1.163v1.021H75.649v5.176H74.284V20.885H73.263Z" transform="translate(99.494 23.771)" fill="#fff"/>
        <path id="Path_7577" data-name="Path 7577" d="M80.8,23.421a.756.756,0,0,0,.064.361.285.285,0,0,0,.259.108h.144a.856.856,0,0,0,.191-.026v.948l-.186.054c-.075.021-.151.035-.231.052s-.163.028-.241.038-.146.012-.205.012a1.311,1.311,0,0,1-.7-.17.822.822,0,0,1-.358-.587,2.4,2.4,0,0,1-1,.578,4.015,4.015,0,0,1-1.144.179,2.906,2.906,0,0,1-.8-.113,2.094,2.094,0,0,1-.677-.337,1.558,1.558,0,0,1-.467-.564,1.712,1.712,0,0,1-.177-.8,1.862,1.862,0,0,1,.21-.934,1.594,1.594,0,0,1,.554-.566,2.614,2.614,0,0,1,.766-.292c.283-.059.568-.106.856-.137a6.992,6.992,0,0,1,.707-.1,3.527,3.527,0,0,0,.594-.1.933.933,0,0,0,.408-.224.608.608,0,0,0,.149-.448.676.676,0,0,0-.127-.432.812.812,0,0,0-.309-.257,1.305,1.305,0,0,0-.415-.12,3.12,3.12,0,0,0-.432-.031,1.7,1.7,0,0,0-.946.241.924.924,0,0,0-.42.743H75.5a2.08,2.08,0,0,1,.288-1,1.947,1.947,0,0,1,.644-.634,2.579,2.579,0,0,1,.88-.337,5.238,5.238,0,0,1,1-.1,4.282,4.282,0,0,1,.9.1,2.582,2.582,0,0,1,.8.314,1.689,1.689,0,0,1,.568.557,1.5,1.5,0,0,1,.217.832ZM79.435,21.7a1.619,1.619,0,0,1-.766.245c-.3.028-.606.071-.91.127a3.111,3.111,0,0,0-.42.1,1.324,1.324,0,0,0-.361.179.827.827,0,0,0-.245.3,1.051,1.051,0,0,0-.09.45.581.581,0,0,0,.132.384.924.924,0,0,0,.318.243,1.422,1.422,0,0,0,.408.127,2.308,2.308,0,0,0,.4.038,2.267,2.267,0,0,0,.493-.061,1.658,1.658,0,0,0,.5-.205,1.33,1.33,0,0,0,.389-.363.934.934,0,0,0,.153-.547Z" transform="translate(102.226 25.034)" fill="#fff"/>
        <path id="Path_7578" data-name="Path 7578" d="M27.777,16.282c.269,3.613,3.48,5.553,6.459,5.553,1.908,0,4.518-.634,5.655-3.11h3.546A9.463,9.463,0,0,1,34.4,24.646c-6.827,0-10.173-4.315-10.173-9.368S27.577,5.909,34.4,5.909c4.617,0,9.5,2.676,9.5,9.937v.436Zm12.582-2.61c-.5-3.179-2.978-4.952-6.124-4.952-3.077,0-5.855,1.806-6.357,4.952Z" transform="translate(32.907 8.024)" fill="#fff"/>
        <rect id="Rectangle_2225" data-name="Rectangle 2225" width="3.346" height="31.822" transform="translate(80.426 0.245)" fill="#fff"/>
        <path id="Path_7579" data-name="Path 7579" d="M40.565,16.282c.266,3.613,3.478,5.553,6.456,5.553,1.908,0,4.518-.634,5.655-3.11h3.546a9.463,9.463,0,0,1-9.034,5.921c-6.827,0-10.173-4.315-10.173-9.368s3.346-9.368,10.173-9.368c4.617,0,9.5,2.676,9.5,9.937v.436Zm12.58-2.61c-.5-3.179-2.978-4.952-6.124-4.952-3.077,0-5.855,1.806-6.357,4.952Z" transform="translate(50.269 8.024)" fill="#fff"/>
        <path id="Path_7580" data-name="Path 7580" d="M65.237,17.62c-1.405,5.254-4.584,7.027-9.135,7.027-6.959,0-9.536-4.718-9.536-9.269,0-5.185,3.179-9.47,9.5-9.47,4.685,0,8.4,2.108,9.1,6.459H61.624c-.4-2.276-2.209-3.648-5.322-3.648-4.282,0-6.19,2.811-6.19,6.56s1.908,6.558,6.19,6.558c3.011,0,4.652-1.3,5.388-4.216Z" transform="translate(63.238 8.023)" fill="#fff"/>
        <path id="Path_7581" data-name="Path 7581" d="M58.623,3.88h3.346V9.268h5.02v2.608h-5.02V22.685c0,1.405,1,1.908,2.709,1.908a13.476,13.476,0,0,0,2.311-.236v2.811a21.673,21.673,0,0,1-3.749.236c-3.278,0-4.617-1.606-4.617-4.15V11.876H55.008V9.268h3.615Z" transform="translate(74.703 5.269)" fill="#fff"/>
        <path id="Path_7582" data-name="Path 7582" d="M61.252,6.51H64.6V9.722h.066a6.756,6.756,0,0,1,6.025-3.813,6.529,6.529,0,0,1,1.905.2V9.722a9.252,9.252,0,0,0-2.375-.335c-3.313,0-5.622,1.941-5.622,5.756v8.9H61.252Z" transform="translate(83.182 8.024)" fill="#fff"/>
        <rect id="Rectangle_2226" data-name="Rectangle 2226" width="4.796" height="3.325" transform="translate(157.493 9.357)" fill="#fff"/>
        <rect id="Rectangle_2227" data-name="Rectangle 2227" width="4.796" height="17.346" transform="translate(157.493 14.724)" fill="#fff"/>
        <path id="Path_7583" data-name="Path 7583" d="M88.692,17.62c-1.405,5.254-4.584,7.027-9.135,7.027-6.959,0-9.536-4.718-9.536-9.269,0-5.185,3.179-9.47,9.5-9.47,4.685,0,8.4,2.108,9.1,6.459H85.079c-.4-2.276-2.209-3.648-5.322-3.648-4.282,0-6.19,2.811-6.19,6.56s1.908,6.558,6.19,6.558c3.011,0,4.652-1.3,5.388-4.216Z" transform="translate(95.091 8.023)" fill="#fff"/>
        <line id="Line_197" data-name="Line 197" x2="126.676" transform="translate(57.138 38.867)" fill="#fff"/>
        <line id="Line_198" data-name="Line 198" x2="126.676" transform="translate(57.138 38.867)" fill="none" stroke="#fff" stroke-miterlimit="10" stroke-width="1"/>
        <rect id="Rectangle_2228" data-name="Rectangle 2228" width="4.056" height="2.134" transform="translate(44.428 6.143)" fill="#fff"/>
        <rect id="Rectangle_2229" data-name="Rectangle 2229" width="10.649" height="5.728" transform="translate(42.1 0.415)" fill="#43a9ac"/>
        <rect id="Rectangle_2230" data-name="Rectangle 2230" width="10.649" height="5.728" transform="translate(42.1 0.415)" fill="none" stroke="#fff" stroke-miterlimit="10" stroke-width="1"/>
        <path id="Path_7584" data-name="Path 7584" d="M39.8,12.5V10.364L34.929,2.679,19.251,4.638V8.791l-3.66-6.112L4.64,4.884,0,10.364v27.5l4.641,4.6H15.591l3.66-3.275v3.275H34.929l1.792-1.691v1.691H48.278V12.5Z" transform="translate(-0.001 3.637)" fill="#fff"/>
        <path id="Path_7655" data-name="Path 7655" d="M0,0H11.557V30.221H0Z" transform="translate(41.193 8.274)" fill="#43a9ac"/>
        <rect id="Rectangle_2232" data-name="Rectangle 2232" width="11.557" height="30.221" transform="translate(41.193 8.274)" fill="none" stroke="#fff" stroke-miterlimit="10" stroke-width="1"/>
        <path id="Path_7585" data-name="Path 7585" d="M30.606,13.035,27.766,18.5l2.839,4.6V33.659l-4.867,4.6H10.06V.177H25.739L30.606,5.9Zm-8.831-5H18.891v9.423h2.884Zm0,11.533H18.891V31.06h2.884Z" transform="translate(13.662 0.24)" fill="#43a9ac"/>
        <path id="Path_7586" data-name="Path 7586" d="M30.606,13.035,27.766,18.5l2.839,4.6V33.659l-4.867,4.6H10.06V.177H25.739L30.606,5.9Zm-8.831-5H18.891v9.423h2.884Zm0,11.533H18.891V31.06h2.884Z" transform="translate(13.662 0.24)" fill="none" stroke="#fff" stroke-miterlimit="10" stroke-width="1"/>
        <path id="Path_7587" data-name="Path 7587" d="M22.621,17.317V5.763L17.486.28H6.537L1.9,5.763V33.519l4.641,4.6H17.486l5.136-4.6V19.43h-9.1V30.918H10.636V7.894h2.884v9.423Z" transform="translate(2.576 0.38)" fill="#43a9ac"/>
        <path id="Path_7588" data-name="Path 7588" d="M22.621,17.317V5.763L17.486.28H6.537L1.9,5.763V33.519l4.641,4.6H17.486l5.136-4.6V19.43h-9.1V30.918H10.636V7.894h2.884v9.423Z" transform="translate(2.576 0.38)" fill="none" stroke="#fff" stroke-miterlimit="10" stroke-width="1"/>
      </g>
    </g>
  </g>
</svg>
