<svg xmlns="http://www.w3.org/2000/svg" xmlns:xlink="http://www.w3.org/1999/xlink" width="175.978" height="50" viewBox="0 0 175.978 50">
  <defs>
    <clipPath id="clip-path">
      <rect id="Rectangle_2244" data-name="Rectangle 2244" width="175.978" height="50" fill="none"/>
    </clipPath>
  </defs>
  <g id="cbi-low-voltage" transform="translate(0 0)">
    <rect id="Rectangle_2234" data-name="Rectangle 2234" width="1.308" height="8.183" transform="translate(109.5 39.468)" fill="#fff"/>
    <g id="Group_3671" data-name="Group 3671" transform="translate(0 0)">
      <g id="Group_3670" data-name="Group 3670" clip-path="url(#clip-path)">
        <path id="Path_7589" data-name="Path 7589" d="M52.938,24.68a3.215,3.215,0,0,1-1.267-.234,2.677,2.677,0,0,1-1.524-1.632,3.832,3.832,0,0,1-.2-1.263,3.766,3.766,0,0,1,.2-1.247,2.773,2.773,0,0,1,.584-.988,2.7,2.7,0,0,1,.94-.647,3.541,3.541,0,0,1,2.534,0,2.7,2.7,0,0,1,.94.647,2.806,2.806,0,0,1,.584.988,3.766,3.766,0,0,1,.2,1.247,3.832,3.832,0,0,1-.2,1.263,2.787,2.787,0,0,1-.584.983,2.74,2.74,0,0,1-.94.649,3.215,3.215,0,0,1-1.267.234m0-1.03a1.5,1.5,0,0,0,.755-.183,1.618,1.618,0,0,0,.528-.483,2.12,2.12,0,0,0,.3-.672,3.057,3.057,0,0,0,.1-.762,3.113,3.113,0,0,0-.1-.755,2.021,2.021,0,0,0-.3-.67,1.623,1.623,0,0,0-.528-.476,1.653,1.653,0,0,0-1.511,0,1.6,1.6,0,0,0-.528.476,2.021,2.021,0,0,0-.3.67,3.01,3.01,0,0,0-.1.755,2.957,2.957,0,0,0,.1.762,2.12,2.12,0,0,0,.3.672,1.6,1.6,0,0,0,.528.483,1.493,1.493,0,0,0,.755.183" transform="translate(62.672 23.131)" fill="#fff"/>
        <path id="Path_7590" data-name="Path 7590" d="M53.138,18.5h1.387l1.157,4.424h.025L56.818,18.5h1.317L59.2,22.929h.023l1.2-4.424h1.33L59.9,24.431H58.559l-1.1-4.4h-.025l-1.089,4.4H54.971Z" transform="translate(66.677 23.22)" fill="#fff"/>
        <path id="Path_7591" data-name="Path 7591" d="M59.075,18.5H60.5L62,23.057h.023L63.465,18.5h1.351L62.7,24.431H61.231Z" transform="translate(74.127 23.22)" fill="#fff"/>
        <path id="Path_7592" data-name="Path 7592" d="M65.137,24.68a3.215,3.215,0,0,1-1.267-.234,2.677,2.677,0,0,1-1.524-1.632,3.832,3.832,0,0,1-.2-1.263,3.766,3.766,0,0,1,.2-1.247,2.773,2.773,0,0,1,.584-.988,2.7,2.7,0,0,1,.94-.647,3.541,3.541,0,0,1,2.534,0,2.7,2.7,0,0,1,.94.647,2.806,2.806,0,0,1,.584.988,3.766,3.766,0,0,1,.2,1.247,3.832,3.832,0,0,1-.2,1.263,2.787,2.787,0,0,1-.584.983,2.74,2.74,0,0,1-.94.649,3.215,3.215,0,0,1-1.267.234m0-1.03a1.5,1.5,0,0,0,.755-.183,1.618,1.618,0,0,0,.528-.483,2.12,2.12,0,0,0,.3-.672,3.057,3.057,0,0,0,.1-.762,3.113,3.113,0,0,0-.1-.755,2.021,2.021,0,0,0-.3-.67,1.623,1.623,0,0,0-.528-.476,1.653,1.653,0,0,0-1.511,0,1.6,1.6,0,0,0-.528.476,2.021,2.021,0,0,0-.3.67,3.009,3.009,0,0,0-.1.755,2.956,2.956,0,0,0,.1.762,2.12,2.12,0,0,0,.3.672,1.6,1.6,0,0,0,.528.483,1.493,1.493,0,0,0,.755.183" transform="translate(77.979 23.131)" fill="#fff"/>
        <rect id="Rectangle_2235" data-name="Rectangle 2235" width="1.308" height="8.183" transform="translate(147.897 39.468)" fill="#fff"/>
        <path id="Path_7593" data-name="Path 7593" d="M66.831,19.494h.985V17.717h1.308v1.777H70.3v.976H69.124v3.161a3.278,3.278,0,0,0,.016.356.618.618,0,0,0,.081.25.374.374,0,0,0,.189.156.936.936,0,0,0,.343.052c.092,0,.183,0,.275-.007A1.14,1.14,0,0,0,70.3,24.4v1.008l-.424.047c-.138.014-.277.02-.424.02a2.823,2.823,0,0,1-.832-.1,1.1,1.1,0,0,1-.492-.286.976.976,0,0,1-.241-.476,3.607,3.607,0,0,1-.074-.654V20.47h-.985Z" transform="translate(83.859 22.231)" fill="#fff"/>
        <path id="Path_7594" data-name="Path 7594" d="M74.225,23.2a.724.724,0,0,0,.061.345.273.273,0,0,0,.248.1h.138a.819.819,0,0,0,.183-.025v.906l-.178.052c-.072.02-.147.034-.223.05s-.153.027-.228.036-.142.011-.2.011a1.253,1.253,0,0,1-.665-.162.786.786,0,0,1-.343-.561,2.294,2.294,0,0,1-.956.552,3.841,3.841,0,0,1-1.1.171,2.8,2.8,0,0,1-.769-.108,2,2,0,0,1-.647-.322,1.513,1.513,0,0,1-.446-.539,1.665,1.665,0,0,1-.167-.762,1.757,1.757,0,0,1,.2-.893,1.518,1.518,0,0,1,.528-.541,2.524,2.524,0,0,1,.733-.28c.273-.056.546-.1.821-.131a6.6,6.6,0,0,1,.676-.1,3.3,3.3,0,0,0,.566-.1.867.867,0,0,0,.39-.214A.572.572,0,0,0,73,20.268a.66.66,0,0,0-.122-.413.766.766,0,0,0-.3-.246,1.218,1.218,0,0,0-.395-.115,3.008,3.008,0,0,0-.413-.029,1.639,1.639,0,0,0-.906.23.887.887,0,0,0-.4.71H69.159a1.965,1.965,0,0,1,.275-.952,1.877,1.877,0,0,1,.613-.607,2.478,2.478,0,0,1,.843-.322,5.009,5.009,0,0,1,.961-.092,4.1,4.1,0,0,1,.861.092,2.469,2.469,0,0,1,.762.3,1.636,1.636,0,0,1,.543.532,1.457,1.457,0,0,1,.207.8Zm-1.308-1.651a1.548,1.548,0,0,1-.733.234c-.291.027-.582.068-.87.122a2.9,2.9,0,0,0-.4.1,1.234,1.234,0,0,0-.345.171.768.768,0,0,0-.234.286,1,1,0,0,0-.086.431.544.544,0,0,0,.126.368.9.9,0,0,0,.3.232,1.382,1.382,0,0,0,.39.122,2.252,2.252,0,0,0,.386.036,2.132,2.132,0,0,0,.469-.059,1.562,1.562,0,0,0,.476-.2,1.245,1.245,0,0,0,.372-.347.894.894,0,0,0,.149-.523Z" transform="translate(86.506 23.13)" fill="#fff"/>
        <path id="Path_7595" data-name="Path 7595" d="M77.843,24.211a2.521,2.521,0,0,1-.751,2,3.173,3.173,0,0,1-2.16.658,4.7,4.7,0,0,1-.9-.09,2.63,2.63,0,0,1-.825-.311,1.969,1.969,0,0,1-.625-.573,1.714,1.714,0,0,1-.3-.87H73.59a1.07,1.07,0,0,0,.194.446,1,1,0,0,0,.327.268,1.282,1.282,0,0,0,.419.129,4.669,4.669,0,0,0,.48.027,1.53,1.53,0,0,0,1.159-.388,1.591,1.591,0,0,0,.368-1.125v-.906h-.025a1.955,1.955,0,0,1-.751.769,2.017,2.017,0,0,1-1.026.275,2.705,2.705,0,0,1-1.209-.246A2.3,2.3,0,0,1,72.7,23.6a2.834,2.834,0,0,1-.476-.992,4.673,4.673,0,0,1-.149-1.2,3.448,3.448,0,0,1,.185-1.134,2.9,2.9,0,0,1,.525-.945,2.518,2.518,0,0,1,1.971-.888,2.293,2.293,0,0,1,1.033.234,1.594,1.594,0,0,1,.722.74h.025v-.814h1.306Zm-2.9-.722a1.437,1.437,0,0,0,.74-.178,1.482,1.482,0,0,0,.492-.469,2.061,2.061,0,0,0,.275-.665,3.254,3.254,0,0,0,.088-.751,2.927,2.927,0,0,0-.092-.733,1.963,1.963,0,0,0-.282-.631,1.328,1.328,0,0,0-.492-.435,1.53,1.53,0,0,0-.728-.16,1.375,1.375,0,0,0-.733.183,1.475,1.475,0,0,0-.483.476,2.075,2.075,0,0,0-.264.665,3.452,3.452,0,0,0-.079.74,2.81,2.81,0,0,0,.09.715,1.961,1.961,0,0,0,.282.627,1.5,1.5,0,0,0,.483.446,1.355,1.355,0,0,0,.7.171" transform="translate(90.442 23.131)" fill="#fff"/>
        <path id="Path_7596" data-name="Path 7596" d="M76.694,21.9a2.35,2.35,0,0,0,.1.665,1.625,1.625,0,0,0,.293.561,1.406,1.406,0,0,0,.494.386,1.618,1.618,0,0,0,.708.142,1.574,1.574,0,0,0,.924-.246,1.472,1.472,0,0,0,.521-.74h1.238a2.5,2.5,0,0,1-.356.861,2.461,2.461,0,0,1-.607.634,2.593,2.593,0,0,1-.8.39,3.215,3.215,0,0,1-.924.131,3.161,3.161,0,0,1-1.236-.228,2.577,2.577,0,0,1-.913-.643,2.751,2.751,0,0,1-.561-.985,4.071,4.071,0,0,1-.189-1.26,3.514,3.514,0,0,1,.2-1.2,3.009,3.009,0,0,1,.573-1,2.671,2.671,0,0,1,.9-.683,2.738,2.738,0,0,1,1.191-.253,2.673,2.673,0,0,1,1.256.293,2.817,2.817,0,0,1,.922.771,3.17,3.17,0,0,1,.534,1.109A3.466,3.466,0,0,1,81.05,21.9Zm3.048-.859a2.071,2.071,0,0,0-.133-.6,1.576,1.576,0,0,0-.3-.5,1.5,1.5,0,0,0-.46-.345,1.348,1.348,0,0,0-.6-.131,1.558,1.558,0,0,0-.625.12,1.419,1.419,0,0,0-.48.331,1.64,1.64,0,0,0-.32.5,1.691,1.691,0,0,0-.133.618Z" transform="translate(94.594 23.131)" fill="#fff"/>
        <path id="Path_7597" data-name="Path 7597" d="M27.717,15.828a5.938,5.938,0,0,0,6.176,5.31c1.824,0,4.318-.607,5.4-2.974h3.391a9.049,9.049,0,0,1-8.638,5.662c-6.528,0-9.725-4.126-9.725-8.958s3.2-8.958,9.725-8.958c4.415,0,9.087,2.559,9.087,9.5v.417Zm12.032-2.5A5.525,5.525,0,0,0,33.893,8.6c-2.943,0-5.6,1.727-6.081,4.735Z" transform="translate(30.524 7.415)" fill="#fff"/>
        <rect id="Rectangle_2236" data-name="Rectangle 2236" width="3.2" height="30.428" transform="translate(77.119 0.237)" fill="#fff"/>
        <path id="Path_7598" data-name="Path 7598" d="M40.5,15.828a5.934,5.934,0,0,0,6.174,5.31c1.824,0,4.32-.607,5.407-2.974h3.391a9.049,9.049,0,0,1-8.638,5.662c-6.528,0-9.727-4.126-9.727-8.958s3.2-8.958,9.727-8.958c4.415,0,9.087,2.559,9.087,9.5v.417Zm12.029-2.5A5.523,5.523,0,0,0,46.677,8.6c-2.943,0-5.6,1.727-6.079,4.735Z" transform="translate(46.565 7.415)" fill="#fff"/>
        <path id="Path_7599" data-name="Path 7599" d="M64.513,17.108c-1.344,5.024-4.383,6.719-8.735,6.719-6.654,0-9.118-4.512-9.118-8.864,0-4.958,3.039-9.055,9.087-9.055,4.48,0,8.032,2.016,8.7,6.176H61.059C60.674,9.908,58.946,8.6,55.97,8.6c-4.095,0-5.919,2.688-5.919,6.273s1.824,6.271,5.919,6.271c2.879,0,4.449-1.247,5.152-4.032Z" transform="translate(58.549 7.414)" fill="#fff"/>
        <path id="Path_7600" data-name="Path 7600" d="M58.56,3.88h3.2V9.032h4.8v2.494h-4.8V21.862c0,1.344.961,1.824,2.591,1.824a12.886,12.886,0,0,0,2.21-.225v2.688a20.724,20.724,0,0,1-3.585.225c-3.134,0-4.415-1.536-4.415-3.968V11.526H55.1V9.032H58.56Z" transform="translate(69.143 4.869)" fill="#fff"/>
        <path id="Path_7601" data-name="Path 7601" d="M61.347,6.484h3.2V9.555h.063a6.46,6.46,0,0,1,5.761-3.646A6.243,6.243,0,0,1,72.19,6.1V9.555a8.847,8.847,0,0,0-2.271-.32c-3.168,0-5.375,1.856-5.375,5.5v8.512h-3.2Z" transform="translate(76.978 7.415)" fill="#fff"/>
        <rect id="Rectangle_2237" data-name="Rectangle 2237" width="4.586" height="3.179" transform="translate(150.812 8.947)" fill="#fff"/>
        <rect id="Rectangle_2238" data-name="Rectangle 2238" width="4.586" height="16.586" transform="translate(150.812 14.079)" fill="#fff"/>
        <path id="Path_7602" data-name="Path 7602" d="M87.969,17.108c-1.344,5.024-4.383,6.719-8.735,6.719-6.654,0-9.118-4.512-9.118-8.864,0-4.958,3.039-9.055,9.087-9.055,4.48,0,8.032,2.016,8.7,6.176H84.515C84.13,9.908,82.4,8.6,79.426,8.6c-4.095,0-5.919,2.688-5.919,6.273s1.824,6.271,5.919,6.271c2.879,0,4.449-1.247,5.152-4.032Z" transform="translate(87.981 7.414)" fill="#fff"/>
        <line id="Line_199" data-name="Line 199" x2="121.13" transform="translate(54.85 37.166)" fill="#fff"/>
        <line id="Line_200" data-name="Line 200" x2="121.13" transform="translate(54.85 37.166)" fill="none" stroke="#fff" stroke-miterlimit="10" stroke-width="1"/>
        <rect id="Rectangle_2239" data-name="Rectangle 2239" width="3.878" height="2.041" transform="translate(42.483 5.874)" fill="#fff"/>
        <path id="Path_7656" data-name="Path 7656" d="M0,0H10.183V5.477H0Z" transform="translate(40.257 0.397)" fill="#43a9ac"/>
        <rect id="Rectangle_2241" data-name="Rectangle 2241" width="10.183" height="5.477" transform="translate(40.257 0.397)" fill="none" stroke="#fff" stroke-miterlimit="10" stroke-width="1"/>
        <path id="Path_7603" data-name="Path 7603" d="M38.054,12.068V10.027L33.4,2.679,18.408,4.553V8.523l-3.5-5.844L4.437,4.787,0,10.027v26.3l4.437,4.395H14.908l3.5-3.132v3.132H33.4L35.114,39.1v1.617H46.164V12.068Z" transform="translate(-0.001 3.362)" fill="#fff"/>
        <rect id="Rectangle_2242" data-name="Rectangle 2242" width="11.051" height="28.897" transform="translate(39.389 7.914)" fill="#43a9ac"/>
        <rect id="Rectangle_2243" data-name="Rectangle 2243" width="11.051" height="28.897" transform="translate(39.389 7.914)" fill="none" stroke="#fff" stroke-miterlimit="10" stroke-width="1"/>
        <path id="Path_7604" data-name="Path 7604" d="M29.706,12.475,26.991,17.7l2.715,4.4V32.2L25.052,36.59H10.06V.177H25.052l4.654,5.475ZM21.262,7.692H18.5V16.7h2.758Zm0,11.028H18.5V29.708h2.758Z" transform="translate(12.623 0.222)" fill="#43a9ac"/>
        <path id="Path_7605" data-name="Path 7605" d="M29.706,12.475,26.991,17.7l2.715,4.4V32.2L25.052,36.59H10.06V.177H25.052l4.654,5.475ZM21.262,7.692H18.5V16.7h2.758Zm0,11.028H18.5V29.708h2.758Z" transform="translate(12.623 0.222)" fill="none" stroke="#fff" stroke-miterlimit="10" stroke-width="1"/>
        <path id="Path_7606" data-name="Path 7606" d="M21.714,16.571V5.523L16.8.28H6.334L1.9,5.523V32.064l4.437,4.395H16.8l4.911-4.395V18.591h-8.7V29.577H10.253V7.561h2.758v9.01Z" transform="translate(2.38 0.352)" fill="#43a9ac"/>
        <path id="Path_7607" data-name="Path 7607" d="M21.714,16.571V5.523L16.8.28H6.334L1.9,5.523V32.064l4.437,4.395H16.8l4.911-4.395V18.591h-8.7V29.577H10.253V7.561h2.758v9.01Z" transform="translate(2.38 0.352)" fill="none" stroke="#fff" stroke-miterlimit="10" stroke-width="1"/>
      </g>
    </g>
  </g>
</svg>
