<svg xmlns="http://www.w3.org/2000/svg" xmlns:xlink="http://www.w3.org/1999/xlink" width="184.991" height="50" viewBox="0 0 184.991 50">
  <defs>
    <clipPath id="clip-path">
      <rect id="Rectangle_2254" data-name="Rectangle 2254" width="184.991" height="50" fill="none"/>
    </clipPath>
  </defs>
  <g id="cbi-african-cables" transform="translate(0 0)">
    <g id="Group_3673" data-name="Group 3673" transform="translate(0 0)" clip-path="url(#clip-path)">
      <path id="Path_7608" data-name="Path 7608" d="M47.424,23.421a.757.757,0,0,0,.064.361.285.285,0,0,0,.259.108h.144a.856.856,0,0,0,.191-.026v.948l-.186.054c-.075.021-.153.035-.233.052s-.16.028-.238.038-.149.012-.205.012a1.311,1.311,0,0,1-.7-.17.822.822,0,0,1-.358-.587,2.4,2.4,0,0,1-1,.578,4.017,4.017,0,0,1-1.146.179,2.931,2.931,0,0,1-.8-.113,2.094,2.094,0,0,1-.677-.337,1.582,1.582,0,0,1-.467-.564,1.741,1.741,0,0,1-.174-.8,1.838,1.838,0,0,1,.21-.934,1.588,1.588,0,0,1,.552-.566,2.64,2.64,0,0,1,.766-.292c.285-.059.571-.106.858-.137a6.9,6.9,0,0,1,.707-.1,3.456,3.456,0,0,0,.592-.1.907.907,0,0,0,.408-.224.6.6,0,0,0,.151-.448.69.69,0,0,0-.127-.432.8.8,0,0,0-.311-.257,1.274,1.274,0,0,0-.413-.12,3.145,3.145,0,0,0-.432-.031,1.714,1.714,0,0,0-.948.241.928.928,0,0,0-.417.743H42.126a2.055,2.055,0,0,1,.288-1,1.962,1.962,0,0,1,.641-.634,2.591,2.591,0,0,1,.882-.337,5.238,5.238,0,0,1,1-.1,4.282,4.282,0,0,1,.9.1,2.582,2.582,0,0,1,.8.314,1.711,1.711,0,0,1,.568.557,1.524,1.524,0,0,1,.217.832ZM46.057,21.7a1.619,1.619,0,0,1-.766.245c-.3.028-.608.071-.91.127a3.029,3.029,0,0,0-.42.1,1.291,1.291,0,0,0-.361.179.8.8,0,0,0-.245.3,1.051,1.051,0,0,0-.09.45.569.569,0,0,0,.132.384.938.938,0,0,0,.316.243,1.445,1.445,0,0,0,.408.127,2.355,2.355,0,0,0,.4.038,2.23,2.23,0,0,0,.49-.061,1.633,1.633,0,0,0,.5-.205,1.3,1.3,0,0,0,.389-.363.935.935,0,0,0,.156-.547Z" transform="translate(56.898 25.034)" fill="#fff"/>
      <path id="Path_7609" data-name="Path 7609" d="M44.9,19.864h1.019V19.35a2.621,2.621,0,0,1,.144-.953,1.334,1.334,0,0,1,.384-.564,1.282,1.282,0,0,1,.545-.266,3.305,3.305,0,0,1,.641-.064,4.011,4.011,0,0,1,.957.083v1.068a2.368,2.368,0,0,0-.281-.054,3.048,3.048,0,0,0-.354-.019.842.842,0,0,0-.474.134.578.578,0,0,0-.2.514v.634h1.163v1.021H47.286v5.176H45.921V20.885H44.9Z" transform="translate(60.979 23.771)" fill="#fff"/>
      <path id="Path_7610" data-name="Path 7610" d="M47.057,18.6h1.28v1.2h.026a1.384,1.384,0,0,1,.233-.493,2.23,2.23,0,0,1,.964-.757,1.673,1.673,0,0,1,.611-.118,2.509,2.509,0,0,1,.33.014l.186.021v1.318l-.292-.042a2.525,2.525,0,0,0-.295-.017,1.559,1.559,0,0,0-.653.137,1.468,1.468,0,0,0-.533.41,1.962,1.962,0,0,0-.361.663,2.917,2.917,0,0,0-.132.913V24.8H47.057Z" transform="translate(63.906 25.034)" fill="#fff"/>
      <path id="Path_7611" data-name="Path 7611" d="M49.156,17.5h1.368V18.8H49.156Zm0,2.36h1.368v6.2H49.156Z" transform="translate(66.756 23.771)" fill="#fff"/>
      <path id="Path_7612" data-name="Path 7612" d="M55.017,20.677a1.289,1.289,0,0,0-.462-.87,1.518,1.518,0,0,0-.953-.292,2.011,2.011,0,0,0-.564.09,1.3,1.3,0,0,0-.552.337,1.866,1.866,0,0,0-.417.681,3.228,3.228,0,0,0-.17,1.146,3.38,3.38,0,0,0,.09.764,2.12,2.12,0,0,0,.288.684,1.568,1.568,0,0,0,.509.486,1.447,1.447,0,0,0,.757.186,1.365,1.365,0,0,0,.988-.373,1.718,1.718,0,0,0,.486-1.042h1.365a3,3,0,0,1-.917,1.853,2.8,2.8,0,0,1-1.922.639,3.155,3.155,0,0,1-1.29-.245,2.725,2.725,0,0,1-.941-.67,2.867,2.867,0,0,1-.58-1.014,3.952,3.952,0,0,1-.2-1.269,4.369,4.369,0,0,1,.191-1.309A2.95,2.95,0,0,1,51.3,19.4a2.687,2.687,0,0,1,.953-.71,3.251,3.251,0,0,1,1.337-.257,3.754,3.754,0,0,1,1.026.137,2.677,2.677,0,0,1,.861.415,2.2,2.2,0,0,1,.62.7,2.378,2.378,0,0,1,.285,1Z" transform="translate(68.627 25.034)" fill="#fff"/>
      <path id="Path_7613" data-name="Path 7613" d="M59.166,23.421a.757.757,0,0,0,.064.361.286.286,0,0,0,.259.108h.144a.856.856,0,0,0,.191-.026v.948l-.186.054c-.075.021-.153.035-.233.052s-.16.028-.238.038-.149.012-.205.012a1.311,1.311,0,0,1-.7-.17.822.822,0,0,1-.358-.587,2.4,2.4,0,0,1-1,.578,4.018,4.018,0,0,1-1.146.179,2.931,2.931,0,0,1-.8-.113,2.094,2.094,0,0,1-.677-.337,1.582,1.582,0,0,1-.467-.564,1.741,1.741,0,0,1-.174-.8,1.837,1.837,0,0,1,.21-.934,1.588,1.588,0,0,1,.552-.566,2.64,2.64,0,0,1,.766-.292c.285-.059.571-.106.858-.137a6.9,6.9,0,0,1,.707-.1,3.456,3.456,0,0,0,.592-.1.907.907,0,0,0,.408-.224.6.6,0,0,0,.151-.448.69.69,0,0,0-.127-.432.8.8,0,0,0-.311-.257,1.274,1.274,0,0,0-.413-.12,3.145,3.145,0,0,0-.432-.031,1.713,1.713,0,0,0-.948.241.928.928,0,0,0-.417.743H53.868a2.055,2.055,0,0,1,.288-1,1.962,1.962,0,0,1,.641-.634,2.591,2.591,0,0,1,.882-.337,5.238,5.238,0,0,1,1-.1,4.282,4.282,0,0,1,.9.1,2.582,2.582,0,0,1,.8.314,1.711,1.711,0,0,1,.568.557,1.524,1.524,0,0,1,.217.832ZM57.8,21.7a1.619,1.619,0,0,1-.766.245c-.3.028-.608.071-.91.127a3.028,3.028,0,0,0-.42.1,1.29,1.29,0,0,0-.361.179.8.8,0,0,0-.245.3,1.05,1.05,0,0,0-.09.45.568.568,0,0,0,.132.384.938.938,0,0,0,.316.243,1.445,1.445,0,0,0,.408.127,2.355,2.355,0,0,0,.4.038,2.229,2.229,0,0,0,.49-.061,1.633,1.633,0,0,0,.5-.205,1.3,1.3,0,0,0,.389-.363.935.935,0,0,0,.156-.547Z" transform="translate(72.844 25.034)" fill="#fff"/>
      <path id="Path_7614" data-name="Path 7614" d="M56.9,18.6H58.2v.913l.024.021a2.284,2.284,0,0,1,.816-.806,2.17,2.17,0,0,1,1.113-.295,2.327,2.327,0,0,1,1.608.528,2.014,2.014,0,0,1,.587,1.58V24.8H60.978V20.905a1.7,1.7,0,0,0-.311-1.063,1.133,1.133,0,0,0-.9-.328,1.472,1.472,0,0,0-.625.125,1.366,1.366,0,0,0-.467.347,1.632,1.632,0,0,0-.3.523,1.887,1.887,0,0,0-.108.634V24.8H56.9Z" transform="translate(77.277 25.034)" fill="#fff"/>
      <path id="Path_7615" data-name="Path 7615" d="M66.179,20.677a1.289,1.289,0,0,0-.462-.87,1.519,1.519,0,0,0-.953-.292,2.011,2.011,0,0,0-.564.09,1.3,1.3,0,0,0-.552.337,1.866,1.866,0,0,0-.417.681,3.228,3.228,0,0,0-.17,1.146,3.379,3.379,0,0,0,.09.764,2.12,2.12,0,0,0,.288.684,1.568,1.568,0,0,0,.509.486,1.447,1.447,0,0,0,.757.186,1.365,1.365,0,0,0,.988-.373,1.718,1.718,0,0,0,.486-1.042h1.365a3,3,0,0,1-.917,1.853,2.8,2.8,0,0,1-1.922.639,3.155,3.155,0,0,1-1.29-.245,2.725,2.725,0,0,1-.941-.67,2.866,2.866,0,0,1-.58-1.014,3.951,3.951,0,0,1-.2-1.269,4.369,4.369,0,0,1,.191-1.309,2.95,2.95,0,0,1,.575-1.059,2.687,2.687,0,0,1,.953-.71,3.251,3.251,0,0,1,1.337-.257,3.753,3.753,0,0,1,1.026.137,2.676,2.676,0,0,1,.861.415,2.2,2.2,0,0,1,.62.7,2.378,2.378,0,0,1,.285,1Z" transform="translate(83.786 25.034)" fill="#fff"/>
      <path id="Path_7616" data-name="Path 7616" d="M70.328,23.421a.757.757,0,0,0,.064.361.286.286,0,0,0,.259.108H70.8a.856.856,0,0,0,.191-.026v.948l-.186.054c-.075.021-.153.035-.233.052s-.16.028-.238.038-.149.012-.205.012a1.311,1.311,0,0,1-.7-.17.822.822,0,0,1-.358-.587,2.4,2.4,0,0,1-1,.578,4.017,4.017,0,0,1-1.146.179,2.931,2.931,0,0,1-.8-.113,2.094,2.094,0,0,1-.677-.337,1.582,1.582,0,0,1-.467-.564,1.741,1.741,0,0,1-.174-.8,1.837,1.837,0,0,1,.21-.934,1.587,1.587,0,0,1,.552-.566,2.64,2.64,0,0,1,.766-.292c.285-.059.571-.106.858-.137a6.9,6.9,0,0,1,.707-.1,3.456,3.456,0,0,0,.592-.1.907.907,0,0,0,.408-.224.6.6,0,0,0,.151-.448.69.69,0,0,0-.127-.432.8.8,0,0,0-.311-.257,1.274,1.274,0,0,0-.413-.12,3.145,3.145,0,0,0-.432-.031,1.714,1.714,0,0,0-.948.241.928.928,0,0,0-.417.743H65.03a2.055,2.055,0,0,1,.288-1,1.962,1.962,0,0,1,.641-.634,2.591,2.591,0,0,1,.882-.337,5.237,5.237,0,0,1,1-.1,4.283,4.283,0,0,1,.9.1,2.582,2.582,0,0,1,.8.314,1.711,1.711,0,0,1,.568.557,1.524,1.524,0,0,1,.217.832ZM68.961,21.7a1.619,1.619,0,0,1-.766.245c-.3.028-.608.071-.91.127a3.028,3.028,0,0,0-.42.1,1.291,1.291,0,0,0-.361.179.8.8,0,0,0-.245.3,1.051,1.051,0,0,0-.09.45.569.569,0,0,0,.132.384.938.938,0,0,0,.316.243,1.446,1.446,0,0,0,.408.127,2.355,2.355,0,0,0,.4.038,2.23,2.23,0,0,0,.49-.061,1.633,1.633,0,0,0,.5-.205,1.3,1.3,0,0,0,.389-.363.935.935,0,0,0,.156-.547Z" transform="translate(88.003 25.034)" fill="#fff"/>
      <path id="Path_7617" data-name="Path 7617" d="M68.08,17.5h1.368v3.162h.021a1.848,1.848,0,0,1,.349-.406,2.137,2.137,0,0,1,.45-.307,2.321,2.321,0,0,1,.514-.191,2.2,2.2,0,0,1,.533-.068,2.965,2.965,0,0,1,1.278.259,2.507,2.507,0,0,1,.9.707,3.077,3.077,0,0,1,.54,1.049,4.416,4.416,0,0,1,.182,1.283,4.508,4.508,0,0,1-.163,1.21,3.129,3.129,0,0,1-.493,1.038,2.389,2.389,0,0,1-2.018.988,4.76,4.76,0,0,1-.63-.042,2.393,2.393,0,0,1-.606-.16,2.085,2.085,0,0,1-.521-.314,1.508,1.508,0,0,1-.389-.5h-.024v.851H68.08Zm4.77,5.466a3.039,3.039,0,0,0-.108-.816,2.205,2.205,0,0,0-.323-.7,1.682,1.682,0,0,0-.54-.49,1.472,1.472,0,0,0-.743-.186,1.5,1.5,0,0,0-1.3.6,2.651,2.651,0,0,0-.439,1.6,3.192,3.192,0,0,0,.113.868,2.006,2.006,0,0,0,.342.689,1.748,1.748,0,0,0,.545.457,1.6,1.6,0,0,0,.738.167,1.548,1.548,0,0,0,.79-.191,1.717,1.717,0,0,0,.535-.5,2.049,2.049,0,0,0,.3-.7,3.592,3.592,0,0,0,.09-.8" transform="translate(92.456 23.771)" fill="#fff"/>
      <rect id="Rectangle_2245" data-name="Rectangle 2245" width="1.368" height="8.557" transform="translate(168.553 41.275)" fill="#fff"/>
      <path id="Path_7618" data-name="Path 7618" d="M74.225,22.054a2.457,2.457,0,0,0,.1.7,1.7,1.7,0,0,0,.307.587,1.471,1.471,0,0,0,.516.4,1.692,1.692,0,0,0,.74.149,1.646,1.646,0,0,0,.967-.257,1.539,1.539,0,0,0,.545-.773H78.7a2.618,2.618,0,0,1-.373.9,2.573,2.573,0,0,1-.634.663,2.712,2.712,0,0,1-.832.408,3.362,3.362,0,0,1-.967.137,3.306,3.306,0,0,1-1.292-.238,2.7,2.7,0,0,1-.955-.672,2.878,2.878,0,0,1-.587-1.03,4.258,4.258,0,0,1-.2-1.318,3.675,3.675,0,0,1,.212-1.252,3.146,3.146,0,0,1,.6-1.042,2.794,2.794,0,0,1,.941-.714,2.863,2.863,0,0,1,1.245-.264,2.8,2.8,0,0,1,1.313.307,2.946,2.946,0,0,1,.964.806,3.315,3.315,0,0,1,.559,1.16,3.625,3.625,0,0,1,.09,1.346Zm3.188-.9a2.166,2.166,0,0,0-.139-.625,1.648,1.648,0,0,0-.309-.519,1.563,1.563,0,0,0-.481-.361,1.41,1.41,0,0,0-.63-.137,1.63,1.63,0,0,0-.653.125,1.484,1.484,0,0,0-.5.347,1.716,1.716,0,0,0-.335.523,1.768,1.768,0,0,0-.139.646Z" transform="translate(98.943 25.034)" fill="#fff"/>
      <path id="Path_7619" data-name="Path 7619" d="M77.331,22.808a1.02,1.02,0,0,0,.455.837,1.772,1.772,0,0,0,.948.243,3.925,3.925,0,0,0,.436-.031,1.818,1.818,0,0,0,.462-.116.864.864,0,0,0,.354-.243.586.586,0,0,0,.125-.427.607.607,0,0,0-.191-.432,1.392,1.392,0,0,0-.462-.271,5,5,0,0,0-.641-.172c-.241-.047-.483-.1-.731-.156a7.489,7.489,0,0,1-.738-.2,2.406,2.406,0,0,1-.634-.325,1.509,1.509,0,0,1-.45-.521,1.675,1.675,0,0,1-.165-.785,1.4,1.4,0,0,1,.245-.844,1.847,1.847,0,0,1,.623-.552,2.684,2.684,0,0,1,.839-.292,4.861,4.861,0,0,1,.88-.085,4.006,4.006,0,0,1,.917.1,2.525,2.525,0,0,1,.792.33,2.016,2.016,0,0,1,.587.594,2.055,2.055,0,0,1,.292.88H79.847a.844.844,0,0,0-.448-.658,1.844,1.844,0,0,0-.809-.167,2.724,2.724,0,0,0-.342.021,1.688,1.688,0,0,0-.373.09.843.843,0,0,0-.295.193.468.468,0,0,0-.118.33.53.53,0,0,0,.172.408,1.408,1.408,0,0,0,.457.257,4.534,4.534,0,0,0,.641.174q.357.071.743.156a7.142,7.142,0,0,1,.731.2,2.379,2.379,0,0,1,.641.325,1.487,1.487,0,0,1,.63,1.283,1.669,1.669,0,0,1-.252.934,2.012,2.012,0,0,1-.653.623,2.94,2.94,0,0,1-.894.347,4.446,4.446,0,0,1-.972.108,4.227,4.227,0,0,1-1.082-.132,2.5,2.5,0,0,1-.865-.4,1.922,1.922,0,0,1-.573-.672,2.127,2.127,0,0,1-.224-.953Z" transform="translate(103.161 25.034)" fill="#fff"/>
      <path id="Path_7620" data-name="Path 7620" d="M28.277,16.282c.269,3.613,3.48,5.553,6.459,5.553,1.908,0,4.518-.634,5.655-3.11h3.547A9.463,9.463,0,0,1,34.9,24.646c-6.827,0-10.173-4.315-10.173-9.369S28.076,5.909,34.9,5.909c4.617,0,9.5,2.676,9.5,9.937v.436Zm12.583-2.61c-.5-3.179-2.978-4.952-6.124-4.952-3.077,0-5.855,1.806-6.357,4.952Z" transform="translate(33.584 8.024)" fill="#fff"/>
      <rect id="Rectangle_2246" data-name="Rectangle 2246" width="3.346" height="31.822" transform="translate(81.603 0.245)" fill="#fff"/>
      <path id="Path_7621" data-name="Path 7621" d="M41.064,16.282c.266,3.613,3.478,5.553,6.456,5.553,1.908,0,4.518-.634,5.655-3.11h3.547a9.463,9.463,0,0,1-9.034,5.921c-6.827,0-10.173-4.315-10.173-9.369s3.346-9.369,10.173-9.369c4.617,0,9.5,2.676,9.5,9.937v.436Zm12.58-2.61c-.5-3.179-2.978-4.952-6.124-4.952-3.077,0-5.855,1.806-6.357,4.952Z" transform="translate(50.947 8.024)" fill="#fff"/>
      <path id="Path_7622" data-name="Path 7622" d="M65.736,17.62c-1.405,5.254-4.584,7.027-9.135,7.027-6.959,0-9.536-4.718-9.536-9.269,0-5.185,3.179-9.47,9.5-9.47,4.685,0,8.4,2.108,9.1,6.459H62.123c-.4-2.276-2.209-3.648-5.322-3.648-4.282,0-6.19,2.811-6.19,6.56s1.908,6.558,6.19,6.558c3.011,0,4.652-1.3,5.388-4.216Z" transform="translate(63.916 8.023)" fill="#fff"/>
      <path id="Path_7623" data-name="Path 7623" d="M59.122,3.88h3.346V9.268h5.02v2.608h-5.02V22.685c0,1.405,1,1.908,2.709,1.908a13.475,13.475,0,0,0,2.311-.236v2.811a21.673,21.673,0,0,1-3.749.236c-3.278,0-4.617-1.606-4.617-4.15V11.876H55.507V9.268h3.615Z" transform="translate(75.381 5.269)" fill="#fff"/>
      <path id="Path_7624" data-name="Path 7624" d="M61.751,6.51H65.1V9.722h.066a6.756,6.756,0,0,1,6.025-3.813,6.528,6.528,0,0,1,1.905.2V9.722a9.253,9.253,0,0,0-2.375-.335c-3.313,0-5.622,1.941-5.622,5.756v8.9H61.751Z" transform="translate(83.861 8.024)" fill="#fff"/>
      <rect id="Rectangle_2247" data-name="Rectangle 2247" width="4.796" height="3.325" transform="translate(158.671 9.357)" fill="#fff"/>
      <rect id="Rectangle_2248" data-name="Rectangle 2248" width="4.796" height="17.346" transform="translate(158.671 14.724)" fill="#fff"/>
      <path id="Path_7625" data-name="Path 7625" d="M89.191,17.62c-1.405,5.254-4.584,7.027-9.135,7.027-6.959,0-9.536-4.718-9.536-9.269,0-5.185,3.179-9.47,9.5-9.47,4.685,0,8.4,2.108,9.1,6.459H85.578c-.4-2.276-2.209-3.648-5.322-3.648-4.282,0-6.19,2.811-6.19,6.56s1.908,6.558,6.19,6.558c3.011,0,4.652-1.3,5.388-4.216Z" transform="translate(95.769 8.023)" fill="#fff"/>
      <line id="Line_201" data-name="Line 201" x2="126.677" transform="translate(58.315 38.867)" fill="#fff"/>
      <line id="Line_202" data-name="Line 202" x2="126.677" transform="translate(58.315 38.867)" fill="none" stroke="#fff" stroke-miterlimit="10" stroke-width="1"/>
      <rect id="Rectangle_2249" data-name="Rectangle 2249" width="4.056" height="2.134" transform="translate(44.428 6.143)" fill="#fff"/>
      <rect id="Rectangle_2250" data-name="Rectangle 2250" width="10.649" height="5.728" transform="translate(42.101 0.415)" fill="#43a9ac"/>
      <rect id="Rectangle_2251" data-name="Rectangle 2251" width="10.649" height="5.728" transform="translate(42.101 0.415)" fill="none" stroke="#fff" stroke-miterlimit="10" stroke-width="1"/>
      <path id="Path_7626" data-name="Path 7626" d="M39.8,12.5V10.364L34.929,2.679,19.251,4.638V8.791l-3.66-6.112L4.64,4.884,0,10.364v27.5l4.641,4.6H15.591l3.66-3.275v3.275H34.929l1.792-1.691v1.691H48.278V12.5Z" transform="translate(-0.001 3.637)" fill="#fff"/>
      <rect id="Rectangle_2252" data-name="Rectangle 2252" width="11.557" height="30.221" transform="translate(41.193 8.274)" fill="#43a9ac"/>
      <rect id="Rectangle_2253" data-name="Rectangle 2253" width="11.557" height="30.221" transform="translate(41.193 8.274)" fill="none" stroke="#fff" stroke-miterlimit="10" stroke-width="1"/>
      <path id="Path_7627" data-name="Path 7627" d="M30.606,13.035,27.767,18.5l2.839,4.6V33.659l-4.867,4.6H10.06V.177H25.739L30.606,5.9Zm-8.831-5H18.891v9.423h2.884Zm0,11.533H18.891V31.06h2.884Z" transform="translate(13.662 0.24)" fill="#43a9ac"/>
      <path id="Path_7628" data-name="Path 7628" d="M30.606,13.035,27.767,18.5l2.839,4.6V33.659l-4.867,4.6H10.06V.177H25.739L30.606,5.9Zm-8.831-5H18.891v9.423h2.884Zm0,11.533H18.891V31.06h2.884Z" transform="translate(13.662 0.24)" fill="none" stroke="#fff" stroke-miterlimit="10" stroke-width="1"/>
      <path id="Path_7629" data-name="Path 7629" d="M22.622,17.317V5.763L17.486.28H6.537L1.9,5.763V33.519l4.641,4.6H17.486l5.136-4.6V19.43h-9.1V30.918H10.636V7.894H13.52v9.423Z" transform="translate(2.576 0.38)" fill="#43a9ac"/>
      <path id="Path_7630" data-name="Path 7630" d="M22.622,17.317V5.763L17.486.28H6.537L1.9,5.763V33.519l4.641,4.6H17.486l5.136-4.6V19.43h-9.1V30.918H10.636V7.894H13.52v9.423Z" transform="translate(2.576 0.38)" fill="none" stroke="#fff" stroke-miterlimit="10" stroke-width="1"/>
    </g>
  </g>
</svg>
