<svg xmlns="http://www.w3.org/2000/svg" xmlns:xlink="http://www.w3.org/1999/xlink" width="122.136" height="50" viewBox="0 0 122.136 50">
  <defs>
    <clipPath id="clip-path">
      <rect id="Rectangle_2257" data-name="Rectangle 2257" width="122.136" height="50" fill="none"/>
    </clipPath>
  </defs>
  <g id="ecn" transform="translate(0 0)">
    <path id="Path_7631" data-name="Path 7631" d="M0,.171V29.748H32.886V22.64H9.068V17.9H31.129V11.773H9.068V7.035H32.356V.171Z" transform="translate(0 0.156)" fill="#fff"/>
    <g id="Group_3675" data-name="Group 3675" transform="translate(0 0)">
      <g id="Group_3674" data-name="Group 3674" clip-path="url(#clip-path)">
        <path id="Path_7632" data-name="Path 7632" d="M19.53,10.7C19.53,2.043,24.392,0,32.562,0H43.225c12.91,0,14.585,2.777,14.5,11.151h-9.07v-.815c0-2.126-1.553-2.739-4.249-2.739H34.524c-4.78,0-5.68,2.248-5.68,5.924v3.186c0,4.291.9,5.924,5.189,5.924h9.683c4.085,0,5.309-.409,5.309-4.085h9.07v2.779c0,4.983-1.8,8.905-10.907,8.905H32.562c-8.17,0-13.032-2.043-13.032-10.7Z" transform="translate(17.768 0.001)" fill="#fff"/>
        <path id="Path_7633" data-name="Path 7633" d="M42.375.171H56.429L73.465,21.66h.08V.171h9.07V29.748H68.562L51.527,8.259h-.082V29.748h-9.07Z" transform="translate(38.552 0.156)" fill="#fff"/>
        <path id="Path_7634" data-name="Path 7634" d="M0,25.9c0-1.335.663-1.625,1.631-1.625h.926c1.409,0,1.99.3,1.99,1.52v.6H1.327v.214c0,.372.262.476.815.476H2.55c.72,0,.754-.193.754-.4H4.547v.151c0,.884-.787,1.079-1.747,1.079h-1c-.877,0-1.8-.166-1.8-1.673Zm3.262-.3c0-.422-.193-.5-.968-.5-.863,0-.966.076-.966.5Z" transform="translate(0 22.087)" fill="#fff"/>
        <rect id="Rectangle_2255" data-name="Rectangle 2255" width="1.327" height="5.004" transform="translate(5.302 44.941)" fill="#fff"/>
        <path id="Path_7635" data-name="Path 7635" d="M3.865,25.9c0-1.335.663-1.625,1.631-1.625h.926c1.409,0,1.99.3,1.99,1.52v.6H5.192v.214c0,.372.262.476.815.476h.407c.72,0,.754-.193.754-.4H8.412v.151c0,.884-.787,1.079-1.747,1.079h-1c-.877,0-1.8-.166-1.8-1.673Zm3.262-.3c0-.422-.193-.5-.968-.5-.863,0-.966.076-.966.5Z" transform="translate(3.516 22.087)" fill="#fff"/>
        <path id="Path_7636" data-name="Path 7636" d="M6.514,25.9c0-1.333.663-1.623,1.631-1.623H9.638c.982,0,1.583.359,1.583,1.167v.319H9.934c0-.361-.185-.491-.766-.491H8.657c-.554,0-.815.151-.815.539v.47c0,.456.29.594.7.594h.678c.372,0,.71-.082.71-.407v-.084h1.287V26.7c0,.947-.789,1.217-1.549,1.217H8.319c-.878,0-1.8-.166-1.8-1.673Z" transform="translate(5.926 22.087)" fill="#fff"/>
        <path id="Path_7637" data-name="Path 7637" d="M9.816,25.656H9.153V24.7h.663v-.831h1.327V24.7H13.2v.953H11.143V27.01c0,.264.193.319.512.319.428,0,.544-.1.544-.422v-.235H13.36V27.1c0,.67-.441,1.182-1.5,1.182h-.525c-.815,0-1.52-.256-1.52-1.23Z" transform="translate(8.327 21.718)" fill="#fff"/>
        <path id="Path_7638" data-name="Path 7638" d="M11.711,24.333h1.243V25h.015c.151-.56.691-.726,1.291-.726.968,0,1.348.414,1.348,1.388,0,.09-.008.187-.013.311H14.448c0-.449-.1-.663-.636-.663-.456,0-.773.172-.773.594v1.95H11.711Z" transform="translate(10.654 22.087)" fill="#fff"/>
        <path id="Path_7639" data-name="Path 7639" d="M14.041,25.673a1.276,1.276,0,0,1,1.459-1.4h1.982a1.276,1.276,0,0,1,1.459,1.4v.844a1.276,1.276,0,0,1-1.459,1.4H15.5a1.276,1.276,0,0,1-1.459-1.4Zm1.327.588c0,.5.3.657.905.657h.319c.856,0,1.022-.111,1.022-.581v-.485c0-.47-.166-.581-1.022-.581h-.319c-.607,0-.905.153-.905.657Z" transform="translate(12.774 22.087)" fill="#fff"/>
        <path id="Path_7640" data-name="Path 7640" d="M17,24.333h1.327V24.9h.013c.235-.491.7-.623,1.409-.623.823,0,1.971.034,1.971,1.555v2.026H20.4V25.833c0-.346-.277-.518-.857-.518h-.3c-.567,0-.905.262-.905.768v1.776H17Z" transform="translate(15.468 22.087)" fill="#fff"/>
        <path id="Path_7641" data-name="Path 7641" d="M21.281,24.569H19.954V23.532h1.327Zm0,3.967H19.954V25.01h1.327Z" transform="translate(18.154 21.409)" fill="#fff"/>
        <path id="Path_7642" data-name="Path 7642" d="M21.044,25.9c0-1.333.663-1.623,1.631-1.623h1.493c.982,0,1.583.359,1.583,1.167v.319H24.464c0-.361-.185-.491-.766-.491h-.512c-.554,0-.815.151-.815.539v.47c0,.456.29.594.7.594h.678c.372,0,.71-.082.71-.407v-.084h1.287V26.7c0,.947-.789,1.217-1.549,1.217H22.849c-.879,0-1.8-.166-1.8-1.673Z" transform="translate(19.145 22.087)" fill="#fff"/>
        <path id="Path_7643" data-name="Path 7643" d="M25.4,25.9c0-1.335.663-1.623,1.631-1.623h1.493c.982,0,1.581.359,1.581,1.167v.319H28.818c0-.361-.185-.491-.766-.491h-.512c-.554,0-.815.151-.815.539v.47c0,.456.29.594.7.594h.678c.372,0,.71-.082.71-.407v-.084H30.1V26.7c0,.947-.787,1.217-1.547,1.217H27.2c-.879,0-1.8-.166-1.8-1.673Z" transform="translate(23.107 22.087)" fill="#fff"/>
        <path id="Path_7644" data-name="Path 7644" d="M28.17,25.673a1.276,1.276,0,0,1,1.459-1.4h1.982a1.276,1.276,0,0,1,1.459,1.4v.844a1.276,1.276,0,0,1-1.459,1.4H29.629a1.276,1.276,0,0,1-1.459-1.4Zm1.327.588c0,.5.3.657.905.657h.319c.856,0,1.022-.111,1.022-.581v-.485c0-.47-.166-.581-1.022-.581H30.4c-.607,0-.905.153-.905.657Z" transform="translate(25.629 22.087)" fill="#fff"/>
        <path id="Path_7645" data-name="Path 7645" d="M31.1,24.332h1.264v.691h.015c.069-.5.525-.747,1.175-.747h.5a1.31,1.31,0,0,1,1.306.823c.222-.636.5-.823,1.259-.823h.407c1.209,0,1.644.588,1.644,1.6v1.984H37.347V25.963c0-.483-.126-.649-.9-.649-.636,0-.9.138-.9.6v1.942H34.222v-2c0-.435-.159-.546-.961-.546-.567,0-.836.138-.836.684v1.86H31.1Z" transform="translate(28.292 22.087)" fill="#fff"/>
        <path id="Path_7646" data-name="Path 7646" d="M35.441,24.332h1.264v.691h.015c.069-.5.525-.747,1.175-.747h.5a1.31,1.31,0,0,1,1.306.823c.222-.636.5-.823,1.259-.823h.407c1.209,0,1.644.588,1.644,1.6v1.984H41.69V25.963c0-.483-.126-.649-.9-.649-.636,0-.9.138-.9.6v1.942H38.565v-2c0-.435-.159-.546-.961-.546-.567,0-.836.138-.836.684v1.86H35.441Z" transform="translate(32.244 22.087)" fill="#fff"/>
        <path id="Path_7647" data-name="Path 7647" d="M41.153,26.759c0,.193.069.325.823.325h.47c.628,0,.787-.048.787-.262s-.1-.29-.573-.29H41.417c-1.238-.008-1.6-.277-1.6-1.245,0-.877.7-1.008,1.618-1.008h.926c1.734,0,2.038.241,2.053,1.071H43.082c-.069-.208-.195-.243-.989-.243-.768,0-.911.021-.911.264,0,.151.1.206.794.206H42.9c1.589,0,1.707.533,1.707,1.161,0,.934-.374,1.175-1.887,1.175H41.457c-1.222,0-1.673-.283-1.673-1.154Z" transform="translate(36.195 22.087)" fill="#fff"/>
        <path id="Path_7648" data-name="Path 7648" d="M44.274,24.333H45.6V24.9h.013c.235-.491.7-.623,1.409-.623.823,0,1.971.034,1.971,1.555v2.026H47.668V25.833c0-.346-.277-.518-.857-.518h-.3c-.567,0-.905.262-.905.768v1.776H44.274Z" transform="translate(40.28 22.087)" fill="#fff"/>
        <path id="Path_7649" data-name="Path 7649" d="M47.1,25.9c0-1.335.663-1.625,1.631-1.625h.926c1.409,0,1.99.3,1.99,1.52v.6h-3.22v.214c0,.372.262.476.815.476h.407c.72,0,.754-.193.754-.4h1.243v.151c0,.884-.787,1.079-1.747,1.079h-1c-.877,0-1.8-.166-1.8-1.673Zm3.262-.3c0-.422-.193-.5-.968-.5-.863,0-.966.076-.966.5Z" transform="translate(42.851 22.087)" fill="#fff"/>
        <path id="Path_7650" data-name="Path 7650" d="M50.319,25.656h-.663V24.7h.663v-.831h1.327V24.7H53.7v.953H51.646V27.01c0,.264.193.319.512.319.428,0,.546-.1.546-.422v-.235h1.161V27.1c0,.67-.443,1.182-1.5,1.182h-.525c-.815,0-1.52-.256-1.52-1.23Z" transform="translate(45.176 21.718)" fill="#fff"/>
        <path id="Path_7651" data-name="Path 7651" d="M52,24.307h1.451l.8,2.571h.013l.926-2.571h1.217l.926,2.571h.013l.8-2.571H59.6l-1.354,3.525h-1.77l-.67-1.908h-.013l-.67,1.908h-1.77Z" transform="translate(47.306 22.113)" fill="#fff"/>
        <path id="Path_7652" data-name="Path 7652" d="M56.155,25.673a1.276,1.276,0,0,1,1.459-1.4H59.6a1.276,1.276,0,0,1,1.459,1.4v.844a1.276,1.276,0,0,1-1.459,1.4H57.614a1.276,1.276,0,0,1-1.459-1.4Zm1.327.588c0,.5.3.657.905.657h.319c.856,0,1.022-.111,1.022-.581v-.485c0-.47-.166-.581-1.022-.581h-.319c-.607,0-.905.153-.905.657Z" transform="translate(51.089 22.087)" fill="#fff"/>
        <path id="Path_7653" data-name="Path 7653" d="M59.115,24.333h1.243V25h.015c.151-.56.691-.726,1.291-.726.968,0,1.348.414,1.348,1.388,0,.09-.008.187-.013.311H61.852c0-.449-.1-.663-.636-.663-.456,0-.773.172-.773.594v1.95H59.115Z" transform="translate(53.782 22.087)" fill="#fff"/>
        <path id="Path_7654" data-name="Path 7654" d="M61.493,23.532H62.82v2.639h.248l1.169-1.161h1.742l-1.77,1.652,1.984,1.873H64.5l-1.417-1.409H62.82v1.409H61.493Z" transform="translate(55.945 21.409)" fill="#fff"/>
        <rect id="Rectangle_2256" data-name="Rectangle 2256" width="95.147" height="2.383" transform="translate(13.009 37.353)" fill="#fff"/>
      </g>
    </g>
  </g>
</svg>
