<svg xmlns="http://www.w3.org/2000/svg" xmlns:xlink="http://www.w3.org/1999/xlink" width="141.004" height="38.8" viewBox="0 0 141.004 38.8">
  <defs>
    <clipPath id="clip-path">
      <rect id="Rectangle_2278" data-name="Rectangle 2278" width="141.004" height="38.8" fill="none"/>
    </clipPath>
  </defs>
  <g id="Group_3701" data-name="Group 3701" transform="translate(0 0)">
    <g id="Group_3700" data-name="Group 3700" transform="translate(0 0)" clip-path="url(#clip-path)">
      <path id="Path_8024" data-name="Path 8024" d="M14.092,18.255C14.092,9.168,19.806,1.7,30.043,1.7c11.7,0,14.6,8.194,15.449,11.467H37.617c-.588-1.373-2.506-4.441-7.515-4.321-6.138.148-7.956,5.65-7.956,9.409v.022c0,3.76,1.818,9.262,7.956,9.409,5.009.12,6.927-2.948,7.515-4.321h7.875c-.854,3.273-3.748,11.467-15.449,11.467-10.236,0-15.951-7.468-15.951-16.555Z" transform="translate(9.31 1.123)" fill="#fff"/>
      <path id="Path_8025" data-name="Path 8025" d="M23.809,33.415a20.181,20.181,0,0,1-3.331-5.1H9.375a1.12,1.12,0,0,1-1.229-1.229V21.754H18.6a25.592,25.592,0,0,1-.226-3.389v-.022a25.526,25.526,0,0,1,.269-3.712H8.146V9.3A1.12,1.12,0,0,1,9.375,8.066H20.629a20.09,20.09,0,0,1,3.18-4.773,19.658,19.658,0,0,1,1.767-1.725H5.329A5.251,5.251,0,0,0,0,6.9V29.489a5.252,5.252,0,0,0,5.329,5.329H25.211q-.73-.663-1.4-1.4" transform="translate(0 1.036)" fill="#fff"/>
      <line id="Line_205" data-name="Line 205" y2="38.8" transform="translate(63.383 0)" fill="#fff"/>
      <line id="Line_206" data-name="Line 206" y2="38.8" transform="translate(63.383 0)" fill="none" stroke="#fff" stroke-miterlimit="10" stroke-width="1"/>
      <path id="Path_8026" data-name="Path 8026" d="M45.219,3.334V7.612H50.3V9.563H45.219V14.03h5.719v1.95H42.8V1.384h8.134v1.95Z" transform="translate(28.281 0.914)" fill="#fff"/>
      <path id="Path_8027" data-name="Path 8027" d="M58.665,1.4v1.95H54.745V15.972H52.331V3.346H48.392V1.4Z" transform="translate(31.972 0.922)" fill="#fff"/>
      <rect id="Rectangle_2277" data-name="Rectangle 2277" width="2.415" height="14.576" transform="translate(92.014 2.318)" fill="#fff"/>
      <path id="Path_8028" data-name="Path 8028" d="M61.39,15.239a7.1,7.1,0,0,1-2.733-2.662,7.463,7.463,0,0,1-1-3.849,7.4,7.4,0,0,1,1-3.838A7.12,7.12,0,0,1,61.39,2.238a8,8,0,0,1,7.583,0A7.055,7.055,0,0,1,71.695,4.89a7.457,7.457,0,0,1,.995,3.838,7.521,7.521,0,0,1-.995,3.849,7.034,7.034,0,0,1-2.722,2.662,8,8,0,0,1-7.583,0m6.387-1.782a4.61,4.61,0,0,0,1.789-1.888,6.011,6.011,0,0,0,.646-2.841A5.96,5.96,0,0,0,69.566,5.9,4.564,4.564,0,0,0,67.777,4.03a5.553,5.553,0,0,0-5.211,0A4.561,4.561,0,0,0,60.774,5.9a5.961,5.961,0,0,0-.646,2.831,6.011,6.011,0,0,0,.646,2.841,4.607,4.607,0,0,0,1.792,1.888,5.466,5.466,0,0,0,5.211,0" transform="translate(38.09 0.847)" fill="#fff"/>
      <path id="Path_8029" data-name="Path 8029" d="M79.594,15.981H77.179L69.913,5.1V15.981H67.5V1.383h2.415l7.266,10.864V1.383h2.415Z" transform="translate(44.596 0.914)" fill="#fff"/>
      <path id="Path_8030" data-name="Path 8030" d="M43.445,16.483a7.108,7.108,0,0,1,2.705-2.654,7.96,7.96,0,0,1,7.887.189,6.516,6.516,0,0,1,2.632,3.24H53.795a3.845,3.845,0,0,0-1.573-1.719,4.654,4.654,0,0,0-2.328-.566,5.086,5.086,0,0,0-2.579.649,4.526,4.526,0,0,0-1.772,1.867,6,6,0,0,0-.639,2.831,5.989,5.989,0,0,0,.639,2.831,4.593,4.593,0,0,0,1.772,1.877,5.011,5.011,0,0,0,2.579.661,4.671,4.671,0,0,0,2.328-.566A3.845,3.845,0,0,0,53.795,23.4h2.875a6.453,6.453,0,0,1-2.632,3.228,7.659,7.659,0,0,1-4.143,1.133,7.531,7.531,0,0,1-3.753-.953,7.117,7.117,0,0,1-2.7-2.654,7.442,7.442,0,0,1-1-3.838,7.442,7.442,0,0,1,1-3.838" transform="translate(28.045 8.507)" fill="#fff"/>
      <path id="Path_8031" data-name="Path 8031" d="M59.63,27.566l-3.355-5.831H54.45v5.831H52.059V12.99h5.034a6.248,6.248,0,0,1,2.841.588,4.063,4.063,0,0,1,1.742,1.573,4.29,4.29,0,0,1,.576,2.2,4.357,4.357,0,0,1-.829,2.589,4.2,4.2,0,0,1-2.547,1.584l3.607,6.04Zm-5.18-7.739h2.642a2.777,2.777,0,0,0,2.024-.671,2.42,2.42,0,0,0,.681-1.8,2.327,2.327,0,0,0-.671-1.772,2.85,2.85,0,0,0-2.034-.641H54.45Z" transform="translate(34.395 8.582)" fill="#fff"/>
      <path id="Path_8032" data-name="Path 8032" d="M61.8,14.927v4.278h5.034v1.951H61.8v4.467h5.663v1.95H59.409v-14.6h8.054v1.95Z" transform="translate(39.251 8.574)" fill="#fff"/>
      <path id="Path_8033" data-name="Path 8033" d="M74.525,24.6h-6.1l-1.048,2.979h-2.5l5.221-14.6h2.768l5.223,14.6H75.574Zm-.671-1.95-2.37-6.774-2.391,6.774Z" transform="translate(42.864 8.573)" fill="#fff"/>
      <path id="Path_8034" data-name="Path 8034" d="M83.283,12.99v1.95H79.4V27.565H77.013V14.939h-3.9V12.99Z" transform="translate(48.304 8.582)" fill="#fff"/>
      <path id="Path_8035" data-name="Path 8035" d="M82.448,14.927v4.278h5.034v1.951H82.448v4.467h5.663v1.95H80.057v-14.6h8.054v1.95Z" transform="translate(52.893 8.574)" fill="#fff"/>
    </g>
  </g>
</svg>
