<svg xmlns="http://www.w3.org/2000/svg" xmlns:xlink="http://www.w3.org/1999/xlink" width="128.506" height="53.744" viewBox="0 0 128.506 53.744">
  <defs>
    <clipPath id="clip-path">
      <rect id="Rectangle_2274" data-name="Rectangle 2274" width="128.506" height="53.744" fill="none"/>
    </clipPath>
  </defs>
  <g id="Group_3696" data-name="Group 3696" transform="translate(0 0)">
    <path id="Path_7747" data-name="Path 7747" d="M.311,16.43V28.6H7.318v-2.13H2.892V23.329H7.011V21.215H2.892V18.544H7.318V16.43Z" transform="translate(0.321 16.926)" fill="#fff"/>
    <path id="Path_7748" data-name="Path 7748" d="M5.358,28.6V16.43h2.58V26.467h4.933V28.6Z" transform="translate(5.519 16.926)" fill="#fff"/>
    <path id="Path_7749" data-name="Path 7749" d="M17.451,28.6H10.445V16.43h7.006v2.113H13.023v2.672h4.119v2.113H13.023v3.139h4.428Z" transform="translate(10.76 16.926)" fill="#fff"/>
    <g id="Group_3695" data-name="Group 3695" transform="translate(0 0)">
      <g id="Group_3694" data-name="Group 3694" clip-path="url(#clip-path)">
        <path id="Path_7750" data-name="Path 7750" d="M20.933,18.491a2.631,2.631,0,0,0-2.256,1.094,5.093,5.093,0,0,0-.8,3.049q0,4.072,3.053,4.071a9.631,9.631,0,0,0,3.1-.642v2.164a8.619,8.619,0,0,1-3.346.623,5.1,5.1,0,0,1-4.06-1.61,6.818,6.818,0,0,1-1.407-4.623,7.535,7.535,0,0,1,.69-3.323A5.007,5.007,0,0,1,17.9,17.1a5.873,5.873,0,0,1,3.033-.761,8.168,8.168,0,0,1,3.561.859l-.832,2.1a13.4,13.4,0,0,0-1.372-.566,4.106,4.106,0,0,0-1.356-.242" transform="translate(15.684 16.836)" fill="#fff"/>
        <path id="Path_7751" data-name="Path 7751" d="M26.481,28.6H23.9V18.578H20.6V16.43h9.187v2.148h-3.3Z" transform="translate(21.22 16.926)" fill="#fff"/>
        <path id="Path_7752" data-name="Path 7752" d="M28.969,23.928V28.6h-2.58V16.43h3.545a6.076,6.076,0,0,1,3.671.9,3.224,3.224,0,0,1,1.19,2.743,3.229,3.229,0,0,1-.591,1.91,3.909,3.909,0,0,1-1.673,1.309q2.747,4.105,3.579,5.3H33.247l-2.905-4.669Zm0-2.1H29.8a3.176,3.176,0,0,0,1.8-.408,1.451,1.451,0,0,0,.583-1.281,1.332,1.332,0,0,0-.595-1.232,3.615,3.615,0,0,0-1.843-.365h-.782Z" transform="translate(27.186 16.926)" fill="#fff"/>
        <path id="Path_7753" data-name="Path 7753" d="M43.593,22.594a6.6,6.6,0,0,1-1.5,4.643A5.553,5.553,0,0,1,37.8,28.861a5.553,5.553,0,0,1-4.294-1.624,6.626,6.626,0,0,1-1.5-4.659,6.528,6.528,0,0,1,1.5-4.639,5.616,5.616,0,0,1,4.306-1.6,5.541,5.541,0,0,1,4.29,1.616,6.614,6.614,0,0,1,1.486,4.643m-8.88,0a5.086,5.086,0,0,0,.774,3.072A2.712,2.712,0,0,0,37.8,26.7q3.088,0,3.088-4.1t-3.072-4.111a2.728,2.728,0,0,0-2.323,1.035,5.067,5.067,0,0,0-.782,3.076" transform="translate(32.976 16.828)" fill="#fff"/>
        <path id="Path_7754" data-name="Path 7754" d="M50.095,28.6H46.816l-5.293-9.2h-.075q.158,2.439.158,3.48V28.6H39.3V16.43h3.252l5.285,9.114H47.9q-.125-2.372-.126-3.354V16.43h2.323Z" transform="translate(40.489 16.926)" fill="#fff"/>
        <rect id="Rectangle_2273" data-name="Rectangle 2273" width="2.58" height="12.167" transform="translate(94.344 33.356)" fill="#fff"/>
        <path id="Path_7755" data-name="Path 7755" d="M55.036,18.491a2.633,2.633,0,0,0-2.256,1.094,5.093,5.093,0,0,0-.8,3.049q0,4.072,3.053,4.071a9.621,9.621,0,0,0,3.1-.642v2.164a8.619,8.619,0,0,1-3.346.623,5.1,5.1,0,0,1-4.06-1.61,6.818,6.818,0,0,1-1.407-4.623,7.535,7.535,0,0,1,.69-3.323A5.007,5.007,0,0,1,52,17.1a5.872,5.872,0,0,1,3.033-.761A8.168,8.168,0,0,1,58.6,17.2l-.832,2.1a13.4,13.4,0,0,0-1.372-.566,4.106,4.106,0,0,0-1.356-.242" transform="translate(50.817 16.836)" fill="#fff"/>
        <path id="Path_7756" data-name="Path 7756" d="M62.849,25.307a3.149,3.149,0,0,1-1.186,2.6,5.159,5.159,0,0,1-3.3.948,7.726,7.726,0,0,1-3.445-.733v-2.4A14.287,14.287,0,0,0,57,26.5a6.16,6.16,0,0,0,1.561.225,2.208,2.208,0,0,0,1.3-.325,1.112,1.112,0,0,0,.455-.966,1.074,1.074,0,0,0-.2-.635,2.189,2.189,0,0,0-.589-.536,15.1,15.1,0,0,0-1.575-.824,7.459,7.459,0,0,1-1.673-1.007,3.779,3.779,0,0,1-.891-1.125,3.207,3.207,0,0,1-.333-1.5,3.149,3.149,0,0,1,1.094-2.54,4.553,4.553,0,0,1,3.025-.924,7.127,7.127,0,0,1,1.811.225,12.7,12.7,0,0,1,1.8.631l-.832,2.006a12.144,12.144,0,0,0-1.61-.556,5.179,5.179,0,0,0-1.253-.158,1.657,1.657,0,0,0-1.123.341,1.122,1.122,0,0,0-.392.891,1.1,1.1,0,0,0,.158.595,1.734,1.734,0,0,0,.5.489,15.6,15.6,0,0,0,1.636.855A6.472,6.472,0,0,1,62.216,23.3a3.187,3.187,0,0,1,.633,2.01" transform="translate(56.578 16.837)" fill="#fff"/>
        <path id="Path_7757" data-name="Path 7757" d="M7.557,28.36H.063V.2H16.707V6.306H7.557V11.68h8.438v6.1H7.557Z" transform="translate(0.065 0.205)" fill="#fff"/>
        <path id="Path_7758" data-name="Path 7758" d="M34.073.2v16.95q0,5.53-3.131,8.563t-9.024,3.033q-5.759,0-8.85-2.948T9.976,17.324V.2h7.646V16.725a6.765,6.765,0,0,0,1.119,4.335,4.025,4.025,0,0,0,3.293,1.348,4.033,4.033,0,0,0,3.38-1.338,7.166,7.166,0,0,0,1.05-4.381V.2Z" transform="translate(10.277 0.204)" fill="#fff"/>
        <path id="Path_7759" data-name="Path 7759" d="M37.34,6.241A4.847,4.847,0,0,0,33.1,8.466,10.737,10.737,0,0,0,31.58,14.6q0,8.128,6.184,8.129a12.639,12.639,0,0,0,3.62-.522,35.955,35.955,0,0,0,3.526-1.251v6.434a19.524,19.524,0,0,1-7.975,1.559q-6.377,0-9.775-3.7t-3.4-10.689a17.053,17.053,0,0,1,1.647-7.686,11.784,11.784,0,0,1,4.739-5.094A14.312,14.312,0,0,1,37.417,0a20.044,20.044,0,0,1,8.726,1.984L43.812,7.975a26.167,26.167,0,0,0-3.12-1.232,10.873,10.873,0,0,0-3.352-.5" transform="translate(24.478 -0.001)" fill="#fff"/>
        <path id="Path_7760" data-name="Path 7760" d="M60.531,28.36H52.883V16.88H44.042V28.36H36.4V.2h7.646V10.639h8.842V.2h7.648Z" transform="translate(37.496 0.205)" fill="#fff"/>
        <path id="Path_7761" data-name="Path 7761" d="M69.876,20.014a8.3,8.3,0,0,1-1.33,4.651,8.692,8.692,0,0,1-3.833,3.159,14.206,14.206,0,0,1-5.873,1.127,23.88,23.88,0,0,1-4.72-.394,17.491,17.491,0,0,1-3.967-1.379V20.4a22.508,22.508,0,0,0,4.525,1.742,16.836,16.836,0,0,0,4.314.627,4.187,4.187,0,0,0,2.485-.589,1.8,1.8,0,0,0,.79-1.51,1.675,1.675,0,0,0-.317-1.013,3.711,3.711,0,0,0-1.021-.875q-.7-.445-3.746-1.811a17.914,17.914,0,0,1-4.131-2.428,7.41,7.41,0,0,1-2.042-2.7,8.918,8.918,0,0,1-.666-3.6,7.219,7.219,0,0,1,2.832-6.068Q56.007,0,60.957,0a21.843,21.843,0,0,1,8.919,2.022L67.545,7.9a16.91,16.91,0,0,0-6.819-1.811,3.543,3.543,0,0,0-2.156.522A1.566,1.566,0,0,0,57.9,7.9a1.861,1.861,0,0,0,.857,1.484A32.6,32.6,0,0,0,63.4,11.769a12.866,12.866,0,0,1,5.057,3.516,7.629,7.629,0,0,1,1.415,4.728" transform="translate(51.667 -0.001)" fill="#fff"/>
        <path id="Path_7762" data-name="Path 7762" d="M124.172,22.708a3.818,3.818,0,0,0-3.76,3.151H.5V27.2H120.412a3.82,3.82,0,1,0,3.76-4.491" transform="translate(0.516 23.393)" fill="#fff"/>
        <line id="Line_203" data-name="Line 203" x2="120.688" transform="translate(0 14.644)" fill="#fff"/>
        <line id="Line_204" data-name="Line 204" x2="120.688" transform="translate(0 14.644)" fill="none" stroke="#379a9c" stroke-miterlimit="10" stroke-width="0.65"/>
      </g>
    </g>
  </g>
</svg>
