<svg id="Group_3699" data-name="Group 3699" xmlns="http://www.w3.org/2000/svg" xmlns:xlink="http://www.w3.org/1999/xlink" width="141.004" height="31.643" viewBox="0 0 141.004 31.643">
  <defs>
    <clipPath id="clip-path">
      <rect id="Rectangle_2276" data-name="Rectangle 2276" width="141.004" height="31.643" fill="none"/>
    </clipPath>
  </defs>
  <path id="Path_7763" data-name="Path 7763" d="M44.929,8.513l-9.37,14.06L26.2,8.513h-3.23V24.578h2.009V9.85l9.685,14.728h2.031l9.538-14.507V24.578h2.009V8.513Z" transform="translate(18.159 6.73)" fill="#fff"/>
  <path id="Path_7764" data-name="Path 7764" d="M57.219,8.513V22.571L42.492,8.513H38.968V24.578h2.007V10.185L56.55,24.578h2.677V8.513Z" transform="translate(30.808 6.73)" fill="#fff"/>
  <rect id="Rectangle_2275" data-name="Rectangle 2275" width="2.007" height="16.065" transform="translate(93.41 15.243)" fill="#fff"/>
  <g id="Group_3698" data-name="Group 3698" transform="translate(0 0)">
    <g id="Group_3697" data-name="Group 3697" clip-path="url(#clip-path)">
      <path id="Path_7765" data-name="Path 7765" d="M72.884,13.681a5.887,5.887,0,0,0-.272-1.988,2.1,2.1,0,0,0-.9-1.108A4.011,4.011,0,0,0,70.06,10.1q-1.026-.1-2.532-.1H62.151q-1.338,0-2.253.079a5.244,5.244,0,0,0-1.511.319,2.036,2.036,0,0,0-.922.689A3.043,3.043,0,0,0,57,12.279a10.647,10.647,0,0,0-.168,1.826q-.021,1.082-.021,2.587t.027,2.589a11.2,11.2,0,0,0,.172,1.826,3.1,3.1,0,0,0,.466,1.193,2.013,2.013,0,0,0,.917.689,5.244,5.244,0,0,0,1.511.319q.913.078,2.253.079h5.388q1.171,0,2.018-.063A7.267,7.267,0,0,0,71,23.094a2.683,2.683,0,0,0,.963-.46,2,2,0,0,0,.569-.736,3.543,3.543,0,0,0,.278-1.067,12.8,12.8,0,0,0,.073-1.459v-1H64.83V16.692H74.893v2.679a12.068,12.068,0,0,1-.125,1.814,4.847,4.847,0,0,1-.446,1.445,3.522,3.522,0,0,1-.852,1.092,4.353,4.353,0,0,1-1.348.759,9.1,9.1,0,0,1-1.946.439,21.739,21.739,0,0,1-2.636.141H62.151a18,18,0,0,1-3.1-.226,6.673,6.673,0,0,1-2.075-.68,3.451,3.451,0,0,1-1.261-1.144,4.889,4.889,0,0,1-.648-1.622,11.3,11.3,0,0,1-.236-2.1q-.03-1.171-.03-2.595t.03-2.593a11.341,11.341,0,0,1,.236-2.1,4.895,4.895,0,0,1,.648-1.62,3.471,3.471,0,0,1,1.261-1.146,6.674,6.674,0,0,1,2.075-.679,18,18,0,0,1,3.1-.226h5.377a21.36,21.36,0,0,1,2.636.141,9.476,9.476,0,0,1,1.946.428,4.541,4.541,0,0,1,1.354.727,3.4,3.4,0,0,1,.858,1.037,4.362,4.362,0,0,1,.446,1.348,10.383,10.383,0,0,1,.125,1.674Z" transform="translate(43.324 6.582)" fill="#fff"/>
      <path id="Path_7766" data-name="Path 7766" d="M80.556,8.325a17.985,17.985,0,0,1,3.1.226,6.686,6.686,0,0,1,2.077.679,3.453,3.453,0,0,1,1.255,1.146A5.007,5.007,0,0,1,87.632,12a11.48,11.48,0,0,1,.24,2.1q.038,1.171.038,2.593t-.038,2.595a11.441,11.441,0,0,1-.24,2.1,5,5,0,0,1-.643,1.622,3.434,3.434,0,0,1-1.255,1.144,6.685,6.685,0,0,1-2.077.68,17.985,17.985,0,0,1-3.1.226H74.511a18.008,18.008,0,0,1-3.1-.226,6.673,6.673,0,0,1-2.075-.68,3.452,3.452,0,0,1-1.261-1.144,4.89,4.89,0,0,1-.648-1.622,11.3,11.3,0,0,1-.236-2.1q-.03-1.171-.03-2.595t.03-2.593a11.342,11.342,0,0,1,.236-2.1,4.9,4.9,0,0,1,.648-1.62,3.471,3.471,0,0,1,1.261-1.146,6.674,6.674,0,0,1,2.075-.679,18.007,18.007,0,0,1,3.1-.226Zm0,15.062q1.33,0,2.244-.079a5.257,5.257,0,0,0,1.511-.319,2.053,2.053,0,0,0,.92-.689,3.043,3.043,0,0,0,.471-1.193,10.81,10.81,0,0,0,.172-1.826q.027-1.082.027-2.589t-.027-2.587a10.791,10.791,0,0,0-.172-1.826,3.043,3.043,0,0,0-.471-1.193,2.043,2.043,0,0,0-.915-.689,5.19,5.19,0,0,0-1.506-.319Q81.894,10,80.556,10H74.511q-1.34,0-2.254.079a5.257,5.257,0,0,0-1.511.319,2.03,2.03,0,0,0-.92.689,3.017,3.017,0,0,0-.471,1.193,10.647,10.647,0,0,0-.168,1.826q-.021,1.082-.021,2.587t.027,2.589a10.978,10.978,0,0,0,.174,1.826,3.1,3.1,0,0,0,.464,1.193,2.022,2.022,0,0,0,.917.689,5.257,5.257,0,0,0,1.511.319q.913.078,2.254.079Z" transform="translate(53.094 6.582)" fill="#fff"/>
      <path id="Path_7767" data-name="Path 7767" d="M28.624,2.38a7.809,7.809,0,0,1,7.8,7.8V21.122a7.808,7.808,0,0,1-7.8,7.8H10.181a7.81,7.81,0,0,1-7.8-7.8V10.181a7.81,7.81,0,0,1,7.8-7.8Zm0-2.38H10.181A10.211,10.211,0,0,0,0,10.181V21.122A10.21,10.21,0,0,0,10.181,31.3H28.624a10.21,10.21,0,0,0,10.181-10.18V10.181A10.211,10.211,0,0,0,28.624,0" transform="translate(0 0)" fill="#fff"/>
      <path id="Path_7768" data-name="Path 7768" d="M18.686,3.81a.482.482,0,0,0,.362.127c.158,0,.251-.057.206-.127a.482.482,0,0,0-.362-.127c-.156,0-.249.057-.206.127" transform="translate(14.764 2.912)" fill="#fff"/>
      <path id="Path_7769" data-name="Path 7769" d="M10.326,10.263c-.2,0-.351.095-.331.213s.2.215.406.215.353-.1.331-.215-.2-.213-.406-.213" transform="translate(7.9 8.114)" fill="#fff"/>
      <path id="Path_7770" data-name="Path 7770" d="M18.023,12.871c.218,0,.351-.111.3-.247a.556.556,0,0,0-.5-.245c-.217,0-.349.109-.3.245a.555.555,0,0,0,.5.247" transform="translate(13.848 9.787)" fill="#fff"/>
      <path id="Path_7771" data-name="Path 7771" d="M18.008,3.424c.154,0,.247-.054.208-.122a.461.461,0,0,0-.349-.12c-.152,0-.245.054-.208.12a.454.454,0,0,0,.349.122" transform="translate(13.954 2.516)" fill="#fff"/>
      <path id="Path_7772" data-name="Path 7772" d="M8.911,10.12c-.2,0-.355.095-.34.211s.19.211.394.211.355-.095.34-.211-.192-.211-.394-.211" transform="translate(6.775 8.001)" fill="#fff"/>
      <path id="Path_7773" data-name="Path 7773" d="M17.332,5.413c-.168,0-.272.066-.233.147a.464.464,0,0,0,.381.149c.17,0,.274-.066.231-.149a.468.468,0,0,0-.38-.147" transform="translate(13.512 4.279)" fill="#fff"/>
      <path id="Path_7774" data-name="Path 7774" d="M18.482,5.427c-.168,0-.27.066-.226.147a.486.486,0,0,0,.389.149c.17,0,.27-.066.226-.149a.5.5,0,0,0-.389-.147" transform="translate(14.425 4.291)" fill="#fff"/>
      <path id="Path_7775" data-name="Path 7775" d="M18.92,3.43c.154,0,.244-.056.2-.122a.479.479,0,0,0-.353-.12c-.154,0-.244.054-.2.12a.473.473,0,0,0,.353.122" transform="translate(14.671 2.52)" fill="#fff"/>
      <path id="Path_7776" data-name="Path 7776" d="M8.617,7.9c-.186,0-.328.081-.315.179s.174.181.36.181.329-.081.315-.181S8.8,7.9,8.617,7.9" transform="translate(6.563 6.242)" fill="#fff"/>
      <path id="Path_7777" data-name="Path 7777" d="M17.077,5.067c-.167,0-.27.064-.233.143a.467.467,0,0,0,.376.143c.165,0,.269-.064.231-.143a.468.468,0,0,0-.374-.143" transform="translate(13.311 4.006)" fill="#fff"/>
      <path id="Path_7778" data-name="Path 7778" d="M15.367,6.618c.175,0,.29-.072.254-.159S15.414,6.3,15.24,6.3s-.288.07-.254.158.206.159.381.159" transform="translate(11.843 4.982)" fill="#fff"/>
      <path id="Path_7779" data-name="Path 7779" d="M3.149,11.38c.209,0,.385-.1.394-.226s-.154-.222-.362-.222-.383.1-.394.222.152.226.362.226" transform="translate(2.203 8.643)" fill="#fff"/>
      <path id="Path_7780" data-name="Path 7780" d="M18.891,13.539c.224,0,.356-.116.3-.258a.585.585,0,0,0-.514-.256c-.222,0-.355.115-.3.256a.582.582,0,0,0,.514.258" transform="translate(14.518 10.297)" fill="#fff"/>
      <path id="Path_7781" data-name="Path 7781" d="M1.686,10.543c.2,0,.38-.095.394-.213s-.14-.209-.34-.209-.378.093-.394.209.138.213.34.213" transform="translate(1.063 8.001)" fill="#fff"/>
      <path id="Path_7782" data-name="Path 7782" d="M7.192,7.365c-.183,0-.326.077-.319.172s.161.174.344.174.326-.079.319-.174-.161-.172-.344-.172" transform="translate(5.434 5.823)" fill="#fff"/>
      <path id="Path_7783" data-name="Path 7783" d="M7.869,11.154c-.011-.124-.186-.222-.394-.222s-.369.1-.36.222.184.226.394.226.371-.1.36-.226" transform="translate(5.625 8.643)" fill="#fff"/>
      <path id="Path_7784" data-name="Path 7784" d="M14.285,2.5c.027.063.17.113.317.113s.245-.05.218-.113-.17-.113-.317-.113-.245.05-.218.113" transform="translate(11.29 1.891)" fill="#fff"/>
      <path id="Path_7785" data-name="Path 7785" d="M9.1,15.412c.236,0,.414-.131.4-.288s-.226-.286-.46-.286-.412.127-.4.286.224.288.46.288" transform="translate(6.832 11.73)" fill="#fff"/>
      <path id="Path_7786" data-name="Path 7786" d="M16.414,11.788a.524.524,0,0,0,.475.235c.213,0,.346-.106.3-.235a.524.524,0,0,0-.473-.233c-.211,0-.346.1-.3.233" transform="translate(12.969 9.135)" fill="#fff"/>
      <path id="Path_7787" data-name="Path 7787" d="M18.892,10.283a.539.539,0,0,0-.462-.209c-.2,0-.322.093-.27.209a.538.538,0,0,0,.464.211c.2,0,.322-.095.269-.211" transform="translate(14.347 7.964)" fill="#fff"/>
      <path id="Path_7788" data-name="Path 7788" d="M20.321,5.482a.521.521,0,0,0-.4-.147c-.167,0-.263.066-.215.147a.518.518,0,0,0,.4.147c.168,0,.265-.066.215-.147" transform="translate(15.573 4.218)" fill="#fff"/>
      <path id="Path_7789" data-name="Path 7789" d="M20.5,7.024a.539.539,0,0,0-.421-.165c-.179,0-.281.073-.229.165a.538.538,0,0,0,.423.167c.179,0,.281-.075.227-.167" transform="translate(15.687 5.423)" fill="#fff"/>
      <path id="Path_7790" data-name="Path 7790" d="M1.645,8.075c-.013.1.129.181.315.181s.349-.081.362-.181S2.191,7.9,2.005,7.9s-.347.081-.36.179" transform="translate(1.3 6.243)" fill="#fff"/>
      <path id="Path_7791" data-name="Path 7791" d="M20.413,5.9a.506.506,0,0,0,.356.15c-.005-.1-.011-.193-.02-.29a.684.684,0,0,0-.122-.011c-.17,0-.267.066-.215.15" transform="translate(16.127 4.547)" fill="#fff"/>
      <path id="Path_7792" data-name="Path 7792" d="M20.309,5.454a.533.533,0,0,0,.4.147c.025,0,.047,0,.068,0-.011-.086-.023-.17-.038-.254a.725.725,0,0,0-.218-.034c-.167,0-.261.064-.211.145" transform="translate(16.046 4.197)" fill="#fff"/>
      <path id="Path_7793" data-name="Path 7793" d="M14.792,16.175c.242,0,.4-.136.355-.3a.54.54,0,0,0-.519-.3c-.24,0-.4.134-.355.3a.536.536,0,0,0,.519.3" transform="translate(11.278 12.312)" fill="#fff"/>
      <path id="Path_7794" data-name="Path 7794" d="M17.229,16.816a9.147,9.147,0,0,0,1.542-.732h-.748Z" transform="translate(13.621 12.716)" fill="#fff"/>
      <path id="Path_7795" data-name="Path 7795" d="M3.081,7.537c-.007.095.136.174.319.174s.338-.079.344-.174-.136-.172-.319-.172-.337.077-.344.172" transform="translate(2.436 5.823)" fill="#fff"/>
      <path id="Path_7796" data-name="Path 7796" d="M14.645,3.454c-.029-.068-.177-.122-.329-.122s-.258.054-.229.122.175.124.329.124.258-.056.229-.124" transform="translate(11.133 2.634)" fill="#fff"/>
      <path id="Path_7797" data-name="Path 7797" d="M15.319,5.186c.167,0,.274-.064.24-.141s-.2-.141-.36-.141-.272.063-.24.141.193.141.36.141" transform="translate(11.822 3.876)" fill="#fff"/>
      <path id="Path_7798" data-name="Path 7798" d="M8.5,3.02c.011.064.141.118.294.118s.265-.054.254-.118S8.9,2.9,8.753,2.9s-.265.054-.254.118" transform="translate(6.718 2.294)" fill="#fff"/>
      <path id="Path_7799" data-name="Path 7799" d="M10.08,7.939c-.186,0-.324.081-.306.179s.184.183.371.183.326-.082.306-.183-.184-.179-.371-.179" transform="translate(7.726 6.277)" fill="#fff"/>
      <path id="Path_7800" data-name="Path 7800" d="M3.93,5.613c.005-.082-.127-.147-.3-.147s-.31.064-.317.147.127.149.3.149.312-.066.317-.149" transform="translate(2.622 4.321)" fill="#fff"/>
      <path id="Path_7801" data-name="Path 7801" d="M13.4,3.545c.025.068.174.124.328.124s.26-.056.235-.124-.174-.124-.329-.124-.258.056-.233.124" transform="translate(10.595 2.705)" fill="#fff"/>
      <path id="Path_7802" data-name="Path 7802" d="M13.538,4.318c.027.073.179.133.34.133s.269-.059.24-.133-.179-.133-.338-.133-.269.059-.242.133" transform="translate(10.7 3.309)" fill="#fff"/>
      <path id="Path_7803" data-name="Path 7803" d="M19.242,14.363c.229,0,.363-.122.3-.272a.6.6,0,0,0-.528-.269c-.227,0-.362.12-.3.269a.6.6,0,0,0,.53.272" transform="translate(14.782 10.928)" fill="#fff"/>
      <path id="Path_7804" data-name="Path 7804" d="M9.694,3.2c.014.066.15.12.3.12s.265-.054.251-.12-.15-.12-.3-.12-.265.054-.251.12" transform="translate(7.663 2.437)" fill="#fff"/>
      <path id="Path_7805" data-name="Path 7805" d="M11.28,4.122c.158,0,.272-.057.252-.129s-.163-.129-.321-.129-.27.057-.252.129.163.129.321.129" transform="translate(8.663 3.055)" fill="#fff"/>
      <path id="Path_7806" data-name="Path 7806" d="M15.3,7.024c-.036-.091-.209-.165-.389-.165s-.3.073-.261.165.209.167.389.167.3-.075.261-.167" transform="translate(11.576 5.423)" fill="#fff"/>
      <path id="Path_7807" data-name="Path 7807" d="M12.765,10.5c-.2,0-.346.1-.315.217s.222.218.426.218.347-.1.317-.218-.224-.217-.428-.217" transform="translate(9.839 8.297)" fill="#fff"/>
      <path id="Path_7808" data-name="Path 7808" d="M11.119,4.712c.02.075.168.138.331.138s.281-.063.26-.138-.168-.136-.331-.136-.279.061-.26.136" transform="translate(8.789 3.618)" fill="#fff"/>
      <path id="Path_7809" data-name="Path 7809" d="M7.5,5.064c.005.079.147.141.313.141s.294-.063.285-.141-.149-.141-.313-.141-.292.063-.285.141" transform="translate(5.93 3.892)" fill="#fff"/>
      <path id="Path_7810" data-name="Path 7810" d="M16.9,8.075a.487.487,0,0,0,.419.181c.188,0,.3-.081.258-.181a.494.494,0,0,0-.419-.179c-.186,0-.3.081-.258.179" transform="translate(13.358 6.243)" fill="#fff"/>
      <path id="Path_7811" data-name="Path 7811" d="M12,7.586c-.184,0-.313.079-.29.175s.2.175.38.175.315-.079.29-.175-.2-.175-.38-.175" transform="translate(9.259 5.997)" fill="#fff"/>
      <path id="Path_7812" data-name="Path 7812" d="M15.284,5.728c.17,0,.279-.066.245-.149s-.2-.147-.367-.147-.279.066-.245.147.2.149.367.149" transform="translate(11.788 4.295)" fill="#fff"/>
      <path id="Path_7813" data-name="Path 7813" d="M20.36,6.438a.528.528,0,0,0-.412-.158c-.174,0-.274.07-.224.158a.528.528,0,0,0,.412.159c.175,0,.276-.072.224-.159" transform="translate(15.584 4.965)" fill="#fff"/>
      <path id="Path_7814" data-name="Path 7814" d="M10.166,2.393c.013.061.147.111.292.111s.254-.05.24-.111-.149-.111-.3-.111-.252.05-.236.111" transform="translate(8.036 1.804)" fill="#fff"/>
      <path id="Path_7815" data-name="Path 7815" d="M11.353,2.162c-.145,0-.249.048-.233.109s.15.111.3.111.251-.05.233-.111-.152-.109-.3-.109" transform="translate(8.79 1.709)" fill="#fff"/>
      <path id="Path_7816" data-name="Path 7816" d="M3.044,13.818c-.227,0-.423.12-.433.269s.165.272.394.272.424-.122.435-.272-.168-.269-.4-.269" transform="translate(2.063 10.924)" fill="#fff"/>
      <path id="Path_7817" data-name="Path 7817" d="M13.693,2.53c.025.063.167.113.315.113s.247-.05.22-.113-.167-.113-.313-.113-.247.05-.222.113" transform="translate(10.822 1.911)" fill="#fff"/>
      <path id="Path_7818" data-name="Path 7818" d="M15.774,6.293c.174,0,.285-.07.247-.156a.442.442,0,0,0-.378-.154c-.172,0-.285.07-.249.154s.206.156.38.156" transform="translate(12.165 4.73)" fill="#fff"/>
      <path id="Path_7819" data-name="Path 7819" d="M16.866,17.116q.33-.094.65-.21l.793-.732h.748c.111-.066.218-.134.326-.2H18.116Z" transform="translate(13.334 12.626)" fill="#fff"/>
      <path id="Path_7820" data-name="Path 7820" d="M17.057,14.5h4.262l1.364.707a.332.332,0,0,1,.141-.134l-1.466-.757H16.869l-1.563,1.554.865,2.872c.1-.005.2-.013.294-.021l-.851-2.777Z" transform="translate(12.101 11.321)" fill="#fff"/>
      <path id="Path_7821" data-name="Path 7821" d="M19.441,14.819a.285.285,0,0,0-.014.24c.068-.081.133-.161.2-.244l-.066.063Z" transform="translate(15.343 11.713)" fill="#fff"/>
      <path id="Path_7822" data-name="Path 7822" d="M19.606,14.822c.029-.039.059-.077.088-.116a.6.6,0,0,0-.188.064Z" transform="translate(15.421 11.626)" fill="#fff"/>
      <path id="Path_7823" data-name="Path 7823" d="M19.426,14.876l.116.059.066-.063c.02-.025.041-.052.061-.079l-.1-.052a.366.366,0,0,0-.141.134" transform="translate(15.358 11.655)" fill="#fff"/>
      <path id="Path_7824" data-name="Path 7824" d="M19.426,14.876l.116.059.066-.063c.02-.025.041-.052.061-.079l-.1-.052a.366.366,0,0,0-.141.134" transform="translate(15.358 11.655)" fill="#fff"/>
      <path id="Path_7825" data-name="Path 7825" d="M14.735,15.942,13.711,17.48h.356l.944-1.429a1.108,1.108,0,0,1-.276-.109" transform="translate(10.84 12.604)" fill="#fff"/>
      <path id="Path_7826" data-name="Path 7826" d="M14.753,16.354l-.05.077a1.163,1.163,0,0,0,.276.034c.4,0,.668-.227.589-.5a.9.9,0,0,0-.863-.5c-.4,0-.664.22-.593.5a.625.625,0,0,0,.315.36l.05-.075Zm.005-.693a.54.54,0,0,1,.519.3c.047.167-.113.3-.355.3a.533.533,0,0,1-.519-.3c-.045-.165.115-.3.355-.3" transform="translate(11.148 12.226)" fill="#fff"/>
      <path id="Path_7827" data-name="Path 7827" d="M14.609,16.009l-.276-.109-.05.075a1.046,1.046,0,0,0,.276.111Z" transform="translate(11.292 12.57)" fill="#fff"/>
      <path id="Path_7828" data-name="Path 7828" d="M14.609,16.009l-.276-.109-.05.075a1.046,1.046,0,0,0,.276.111Z" transform="translate(11.292 12.57)" fill="#fff"/>
      <path id="Path_7829" data-name="Path 7829" d="M7.778,11.384,2.836,8.952l.235-1.927L7.82,4.83l.023-3.669c-.056.013-.113.027-.168.041L7.635,4.8,2.881,6.989,2.627,8.995,7.562,11.43l-.095,8.681L1.488,23.644c.027.063.056.124.082.184l6.152-3.651Z" transform="translate(1.176 0.918)" fill="#fff"/>
      <path id="Path_7830" data-name="Path 7830" d="M10.794,15.121l-5.1,2.965c.14.013.279.023.421.03l4.878-2.845a.7.7,0,0,1-.2-.15" transform="translate(4.499 11.955)" fill="#fff"/>
      <path id="Path_7831" data-name="Path 7831" d="M8.879,15.524l-.095.056a1.022,1.022,0,0,0,.467.109c.4,0,.691-.217.659-.482s-.376-.476-.766-.476-.686.213-.659.476a.387.387,0,0,0,.1.222l.093-.054Zm.286-.6c.235,0,.44.127.46.286s-.159.288-.4.288-.444-.129-.46-.288.161-.286.4-.286" transform="translate(6.707 11.646)" fill="#fff"/>
      <path id="Path_7832" data-name="Path 7832" d="M8.737,15.3l.095-.056-.2-.149-.093.054a.674.674,0,0,0,.2.15" transform="translate(6.753 11.931)" fill="#fff"/>
      <path id="Path_7833" data-name="Path 7833" d="M8.737,15.3l.095-.056-.2-.149-.093.054a.674.674,0,0,0,.2.15" transform="translate(6.753 11.931)" fill="#fff"/>
      <path id="Path_7834" data-name="Path 7834" d="M18.5,10.392a.981.981,0,0,1-.125-.007l2.974,6.5c.048-.095.1-.192.143-.288l-2.872-6.213a.848.848,0,0,1-.12.007" transform="translate(14.53 8.21)" fill="#fff"/>
      <path id="Path_7835" data-name="Path 7835" d="M18.89,10.628l.029.064c.265-.034.408-.177.328-.347a.9.9,0,0,0-.77-.349c-.335,0-.537.156-.449.349a.83.83,0,0,0,.646.347l-.029-.064Zm-.62-.283c-.052-.116.068-.209.27-.209a.539.539,0,0,1,.462.209c.054.116-.066.211-.269.211a.538.538,0,0,1-.464-.211" transform="translate(14.236 7.903)" fill="#fff"/>
      <path id="Path_7836" data-name="Path 7836" d="M18.638,10.413l-.03-.064h-.245l.03.064a.981.981,0,0,0,.125.007.848.848,0,0,0,.12-.007" transform="translate(14.517 8.182)" fill="#fff"/>
      <path id="Path_7837" data-name="Path 7837" d="M18.638,10.413l-.03-.064h-.245l.03.064a.981.981,0,0,0,.125.007.848.848,0,0,0,.12-.007" transform="translate(14.517 8.182)" fill="#fff"/>
      <path id="Path_7838" data-name="Path 7838" d="M18.83,10.6l2.518,5.361c.043-.106.084-.211.122-.317l-2.322-4.9H21.2l.82.444v-.172l-.775-.417Z" transform="translate(14.887 8.38)" fill="#fff"/>
      <path id="Path_7839" data-name="Path 7839" d="M20.345,10.972l-.781-.347.544-.346-.79-1.492,1.389-1.665a1.189,1.189,0,0,1-.213-.066L19.074,8.748l.772,1.472-.627.4.919.408L21,12.68l.825.41v-.161l-.609-.3Z" transform="translate(15.08 5.578)" fill="#fff"/>
      <path id="Path_7840" data-name="Path 7840" d="M20.236,7.286l-.034.039a1.2,1.2,0,0,0,.24.025c.3,0,.471-.125.38-.278a.9.9,0,0,0-.7-.276c-.3,0-.467.124-.381.276a.53.53,0,0,0,.251.188l.034-.041Zm-.281-.213c-.052-.091.05-.165.229-.165a.539.539,0,0,1,.421.165c.054.091-.048.167-.227.167a.538.538,0,0,1-.423-.167" transform="translate(15.587 5.374)" fill="#fff"/>
      <path id="Path_7841" data-name="Path 7841" d="M20.115,7.1,19.9,7.033l-.034.041a1.236,1.236,0,0,0,.213.066Z" transform="translate(15.708 5.56)" fill="#fff"/>
      <path id="Path_7842" data-name="Path 7842" d="M20.115,7.1,19.9,7.033l-.034.041a1.236,1.236,0,0,0,.213.066Z" transform="translate(15.708 5.56)" fill="#fff"/>
      <path id="Path_7843" data-name="Path 7843" d="M20.747,9.25V8.9l-.308.217Z" transform="translate(16.159 7.04)" fill="#fff"/>
      <path id="Path_7844" data-name="Path 7844" d="M20.007,5.556a1.044,1.044,0,0,1-.106-.005l1.271,2.074V7.277L20.107,5.551a.892.892,0,0,1-.1.005" transform="translate(15.734 4.389)" fill="#fff"/>
      <path id="Path_7845" data-name="Path 7845" d="M20.333,5.721l.027.043c.22-.021.333-.122.26-.24a.869.869,0,0,0-.659-.244c-.279,0-.44.109-.36.244a.783.783,0,0,0,.555.24l-.027-.043Zm-.528-.2c-.048-.081.048-.147.215-.147a.521.521,0,0,1,.4.147c.05.081-.047.147-.215.147a.518.518,0,0,1-.4-.147" transform="translate(15.479 4.175)" fill="#fff"/>
      <path id="Path_7846" data-name="Path 7846" d="M20.118,5.571l-.027-.045h-.2l.027.045a1.009,1.009,0,0,0,.1.005.87.87,0,0,0,.1-.005" transform="translate(15.723 4.369)" fill="#fff"/>
      <path id="Path_7847" data-name="Path 7847" d="M20.118,5.571l-.027-.045h-.2l.027.045a1.009,1.009,0,0,0,.1.005.87.87,0,0,0,.1-.005" transform="translate(15.723 4.369)" fill="#fff"/>
      <path id="Path_7848" data-name="Path 7848" d="M20.3,5.946a.818.818,0,0,0,.566.249c0-.034,0-.066,0-.1a.5.5,0,0,1-.355-.15c-.054-.084.043-.15.215-.15a.7.7,0,0,1,.122.011c0-.032-.005-.064-.007-.1a1.2,1.2,0,0,0-.179-.013c-.283,0-.444.111-.358.251" transform="translate(16.032 4.502)" fill="#fff"/>
      <path id="Path_7849" data-name="Path 7849" d="M19.882,5.492h.682l-.455-.711.636-.535c-.023-.05-.047-.1-.072-.15l-.779.654.414.652h-.286l-.448-.711.972-.845c-.025-.048-.052-.1-.079-.145l-1.107.96Z" transform="translate(15.307 2.925)" fill="#fff"/>
      <path id="Path_7850" data-name="Path 7850" d="M19.213,5.782l.8,1.314,1.44.705a.365.365,0,0,1,.132-.056l-1.391-.679-.77-1.255L20.57,4.79,19.027,2.446q-.191-.167-.387-.322l1.723,2.638Z" transform="translate(14.737 1.679)" fill="#fff"/>
      <path id="Path_7851" data-name="Path 7851" d="M20.371,5.273l.073.036-.134.054-.072-.036a.116.116,0,0,0-.039.17.885.885,0,0,0,.666.245h.018l-.013-.1c-.021,0-.045,0-.07,0a.525.525,0,0,1-.4-.147c-.052-.081.043-.145.211-.145a.743.743,0,0,1,.218.034l-.018-.1a1.288,1.288,0,0,0-.263-.029.783.783,0,0,0-.181.018" transform="translate(15.952 4.155)" fill="#fff"/>
      <path id="Path_7852" data-name="Path 7852" d="M20.419,5.3l-.073-.036a.389.389,0,0,0-.134.054l.073.036Z" transform="translate(15.979 4.162)" fill="#fff"/>
      <path id="Path_7853" data-name="Path 7853" d="M20.419,5.3l-.073-.036a.389.389,0,0,0-.134.054l.073.036Z" transform="translate(15.979 4.162)" fill="#fff"/>
      <path id="Path_7854" data-name="Path 7854" d="M16.636,2.745l1.015,1.839.881.269a.187.187,0,0,1,.084-.061l-.8-.245-.99-1.778.417-.351L16.5,1.131,16.317,1.1l.738,1.3Z" transform="translate(12.9 0.869)" fill="#fff"/>
      <path id="Path_7855" data-name="Path 7855" d="M17.637,3.263,17.56,3.24a.086.086,0,0,0,0,.1.75.75,0,0,0,.58.2c.256,0,.412-.091.346-.2a.766.766,0,0,0-.58-.2.681.681,0,0,0-.26.043l.077.023Zm.313-.047a.459.459,0,0,1,.347.12c.039.068-.054.122-.206.122a.454.454,0,0,1-.349-.122c-.038-.066.056-.12.208-.12" transform="translate(13.87 2.479)" fill="#fff"/>
      <path id="Path_7856" data-name="Path 7856" d="M17.553,3.222l.077.023.084-.061-.077-.023a.187.187,0,0,0-.084.061" transform="translate(13.877 2.499)" fill="#fff"/>
      <path id="Path_7857" data-name="Path 7857" d="M17.553,3.222l.077.023.084-.061-.077-.023a.187.187,0,0,0-.084.061" transform="translate(13.877 2.499)" fill="#fff"/>
      <path id="Path_7858" data-name="Path 7858" d="M17.341,2.578,18.412,4.4l1.121.319a.176.176,0,0,1,.077-.063L18.573,4.36,17.527,2.6l.315-.349-.535-.883c-.072-.027-.141-.05-.213-.075l.564.938Z" transform="translate(13.514 1.021)" fill="#fff"/>
      <path id="Path_7859" data-name="Path 7859" d="M18.539,3.275l-.077-.021a.082.082,0,0,0,.005.091.786.786,0,0,0,.589.2c.256,0,.406-.091.335-.2a.783.783,0,0,0-.587-.2.628.628,0,0,0-.267.048l.079.021Zm.315-.052a.469.469,0,0,1,.353.122c.043.066-.048.12-.2.12a.476.476,0,0,1-.353-.12c-.041-.068.05-.122.2-.122" transform="translate(14.587 2.484)" fill="#fff"/>
      <path id="Path_7860" data-name="Path 7860" d="M18.456,3.232l.079.021.075-.063-.079-.021a.15.15,0,0,0-.075.063" transform="translate(14.591 2.505)" fill="#fff"/>
      <path id="Path_7861" data-name="Path 7861" d="M18.456,3.232l.079.021.075-.063-.079-.021a.15.15,0,0,0-.075.063" transform="translate(14.591 2.505)" fill="#fff"/>
      <path id="Path_7862" data-name="Path 7862" d="M19.445,5.1a1.021,1.021,0,0,1,.181.052l.571-.512-1.7-2.636c-.1-.066-.2-.133-.3-.2l1.8,2.8Z" transform="translate(14.383 1.432)" fill="#fff"/>
      <path id="Path_7863" data-name="Path 7863" d="M19.115,3.687l.034-.029a1.139,1.139,0,0,0-.222-.021c-.26,0-.414.093-.344.209a.8.8,0,0,0,.6.213c.263,0,.417-.1.344-.213a.438.438,0,0,0-.2-.138l-.034.03Zm.226.159c.043.07-.048.127-.206.127a.476.476,0,0,1-.362-.127c-.043-.07.05-.127.206-.127a.482.482,0,0,1,.362.127" transform="translate(14.679 2.875)" fill="#fff"/>
      <path id="Path_7864" data-name="Path 7864" d="M18.873,3.678l.181.052.034-.03a1.262,1.262,0,0,0-.181-.052Z" transform="translate(14.921 2.884)" fill="#fff"/>
      <path id="Path_7865" data-name="Path 7865" d="M18.873,3.678l.181.052.034-.03a1.262,1.262,0,0,0-.181-.052Z" transform="translate(14.921 2.884)" fill="#fff"/>
      <path id="Path_7866" data-name="Path 7866" d="M21.316,6.681l.809,1.364-1.047.793a1.052,1.052,0,0,1,.188.066l1.082-.824-.861-1.438L17.652,5.335l-2.242-4.3h-.167l2.24,4.34Z" transform="translate(12.052 0.814)" fill="#fff"/>
      <path id="Path_7867" data-name="Path 7867" d="M18.754,5.439l.043-.034a1.277,1.277,0,0,0-.276-.032c-.281,0-.449.109-.376.244a.812.812,0,0,0,.648.247c.283,0,.449-.111.372-.247a.406.406,0,0,0-.181-.145l-.043.032Zm-.016.326a.486.486,0,0,1-.389-.149c-.045-.081.057-.147.226-.147a.49.49,0,0,1,.387.147c.047.082-.054.149-.224.149" transform="translate(14.332 4.248)" fill="#fff"/>
      <path id="Path_7868" data-name="Path 7868" d="M18.478,5.423l.188.066.043-.034a1.052,1.052,0,0,0-.188-.064Z" transform="translate(14.609 4.262)" fill="#fff"/>
      <path id="Path_7869" data-name="Path 7869" d="M18.478,5.423l.188.066.043-.034a1.052,1.052,0,0,0-.188-.064Z" transform="translate(14.609 4.262)" fill="#fff"/>
      <path id="Path_7870" data-name="Path 7870" d="M20.776,6.715l.668,1.169-1.968.953a.753.753,0,0,1,.167.075l2.025-.983-.72-1.252L17.061,5.333l-2.134-4.3H14.76l2.131,4.337Z" transform="translate(11.669 0.814)" fill="#fff"/>
      <path id="Path_7871" data-name="Path 7871" d="M17.67,5.441l.056-.027a1.109,1.109,0,0,0-.351-.056c-.279,0-.453.109-.387.244a.777.777,0,0,0,.636.247c.283,0,.457-.111.385-.247a.314.314,0,0,0-.115-.113l-.057.029Zm-.1.31a.464.464,0,0,1-.381-.149c-.039-.081.064-.147.233-.147a.468.468,0,0,1,.38.147c.043.082-.061.149-.231.149" transform="translate(13.42 4.237)" fill="#fff"/>
      <path id="Path_7872" data-name="Path 7872" d="M17.362,5.417l.167.075.057-.027a.754.754,0,0,0-.167-.075Z" transform="translate(13.726 4.261)" fill="#fff"/>
      <path id="Path_7873" data-name="Path 7873" d="M17.362,5.417l.167.075.057-.027a.754.754,0,0,0-.167-.075Z" transform="translate(13.726 4.261)" fill="#fff"/>
      <path id="Path_7874" data-name="Path 7874" d="M19.385,6.484l.695,1.309-.757.417a.955.955,0,0,1,.172.07l.806-.446-.743-1.388L16.583,5.419,14.5,1.03h-.165l2.077,4.425Z" transform="translate(11.334 0.814)" fill="#fff"/>
      <path id="Path_7875" data-name="Path 7875" d="M17.386,5.089l.052-.029a1.152,1.152,0,0,0-.319-.047c-.276,0-.448.106-.383.238a.763.763,0,0,0,.623.24c.279,0,.451-.109.383-.24a.334.334,0,0,0-.134-.122l-.052.029Zm-.075.306a.46.46,0,0,1-.374-.143c-.039-.079.064-.143.231-.143a.459.459,0,0,1,.372.143c.041.079-.063.143-.229.143" transform="translate(13.221 3.964)" fill="#fff"/>
      <path id="Path_7876" data-name="Path 7876" d="M17.093,5.069l.17.07.052-.029a.935.935,0,0,0-.17-.07Z" transform="translate(13.514 3.985)" fill="#fff"/>
      <path id="Path_7877" data-name="Path 7877" d="M17.093,5.069l.17.07.052-.029a.935.935,0,0,0-.17-.07Z" transform="translate(13.514 3.985)" fill="#fff"/>
      <path id="Path_7878" data-name="Path 7878" d="M13.332,2.335l.249.616,1.316.517a.338.338,0,0,1,.111-.048l-1.264-.5-.229-.564.788-.5-.362-.829h-.167l.347.806Z" transform="translate(10.54 0.814)" fill="#fff"/>
      <path id="Path_7879" data-name="Path 7879" d="M14.291,2.451l-.063-.025a.09.09,0,0,0-.041.113c.045.1.281.188.528.188s.41-.084.363-.188-.285-.188-.528-.188a.9.9,0,0,0-.211.025L14.4,2.4Zm.292-.025c.147,0,.29.05.317.113s-.07.113-.217.113-.292-.052-.319-.113.072-.113.218-.113" transform="translate(11.211 1.859)" fill="#fff"/>
      <path id="Path_7880" data-name="Path 7880" d="M14.27,2.439l.111-.05-.063-.023a.338.338,0,0,0-.111.048Z" transform="translate(11.232 1.871)" fill="#fff"/>
      <path id="Path_7881" data-name="Path 7881" d="M14.27,2.439l.111-.05-.063-.023a.338.338,0,0,0-.111.048Z" transform="translate(11.232 1.871)" fill="#fff"/>
      <path id="Path_7882" data-name="Path 7882" d="M12.741,2.335l.252.677,1.313.5a.345.345,0,0,1,.109-.05l-1.257-.482-.236-.623.811-.516L13.4,1.03h-.165l.317.791Z" transform="translate(10.073 0.814)" fill="#fff"/>
      <path id="Path_7883" data-name="Path 7883" d="M13.7,2.477l-.064-.023a.091.091,0,0,0-.039.109c.041.1.276.188.525.188s.412-.084.367-.188-.278-.188-.523-.188a.856.856,0,0,0-.218.027l.064.025Zm.3-.027c.147,0,.288.05.315.113s-.073.113-.222.113-.288-.05-.315-.113.075-.113.222-.113" transform="translate(10.743 1.878)" fill="#fff"/>
      <path id="Path_7884" data-name="Path 7884" d="M13.678,2.465l.111-.05-.064-.025a.338.338,0,0,0-.111.05Z" transform="translate(10.763 1.89)" fill="#fff"/>
      <path id="Path_7885" data-name="Path 7885" d="M13.678,2.465l.111-.05-.064-.025a.338.338,0,0,0-.111.05Z" transform="translate(10.763 1.89)" fill="#fff"/>
      <path id="Path_7886" data-name="Path 7886" d="M11.371,3.012a.7.7,0,0,1,.143.05L13.93,1.848l-.313-.818H13.45l.3.791Z" transform="translate(8.99 0.814)" fill="#fff"/>
      <path id="Path_7887" data-name="Path 7887" d="M11.6,2.173l.047-.023a1.013,1.013,0,0,0-.24-.029c-.242,0-.415.082-.387.183s.251.184.494.184.417-.082.387-.184a.211.211,0,0,0-.111-.1l-.047.023Zm-.107.242c-.147,0-.279-.05-.3-.111s.088-.109.233-.109.278.05.3.109-.086.111-.233.111" transform="translate(8.712 1.677)" fill="#fff"/>
      <path id="Path_7888" data-name="Path 7888" d="M11.345,2.16l.141.05.048-.023a.7.7,0,0,0-.143-.05Z" transform="translate(8.969 1.69)" fill="#fff"/>
      <path id="Path_7889" data-name="Path 7889" d="M11.345,2.16l.141.05.048-.023a.7.7,0,0,0-.143-.05Z" transform="translate(8.969 1.69)" fill="#fff"/>
      <path id="Path_7890" data-name="Path 7890" d="M10.181,2.781l.1.421c.027,0,.056,0,.086,0s.061,0,.09,0l-.1-.392,2.4-1.116-.217-.664h-.167l.2.637Z" transform="translate(8.049 0.814)" fill="#fff"/>
      <path id="Path_7891" data-name="Path 7891" d="M10.386,2.275l-.009-.032c-.2.016-.331.091-.31.181s.244.186.489.186.424-.084.4-.186-.193-.163-.4-.181l.007.032Zm.39.149c.016.061-.091.111-.238.111s-.279-.05-.294-.111.091-.111.238-.111.278.05.294.111" transform="translate(7.957 1.773)" fill="#fff"/>
      <path id="Path_7892" data-name="Path 7892" d="M10.239,2.245l.009.032h.175l-.007-.032c-.03,0-.059,0-.09,0s-.059,0-.088,0" transform="translate(8.095 1.772)" fill="#fff"/>
      <path id="Path_7893" data-name="Path 7893" d="M10.239,2.245l.009.032h.175l-.007-.032c-.03,0-.059,0-.09,0s-.059,0-.088,0" transform="translate(8.095 1.772)" fill="#fff"/>
      <path id="Path_7894" data-name="Path 7894" d="M13.009,4.343h5.635l.874.392L23.3,12.968h2.906l1.821-2.138a1.078,1.078,0,0,1-.208-.063l-1.791,2.084H23.473L19.69,4.708l-.99-.444H13.041l-2.8-.763L9.677,1.03H9.51l.559,2.509Z" transform="translate(7.519 0.814)" fill="#fff"/>
      <path id="Path_7895" data-name="Path 7895" d="M20.1,6.687l-.032.039a1.128,1.128,0,0,0,.233.023c.294,0,.46-.118.372-.265a.889.889,0,0,0-.686-.263c-.29,0-.457.118-.372.263a.5.5,0,0,0,.244.179l.034-.038Zm-.274-.2c-.052-.088.05-.158.224-.158a.534.534,0,0,1,.412.158c.052.088-.048.159-.224.159a.528.528,0,0,1-.412-.159" transform="translate(15.487 4.918)" fill="#fff"/>
      <path id="Path_7896" data-name="Path 7896" d="M19.98,6.51l-.209-.063-.032.039a1.311,1.311,0,0,0,.209.063Z" transform="translate(15.605 5.097)" fill="#fff"/>
      <path id="Path_7897" data-name="Path 7897" d="M19.98,6.51l-.209-.063-.032.039a1.311,1.311,0,0,0,.209.063Z" transform="translate(15.605 5.097)" fill="#fff"/>
      <path id="Path_7898" data-name="Path 7898" d="M13.038,4.522h5.628l.593.288,3.76,8.4a1.062,1.062,0,0,1,.109-.005c.039,0,.077,0,.115.005L19.43,4.785l-.7-.342H13.072L10,3.6,9.45,1.03H9.283l.55,2.609Z" transform="translate(7.339 0.814)" fill="#fff"/>
      <path id="Path_7899" data-name="Path 7899" d="M17.127,7.887,17.1,7.833c-.244.027-.383.147-.321.292a.812.812,0,0,0,.7.3c.313,0,.5-.134.428-.3a.746.746,0,0,0-.584-.292l.025.054Zm.557.238c.045.1-.07.181-.256.181a.489.489,0,0,1-.421-.181c-.043-.1.072-.179.258-.179a.491.491,0,0,1,.419.179" transform="translate(13.256 6.193)" fill="#fff"/>
      <path id="Path_7900" data-name="Path 7900" d="M16.954,7.835l.023.054H17.2l-.025-.054c-.038,0-.077-.005-.115-.005a1.062,1.062,0,0,0-.109.005" transform="translate(13.404 6.19)" fill="#fff"/>
      <path id="Path_7901" data-name="Path 7901" d="M16.954,7.835l.023.054H17.2l-.025-.054c-.038,0-.077-.005-.115-.005a1.062,1.062,0,0,0-.109.005" transform="translate(13.404 6.19)" fill="#fff"/>
      <path id="Path_7902" data-name="Path 7902" d="M12.978,4.817h2.881l1.182.494a.346.346,0,0,1,.118-.056l-1.244-.519h-2.9L9.277,3.685,8.794,1.03H8.627l.478,2.695Z" transform="translate(6.82 0.814)" fill="#fff"/>
      <path id="Path_7903" data-name="Path 7903" d="M13.414,3.486l-.064-.029a.1.1,0,0,0-.048.124c.043.115.288.208.548.208s.433-.093.389-.208-.29-.206-.546-.206a.819.819,0,0,0-.224.029l.066.027Zm.308-.029c.154,0,.3.056.328.124s-.077.124-.233.124-.3-.056-.328-.124.079-.124.233-.124" transform="translate(10.512 2.668)" fill="#fff"/>
      <path id="Path_7904" data-name="Path 7904" d="M13.391,3.472l.118-.054-.064-.029a.356.356,0,0,0-.12.056Z" transform="translate(10.535 2.68)" fill="#fff"/>
      <path id="Path_7905" data-name="Path 7905" d="M13.391,3.472l.118-.054-.064-.029a.356.356,0,0,0-.12.056Z" transform="translate(10.535 2.68)" fill="#fff"/>
      <path id="Path_7906" data-name="Path 7906" d="M13.311,5.114h2.612l1.776.931.206.552a.81.81,0,0,1,.095,0,.905.905,0,0,1,.1,0l-.218-.578-1.887-.985H13.351L8.733,3.669,8.318,1.03H8.151l.41,2.679Z" transform="translate(6.444 0.814)" fill="#fff"/>
      <path id="Path_7907" data-name="Path 7907" d="M13.753,4.178l-.014-.039c-.213.02-.346.109-.308.215.045.122.3.222.568.222s.449-.1.4-.222c-.041-.106-.242-.2-.469-.215l.016.039Zm.453.175c.029.073-.081.133-.24.133s-.313-.059-.34-.133.081-.133.24-.133.312.059.34.133" transform="translate(10.613 3.272)" fill="#fff"/>
      <path id="Path_7908" data-name="Path 7908" d="M13.6,4.141l.014.039h.193l-.014-.039a.905.905,0,0,0-.1,0,.81.81,0,0,0-.095,0" transform="translate(10.751 3.271)" fill="#fff"/>
      <path id="Path_7909" data-name="Path 7909" d="M13.6,4.141l.014.039h.193l-.014-.039a.905.905,0,0,0-.1,0,.81.81,0,0,0-.095,0" transform="translate(10.751 3.271)" fill="#fff"/>
      <path id="Path_7910" data-name="Path 7910" d="M11.094,4.74a.268.268,0,0,1,.1-.064L8.265,3.789,7.889,1.03H7.724l.367,2.8Z" transform="translate(6.107 0.814)" fill="#fff"/>
      <path id="Path_7911" data-name="Path 7911" d="M9.687,3.173l-.07-.021a.106.106,0,0,0-.027.086c.023.111.249.2.5.2s.442-.09.417-.2-.251-.2-.5-.2a.75.75,0,0,0-.292.05l.07.021Zm.338-.056c.152,0,.288.054.3.12s-.1.12-.251.12-.288-.054-.3-.12.1-.12.251-.12" transform="translate(7.581 2.403)" fill="#fff"/>
      <path id="Path_7912" data-name="Path 7912" d="M9.606,3.13l.07.021.1-.064L9.7,3.066a.268.268,0,0,0-.1.064" transform="translate(7.594 2.424)" fill="#fff"/>
      <path id="Path_7913" data-name="Path 7913" d="M9.606,3.13l.07.021.1-.064L9.7,3.066a.268.268,0,0,0-.1.064" transform="translate(7.594 2.424)" fill="#fff"/>
      <path id="Path_7914" data-name="Path 7914" d="M9.47,4.425a.237.237,0,0,1,.093-.064L7.516,3.789,7.234,1.03H7.067l.274,2.8Z" transform="translate(5.587 0.814)" fill="#fff"/>
      <path id="Path_7915" data-name="Path 7915" d="M8.49,3l-.07-.02a.087.087,0,0,0-.023.075c.016.109.235.2.489.2s.442-.088.424-.2-.238-.2-.489-.2a.783.783,0,0,0-.308.056l.07.02Zm.344-.063c.15,0,.281.052.294.118s-.1.118-.256.118-.283-.054-.292-.118.1-.118.254-.118" transform="translate(6.637 2.26)" fill="#fff"/>
      <path id="Path_7916" data-name="Path 7916" d="M8.409,2.954l.07.02.093-.064L8.5,2.89a.237.237,0,0,0-.093.064" transform="translate(6.648 2.285)" fill="#fff"/>
      <path id="Path_7917" data-name="Path 7917" d="M8.409,2.954l.07.02.093-.064L8.5,2.89a.237.237,0,0,0-.093.064" transform="translate(6.648 2.285)" fill="#fff"/>
      <path id="Path_7918" data-name="Path 7918" d="M3.828,2.03c-.064.047-.127.095-.192.143L3.552,3l-1.141.317c-.036.039-.068.079-.1.12l1.422-.4Z" transform="translate(1.825 1.605)" fill="#fff"/>
      <path id="Path_7919" data-name="Path 7919" d="M10.962,5.53h4.476l1.151.509.261.824,1.379.46h1.717l.89-.628-.509-1.219a.737.737,0,0,1-.091.005.82.82,0,0,1-.095-.005l.489,1.187-.811.571H18.268L17.03,6.819l-.261-.813L15.5,5.447H11.016L7.195,4.094,6.93,1.03H6.763l.254,3.1Z" transform="translate(5.347 0.814)" fill="#fff"/>
      <path id="Path_7920" data-name="Path 7920" d="M14.61,3.655l.016.038c.206-.02.331-.1.288-.2s-.294-.2-.55-.2-.426.091-.381.2.235.183.457.2l-.016-.038Zm-.44-.165c-.027-.068.075-.122.229-.122s.3.054.329.122-.073.124-.227.124-.3-.056-.331-.124" transform="translate(11.049 2.598)" fill="#fff"/>
      <path id="Path_7921" data-name="Path 7921" d="M14.428,3.529l-.016-.038h-.186l.014.038a.873.873,0,0,0,.1,0,.749.749,0,0,0,.091,0" transform="translate(11.247 2.76)" fill="#fff"/>
      <path id="Path_7922" data-name="Path 7922" d="M14.428,3.529l-.016-.038h-.186l.014.038a.873.873,0,0,0,.1,0,.749.749,0,0,0,.091,0" transform="translate(11.247 2.76)" fill="#fff"/>
      <path id="Path_7923" data-name="Path 7923" d="M4.717,1.8c-.061.038-.122.077-.183.116L4.4,3.485l-2.356.834-.093.134,2.627-.933Z" transform="translate(1.541 1.423)" fill="#fff"/>
      <path id="Path_7924" data-name="Path 7924" d="M11.14,5.9h4.219l.623.272.525,1.787,1.733.734h3.126l.528-.381a.825.825,0,0,1-.177-.061l-.483.346h-2.94l-1.6-.675L16.162,6.14l-.743-.324H11.191L6.747,4.3,6.531,1.03H6.364l.2,3.307Z" transform="translate(5.031 0.814)" fill="#fff"/>
      <path id="Path_7925" data-name="Path 7925" d="M15.238,5.259l-.045.032a1.09,1.09,0,0,0,.256.03c.278,0,.457-.107.4-.236s-.324-.235-.6-.235-.453.1-.4.235a.341.341,0,0,0,.167.145L15.06,5.2Zm.052-.315c.165,0,.326.063.36.141s-.073.141-.24.141-.328-.064-.36-.141.075-.141.24-.141" transform="translate(11.732 3.835)" fill="#fff"/>
      <path id="Path_7926" data-name="Path 7926" d="M15.16,5.106l-.177-.061-.045.03a.854.854,0,0,0,.177.063Z" transform="translate(11.81 3.989)" fill="#fff"/>
      <path id="Path_7927" data-name="Path 7927" d="M15.16,5.106l-.177-.061-.045.03a.854.854,0,0,0,.177.063Z" transform="translate(11.81 3.989)" fill="#fff"/>
      <path id="Path_7928" data-name="Path 7928" d="M5.641,1.56c-.059.029-.118.059-.177.09L5.317,3.881,1.829,5.07,1.754,5.2,5.5,3.918Z" transform="translate(1.387 1.233)" fill="#fff"/>
      <path id="Path_7929" data-name="Path 7929" d="M11.222,6.262l.029.011h3.554a.121.121,0,0,1-.021-.043.087.087,0,0,1,0-.043H11.3L6.183,4.376,6.046,1.035l-.167.007L6,4.412Z" transform="translate(4.648 0.818)" fill="#fff"/>
      <path id="Path_7930" data-name="Path 7930" d="M10.959,4.074h-.086a.687.687,0,0,0,.514.172c.265,0,.453-.1.421-.215s-.272-.215-.535-.215c-.229,0-.4.073-.421.172h.086ZM11.3,3.9c.158,0,.3.057.321.129s-.093.129-.252.129-.3-.057-.321-.129.095-.129.252-.129" transform="translate(8.58 3.017)" fill="#fff"/>
      <path id="Path_7931" data-name="Path 7931" d="M10.853,3.955a.153.153,0,0,0,.02.043h.086l-.021-.086h-.086a.116.116,0,0,0,0,.043" transform="translate(8.578 3.093)" fill="#fff"/>
      <path id="Path_7932" data-name="Path 7932" d="M10.853,3.955a.153.153,0,0,0,.02.043h.086l-.021-.086h-.086a.116.116,0,0,0,0,.043" transform="translate(8.578 3.093)" fill="#fff"/>
      <path id="Path_7933" data-name="Path 7933" d="M6.683,1.342l-.172.064L6.4,4.132l-4.75,1.68c-.021.043-.043.086-.064.127l5-1.769Z" transform="translate(1.252 1.061)" fill="#fff"/>
      <path id="Path_7934" data-name="Path 7934" d="M11.215,6.575l.029.011h3.069l1.067.741a.616.616,0,0,1,.161-.045L14.406,6.5H11.3L5.911,4.559l-.1-3.508c-.056,0-.111.011-.167.016l.088,3.527Z" transform="translate(4.46 0.831)" fill="#fff"/>
      <path id="Path_7935" data-name="Path 7935" d="M11.19,4.615l-.05-.036c-.1.043-.149.1-.131.174.032.127.281.231.553.231s.467-.1.432-.231-.283-.227-.552-.227a.9.9,0,0,0-.143.011l.052.036Zm.276,0c.163,0,.312.061.331.136s-.095.138-.258.138-.313-.061-.333-.138.1-.136.26-.136" transform="translate(8.701 3.577)" fill="#fff"/>
      <path id="Path_7936" data-name="Path 7936" d="M11.132,4.61l.161-.043-.052-.036a.639.639,0,0,0-.161.043Z" transform="translate(8.76 3.582)" fill="#fff"/>
      <path id="Path_7937" data-name="Path 7937" d="M11.132,4.61l.161-.043-.052-.036a.639.639,0,0,0-.161.043Z" transform="translate(8.76 3.582)" fill="#fff"/>
      <path id="Path_7938" data-name="Path 7938" d="M7.092,4.441l.032-.013L7.2,1.259l-.17.056-.09,3.078L1.554,6.332H1.515l-.038.088H1.61Z" transform="translate(1.168 0.995)" fill="#fff"/>
      <path id="Path_7939" data-name="Path 7939" d="M9.069,7.99a.317.317,0,0,1,.116-.073L5.555,6.631l-.07-5.542c-.056.009-.111.018-.167.029l.045,5.556Z" transform="translate(4.205 0.861)" fill="#fff"/>
      <path id="Path_7940" data-name="Path 7940" d="M7.506,5.027,7.432,5a.135.135,0,0,0-.043.106c.013.131.249.236.526.236s.489-.106.475-.236-.251-.235-.526-.235a.849.849,0,0,0-.315.056l.072.025Zm.369-.063c.165,0,.306.063.315.141s-.118.141-.285.141S7.6,5.183,7.59,5.106s.12-.141.285-.141" transform="translate(5.841 3.851)" fill="#fff"/>
      <path id="Path_7941" data-name="Path 7941" d="M7.413,4.975,7.486,5,7.6,4.927,7.529,4.9a.317.317,0,0,0-.116.073" transform="translate(5.861 3.875)" fill="#fff"/>
      <path id="Path_7942" data-name="Path 7942" d="M7.413,4.975,7.486,5,7.6,4.927,7.529,4.9a.317.317,0,0,0-.116.073" transform="translate(5.861 3.875)" fill="#fff"/>
      <path id="Path_7943" data-name="Path 7943" d="M4.24,5.627a.6.6,0,0,1-.156.068L7.395,7.448,7.52,17.2,3.056,20.181a.615.615,0,0,1,.193.122l4.5-3.014.034-.023L7.608,7.405Z" transform="translate(2.416 4.449)" fill="#fff"/>
      <path id="Path_7944" data-name="Path 7944" d="M4.062,5.766l.061.032a.2.2,0,0,0,.1-.141c.007-.136-.213-.245-.494-.245s-.517.109-.528.245.209.249.494.249a1,1,0,0,0,.274-.038l-.061-.034Zm-.655-.109c.005-.082.149-.147.317-.147s.3.064.3.147S3.874,5.8,3.7,5.8s-.3-.066-.3-.149" transform="translate(2.531 4.278)" fill="#fff"/>
      <path id="Path_7945" data-name="Path 7945" d="M3.75,5.609,3.6,5.677l.061.032a.586.586,0,0,0,.154-.068Z" transform="translate(2.843 4.434)" fill="#fff"/>
      <path id="Path_7946" data-name="Path 7946" d="M3.75,5.609,3.6,5.677l.061.032a.586.586,0,0,0,.154-.068Z" transform="translate(2.843 4.434)" fill="#fff"/>
      <path id="Path_7947" data-name="Path 7947" d="M3.443,13.843l.088-.059a.943.943,0,0,0-.351-.064c-.378,0-.7.2-.723.446s.274.455.659.455.707-.2.722-.455a.325.325,0,0,0-.113-.26l-.088.059Zm-.315.594c-.229,0-.406-.122-.4-.272s.208-.269.435-.269.4.12.394.269-.2.272-.433.272" transform="translate(1.941 10.846)" fill="#fff"/>
      <path id="Path_7948" data-name="Path 7948" d="M3.007,13.814l.193.122.088-.059a.627.627,0,0,0-.193-.122Z" transform="translate(2.377 10.875)" fill="#fff"/>
      <path id="Path_7949" data-name="Path 7949" d="M3.007,13.814l.193.122.088-.059a.627.627,0,0,0-.193-.122Z" transform="translate(2.377 10.875)" fill="#fff"/>
      <path id="Path_7950" data-name="Path 7950" d="M6.6,8.056l-5.5-2.441c-.005.045-.009.09-.013.134L6.377,8.108l-.349,7.927L1.261,18.452c.014.061.029.124.045.184L6.28,16.1Z" transform="translate(0.855 4.439)" fill="#fff"/>
      <path id="Path_7951" data-name="Path 7951" d="M15.447,20.77H28.4a.406.406,0,0,1-.05-.09.255.255,0,0,1-.023-.091H15.515L6.732,16.136,6.383,8.207l5.887-2.621h9.386a.24.24,0,0,1-.03-.048.174.174,0,0,1-.009-.05h-9.44L6.163,8.157l.317,8.049L15.4,20.748Z" transform="translate(4.872 4.338)" fill="#fff"/>
      <path id="Path_7952" data-name="Path 7952" d="M14.926,5.673h-.093a.823.823,0,0,0,.584.2c.283,0,.467-.113.408-.249s-.331-.245-.612-.245c-.244,0-.415.084-.419.2h.093Zm.328-.2c.168,0,.333.066.367.147s-.075.149-.245.149-.335-.066-.367-.149.077-.147.245-.147" transform="translate(11.695 4.252)" fill="#fff"/>
      <path id="Path_7953" data-name="Path 7953" d="M14.833,5.586h.091l-.039-.1h-.091a.116.116,0,0,0,.009.048.209.209,0,0,0,.03.05" transform="translate(11.696 4.339)" fill="#fff"/>
      <path id="Path_7954" data-name="Path 7954" d="M14.833,5.586h.091l-.039-.1h-.091a.116.116,0,0,0,.009.048.209.209,0,0,0,.03.05" transform="translate(11.696 4.339)" fill="#fff"/>
      <path id="Path_7955" data-name="Path 7955" d="M18.738,14.26h-.124a1.083,1.083,0,0,0,.831.363c.385,0,.607-.206.5-.455a1,1,0,0,0-.879-.446c-.331,0-.544.152-.525.356h.124Zm.4-.36a.6.6,0,0,1,.528.269c.064.15-.07.272-.3.272a.6.6,0,0,1-.53-.272c-.061-.149.073-.269.3-.269" transform="translate(14.656 10.849)" fill="#fff"/>
      <path id="Path_7956" data-name="Path 7956" d="M18.613,14.1h.125l-.075-.181H18.54a.293.293,0,0,0,.021.091.5.5,0,0,0,.052.09" transform="translate(14.658 11.006)" fill="#fff"/>
      <path id="Path_7957" data-name="Path 7957" d="M18.613,14.1h.125l-.075-.181H18.54a.293.293,0,0,0,.021.091.5.5,0,0,0,.052.09" transform="translate(14.658 11.006)" fill="#fff"/>
      <path id="Path_7958" data-name="Path 7958" d="M4.69,8.074,1.06,6.4v.15L4.539,8.16a.544.544,0,0,1,.15-.086" transform="translate(0.838 5.06)" fill="#fff"/>
      <path id="Path_7959" data-name="Path 7959" d="M3.11,7.482l-.072-.034a.208.208,0,0,0-.081.14c-.014.159.224.29.53.29s.564-.131.573-.29S3.834,7.3,3.531,7.3a.955.955,0,0,0-.342.061l.072.032Zm.731.106c-.007.095-.161.174-.344.174s-.326-.079-.319-.174.161-.172.344-.172.324.077.319.172" transform="translate(2.338 5.772)" fill="#fff"/>
      <path id="Path_7960" data-name="Path 7960" d="M3.075,7.455l.15-.086-.072-.034A.544.544,0,0,0,3,7.421Z" transform="translate(2.374 5.799)" fill="#fff"/>
      <path id="Path_7961" data-name="Path 7961" d="M3.075,7.455l.15-.086-.072-.034A.544.544,0,0,0,3,7.421Z" transform="translate(2.374 5.799)" fill="#fff"/>
      <path id="Path_7962" data-name="Path 7962" d="M21.619,6.04H12.263L7.237,8.359a.5.5,0,0,1,.15.086l4.974-2.3h9.3a.205.205,0,0,1-.032-.052.142.142,0,0,1-.011-.052" transform="translate(5.722 4.775)" fill="#fff"/>
      <path id="Path_7963" data-name="Path 7963" d="M15.269,6.13h.093l.043.1H15.31a.849.849,0,0,0,.6.208c.29,0,.475-.116.412-.26a.736.736,0,0,0-.63-.256c-.251,0-.424.088-.424.2m.467-.1a.448.448,0,0,1,.38.154c.036.086-.075.156-.249.156s-.344-.07-.38-.156.077-.154.249-.154" transform="translate(12.072 4.685)" fill="#fff"/>
      <path id="Path_7964" data-name="Path 7964" d="M15.362,6.04h-.093a.142.142,0,0,0,.011.052.261.261,0,0,0,.03.052h.095Z" transform="translate(12.072 4.775)" fill="#fff"/>
      <path id="Path_7965" data-name="Path 7965" d="M15.362,6.04h-.093a.142.142,0,0,0,.011.052.261.261,0,0,0,.03.052h.095Z" transform="translate(12.072 4.775)" fill="#fff"/>
      <path id="Path_7966" data-name="Path 7966" d="M7.551,7.4l.072-.034A.955.955,0,0,0,7.28,7.3c-.3,0-.541.129-.53.286s.267.29.573.29.544-.131.53-.29a.215.215,0,0,0-.081-.14L7.7,7.482Zm-.236.365c-.183,0-.338-.079-.344-.174s.136-.172.319-.172.337.077.344.172-.136.174-.319.174" transform="translate(5.336 5.772)" fill="#fff"/>
      <path id="Path_7967" data-name="Path 7967" d="M7.2,7.368l.15.086.072-.032a.5.5,0,0,0-.15-.086Z" transform="translate(5.69 5.8)" fill="#fff"/>
      <path id="Path_7968" data-name="Path 7968" d="M7.2,7.368l.15.086.072-.032a.5.5,0,0,0-.15-.086Z" transform="translate(5.69 5.8)" fill="#fff"/>
      <path id="Path_7969" data-name="Path 7969" d="M4.667,8.534,1.06,6.907v.154L4.437,8.59l-.387,4.6L1.06,14.719v.192l3.232-1.655Z" transform="translate(0.838 5.46)" fill="#fff"/>
      <path id="Path_7970" data-name="Path 7970" d="M25.36,17.3H22.948l-2.609-1.058H13l-5.13-2.616-.389-4.6,4.072-1.844h5.628l1.8-.713h1.943a.273.273,0,0,1-.03-.054.142.142,0,0,1-.011-.052h-2l-1.794.709H11.453L7.289,8.949l-.039.018.374,4.722,5.3,2.711H20.3l2.618,1.065h2.507a.337.337,0,0,1-.045-.082.24.24,0,0,1-.02-.082" transform="translate(5.732 5.028)" fill="#fff"/>
      <path id="Path_7971" data-name="Path 7971" d="M15,6.559h-.1a.834.834,0,0,0,.605.213c.294,0,.483-.12.423-.267s-.344-.263-.636-.263c-.252,0-.43.091-.433.211h.095Zm.338-.211a.441.441,0,0,1,.381.158c.036.088-.079.159-.254.159s-.347-.072-.381-.159.079-.158.254-.158" transform="translate(11.747 4.935)" fill="#fff"/>
      <path id="Path_7972" data-name="Path 7972" d="M14.9,6.466H15l-.041-.106h-.095a.157.157,0,0,0,.041.106" transform="translate(11.747 5.028)" fill="#fff"/>
      <path id="Path_7973" data-name="Path 7973" d="M14.9,6.466H15l-.041-.106h-.095a.157.157,0,0,0,.041.106" transform="translate(11.747 5.028)" fill="#fff"/>
      <path id="Path_7974" data-name="Path 7974" d="M17.482,12.614l.064.165h-.118a1.015,1.015,0,0,0,.781.331c.367,0,.587-.186.492-.414a.932.932,0,0,0-.825-.408c-.315,0-.525.14-.512.326Zm.46-.163a.56.56,0,0,1,.5.245c.056.136-.077.247-.3.247a.558.558,0,0,1-.5-.247c-.054-.136.081-.245.3-.245" transform="translate(13.728 9.715)" fill="#fff"/>
      <path id="Path_7975" data-name="Path 7975" d="M17.482,12.47h-.118a.284.284,0,0,0,.018.082.42.42,0,0,0,.047.082h.118Z" transform="translate(13.728 9.859)" fill="#fff"/>
      <path id="Path_7976" data-name="Path 7976" d="M17.482,12.47h-.118a.284.284,0,0,0,.018.082.42.42,0,0,0,.047.082h.118Z" transform="translate(13.728 9.859)" fill="#fff"/>
      <path id="Path_7977" data-name="Path 7977" d="M15.043,7.1a1.027,1.027,0,0,1-.107.005c-.036,0-.073,0-.111-.005l.347.919,2.373,1.239L18.8,12.279l-1.5,1.382.478,1.266c.039,0,.081-.007.125-.007s.088,0,.131.007l-.464-1.21,1.5-1.386L17.754,9.219,15.378,7.981Z" transform="translate(11.721 5.616)" fill="#fff"/>
      <path id="Path_7978" data-name="Path 7978" d="M15.264,7.295l.02.05c.238-.025.381-.138.329-.272a.733.733,0,0,0-.646-.276c-.3,0-.492.124-.437.276a.648.648,0,0,0,.535.272l-.018-.05Zm-.517-.222c-.034-.091.084-.165.261-.165s.353.073.389.165-.082.167-.261.167-.355-.075-.389-.167" transform="translate(11.48 5.374)" fill="#fff"/>
      <path id="Path_7979" data-name="Path 7979" d="M15.051,7.126l-.02-.05h-.217l.018.05c.038,0,.075.005.111.005a1.027,1.027,0,0,0,.107-.005" transform="translate(11.713 5.594)" fill="#fff"/>
      <path id="Path_7980" data-name="Path 7980" d="M15.051,7.126l-.02-.05h-.217l.018.05c.038,0,.075.005.111.005a1.027,1.027,0,0,0,.107-.005" transform="translate(11.713 5.594)" fill="#fff"/>
      <path id="Path_7981" data-name="Path 7981" d="M16.671,11.542l-.027-.068c-.278.036-.439.19-.371.378a.873.873,0,0,0,.791.392c.356,0,.577-.177.492-.392a.811.811,0,0,0-.657-.378l.025.068Zm.63.31c.05.129-.082.235-.3.235a.521.521,0,0,1-.475-.235c-.048-.129.086-.233.3-.233a.524.524,0,0,1,.473.233" transform="translate(12.854 9.071)" fill="#fff"/>
      <path id="Path_7982" data-name="Path 7982" d="M16.474,11.476l.027.07h.254l-.027-.07a1.037,1.037,0,0,0-.129-.007.927.927,0,0,0-.125.007" transform="translate(13.024 9.067)" fill="#fff"/>
      <path id="Path_7983" data-name="Path 7983" d="M16.474,11.476l.027.07h.254l-.027-.07a1.037,1.037,0,0,0-.129-.007.927.927,0,0,0-.125.007" transform="translate(13.024 9.067)" fill="#fff"/>
      <path id="Path_7984" data-name="Path 7984" d="M1.364,10.322l-.3.124v.168l.437-.177a.4.4,0,0,1-.133-.115" transform="translate(0.838 8.161)" fill="#fff"/>
      <path id="Path_7985" data-name="Path 7985" d="M2.095,8.058,1.06,7.639v.154l.89.362a.466.466,0,0,1,.145-.1" transform="translate(0.838 6.039)" fill="#fff"/>
      <path id="Path_7986" data-name="Path 7986" d="M1.665,8.036,1.588,8a.225.225,0,0,0-.068.124c-.021.167.213.3.526.3s.582-.134.6-.3-.218-.3-.526-.3a.963.963,0,0,0-.389.077l.077.032Zm.757.091c-.013.1-.174.181-.362.181s-.328-.081-.315-.181.175-.179.362-.179.328.081.315.179" transform="translate(1.2 6.19)" fill="#fff"/>
      <path id="Path_7987" data-name="Path 7987" d="M1.634,8l.145-.1L1.7,7.873a.466.466,0,0,0-.145.1Z" transform="translate(1.231 6.224)" fill="#fff"/>
      <path id="Path_7988" data-name="Path 7988" d="M1.634,8l.145-.1L1.7,7.873a.466.466,0,0,0-.145.1Z" transform="translate(1.231 6.224)" fill="#fff"/>
      <path id="Path_7989" data-name="Path 7989" d="M1.473,10.62l-.095.038a.842.842,0,0,0,.4.09c.34,0,.634-.159.655-.355s-.233-.351-.568-.351-.628.158-.654.351a.2.2,0,0,0,.038.15l.093-.038Zm-.02-.227c.016-.116.192-.211.394-.211s.353.095.34.211-.192.213-.394.213-.356-.1-.34-.213" transform="translate(0.955 7.939)" fill="#fff"/>
      <path id="Path_7990" data-name="Path 7990" d="M1.362,10.453l.093-.038L1.322,10.3l-.093.038a.382.382,0,0,0,.133.115" transform="translate(0.972 8.144)" fill="#fff"/>
      <path id="Path_7991" data-name="Path 7991" d="M1.362,10.453l.093-.038L1.322,10.3l-.093.038a.382.382,0,0,0,.133.115" transform="translate(0.972 8.144)" fill="#fff"/>
      <path id="Path_7992" data-name="Path 7992" d="M9.286,12.878l3.755,1.542h6.6l2.827-2.639-1.012-2.55L17.349,7.254l-.039-.02h-5.8L8.686,8.378a.466.466,0,0,1,.145.1l2.775-1.128h5.642l4,1.93.962,2.453-2.734,2.539h-6.38L9.418,12.763a.382.382,0,0,1-.133.115" transform="translate(6.867 5.719)" fill="#fff"/>
      <path id="Path_7993" data-name="Path 7993" d="M9.013,7.938l.077-.032A.951.951,0,0,0,8.7,7.829c-.308,0-.544.133-.525.3s.288.3.6.3.55-.136.526-.3A.22.22,0,0,0,9.235,8l-.077.032Zm-.251.369c-.188,0-.349-.081-.362-.181s.131-.179.317-.179.347.081.36.179-.127.181-.315.181" transform="translate(6.463 6.19)" fill="#fff"/>
      <path id="Path_7994" data-name="Path 7994" d="M8.643,7.9l.145.1.077-.032a.5.5,0,0,0-.145-.095Z" transform="translate(6.833 6.224)" fill="#fff"/>
      <path id="Path_7995" data-name="Path 7995" d="M8.643,7.9l.145.1.077-.032a.5.5,0,0,0-.145-.095Z" transform="translate(6.833 6.224)" fill="#fff"/>
      <path id="Path_7996" data-name="Path 7996" d="M9.655,10.391c-.025-.193-.321-.349-.655-.349s-.589.156-.566.349.315.356.655.356a.821.821,0,0,0,.4-.091l-.093-.038.131-.115.093.039a.2.2,0,0,0,.038-.152m-.582.213c-.2,0-.381-.095-.4-.213s.141-.209.34-.209.378.093.394.209-.136.213-.338.213" transform="translate(6.666 7.939)" fill="#fff"/>
      <path id="Path_7997" data-name="Path 7997" d="M8.969,10.414l.093.038a.379.379,0,0,0,.133-.113L9.1,10.3Z" transform="translate(7.091 8.144)" fill="#fff"/>
      <path id="Path_7998" data-name="Path 7998" d="M8.969,10.414l.093.038a.379.379,0,0,0,.133-.113L9.1,10.3Z" transform="translate(7.091 8.144)" fill="#fff"/>
      <path id="Path_7999" data-name="Path 7999" d="M13.6,12.887a.316.316,0,0,1,.032.072.209.209,0,0,1,.007.073H15.7l1.991-2.025-.535-1.483L14.1,7.651H12.2a.222.222,0,0,1,.027.059.157.157,0,0,1,0,.057h1.791l2.922,1.8.5,1.4-1.905,1.925Z" transform="translate(9.643 6.049)" fill="#fff"/>
      <path id="Path_8000" data-name="Path 8000" d="M12.579,7.754h.1a.768.768,0,0,0-.605-.233c-.306,0-.521.131-.482.292s.322.294.632.294c.27,0,.469-.1.485-.236h-.1Zm-.385.235c-.184,0-.355-.079-.38-.175s.106-.175.29-.175.353.079.378.175-.1.175-.288.175" transform="translate(9.161 5.946)" fill="#fff"/>
      <path id="Path_8001" data-name="Path 8001" d="M12.267,7.71a.216.216,0,0,0-.027-.059h-.1l.032.118h.1a.166.166,0,0,0-.005-.059" transform="translate(9.598 6.049)" fill="#fff"/>
      <path id="Path_8002" data-name="Path 8002" d="M12.267,7.71a.216.216,0,0,0-.027-.059h-.1l.032.118h.1a.166.166,0,0,0-.005-.059" transform="translate(9.598 6.049)" fill="#fff"/>
      <path id="Path_8003" data-name="Path 8003" d="M13.408,10.7h.111a.832.832,0,0,0-.68-.288c-.338,0-.575.161-.526.36s.369.365.713.365c.3,0,.519-.127.532-.292h-.111Zm-.421.29c-.206,0-.4-.1-.428-.218s.113-.217.317-.217.4.1.426.217-.109.218-.315.218" transform="translate(9.729 8.234)" fill="#fff"/>
      <path id="Path_8004" data-name="Path 8004" d="M13.064,10.648a.284.284,0,0,0-.032-.072h-.111l.039.143h.111a.2.2,0,0,0-.007-.072" transform="translate(10.215 8.361)" fill="#fff"/>
      <path id="Path_8005" data-name="Path 8005" d="M13.064,10.648a.284.284,0,0,0-.032-.072h-.111l.039.143h.111a.2.2,0,0,0-.007-.072" transform="translate(10.215 8.361)" fill="#fff"/>
      <path id="Path_8006" data-name="Path 8006" d="M11.916,9.207H15.23l1.415.637-1.047.639H12.2l-1.717,1.357a.77.77,0,0,1,.206.09l1.651-1.314H15.73l1.259-.77-1.7-.766H11.994L10.3,8.143a.481.481,0,0,1-.158.079Z" transform="translate(8.019 6.438)" fill="#fff"/>
      <path id="Path_8007" data-name="Path 8007" d="M10.777,8.172c-.032-.165-.31-.3-.618-.3s-.539.134-.512.3.306.3.62.3a.878.878,0,0,0,.27-.039l-.073-.041.156-.079.075.041a.191.191,0,0,0,.082-.184m-.532.181c-.188,0-.355-.081-.371-.181s.12-.181.306-.181.351.081.371.181-.118.181-.306.181" transform="translate(7.625 6.224)" fill="#fff"/>
      <path id="Path_8008" data-name="Path 8008" d="M10.1,8.2l.073.041a.481.481,0,0,0,.158-.079l-.075-.041Z" transform="translate(7.987 6.42)" fill="#fff"/>
      <path id="Path_8009" data-name="Path 8009" d="M10.1,8.2l.073.041a.481.481,0,0,0,.158-.079l-.075-.041Z" transform="translate(7.987 6.42)" fill="#fff"/>
      <path id="Path_8010" data-name="Path 8010" d="M10.646,10.274l.061-.048a1.052,1.052,0,0,0-.3-.041c-.337,0-.586.158-.553.353s.337.358.677.358.589-.161.552-.358a.362.362,0,0,0-.175-.222l-.061.05Zm-.136.478c-.2,0-.387-.1-.406-.215s.129-.213.331-.213.385.095.406.213-.127.215-.331.215" transform="translate(7.792 8.051)" fill="#fff"/>
      <path id="Path_8011" data-name="Path 8011" d="M10.3,10.255l.2.091.061-.05a.79.79,0,0,0-.2-.09Z" transform="translate(8.14 8.07)" fill="#fff"/>
      <path id="Path_8012" data-name="Path 8012" d="M10.3,10.255l.2.091.061-.05a.79.79,0,0,0-.2-.09Z" transform="translate(8.14 8.07)" fill="#fff"/>
      <path id="Path_8013" data-name="Path 8013" d="M3.965,11.162,1.07,12.65c0,.064.009.129.014.193l3.04-1.57a.486.486,0,0,1-.159-.111" transform="translate(0.846 8.825)" fill="#fff"/>
      <path id="Path_8014" data-name="Path 8014" d="M2.967,11.477l-.088.045a.9.9,0,0,0,.371.073c.349,0,.643-.168.655-.376s-.258-.369-.6-.369-.637.165-.655.369a.251.251,0,0,0,.072.192l.088-.047ZM3.293,11c.208,0,.369.1.362.222s-.186.226-.394.226-.371-.1-.362-.226S3.085,11,3.293,11" transform="translate(2.093 8.578)" fill="#fff"/>
      <path id="Path_8015" data-name="Path 8015" d="M2.847,11.295l.088-.045-.159-.113-.088.047a.494.494,0,0,0,.159.111" transform="translate(2.125 8.805)" fill="#fff"/>
      <path id="Path_8016" data-name="Path 8016" d="M2.847,11.295l.088-.045-.159-.113-.088.047a.494.494,0,0,0,.159.111" transform="translate(2.125 8.805)" fill="#fff"/>
      <path id="Path_8017" data-name="Path 8017" d="M26.638,14.669H14.53L7.707,11.163a.468.468,0,0,1-.159.111l6.869,3.544.043.023H26.707a.52.52,0,0,1-.048-.086.275.275,0,0,1-.021-.086" transform="translate(5.967 8.825)" fill="#fff"/>
      <path id="Path_8018" data-name="Path 8018" d="M18.33,13.269l.072.172H18.28a1.062,1.062,0,0,0,.808.346c.374,0,.594-.2.491-.432a.977.977,0,0,0-.854-.424c-.322,0-.534.145-.516.338Zm.466-.17a.582.582,0,0,1,.512.256c.063.141-.07.258-.294.258a.582.582,0,0,1-.514-.258c-.059-.141.073-.256.3-.256" transform="translate(14.395 10.223)" fill="#fff"/>
      <path id="Path_8019" data-name="Path 8019" d="M18.33,13.121h-.122a.344.344,0,0,0,.023.086.416.416,0,0,0,.048.086H18.4Z" transform="translate(14.395 10.373)" fill="#fff"/>
      <path id="Path_8020" data-name="Path 8020" d="M18.33,13.121h-.122a.344.344,0,0,0,.023.086.416.416,0,0,0,.048.086H18.4Z" transform="translate(14.395 10.373)" fill="#fff"/>
      <path id="Path_8021" data-name="Path 8021" d="M8.073,11.364l.088.047a.258.258,0,0,0,.072-.192c-.018-.2-.312-.369-.655-.369s-.614.165-.6.369.306.376.655.376A.9.9,0,0,0,8,11.521l-.088-.045Zm-.453.081c-.209,0-.385-.1-.394-.226S7.38,11,7.588,11s.383.1.392.222-.15.226-.36.226" transform="translate(5.514 8.578)" fill="#fff"/>
      <path id="Path_8022" data-name="Path 8022" d="M7.746,11.182l-.088-.045-.159.111.088.045a.486.486,0,0,0,.159-.111" transform="translate(5.929 8.805)" fill="#fff"/>
      <path id="Path_8023" data-name="Path 8023" d="M7.746,11.182l-.088-.045-.159.111.088.045a.486.486,0,0,0,.159-.111" transform="translate(5.929 8.805)" fill="#fff"/>
    </g>
  </g>
</svg>
