<svg id="_oneX" data-name="+oneX" xmlns="http://www.w3.org/2000/svg" xmlns:xlink="http://www.w3.org/1999/xlink" width="69.093" height="69.379" viewBox="0 0 69.093 69.379">
  <defs>
    <clipPath id="clip-path">
      <rect id="Rectangle_2262" data-name="Rectangle 2262" width="69.093" height="69.379" fill="none"/>
    </clipPath>
  </defs>
  <g id="Group_3681" data-name="Group 3681" clip-path="url(#clip-path)">
    <path id="Path_7682" data-name="Path 7682" d="M13.953,18.551a2.675,2.675,0,0,0-2.654,2.34V20.9c-.005.124-.019.289-.019.344a2.789,2.789,0,0,0,.048.508l.041.167.005.022a2.668,2.668,0,0,0,4.55,1.1,2.636,2.636,0,0,0,.666-1.6,2.714,2.714,0,0,0-.866-2.209,2.682,2.682,0,0,0-1.772-.677" transform="translate(8.145 13.394)" fill="#fff"/>
    <path id="Path_7683" data-name="Path 7683" d="M14.361,20.482v.007l.005-.028,0,.01,0,.01" transform="translate(10.369 14.773)" fill="#fff"/>
    <path id="Path_7684" data-name="Path 7684" d="M30.208,18.646a2.824,2.824,0,0,0-.835-.158,2.879,2.879,0,0,0-.84.1,2.747,2.747,0,0,0-.763.336,2.177,2.177,0,0,0-.937,1.161c1.3-.045,4.586-.021,4.829-.017a2.81,2.81,0,0,0-1.453-1.417" transform="translate(19.374 13.348)" fill="#fff"/>
    <path id="Path_7685" data-name="Path 7685" d="M34.692,0A34.388,34.388,0,0,0,3.873,19.115,34.4,34.4,0,1,0,65.248,50.2,34.4,34.4,0,0,0,34.692,0M13.783,35.384H11.5v2.283a.689.689,0,0,1-1.378,0V35.384H7.844a.689.689,0,0,1,0-1.378h2.282V31.725a.689.689,0,0,1,1.378,0v2.282h2.283a.689.689,0,0,1,0,1.378ZM27.7,34.661c0,.062,0,.117,0,.177-.005.088-.009.176-.015.26s-.017.177-.029.263-.026.183-.04.274-.031.165-.048.25A5.606,5.606,0,0,1,25.641,39a3.864,3.864,0,0,1-1.283.8,5.936,5.936,0,0,1-4.618-.071,5.856,5.856,0,0,1-1.243-.8,5.506,5.506,0,0,1-1-1.085,4.936,4.936,0,0,1-.653-1.3c-.022-.067-.04-.131-.057-.2a5.708,5.708,0,0,1,1.608-5.8c.017-.017.2-.191.277-.257l.031-.021c.059-.04.115-.09.174-.133a5.539,5.539,0,0,1,8.061,1.7c-.04-.065-.086-.131-.131-.2a5.537,5.537,0,0,1,.765,1.832c.012.052.024.107.033.16s.024.121.034.183c.014.107.028.215.038.327.005.045.007.091.012.136.007.115.012.229.014.346Zm13.322,4.684c-.029.369-.17.856-.616.908A2.215,2.215,0,0,1,38.3,38.62c-.627-1.558.11-3.644-.563-5.2a2.225,2.225,0,0,0-1.352-1.142,2.551,2.551,0,0,0-2.023.069,2.744,2.744,0,0,0-1.1,1.1,4.458,4.458,0,0,0-.293,2.182c-.014,1.123.021,2.244.021,3.367a1.479,1.479,0,0,1-.121.809.612.612,0,0,1-.17.169,3.228,3.228,0,0,1-1.9.241c-.777-.065-.971-.825-.976-1.416-.01-.951.06-5.743.031-6.96-.014-.606-.029-1.216-.021-1.822.005-.415.121-.567.549-.486a4,4,0,0,1,1.593.8l.012-.007a5.488,5.488,0,0,1,4.3-1.1c.391.067.534.1.732.148a5.362,5.362,0,0,1,.727.241,5.041,5.041,0,0,1,1.3.77c1.906,1.558,2.027,3.785,2.035,6.089,0,.642-.036,2.676-.052,2.874Zm12.865-4.794c-.015.539-.31,1.276-.928,1.317-.494,0-6.69.014-6.793.017a.63.63,0,0,0,.069.141,2.782,2.782,0,0,0,1.574,1.317,2.863,2.863,0,0,0,1.4.107,2.387,2.387,0,0,0,.668-.193,1.412,1.412,0,0,0,.355-.208c.176-.129.443-.086.763-.086.234,0,1.744,0,2.251-.009.174,0,.4-.029.362.312a1.437,1.437,0,0,1-.214.467,5.8,5.8,0,0,1-3.063,2.256,5.62,5.62,0,0,1-4.956-.751,5.688,5.688,0,0,1-2.321-5.376,5.571,5.571,0,0,1,4.708-4.679c.06-.009.119-.014.179-.021a5.584,5.584,0,0,1,4.126,1.24,6.117,6.117,0,0,1,1.825,4.148Zm4.978-7.024a2.362,2.362,0,0,0,.212.224.779.779,0,0,0,.532.184.646.646,0,0,1,.534.208.748.748,0,0,1,.136.766.623.623,0,0,1-.63.434,2.238,2.238,0,0,1-1.731-.889c-.232-.263-.842-.971-.883-1.021-.041.048-.651.758-.883,1.021a2.238,2.238,0,0,1-1.731.889.623.623,0,0,1-.632-.434.74.74,0,0,1,.138-.766.641.641,0,0,1,.534-.208.786.786,0,0,0,.534-.184,2.584,2.584,0,0,0,.21-.224c.269-.3.982-1.1,1.013-1.131-.031-.034-.744-.83-1.013-1.131a2.136,2.136,0,0,0-.21-.222.779.779,0,0,0-.534-.186.646.646,0,0,1-.534-.208.753.753,0,0,1-.138-.766.626.626,0,0,1,.632-.434,2.238,2.238,0,0,1,1.731.889c.232.263.844.973.885,1.023.041-.046.649-.753.882-1.016a2.235,2.235,0,0,1,1.731-.889.623.623,0,0,1,.63.434.739.739,0,0,1-.136.766.641.641,0,0,1-.534.208.794.794,0,0,0-.534.184,2.584,2.584,0,0,0-.21.224c-.269.3-.978,1.1-1.009,1.13.036.029.746.823,1.014,1.124Z" transform="translate(0)" fill="#fff"/>
    <path id="Path_7686" data-name="Path 7686" d="M16.587,21.868v-.005l0-.012,0-.009-.005.026m.005-.431a2.633,2.633,0,0,1-.668,1.6,2.668,2.668,0,0,1-4.55-1.1l-.005-.022-.04-.165a2.675,2.675,0,0,1-.048-.51c0-.055.014-.22.019-.344v-.005a2.671,2.671,0,0,1,4.427-1.663,2.724,2.724,0,0,1,.864,2.209" transform="translate(8.145 13.394)" fill="#fff"/>
  </g>
</svg>
