<svg xmlns="http://www.w3.org/2000/svg" xmlns:xlink="http://www.w3.org/1999/xlink" width="97.554" height="89" viewBox="0 0 97.554 89">
  <defs>
    <clipPath id="clip-path">
      <rect id="Rectangle_2261" data-name="Rectangle 2261" width="97.554" height="89" fill="none"/>
    </clipPath>
  </defs>
  <g id="quince-capital" transform="translate(0 0)">
    <g id="Group_3680" data-name="Group 3680" transform="translate(0 0)" clip-path="url(#clip-path)">
      <path id="Path_7668" data-name="Path 7668" d="M19.629,39.444H14.953l-.591-.584c-.53.173-1.063.35-1.593.537a13.1,13.1,0,0,1-3.314.4q-4.316,0-6.526-1.612Q0,36.081,0,30.989a9.319,9.319,0,0,1,1.644-5.933q2.183-2.708,7.5-2.709,4.572,0,6.834,1.915,2.491,2.1,2.492,6.8a10.121,10.121,0,0,1-1.644,5.886Zm-5.4-8.339q0-5.911-5.01-5.909-4.986,0-4.984,5.909,0,5.84,4.984,5.839,5.01,0,5.01-5.839" transform="translate(0 29.85)" fill="#fff"/>
      <path id="Path_7669" data-name="Path 7669" d="M8.833,32.661V22.477h3.88v10.09a5.135,5.135,0,0,0,.668,3.013q.9,1.191,3.494,1.191a4.612,4.612,0,0,0,3.109-.818,4.54,4.54,0,0,0,1-3.387V22.477H24.84V32.661q0,3.5-1.387,4.952-1.773,1.846-6.577,1.845-4.677,0-6.5-1.775Q8.833,36.19,8.833,32.661" transform="translate(11.798 30.023)" fill="#fff"/>
      <rect id="Rectangle_2259" data-name="Rectangle 2259" width="4.059" height="16.794" transform="translate(40.055 52.5)" fill="#fff"/>
      <path id="Path_7670" data-name="Path 7670" d="M24.354,39.27H20.372V22.477H25.3l7.528,12.1-.154-12.1h3.905V39.27H32.113L24.2,26.587Z" transform="translate(27.211 30.023)" fill="#fff"/>
      <path id="Path_7671" data-name="Path 7671" d="M43.406,22.477V25.35H37.034a4.137,4.137,0,0,0-3.289,1.238q-1.258,1.447-1.259,4.858,0,3.108,1.285,4.158a5.337,5.337,0,0,0,3.263.747h6.372v2.92H36.88q-8.633,0-8.633-8.082,0-4.159,1.85-6.283,2.134-2.428,6.886-2.429Z" transform="translate(37.73 30.023)" fill="#fff"/>
      <path id="Path_7672" data-name="Path 7672" d="M50.435,22.477V25.4H44.063q-4.085,0-4.368,3.924h10.74v2.92H39.7a4.08,4.08,0,0,0,1.053,3.165,4.867,4.867,0,0,0,3.314.946h6.372v2.92H43.909q-8.633,0-8.633-8.082,0-4.159,1.85-6.283,2.134-2.428,6.886-2.429Z" transform="translate(47.119 30.023)" fill="#fff"/>
      <path id="Path_7673" data-name="Path 7673" d="M18.755,30.84v2.3H14.121a2.865,2.865,0,0,0-2.392.99,6.369,6.369,0,0,0-.916,3.887q0,2.484.934,3.326a3.6,3.6,0,0,0,2.373.6h4.634v2.336H14.008q-6.278,0-6.278-6.465a7.983,7.983,0,0,1,1.345-5.026q1.552-1.944,5.008-1.943Z" transform="translate(10.325 41.194)" fill="#fff"/>
      <path id="Path_7674" data-name="Path 7674" d="M17.914,34.413H13.56V32.376h5.325q4.054,0,4.055,3.681v6.166H15.97a3.112,3.112,0,0,1-2.242-.785,2.8,2.8,0,0,1-.822-2.13,2.728,2.728,0,0,1,1.177-2.523,5.482,5.482,0,0,1,2.765-.542h3.438a1.738,1.738,0,0,0-.5-1.429,3.134,3.134,0,0,0-1.869-.4m-.878,5.849h3.251V38.206H17.222q-1.552,0-1.57,1.028a.861.861,0,0,0,.411.878,2.223,2.223,0,0,0,.972.149" transform="translate(17.239 43.246)" fill="#fff"/>
      <path id="Path_7675" data-name="Path 7675" d="M20.645,45.755H18.066V32.376h4.989a4.727,4.727,0,0,1,3.55,1.308A5.114,5.114,0,0,1,27.876,37.4q0,4.821-4.97,4.821H20.645Zm4.485-8.4a2.746,2.746,0,0,0-.934-2.457,5.287,5.287,0,0,0-2.6-.374h-.953v5.587h.972a6.218,6.218,0,0,0,2.616-.353q.914-.522.9-2.4" transform="translate(24.131 43.246)" fill="#fff"/>
      <path id="Path_7676" data-name="Path 7676" d="M22.834,30.84h2.691v2.448H22.834Zm0,3.588h2.691v9.847H22.834Z" transform="translate(30.5 41.194)" fill="#fff"/>
      <path id="Path_7677" data-name="Path 7677" d="M26.24,36.39H24.427V34.428H26.24V30.84h2.6v3.588h2.784V36.39H28.837v3.98q0,1.216.5,1.579a3.783,3.783,0,0,0,2.018.364h.262v1.962H29.248a2.94,2.94,0,0,1-2.233-.813,3.121,3.121,0,0,1-.775-2.252Z" transform="translate(32.628 41.194)" fill="#fff"/>
      <path id="Path_7678" data-name="Path 7678" d="M32.844,34.413H28.49V32.376h5.325q4.054,0,4.055,3.681v6.166H30.9a3.106,3.106,0,0,1-2.24-.785,2.8,2.8,0,0,1-.825-2.13,2.733,2.733,0,0,1,1.177-2.523,5.488,5.488,0,0,1,2.765-.542h3.438a1.73,1.73,0,0,0-.5-1.429,3.12,3.12,0,0,0-1.866-.4m-.878,5.849h3.249V38.206H32.153c-1.035,0-1.56.343-1.572,1.028a.859.859,0,0,0,.413.878,2.216,2.216,0,0,0,.972.149" transform="translate(37.178 43.246)" fill="#fff"/>
      <rect id="Rectangle_2260" data-name="Rectangle 2260" width="2.691" height="13.435" transform="translate(77.03 72.034)" fill="#fff"/>
      <path id="Path_7679" data-name="Path 7679" d="M18.643,0V43.935A23.5,23.5,0,0,0,18.643,0" transform="translate(24.902 0)" fill="#fff"/>
      <path id="Path_7680" data-name="Path 7680" d="M12.516,2.3a23.335,23.335,0,0,0,0,33.186Z" transform="translate(7.464 3.074)" fill="#fff"/>
      <path id="Path_7681" data-name="Path 7681" d="M29.569,0V43.935A23.5,23.5,0,0,0,29.569,0" transform="translate(39.496 0)" fill="#fff"/>
    </g>
  </g>
</svg>
