<svg id="Group_3691" data-name="Group 3691" xmlns="http://www.w3.org/2000/svg" xmlns:xlink="http://www.w3.org/1999/xlink" width="183.813" height="39.58" viewBox="0 0 183.813 39.58">
  <defs>
    <clipPath id="clip-path">
      <rect id="Rectangle_2270" data-name="Rectangle 2270" width="183.813" height="39.58" fill="none"/>
    </clipPath>
  </defs>
  <g id="Group_3690" data-name="Group 3690" clip-path="url(#clip-path)">
    <path id="Path_7729" data-name="Path 7729" d="M180.495,38.263V15.326h7.993a11.186,11.186,0,0,1,4.383.619,4.868,4.868,0,0,1,2.157,2.141,7.483,7.483,0,0,1,.843,3.652,6.823,6.823,0,0,1-1.291,4.335,5.74,5.74,0,0,1-3.669,2.067,9.354,9.354,0,0,1,2.019,1.917,27.31,27.31,0,0,1,2.184,3.733l2.3,4.474h-4.545l-2.755-4.987a31.867,31.867,0,0,0-2.019-3.39,2.945,2.945,0,0,0-1.126-.938,5,5,0,0,0-1.906-.263h-.785v9.579Zm3.78-13.231h2.82a13.772,13.772,0,0,0,3.288-.23,2.09,2.09,0,0,0,1.142-.912,3.383,3.383,0,0,0,.438-1.837,3.148,3.148,0,0,0-.438-1.762,2.259,2.259,0,0,0-1.191-.918,15.263,15.263,0,0,0-3.085-.171h-2.975Zm18.567,13.231V15.326h13.935V19.2H206.621v5.062h9.451V28.14h-9.451v6.247H217.13v3.877Zm20.873-22.937h3.78V27.734a29.957,29.957,0,0,0,.144,3.77,3.8,3.8,0,0,0,1.2,2.344,4.249,4.249,0,0,0,4.672.24,2.917,2.917,0,0,0,1.136-1.624A19.565,19.565,0,0,0,234.96,28V15.326h3.78V27.371a31.985,31.985,0,0,1-.492,6.67,5.673,5.673,0,0,1-2.226,3.331,7.52,7.52,0,0,1-4.565,1.277,8.533,8.533,0,0,1-4.6-1.057,6.027,6.027,0,0,1-2.4-2.969q-.743-1.923-.741-7.064Zm26.607,22.937V19.2h-5.573V15.326h14.928V19.2H254.1V38.263Zm15.208,0V15.326h13.936V19.2H269.31v5.062h9.451V28.14H269.31v6.247h10.509v3.877Zm32.92-8.458,3.684,1.41a10.358,10.358,0,0,1-2.863,5.649,7.121,7.121,0,0,1-4.923,1.784,7.3,7.3,0,0,1-5.958-2.831q-2.627-3.267-2.627-8.82,0-5.862,2.643-9.177a7.52,7.52,0,0,1,6.183-2.879A7.13,7.13,0,0,1,299.88,17.1a9.439,9.439,0,0,1,2.221,4.565l-3.75,1.089a5.072,5.072,0,0,0-1.436-2.852,3.6,3.6,0,0,0-2.53-.992,4.025,4.025,0,0,0-3.4,1.81q-1.321,1.81-1.318,5.975,0,4.325,1.282,6.151a3.893,3.893,0,0,0,3.325,1.825,3.454,3.454,0,0,0,2.595-1.163,7.416,7.416,0,0,0,1.576-3.706m10.333,8.458V15.326h3.78V24.36h7.465V15.326h3.78V38.263h-3.78V28.237h-7.465V38.263Z" transform="translate(-140.008 -11.59)" fill="#fff"/>
    <path id="Path_7730" data-name="Path 7730" d="M282.968,142.7l1.126.434a3.188,3.188,0,0,1-.874,1.74,2.172,2.172,0,0,1-1.507.55,2.227,2.227,0,0,1-1.822-.872,4.233,4.233,0,0,1-.8-2.717,4.452,4.452,0,0,1,.808-2.828,2.3,2.3,0,0,1,1.891-.887,2.168,2.168,0,0,1,1.618.667,2.9,2.9,0,0,1,.68,1.406l-1.146.335a1.571,1.571,0,0,0-.439-.878,1.1,1.1,0,0,0-.774-.306,1.23,1.23,0,0,0-1.039.558,3.208,3.208,0,0,0-.4,1.841,3.429,3.429,0,0,0,.393,1.895,1.189,1.189,0,0,0,1.017.562,1.052,1.052,0,0,0,.794-.359,2.293,2.293,0,0,0,.482-1.141m5.516-.885a5.05,5.05,0,0,1,.37-2.077,2.823,2.823,0,0,1,.969-1.218,2.549,2.549,0,0,1,1.449-.4,2.474,2.474,0,0,1,2.01.95,4.164,4.164,0,0,1,.778,2.7,4.231,4.231,0,0,1-.823,2.77,2.638,2.638,0,0,1-3.929.009,4.17,4.17,0,0,1-.824-2.737m1.2-.048a3,3,0,0,0,.46,1.823,1.382,1.382,0,0,0,1.139.609,1.361,1.361,0,0,0,1.136-.6,3.1,3.1,0,0,0,.45-1.853,3.028,3.028,0,0,0-.437-1.811,1.417,1.417,0,0,0-2.3,0,3.048,3.048,0,0,0-.446,1.832m8.9,3.538V138.24h1.732l1.046,4.828,1.032-4.828h1.747V145.3h-1.079v-5.572l-1.144,5.572H300.8l-1.147-5.572V145.3Zm10.32,0V138.24h1.734l1.044,4.828,1.033-4.828h1.746V145.3h-1.078v-5.572l-1.145,5.572h-1.11l-1.146-5.572V145.3Zm10.331-7.065h1.157v3.822a9.3,9.3,0,0,0,.044,1.161,1.176,1.176,0,0,0,.369.722,1.289,1.289,0,0,0,1.428.073.9.9,0,0,0,.348-.5,6.113,6.113,0,0,0,.095-1.375v-3.9h1.157v3.709a9.892,9.892,0,0,1-.151,2.054,1.749,1.749,0,0,1-.681,1.027,2.287,2.287,0,0,1-1.4.394,2.6,2.6,0,0,1-1.409-.326,1.851,1.851,0,0,1-.733-.915,6.965,6.965,0,0,1-.227-2.176Zm9.455,7.065V138.24h1.126l2.362,4.718V138.24h1.078V145.3h-1.165l-2.324-4.607V145.3Zm9.367-7.065h1.157V145.3h-1.157Zm9.574,4.46,1.126.434a3.2,3.2,0,0,1-.875,1.74,2.17,2.17,0,0,1-1.5.55,2.229,2.229,0,0,1-1.823-.872,4.238,4.238,0,0,1-.8-2.717,4.452,4.452,0,0,1,.809-2.828,2.292,2.292,0,0,1,1.891-.887,2.168,2.168,0,0,1,1.619.667,2.885,2.885,0,0,1,.68,1.406l-1.146.335a1.573,1.573,0,0,0-.44-.878,1.1,1.1,0,0,0-.774-.306,1.233,1.233,0,0,0-1.04.558,3.22,3.22,0,0,0-.4,1.841,3.432,3.432,0,0,0,.393,1.895,1.192,1.192,0,0,0,1.018.562,1.053,1.053,0,0,0,.794-.359,2.3,2.3,0,0,0,.481-1.141m10.935,2.605H357.3l-.492-1.6H354.5l-.474,1.6h-1.236l2.236-7.065h1.238Zm-2.128-2.792-.8-2.624-.78,2.624Zm7.076,2.792v-5.871h-1.7V138.24h4.565v1.194h-1.7V145.3Zm7.2-7.065h1.157V145.3h-1.157Zm5.665,3.575a5.049,5.049,0,0,1,.37-2.077,2.806,2.806,0,0,1,.969-1.218,2.541,2.541,0,0,1,1.447-.4,2.472,2.472,0,0,1,2.011.95,4.157,4.157,0,0,1,.777,2.7,4.231,4.231,0,0,1-.823,2.77,2.639,2.639,0,0,1-3.93.009,4.18,4.18,0,0,1-.823-2.737m1.195-.048a3.006,3.006,0,0,0,.46,1.823,1.383,1.383,0,0,0,1.14.609,1.358,1.358,0,0,0,1.134-.6,3.089,3.089,0,0,0,.451-1.853,3.025,3.025,0,0,0-.437-1.811,1.367,1.367,0,0,0-1.148-.588,1.383,1.383,0,0,0-1.154.592,3.048,3.048,0,0,0-.446,1.832m8.938,3.538V138.24h1.126L390,142.958V138.24h1.078V145.3h-1.164L387.59,140.7V145.3Zm9.113-2.3,1.128-.139q.19,1.352,1.258,1.351a1.189,1.189,0,0,0,.831-.276.893.893,0,0,0,.3-.686.76.76,0,0,0-.106-.408.778.778,0,0,0-.322-.277,8.714,8.714,0,0,0-1.046-.363,3.573,3.573,0,0,1-1.087-.49,1.888,1.888,0,0,1-.547-.7,2.162,2.162,0,0,1-.2-.928,2.064,2.064,0,0,1,.261-1.039,1.719,1.719,0,0,1,.721-.7,2.491,2.491,0,0,1,1.138-.236,2.178,2.178,0,0,1,1.587.555,2.223,2.223,0,0,1,.6,1.587l-1.166.059a1.247,1.247,0,0,0-.333-.79,1.06,1.06,0,0,0-.726-.226,1.17,1.17,0,0,0-.725.2.585.585,0,0,0-.254.484.607.607,0,0,0,.232.481,3.415,3.415,0,0,0,1.061.435,4.384,4.384,0,0,1,1.266.541,1.847,1.847,0,0,1,.6.728,2.56,2.56,0,0,1,.206,1.082,2.226,2.226,0,0,1-.563,1.543,2.25,2.25,0,0,1-1.759.628q-2.115,0-2.354-2.418" transform="translate(-216.485 -107.138)" fill="#fff"/>
    <path id="Path_7731" data-name="Path 7731" d="M19.962,3.184a3.065,3.065,0,0,1,.6,1.032l8.318,16.377c2.512,5.038,5.28,10.215,7.8,15.258a18.961,18.961,0,0,1,1.09,2.266H2.324c.757-1.43,1.466-2.845,2.207-4.331l2.185-4.356c.777-1.34,1.484-2.894,2.2-4.335L18.3,6.51a29.022,29.022,0,0,0,1.664-3.326M0,39.58H40.183L32.638,24.752c-3.3-6.611-6.769-13.2-10.066-19.79L20.049,0a16.147,16.147,0,0,0-1.291,2.409L12.506,14.742c-.85,1.7-1.646,3.294-2.5,4.991L4.991,29.6,2.5,34.59q-.3.6-.6,1.2A36.845,36.845,0,0,0,0,39.58M17.467,11.1V36.912h5.076V11.1a39.728,39.728,0,0,0-1.864-3.9,4.315,4.315,0,0,0-.717-1.262c-.179.766-2.5,4.552-2.5,5.162m6.539,25.813h5.076V24.006c0-.384-3.866-7.756-4.674-9.437-.266-.555-.16-.455-.4-.544ZM10.928,24.006V36.912h5.078V14.024c-.308.224-5.078,9.839-5.078,9.982m19.7,12.906h5.077c-.208-.393-.4-.807-.6-1.2l-1.921-3.756c-.429-.857-.805-1.611-1.233-2.467a21.063,21.063,0,0,0-1.32-2.467Zm-26.244,0H9.379V27.017c-.014.015-.033.02-.038.048l-1.826,3.6c-.548,1.107-2.975,5.605-3.127,6.252" fill="#fff"/>
  </g>
</svg>
