<svg id="Group_3687" data-name="Group 3687" xmlns="http://www.w3.org/2000/svg" xmlns:xlink="http://www.w3.org/1999/xlink" width="183.813" height="47.034" viewBox="0 0 183.813 47.034">
  <defs>
    <clipPath id="clip-path">
      <rect id="Rectangle_2269" data-name="Rectangle 2269" width="183.813" height="47.034" fill="none"/>
    </clipPath>
  </defs>
  <g id="Group_3686" data-name="Group 3686" clip-path="url(#clip-path)">
    <path id="Path_7716" data-name="Path 7716" d="M11.178,1.909c6.517,0,9.066,4.66,9.066,8.265a7.773,7.773,0,0,1-4.806,7.136l5.644,12.926H15.11l-5.1-11.761H5.68V30.237H0V1.909ZM8.156,13.67c2.476,0,6.263.146,6.263-3.386,0-3.9-3.823-3.568-6.627-3.568H5.68V13.67Z" transform="translate(0 -1.472)" fill="#fff"/>
    <path id="Path_7717" data-name="Path 7717" d="M140.529,6.715H128.586v6.772h9.9v4.807h-9.9V25.43h12.635v4.806H122.906V1.909h17.623Z" transform="translate(-94.76 -1.472)" fill="#fff"/>
    <path id="Path_7718" data-name="Path 7718" d="M255.748,1.909V21.5c0,5.826-4.005,9.175-9.977,9.175S235.8,27.324,235.8,21.5V1.909h5.68V19.678c0,4.733,1.42,6.19,4.3,6.19s4.3-1.456,4.3-6.19V1.909Z" transform="translate(-181.797 -1.472)" fill="#fff"/>
    <path id="Path_7719" data-name="Path 7719" d="M370.5,6.715h-7.355V30.236h-5.68V6.715h-7.355V1.909H370.5Z" transform="translate(-269.937 -1.472)" fill="#fff"/>
    <path id="Path_7720" data-name="Path 7720" d="M484.6,6.715H472.658v6.772h9.9v4.807h-9.9V25.43h12.634v4.806H466.978V1.909H484.6Z" transform="translate(-360.038 -1.472)" fill="#fff"/>
    <path id="Path_7721" data-name="Path 7721" d="M600.474,19.845C599.6,25.67,595.7,29.2,589.806,29.2c-8.083,0-11.688-7.464-11.688-14.6S581.723,0,589.806,0c5.826,0,9.722,3.35,10.669,9.358l-5.389.728c-.546-2.949-1.857-5.607-5.28-5.607-4.879,0-5.862,6.481-5.862,10.122s.983,10.122,5.862,10.122c3.386,0,4.734-2.658,5.28-5.571Z" transform="translate(-445.727 -0.001)" fill="#fff"/>
    <path id="Path_7722" data-name="Path 7722" d="M745.383,50.243l-3.27,4.806h-5.325V50.243Z" transform="translate(-568.061 -38.737)" fill="#fff"/>
    <path id="Path_7723" data-name="Path 7723" d="M719.584,12.977l-3.27,4.806h-1.98V30.236h-5.68V1.908h5.68V12.977Z" transform="translate(-546.37 -1.471)" fill="#fff"/>
    <path id="Path_7724" data-name="Path 7724" d="M774.319,12.977V1.908H780V30.236h-5.68V12.977Z" transform="translate(-596.997 -1.471)" fill="#fff"/>
    <path id="Path_7725" data-name="Path 7725" d="M561.159,171.531v-5.8l-1.9,3.772h-1.313l-1.914-3.772v5.8H554.09v-9.947H556l2.6,5.379,2.585-5.379H563.1v9.947Z" transform="translate(-427.201 -124.581)" fill="#fff"/>
    <rect id="Rectangle_2267" data-name="Rectangle 2267" width="1.942" height="9.947" transform="translate(140.243 37.003)" fill="#fff"/>
    <path id="Path_7726" data-name="Path 7726" d="M645.736,171.531l-3.94-6.105v6.105h-1.942v-9.947h1.732l3.94,6.091v-6.091h1.942v9.947Z" transform="translate(-493.326 -124.581)" fill="#fff"/>
    <rect id="Rectangle_2268" data-name="Rectangle 2268" width="1.942" height="9.947" transform="translate(158.487 37.003)" fill="#fff"/>
    <path id="Path_7727" data-name="Path 7727" d="M725.4,171.531l-3.94-6.105v6.105H719.52v-9.947h1.732l3.94,6.091v-6.091h1.942v9.947Z" transform="translate(-554.747 -124.581)" fill="#fff"/>
    <path id="Path_7728" data-name="Path 7728" d="M776.74,170.2a3.969,3.969,0,0,1-5.463.084c-.992-.992-1.006-2.11-1.006-4.01s.014-3.017,1.006-4.009a3.822,3.822,0,0,1,6.4,2.137H775.72a1.677,1.677,0,0,0-1.788-1.453,1.637,1.637,0,0,0-1.243.531c-.363.419-.475.894-.475,2.794s.112,2.389.475,2.808a1.627,1.627,0,0,0,1.243.517,1.783,1.783,0,0,0,1.383-.559,1.914,1.914,0,0,0,.447-1.327v-.363h-1.83v-1.635h3.758v1.453a3.879,3.879,0,0,1-.95,3.032" transform="translate(-593.877 -124.298)" fill="#fff"/>
  </g>
</svg>
