<svg id="skywire" xmlns="http://www.w3.org/2000/svg" xmlns:xlink="http://www.w3.org/1999/xlink" width="141.004" height="50.217" viewBox="0 0 141.004 50.217">
  <defs>
    <clipPath id="clip-path">
      <rect id="Rectangle_2265" data-name="Rectangle 2265" width="141.004" height="50.217" fill="none"/>
    </clipPath>
  </defs>
  <g id="Group_3682" data-name="Group 3682" clip-path="url(#clip-path)">
    <path id="Path_7687" data-name="Path 7687" d="M23.649,15.122H30.3A15.04,15.04,0,0,0,15.245,0,15.059,15.059,0,0,0,0,15.122C0,20.855,2.824,23.7,5.348,27.466c2.8,4.184,5.6,7.667,5.6,7.667H18.9s-2.2-3.09-5.394-7.667c-2.893-4.15-6.935-8.558-6.935-12.411,0-5.191,4.867-8.6,8.679-8.6a8.639,8.639,0,0,1,8.4,8.666" fill="#fff"/>
    <path id="Path_7688" data-name="Path 7688" d="M6.651,108.246H0a15.04,15.04,0,0,0,15.056,15.122A15.059,15.059,0,0,0,30.3,108.246c0-5.733-2.824-8.577-5.348-12.344-2.8-4.184-5.6-7.667-5.6-7.667H11.405s2.2,3.09,5.394,7.667c2.893,4.15,6.935,8.558,6.935,12.411,0,5.191-4.867,8.6-8.679,8.6a8.639,8.639,0,0,1-8.4-8.666" transform="translate(0 -73.151)" fill="#fff"/>
    <path id="Path_7689" data-name="Path 7689" d="M243.848,106.823a8.826,8.826,0,0,1-7.411-3.646l2.9-2.672a6.612,6.612,0,0,0,5.287,2.388c2.123,0,3.354-.568,3.326-2.473-.016-1.109-1.307-1.535-3.212-2.132,0,0-4.673-.632-6.225-2.5a4.876,4.876,0,0,1-1.391-3.58c0-3.667,3.117-6.086,7.438-6.086a8.988,8.988,0,0,1,7.2,3.27l-2.928,2.786a6.324,6.324,0,0,0-4.519-2.132c-1.721,0-3.1.682-2.814,2.245.111.611.625.995,1.99,1.393l2.565.648a9.3,9.3,0,0,1,4.2,1.8,5.134,5.134,0,0,1,1.99,4.32c0,4.292-2.75,6.375-8.393,6.375" transform="translate(-196.017 -71.398)" fill="#fff"/>
    <path id="Path_7690" data-name="Path 7690" d="M349.917,104.07l-2.984-6.921-1.961,2.331v4.59h-3.951V85.126L345,83.136V94.2l3.144-5.3H353.7l-3.925,4.957,4.463,10.218Z" transform="translate(-282.722 -68.924)" fill="#fff"/>
    <path id="Path_7691" data-name="Path 7691" d="M428.708,133.8c-.31.874-1.443,3.553-1.443,3.553H423.2l2.046-5.344-5.912-15.19H423.8l3.439,10.187,3.382-10.187H435Z" transform="translate(-347.648 -96.853)" fill="#fff"/>
    <path id="Path_7692" data-name="Path 7692" d="M528.395,108.2h-4.034L521.385,94.91,518.19,108.2h-3.866l-4.207-20.083h4.309l2.257,12.537,2.955-12.537h3.5l3.127,12.537,2.189-12.537h4.269Z" transform="translate(-422.912 -73.052)" fill="#fff"/>
    <rect id="Rectangle_2263" data-name="Rectangle 2263" width="3.955" height="3.78" transform="translate(111.509 15.037)" fill="#fff"/>
    <rect id="Rectangle_2264" data-name="Rectangle 2264" width="3.955" height="15.192" transform="translate(111.509 19.954)" fill="#fff"/>
    <path id="Path_7693" data-name="Path 7693" d="M699.3,120.674a3.629,3.629,0,0,0-2.065-1.137,2.558,2.558,0,0,0-2.693,2.615V131h-4.025V115.821h3.912v1.139a3.774,3.774,0,0,1,3-1.345c1.495,0,2.217.17,3.013,1.184Z" transform="translate(-572.475 -95.849)" fill="#fff"/>
    <path id="Path_7694" data-name="Path 7694" d="M752.133,124.339a2.977,2.977,0,0,0,3.211,2.88,2.841,2.841,0,0,0,2.5-1.061l2.8,2.426c-1.551,1.551-2.6,2.388-5.42,2.388-3.676,0-7.125-1.819-7.125-7.839,0-4.44,2.769-7.851,6.746-7.851,3.948,0,6.367,3.562,6.367,7.428v1.63Zm4.823-4.1a2.573,2.573,0,0,0-2.182-1.511,2.7,2.7,0,0,0-2.257,1.511,2.727,2.727,0,0,0-.254,1.185h4.947a2.727,2.727,0,0,0-.254-1.185" transform="translate(-620.215 -95.573)" fill="#fff"/>
  </g>
</svg>
