<svg xmlns="http://www.w3.org/2000/svg" xmlns:xlink="http://www.w3.org/1999/xlink" width="237.272" height="34.243" viewBox="0 0 237.272 34.243">
  <defs>
    <clipPath id="clip-path">
      <rect id="Rectangle_2279" data-name="Rectangle 2279" width="237.272" height="34.243" fill="none"/>
    </clipPath>
  </defs>
  <g id="Group_3703" data-name="Group 3703" transform="translate(0 0)">
    <g id="Group_3702" data-name="Group 3702" transform="translate(0 0)" clip-path="url(#clip-path)">
      <path id="Path_8036" data-name="Path 8036" d="M24.732,5.761V8.828h8.016V26.392h3.271V8.828h8.016V5.761ZM55.989,25.523A5.666,5.666,0,0,0,58.5,21.53H55.459a2.937,2.937,0,0,1-1.489,1.856,6.423,6.423,0,0,1-3.138.648,7.262,7.262,0,0,1-1.973-.25,4.412,4.412,0,0,1-1.563-.75,3.5,3.5,0,0,1-1.387-2.861H58.73V19.2a7.33,7.33,0,0,0-2.137-5.734,8.539,8.539,0,0,0-5.938-1.93,8.288,8.288,0,0,0-5.8,1.871q-2.046,1.874-2.047,5.762a8.779,8.779,0,0,0,.561,3.238,6.391,6.391,0,0,0,1.591,2.374,6.92,6.92,0,0,0,2.509,1.458,10.214,10.214,0,0,0,3.3.5,9.79,9.79,0,0,0,5.214-1.219m-9.726-9.209a3.315,3.315,0,0,1,1.048-1.168,4.487,4.487,0,0,1,1.532-.663,7.976,7.976,0,0,1,1.841-.207,6.616,6.616,0,0,1,1.828.25,5.01,5.01,0,0,1,1.56.737,3.732,3.732,0,0,1,1.078,1.18,3.208,3.208,0,0,1,.4,1.606l-9.668-.031a3.536,3.536,0,0,1,.382-1.706m25.653-4.655H69.764a4.051,4.051,0,0,0-1.795.41,4.535,4.535,0,0,0-1.507,1.18,5.9,5.9,0,0,0-1.03,1.825,6.891,6.891,0,0,0-.385,2.358V11.686H61.777V26.392h3.3V19.437a13.889,13.889,0,0,1,.1-1.752,3.933,3.933,0,0,1,.472-1.489,2.572,2.572,0,0,1,1.119-1.03,4.475,4.475,0,0,1,2.019-.385h3.123Zm12.753,0H82.517a4.062,4.062,0,0,0-1.8.41,4.551,4.551,0,0,0-1.5,1.18,5.85,5.85,0,0,0-1.03,1.825,6.891,6.891,0,0,0-.385,2.358V11.686H74.529V26.392h3.3V19.437a14.383,14.383,0,0,1,.1-1.752A3.933,3.933,0,0,1,78.4,16.2a2.586,2.586,0,0,1,1.119-1.03,4.456,4.456,0,0,1,2.024-.385h3.123ZM94.984,26.571a8.457,8.457,0,0,0,2.46-.811,5.994,5.994,0,0,0,2.047-1.706,4.653,4.653,0,0,0,.854-2.935v5.247h3.126V18.022a6.931,6.931,0,0,0-.574-2.975,5.113,5.113,0,0,0-1.637-1.976,6.934,6.934,0,0,0-2.608-1.1,16.245,16.245,0,0,0-3.493-.339,16.919,16.919,0,0,0-2.98.25,7.814,7.814,0,0,0-2.506.869A4.7,4.7,0,0,0,87.95,14.4a4.8,4.8,0,0,0-.63,2.562h3.036a2.054,2.054,0,0,1,.484-1.428,3.223,3.223,0,0,1,1.224-.841,6,6,0,0,1,1.606-.382c.533-.056,1.071-.084,1.606-.087a14.823,14.823,0,0,1,1.68.1,6.341,6.341,0,0,1,1.621.4,3.133,3.133,0,0,1,1.224.854,2.221,2.221,0,0,1,.484,1.5v.5l-7.279.324a10.556,10.556,0,0,0-2.075.28,7.717,7.717,0,0,0-1.961.737,4.25,4.25,0,0,0-1.443,1.282,3.288,3.288,0,0,0-.563,1.943,3.888,3.888,0,0,0,.52,2.019,4.512,4.512,0,0,0,1.354,1.44,6.3,6.3,0,0,0,1.884.869,7.871,7.871,0,0,0,2.137.3,13.465,13.465,0,0,0,2.124-.207M92.6,24.212a4.151,4.151,0,0,1-1.163-.382,2.469,2.469,0,0,1-.854-.709,1.738,1.738,0,0,1-.339-1.089,1.087,1.087,0,0,1,.4-.869,3.235,3.235,0,0,1,1-.561,6.461,6.461,0,0,1,1.313-.324c.472-.069.913-.112,1.326-.133l6.07-.265V21a2.087,2.087,0,0,1-.691,1.606,5.241,5.241,0,0,1-1.7,1.015,9.826,9.826,0,0,1-2.121.546,13.827,13.827,0,0,1-1.973.163,7.067,7.067,0,0,1-1.27-.12M113.785,5.766V26.392h3.271V17.815h13.737V14.81H117.058V8.828h13.734V5.761ZM136.83,8.257a1.981,1.981,0,0,0,.561-1.43A1.971,1.971,0,0,0,136.83,5.4a1.891,1.891,0,0,0-1.412-.579,1.968,1.968,0,0,0-2.006,2,1.964,1.964,0,0,0,2.006,2,1.89,1.89,0,0,0,1.415-.576M133.8,26.392h3.3V11.686h-3.3Zm17.036-14.734H148.68a4.07,4.07,0,0,0-1.8.41,4.516,4.516,0,0,0-1.5,1.18,5.857,5.857,0,0,0-1.033,1.825,6.868,6.868,0,0,0-.382,2.358V11.686h-3.274V26.392h3.3V19.437a14.38,14.38,0,0,1,.1-1.752,3.978,3.978,0,0,1,.472-1.489,2.584,2.584,0,0,1,1.124-1.03,4.475,4.475,0,0,1,2.019-.385h3.123Zm5.915,6.807a4.332,4.332,0,0,1,.324-1.665,4.109,4.109,0,0,1,.9-1.356,4.041,4.041,0,0,1,1.4-.9,4.882,4.882,0,0,1,1.8-.326,3.252,3.252,0,0,1,2.547,1.076,3.908,3.908,0,0,1,.959,2.7v8.4h3.3V18.466a4.045,4.045,0,0,1,.339-1.652,4.275,4.275,0,0,1,.943-1.354,4.4,4.4,0,0,1,1.43-.931,4.711,4.711,0,0,1,1.8-.339,3.894,3.894,0,0,1,1.622.311,3.117,3.117,0,0,1,1.124.839,3.647,3.647,0,0,1,.663,1.211,4.7,4.7,0,0,1,.222,1.443v8.4h3.3V16.727a5.4,5.4,0,0,0-1.517-4.156,5.956,5.956,0,0,0-4.23-1.415,5.587,5.587,0,0,0-1.65.308,5.114,5.114,0,0,0-1.871,1.119,6.506,6.506,0,0,0-1.532,2.241,8.985,8.985,0,0,0-.635,3.641,9.2,9.2,0,0,0-.62-3.641,6.507,6.507,0,0,0-1.5-2.241,5.018,5.018,0,0,0-1.887-1.119,6.141,6.141,0,0,0-1.769-.308,5.3,5.3,0,0,0-1.591.308,5.07,5.07,0,0,0-1.8,1.076,6.315,6.315,0,0,0-1.458,2.063,7.843,7.843,0,0,0-.607,3.3V11.658h-3.3V26.392h3.3Zm33.71,8.1a8.457,8.457,0,0,0,2.46-.811,5.988,5.988,0,0,0,2.05-1.711,4.682,4.682,0,0,0,.854-2.932v5.247h3.123V18.022a6.856,6.856,0,0,0-.574-2.975,5.085,5.085,0,0,0-1.634-1.976,6.935,6.935,0,0,0-2.608-1.1,16.245,16.245,0,0,0-3.493-.339,16.891,16.891,0,0,0-2.978.25,7.754,7.754,0,0,0-2.506.869,4.7,4.7,0,0,0-1.726,1.65,4.834,4.834,0,0,0-.63,2.565h3.036a2.069,2.069,0,0,1,.487-1.428,3.214,3.214,0,0,1,1.221-.841,6.02,6.02,0,0,1,1.609-.382,16.05,16.05,0,0,1,1.6-.087,14.75,14.75,0,0,1,1.68.1,6.341,6.341,0,0,1,1.621.4,3.115,3.115,0,0,1,1.224.854,2.21,2.21,0,0,1,.487,1.5v.5l-7.281.324a10.556,10.556,0,0,0-2.075.28,7.7,7.7,0,0,0-1.958.737A4.232,4.232,0,0,0,183,20.207a3.3,3.3,0,0,0-.558,1.945,3.859,3.859,0,0,0,.518,2.017,4.553,4.553,0,0,0,1.349,1.44,6.286,6.286,0,0,0,1.887.869,7.871,7.871,0,0,0,2.137.3,13.434,13.434,0,0,0,2.121-.207M188.07,24.21a4.167,4.167,0,0,1-1.165-.382,2.522,2.522,0,0,1-.854-.709,1.738,1.738,0,0,1-.339-1.089,1.094,1.094,0,0,1,.4-.869,3.219,3.219,0,0,1,1-.561,6.438,6.438,0,0,1,1.31-.324c.472-.069.913-.112,1.326-.133l6.073-.265V21a2.089,2.089,0,0,1-.693,1.606,5.257,5.257,0,0,1-1.693,1.015,9.847,9.847,0,0,1-2.124.546,13.827,13.827,0,0,1-1.973.163,7.039,7.039,0,0,1-1.267-.12" transform="translate(38.323 7.467)" fill="#fff"/>
      <path id="Path_8037" data-name="Path 8037" d="M20.465,9.472A10.5,10.5,0,0,0,10.017,0H0V9.472Z" transform="translate(0 -0.001)" fill="#fff"/>
      <path id="Path_8038" data-name="Path 8038" d="M18.3,20.618V19.241A10.5,10.5,0,0,0,8.826,8.793V20.618Z" transform="translate(13.676 13.624)" fill="#fff"/>
      <path id="Path_8039" data-name="Path 8039" d="M8.826,9.472A10.5,10.5,0,0,1,19.274,0h8.951V9.472Z" transform="translate(13.676 -0.001)" fill="#fff"/>
      <path id="Path_8040" data-name="Path 8040" d="M8.826,13.93A10.5,10.5,0,0,1,19.274,4.458h8.951V13.93Z" transform="translate(13.676 6.907)" fill="#fff"/>
      <path id="Path_8041" data-name="Path 8041" d="M13.784,4.459A10.5,10.5,0,0,0,4.312,14.907V27.336h9.472Z" transform="translate(6.682 6.908)" fill="#fff"/>
    </g>
  </g>
</svg>
